G04 #@! TF.GenerationSoftware,KiCad,Pcbnew,8.0.0*
G04 #@! TF.CreationDate,2024-02-29T17:48:04-05:00*
G04 #@! TF.ProjectId,qsd2,71736432-2e6b-4696-9361-645f70636258,rev?*
G04 #@! TF.SameCoordinates,Original*
G04 #@! TF.FileFunction,Soldermask,Top*
G04 #@! TF.FilePolarity,Negative*
%FSLAX46Y46*%
G04 Gerber Fmt 4.6, Leading zero omitted, Abs format (unit mm)*
G04 Created by KiCad (PCBNEW 8.0.0) date 2024-02-29 17:48:04*
%MOMM*%
%LPD*%
G01*
G04 APERTURE LIST*
G04 Aperture macros list*
%AMRoundRect*
0 Rectangle with rounded corners*
0 $1 Rounding radius*
0 $2 $3 $4 $5 $6 $7 $8 $9 X,Y pos of 4 corners*
0 Add a 4 corners polygon primitive as box body*
4,1,4,$2,$3,$4,$5,$6,$7,$8,$9,$2,$3,0*
0 Add four circle primitives for the rounded corners*
1,1,$1+$1,$2,$3*
1,1,$1+$1,$4,$5*
1,1,$1+$1,$6,$7*
1,1,$1+$1,$8,$9*
0 Add four rect primitives between the rounded corners*
20,1,$1+$1,$2,$3,$4,$5,0*
20,1,$1+$1,$4,$5,$6,$7,0*
20,1,$1+$1,$6,$7,$8,$9,0*
20,1,$1+$1,$8,$9,$2,$3,0*%
%AMFreePoly0*
4,1,9,3.862500,-0.866500,0.737500,-0.866500,0.737500,-0.450000,-0.737500,-0.450000,-0.737500,0.450000,0.737500,0.450000,0.737500,0.866500,3.862500,0.866500,3.862500,-0.866500,3.862500,-0.866500,$1*%
G04 Aperture macros list end*
%ADD10R,1.749999X0.900001*%
%ADD11R,1.749999X3.200001*%
%ADD12RoundRect,0.250000X0.325000X0.650000X-0.325000X0.650000X-0.325000X-0.650000X0.325000X-0.650000X0*%
%ADD13RoundRect,0.250000X-0.325000X-0.650000X0.325000X-0.650000X0.325000X0.650000X-0.325000X0.650000X0*%
%ADD14RoundRect,0.250000X0.650000X-0.325000X0.650000X0.325000X-0.650000X0.325000X-0.650000X-0.325000X0*%
%ADD15RoundRect,0.250000X-0.650000X0.325000X-0.650000X-0.325000X0.650000X-0.325000X0.650000X0.325000X0*%
%ADD16RoundRect,0.250000X0.625000X-0.312500X0.625000X0.312500X-0.625000X0.312500X-0.625000X-0.312500X0*%
%ADD17RoundRect,0.250000X-0.312500X-0.625000X0.312500X-0.625000X0.312500X0.625000X-0.312500X0.625000X0*%
%ADD18RoundRect,0.250000X-0.625000X0.312500X-0.625000X-0.312500X0.625000X-0.312500X0.625000X0.312500X0*%
%ADD19RoundRect,0.250000X0.312500X0.625000X-0.312500X0.625000X-0.312500X-0.625000X0.312500X-0.625000X0*%
%ADD20RoundRect,0.250000X-0.600000X-0.600000X0.600000X-0.600000X0.600000X0.600000X-0.600000X0.600000X0*%
%ADD21C,1.700000*%
%ADD22R,2.540000X1.650000*%
%ADD23RoundRect,0.150000X0.512500X0.150000X-0.512500X0.150000X-0.512500X-0.150000X0.512500X-0.150000X0*%
%ADD24RoundRect,0.225000X-0.425000X-0.225000X0.425000X-0.225000X0.425000X0.225000X-0.425000X0.225000X0*%
%ADD25FreePoly0,0.000000*%
%ADD26RoundRect,0.100000X-0.100000X0.637500X-0.100000X-0.637500X0.100000X-0.637500X0.100000X0.637500X0*%
%ADD27R,1.981200X0.558800*%
%ADD28C,2.500000*%
%ADD29C,2.600000*%
%ADD30R,0.812800X0.889000*%
%ADD31RoundRect,0.100000X0.100000X-0.637500X0.100000X0.637500X-0.100000X0.637500X-0.100000X-0.637500X0*%
%ADD32R,2.200000X2.800000*%
%ADD33R,2.800000X2.800000*%
%ADD34R,2.600000X2.800000*%
%ADD35C,1.000000*%
%ADD36RoundRect,0.150000X-0.150000X0.512500X-0.150000X-0.512500X0.150000X-0.512500X0.150000X0.512500X0*%
G04 APERTURE END LIST*
D10*
X116275000Y-71625000D03*
X116275000Y-73925000D03*
X116275000Y-76225000D03*
D11*
X122525000Y-73925000D03*
D12*
X142350000Y-47000000D03*
X139400000Y-47000000D03*
D13*
X131025000Y-46150000D03*
X133975000Y-46150000D03*
D14*
X134500000Y-68625000D03*
X134500000Y-65675000D03*
D13*
X170425000Y-62425000D03*
X173375000Y-62425000D03*
X114020000Y-64710000D03*
X116970000Y-64710000D03*
X167775000Y-76900000D03*
X170725000Y-76900000D03*
X111600000Y-45362500D03*
X114550000Y-45362500D03*
X170600000Y-59475000D03*
X173550000Y-59475000D03*
X167725000Y-56600000D03*
X170675000Y-56600000D03*
D15*
X137700000Y-65700000D03*
X137700000Y-68650000D03*
D13*
X103175000Y-55400000D03*
X106125000Y-55400000D03*
D15*
X142050000Y-72975000D03*
X142050000Y-75925000D03*
D13*
X167575000Y-79600000D03*
X170525000Y-79600000D03*
X171450000Y-69125000D03*
X174400000Y-69125000D03*
X118325000Y-52150000D03*
X121275000Y-52150000D03*
X164950000Y-74100000D03*
X167900000Y-74100000D03*
D12*
X145747000Y-52197000D03*
X142797000Y-52197000D03*
D15*
X145150000Y-73000000D03*
X145150000Y-75950000D03*
D12*
X181475000Y-76875000D03*
X178525000Y-76875000D03*
D15*
X112050000Y-52100000D03*
X112050000Y-55050000D03*
D13*
X168400000Y-53075000D03*
X171350000Y-53075000D03*
D15*
X135300000Y-73000000D03*
X135300000Y-75950000D03*
X139000000Y-72975000D03*
X139000000Y-75925000D03*
X111100000Y-70295000D03*
X111100000Y-73245000D03*
X116300000Y-79000000D03*
X116300000Y-81950000D03*
D13*
X168600000Y-85700000D03*
X171550000Y-85700000D03*
D16*
X173925000Y-56000000D03*
X173925000Y-53075000D03*
D17*
X111087500Y-67600000D03*
X114012500Y-67600000D03*
X136487500Y-49950000D03*
X139412500Y-49950000D03*
X152587500Y-74200000D03*
X155512500Y-74200000D03*
D16*
X157100000Y-61500000D03*
X157100000Y-58575000D03*
X127600000Y-49475000D03*
X127600000Y-46550000D03*
D17*
X131025000Y-49950000D03*
X133950000Y-49950000D03*
D16*
X159925000Y-63437500D03*
X159925000Y-60512500D03*
D18*
X156700000Y-76737500D03*
X156700000Y-79662500D03*
D16*
X115275000Y-55050000D03*
X115275000Y-52125000D03*
X124325000Y-49475000D03*
X124325000Y-46550000D03*
D19*
X133112500Y-53400000D03*
X130187500Y-53400000D03*
X150052500Y-65913000D03*
X147127500Y-65913000D03*
X176025000Y-76900000D03*
X173100000Y-76900000D03*
D17*
X154262500Y-64125000D03*
X157187500Y-64125000D03*
X123987500Y-52150000D03*
X126912500Y-52150000D03*
D18*
X152550000Y-77500000D03*
X152550000Y-80425000D03*
D20*
X103210000Y-62500000D03*
D21*
X105750000Y-62500000D03*
X103210000Y-65040000D03*
X105750000Y-65040000D03*
X103210000Y-67580000D03*
X105750000Y-67580000D03*
X103210000Y-70120000D03*
X105750000Y-70120000D03*
X103210000Y-72660000D03*
X105750000Y-72660000D03*
X103210000Y-75200000D03*
X105750000Y-75200000D03*
X103210000Y-77740000D03*
X105750000Y-77740000D03*
X103210000Y-80280000D03*
X105750000Y-80280000D03*
D22*
X127820000Y-57000000D03*
X127820000Y-59540000D03*
X127820000Y-62080000D03*
X132900000Y-62080000D03*
X132900000Y-59540000D03*
X132900000Y-57000000D03*
D23*
X142883000Y-67601000D03*
X142883000Y-66651000D03*
X142883000Y-65701000D03*
X140608000Y-65701000D03*
X140608000Y-67601000D03*
D24*
X117825000Y-45375000D03*
D25*
X117912500Y-46875000D03*
D24*
X117825000Y-48375000D03*
D26*
X141108000Y-56613500D03*
X140458000Y-56613500D03*
X139808000Y-56613500D03*
X139158000Y-56613500D03*
X138508000Y-56613500D03*
X137858000Y-56613500D03*
X137208000Y-56613500D03*
X136558000Y-56613500D03*
X136558000Y-62338500D03*
X137208000Y-62338500D03*
X137858000Y-62338500D03*
X138508000Y-62338500D03*
X139158000Y-62338500D03*
X139808000Y-62338500D03*
X140458000Y-62338500D03*
X141108000Y-62338500D03*
D27*
X162822400Y-59875000D03*
X162822400Y-61145000D03*
X162822400Y-62415000D03*
X162822400Y-63685000D03*
X167750000Y-63685000D03*
X167750000Y-62415000D03*
X167750000Y-61145000D03*
X167750000Y-59875000D03*
D28*
X105135000Y-45137000D03*
D29*
X102495000Y-42672000D03*
X107575000Y-42672000D03*
X107575000Y-47752000D03*
X102495000Y-47752000D03*
D27*
X159975000Y-77050000D03*
X159975000Y-78320000D03*
X159975000Y-79590000D03*
X159975000Y-80860000D03*
X164902600Y-80860000D03*
X164902600Y-79590000D03*
X164902600Y-78320000D03*
X164902600Y-77050000D03*
D30*
X172284499Y-81732001D03*
X170234501Y-81732001D03*
X171259500Y-83622000D03*
D31*
X143933000Y-62308500D03*
X144583000Y-62308500D03*
X145233000Y-62308500D03*
X145883000Y-62308500D03*
X146533000Y-62308500D03*
X147183000Y-62308500D03*
X147833000Y-62308500D03*
X147833000Y-56583500D03*
X147183000Y-56583500D03*
X146533000Y-56583500D03*
X145883000Y-56583500D03*
X145233000Y-56583500D03*
X144583000Y-56583500D03*
X143933000Y-56583500D03*
D28*
X151230000Y-45137000D03*
D29*
X148590000Y-42672000D03*
X153670000Y-42672000D03*
X153670000Y-47752000D03*
X148590000Y-47752000D03*
D21*
X195051500Y-53450000D03*
X188051500Y-53450000D03*
D32*
X196151500Y-49750000D03*
D33*
X186751500Y-49750000D03*
D32*
X194151500Y-57150000D03*
D34*
X182751500Y-54200000D03*
D35*
X149633000Y-58526000D03*
D30*
X175141999Y-64975000D03*
X173092001Y-64975000D03*
X174117000Y-66864999D03*
D36*
X152108000Y-54326000D03*
X151158000Y-54326000D03*
X150208000Y-54326000D03*
X150208000Y-56601000D03*
X152108000Y-56601000D03*
D35*
X145303000Y-68386000D03*
M02*
