G04 #@! TF.GenerationSoftware,KiCad,Pcbnew,8.0.0*
G04 #@! TF.CreationDate,2024-02-29T17:48:04-05:00*
G04 #@! TF.ProjectId,qsd2,71736432-2e6b-4696-9361-645f70636258,rev?*
G04 #@! TF.SameCoordinates,Original*
G04 #@! TF.FileFunction,Legend,Top*
G04 #@! TF.FilePolarity,Positive*
%FSLAX46Y46*%
G04 Gerber Fmt 4.6, Leading zero omitted, Abs format (unit mm)*
G04 Created by KiCad (PCBNEW 8.0.0) date 2024-02-29 17:48:04*
%MOMM*%
%LPD*%
G01*
G04 APERTURE LIST*
%ADD10C,0.300000*%
%ADD11C,0.275000*%
%ADD12C,0.200000*%
%ADD13C,0.250000*%
%ADD14C,0.150000*%
%ADD15C,0.120000*%
%ADD16C,0.152400*%
%ADD17C,0.100000*%
%ADD18C,0.127000*%
G04 APERTURE END LIST*
D10*
X185254510Y-45200828D02*
X185254510Y-43700828D01*
X186968796Y-45343685D02*
X186825939Y-45272257D01*
X186825939Y-45272257D02*
X186683082Y-45129400D01*
X186683082Y-45129400D02*
X186468796Y-44915114D01*
X186468796Y-44915114D02*
X186325939Y-44843685D01*
X186325939Y-44843685D02*
X186183082Y-44843685D01*
X186254511Y-45200828D02*
X186111654Y-45129400D01*
X186111654Y-45129400D02*
X185968796Y-44986542D01*
X185968796Y-44986542D02*
X185897368Y-44700828D01*
X185897368Y-44700828D02*
X185897368Y-44200828D01*
X185897368Y-44200828D02*
X185968796Y-43915114D01*
X185968796Y-43915114D02*
X186111654Y-43772257D01*
X186111654Y-43772257D02*
X186254511Y-43700828D01*
X186254511Y-43700828D02*
X186540225Y-43700828D01*
X186540225Y-43700828D02*
X186683082Y-43772257D01*
X186683082Y-43772257D02*
X186825939Y-43915114D01*
X186825939Y-43915114D02*
X186897368Y-44200828D01*
X186897368Y-44200828D02*
X186897368Y-44700828D01*
X186897368Y-44700828D02*
X186825939Y-44986542D01*
X186825939Y-44986542D02*
X186683082Y-45129400D01*
X186683082Y-45129400D02*
X186540225Y-45200828D01*
X186540225Y-45200828D02*
X186254511Y-45200828D01*
X188968797Y-43700828D02*
X189254511Y-43700828D01*
X189254511Y-43700828D02*
X189397368Y-43772257D01*
X189397368Y-43772257D02*
X189540225Y-43915114D01*
X189540225Y-43915114D02*
X189611654Y-44200828D01*
X189611654Y-44200828D02*
X189611654Y-44700828D01*
X189611654Y-44700828D02*
X189540225Y-44986542D01*
X189540225Y-44986542D02*
X189397368Y-45129400D01*
X189397368Y-45129400D02*
X189254511Y-45200828D01*
X189254511Y-45200828D02*
X188968797Y-45200828D01*
X188968797Y-45200828D02*
X188825940Y-45129400D01*
X188825940Y-45129400D02*
X188683082Y-44986542D01*
X188683082Y-44986542D02*
X188611654Y-44700828D01*
X188611654Y-44700828D02*
X188611654Y-44200828D01*
X188611654Y-44200828D02*
X188683082Y-43915114D01*
X188683082Y-43915114D02*
X188825940Y-43772257D01*
X188825940Y-43772257D02*
X188968797Y-43700828D01*
X190254511Y-43700828D02*
X190254511Y-44915114D01*
X190254511Y-44915114D02*
X190325940Y-45057971D01*
X190325940Y-45057971D02*
X190397369Y-45129400D01*
X190397369Y-45129400D02*
X190540226Y-45200828D01*
X190540226Y-45200828D02*
X190825940Y-45200828D01*
X190825940Y-45200828D02*
X190968797Y-45129400D01*
X190968797Y-45129400D02*
X191040226Y-45057971D01*
X191040226Y-45057971D02*
X191111654Y-44915114D01*
X191111654Y-44915114D02*
X191111654Y-43700828D01*
X191611655Y-43700828D02*
X192468798Y-43700828D01*
X192040226Y-45200828D02*
X192040226Y-43700828D01*
X192968797Y-45200828D02*
X192968797Y-43700828D01*
X192968797Y-43700828D02*
X193540226Y-43700828D01*
X193540226Y-43700828D02*
X193683083Y-43772257D01*
X193683083Y-43772257D02*
X193754512Y-43843685D01*
X193754512Y-43843685D02*
X193825940Y-43986542D01*
X193825940Y-43986542D02*
X193825940Y-44200828D01*
X193825940Y-44200828D02*
X193754512Y-44343685D01*
X193754512Y-44343685D02*
X193683083Y-44415114D01*
X193683083Y-44415114D02*
X193540226Y-44486542D01*
X193540226Y-44486542D02*
X192968797Y-44486542D01*
X194468797Y-43700828D02*
X194468797Y-44915114D01*
X194468797Y-44915114D02*
X194540226Y-45057971D01*
X194540226Y-45057971D02*
X194611655Y-45129400D01*
X194611655Y-45129400D02*
X194754512Y-45200828D01*
X194754512Y-45200828D02*
X195040226Y-45200828D01*
X195040226Y-45200828D02*
X195183083Y-45129400D01*
X195183083Y-45129400D02*
X195254512Y-45057971D01*
X195254512Y-45057971D02*
X195325940Y-44915114D01*
X195325940Y-44915114D02*
X195325940Y-43700828D01*
X195825941Y-43700828D02*
X196683084Y-43700828D01*
X196254512Y-45200828D02*
X196254512Y-43700828D01*
D11*
X143837500Y-63700000D02*
G75*
G02*
X143562500Y-63700000I-137500J0D01*
G01*
X143562500Y-63700000D02*
G75*
G02*
X143837500Y-63700000I137500J0D01*
G01*
X162951500Y-58801000D02*
G75*
G02*
X162676500Y-58801000I-137500J0D01*
G01*
X162676500Y-58801000D02*
G75*
G02*
X162951500Y-58801000I137500J0D01*
G01*
X160030500Y-75819000D02*
G75*
G02*
X159755500Y-75819000I-137500J0D01*
G01*
X159755500Y-75819000D02*
G75*
G02*
X160030500Y-75819000I137500J0D01*
G01*
X141837500Y-55300000D02*
G75*
G02*
X141562500Y-55300000I-137500J0D01*
G01*
X141562500Y-55300000D02*
G75*
G02*
X141837500Y-55300000I137500J0D01*
G01*
D12*
X159772054Y-46044838D02*
X160438720Y-48044838D01*
X160438720Y-48044838D02*
X161105387Y-46044838D01*
X162819673Y-48044838D02*
X161676816Y-48044838D01*
X162248244Y-48044838D02*
X162248244Y-46044838D01*
X162248244Y-46044838D02*
X162057768Y-46330552D01*
X162057768Y-46330552D02*
X161867292Y-46521028D01*
X161867292Y-46521028D02*
X161676816Y-46616266D01*
X163676816Y-47854361D02*
X163772054Y-47949600D01*
X163772054Y-47949600D02*
X163676816Y-48044838D01*
X163676816Y-48044838D02*
X163581578Y-47949600D01*
X163581578Y-47949600D02*
X163676816Y-47854361D01*
X163676816Y-47854361D02*
X163676816Y-48044838D01*
X165676816Y-48044838D02*
X164533959Y-48044838D01*
X165105387Y-48044838D02*
X165105387Y-46044838D01*
X165105387Y-46044838D02*
X164914911Y-46330552D01*
X164914911Y-46330552D02*
X164724435Y-46521028D01*
X164724435Y-46521028D02*
X164533959Y-46616266D01*
X139755863Y-42173171D02*
X139684435Y-42244600D01*
X139684435Y-42244600D02*
X139470149Y-42316028D01*
X139470149Y-42316028D02*
X139327292Y-42316028D01*
X139327292Y-42316028D02*
X139113006Y-42244600D01*
X139113006Y-42244600D02*
X138970149Y-42101742D01*
X138970149Y-42101742D02*
X138898720Y-41958885D01*
X138898720Y-41958885D02*
X138827292Y-41673171D01*
X138827292Y-41673171D02*
X138827292Y-41458885D01*
X138827292Y-41458885D02*
X138898720Y-41173171D01*
X138898720Y-41173171D02*
X138970149Y-41030314D01*
X138970149Y-41030314D02*
X139113006Y-40887457D01*
X139113006Y-40887457D02*
X139327292Y-40816028D01*
X139327292Y-40816028D02*
X139470149Y-40816028D01*
X139470149Y-40816028D02*
X139684435Y-40887457D01*
X139684435Y-40887457D02*
X139755863Y-40958885D01*
X141113006Y-42316028D02*
X140398720Y-42316028D01*
X140398720Y-42316028D02*
X140398720Y-40816028D01*
X141613006Y-42316028D02*
X141613006Y-40816028D01*
X142470149Y-42316028D02*
X141827292Y-41458885D01*
X142470149Y-40816028D02*
X141613006Y-41673171D01*
X144255863Y-42316028D02*
X144255863Y-40816028D01*
X144970149Y-42316028D02*
X144970149Y-40816028D01*
X144970149Y-40816028D02*
X145827292Y-42316028D01*
X145827292Y-42316028D02*
X145827292Y-40816028D01*
X111024435Y-63126028D02*
X110167292Y-63126028D01*
X110595863Y-63126028D02*
X110595863Y-61626028D01*
X110595863Y-61626028D02*
X110453006Y-61840314D01*
X110453006Y-61840314D02*
X110310149Y-61983171D01*
X110310149Y-61983171D02*
X110167292Y-62054600D01*
X111595863Y-61768885D02*
X111667291Y-61697457D01*
X111667291Y-61697457D02*
X111810149Y-61626028D01*
X111810149Y-61626028D02*
X112167291Y-61626028D01*
X112167291Y-61626028D02*
X112310149Y-61697457D01*
X112310149Y-61697457D02*
X112381577Y-61768885D01*
X112381577Y-61768885D02*
X112453006Y-61911742D01*
X112453006Y-61911742D02*
X112453006Y-62054600D01*
X112453006Y-62054600D02*
X112381577Y-62268885D01*
X112381577Y-62268885D02*
X111524434Y-63126028D01*
X111524434Y-63126028D02*
X112453006Y-63126028D01*
X112881577Y-61626028D02*
X113381577Y-63126028D01*
X113381577Y-63126028D02*
X113881577Y-61626028D01*
D13*
X124704949Y-88142238D02*
X125847806Y-88142238D01*
X125276377Y-90142238D02*
X125276377Y-88142238D01*
X127371616Y-88808904D02*
X127371616Y-90142238D01*
X126895425Y-88047000D02*
X126419235Y-89475571D01*
X126419235Y-89475571D02*
X127657330Y-89475571D01*
X129466854Y-90142238D02*
X128323997Y-90142238D01*
X128895425Y-90142238D02*
X128895425Y-88142238D01*
X128895425Y-88142238D02*
X128704949Y-88427952D01*
X128704949Y-88427952D02*
X128514473Y-88618428D01*
X128514473Y-88618428D02*
X128323997Y-88713666D01*
X131847807Y-89094619D02*
X132514474Y-89094619D01*
X132800188Y-90142238D02*
X131847807Y-90142238D01*
X131847807Y-90142238D02*
X131847807Y-88142238D01*
X131847807Y-88142238D02*
X132800188Y-88142238D01*
X133466855Y-88142238D02*
X134800188Y-90142238D01*
X134800188Y-88142238D02*
X133466855Y-90142238D01*
X135562093Y-90142238D02*
X135562093Y-88142238D01*
X135562093Y-88142238D02*
X136323998Y-88142238D01*
X136323998Y-88142238D02*
X136514474Y-88237476D01*
X136514474Y-88237476D02*
X136609712Y-88332714D01*
X136609712Y-88332714D02*
X136704950Y-88523190D01*
X136704950Y-88523190D02*
X136704950Y-88808904D01*
X136704950Y-88808904D02*
X136609712Y-88999380D01*
X136609712Y-88999380D02*
X136514474Y-89094619D01*
X136514474Y-89094619D02*
X136323998Y-89189857D01*
X136323998Y-89189857D02*
X135562093Y-89189857D01*
X137562093Y-89094619D02*
X138228760Y-89094619D01*
X138514474Y-90142238D02*
X137562093Y-90142238D01*
X137562093Y-90142238D02*
X137562093Y-88142238D01*
X137562093Y-88142238D02*
X138514474Y-88142238D01*
X140514474Y-90142238D02*
X139847807Y-89189857D01*
X139371617Y-90142238D02*
X139371617Y-88142238D01*
X139371617Y-88142238D02*
X140133522Y-88142238D01*
X140133522Y-88142238D02*
X140323998Y-88237476D01*
X140323998Y-88237476D02*
X140419236Y-88332714D01*
X140419236Y-88332714D02*
X140514474Y-88523190D01*
X140514474Y-88523190D02*
X140514474Y-88808904D01*
X140514474Y-88808904D02*
X140419236Y-88999380D01*
X140419236Y-88999380D02*
X140323998Y-89094619D01*
X140323998Y-89094619D02*
X140133522Y-89189857D01*
X140133522Y-89189857D02*
X139371617Y-89189857D01*
X141371617Y-90142238D02*
X141371617Y-88142238D01*
X142323998Y-90142238D02*
X142323998Y-88142238D01*
X142323998Y-88142238D02*
X142990665Y-89570809D01*
X142990665Y-89570809D02*
X143657331Y-88142238D01*
X143657331Y-88142238D02*
X143657331Y-90142238D01*
X144609712Y-89094619D02*
X145276379Y-89094619D01*
X145562093Y-90142238D02*
X144609712Y-90142238D01*
X144609712Y-90142238D02*
X144609712Y-88142238D01*
X144609712Y-88142238D02*
X145562093Y-88142238D01*
X146419236Y-90142238D02*
X146419236Y-88142238D01*
X146419236Y-88142238D02*
X147562093Y-90142238D01*
X147562093Y-90142238D02*
X147562093Y-88142238D01*
X148228760Y-88142238D02*
X149371617Y-88142238D01*
X148800188Y-90142238D02*
X148800188Y-88142238D01*
X150038284Y-89094619D02*
X150704951Y-89094619D01*
X150990665Y-90142238D02*
X150038284Y-90142238D01*
X150038284Y-90142238D02*
X150038284Y-88142238D01*
X150038284Y-88142238D02*
X150990665Y-88142238D01*
X152990665Y-90142238D02*
X152323998Y-89189857D01*
X151847808Y-90142238D02*
X151847808Y-88142238D01*
X151847808Y-88142238D02*
X152609713Y-88142238D01*
X152609713Y-88142238D02*
X152800189Y-88237476D01*
X152800189Y-88237476D02*
X152895427Y-88332714D01*
X152895427Y-88332714D02*
X152990665Y-88523190D01*
X152990665Y-88523190D02*
X152990665Y-88808904D01*
X152990665Y-88808904D02*
X152895427Y-88999380D01*
X152895427Y-88999380D02*
X152800189Y-89094619D01*
X152800189Y-89094619D02*
X152609713Y-89189857D01*
X152609713Y-89189857D02*
X151847808Y-89189857D01*
X153752570Y-90047000D02*
X154038284Y-90142238D01*
X154038284Y-90142238D02*
X154514475Y-90142238D01*
X154514475Y-90142238D02*
X154704951Y-90047000D01*
X154704951Y-90047000D02*
X154800189Y-89951761D01*
X154800189Y-89951761D02*
X154895427Y-89761285D01*
X154895427Y-89761285D02*
X154895427Y-89570809D01*
X154895427Y-89570809D02*
X154800189Y-89380333D01*
X154800189Y-89380333D02*
X154704951Y-89285095D01*
X154704951Y-89285095D02*
X154514475Y-89189857D01*
X154514475Y-89189857D02*
X154133522Y-89094619D01*
X154133522Y-89094619D02*
X153943046Y-88999380D01*
X153943046Y-88999380D02*
X153847808Y-88904142D01*
X153847808Y-88904142D02*
X153752570Y-88713666D01*
X153752570Y-88713666D02*
X153752570Y-88523190D01*
X153752570Y-88523190D02*
X153847808Y-88332714D01*
X153847808Y-88332714D02*
X153943046Y-88237476D01*
X153943046Y-88237476D02*
X154133522Y-88142238D01*
X154133522Y-88142238D02*
X154609713Y-88142238D01*
X154609713Y-88142238D02*
X154895427Y-88237476D01*
X157276380Y-90142238D02*
X157276380Y-88142238D01*
X157276380Y-88142238D02*
X158038285Y-88142238D01*
X158038285Y-88142238D02*
X158228761Y-88237476D01*
X158228761Y-88237476D02*
X158323999Y-88332714D01*
X158323999Y-88332714D02*
X158419237Y-88523190D01*
X158419237Y-88523190D02*
X158419237Y-88808904D01*
X158419237Y-88808904D02*
X158323999Y-88999380D01*
X158323999Y-88999380D02*
X158228761Y-89094619D01*
X158228761Y-89094619D02*
X158038285Y-89189857D01*
X158038285Y-89189857D02*
X157276380Y-89189857D01*
X160228761Y-90142238D02*
X159276380Y-90142238D01*
X159276380Y-90142238D02*
X159276380Y-88142238D01*
X160800190Y-89570809D02*
X161752571Y-89570809D01*
X160609714Y-90142238D02*
X161276380Y-88142238D01*
X161276380Y-88142238D02*
X161943047Y-90142238D01*
X162324000Y-88142238D02*
X163466857Y-88142238D01*
X162895428Y-90142238D02*
X162895428Y-88142238D01*
X164800191Y-89094619D02*
X164133524Y-89094619D01*
X164133524Y-90142238D02*
X164133524Y-88142238D01*
X164133524Y-88142238D02*
X165085905Y-88142238D01*
X166228762Y-88142238D02*
X166609715Y-88142238D01*
X166609715Y-88142238D02*
X166800191Y-88237476D01*
X166800191Y-88237476D02*
X166990667Y-88427952D01*
X166990667Y-88427952D02*
X167085905Y-88808904D01*
X167085905Y-88808904D02*
X167085905Y-89475571D01*
X167085905Y-89475571D02*
X166990667Y-89856523D01*
X166990667Y-89856523D02*
X166800191Y-90047000D01*
X166800191Y-90047000D02*
X166609715Y-90142238D01*
X166609715Y-90142238D02*
X166228762Y-90142238D01*
X166228762Y-90142238D02*
X166038286Y-90047000D01*
X166038286Y-90047000D02*
X165847810Y-89856523D01*
X165847810Y-89856523D02*
X165752572Y-89475571D01*
X165752572Y-89475571D02*
X165752572Y-88808904D01*
X165752572Y-88808904D02*
X165847810Y-88427952D01*
X165847810Y-88427952D02*
X166038286Y-88237476D01*
X166038286Y-88237476D02*
X166228762Y-88142238D01*
X169085905Y-90142238D02*
X168419238Y-89189857D01*
X167943048Y-90142238D02*
X167943048Y-88142238D01*
X167943048Y-88142238D02*
X168704953Y-88142238D01*
X168704953Y-88142238D02*
X168895429Y-88237476D01*
X168895429Y-88237476D02*
X168990667Y-88332714D01*
X168990667Y-88332714D02*
X169085905Y-88523190D01*
X169085905Y-88523190D02*
X169085905Y-88808904D01*
X169085905Y-88808904D02*
X168990667Y-88999380D01*
X168990667Y-88999380D02*
X168895429Y-89094619D01*
X168895429Y-89094619D02*
X168704953Y-89189857D01*
X168704953Y-89189857D02*
X167943048Y-89189857D01*
X169943048Y-90142238D02*
X169943048Y-88142238D01*
X169943048Y-88142238D02*
X170609715Y-89570809D01*
X170609715Y-89570809D02*
X171276381Y-88142238D01*
X171276381Y-88142238D02*
X171276381Y-90142238D01*
X159878758Y-45055571D02*
X159593044Y-44912714D01*
X159593044Y-44912714D02*
X159307330Y-44627000D01*
X159307330Y-44627000D02*
X158878758Y-44198428D01*
X158878758Y-44198428D02*
X158593044Y-44055571D01*
X158593044Y-44055571D02*
X158307330Y-44055571D01*
X158450187Y-44769857D02*
X158164473Y-44627000D01*
X158164473Y-44627000D02*
X157878758Y-44341285D01*
X157878758Y-44341285D02*
X157735901Y-43769857D01*
X157735901Y-43769857D02*
X157735901Y-42769857D01*
X157735901Y-42769857D02*
X157878758Y-42198428D01*
X157878758Y-42198428D02*
X158164473Y-41912714D01*
X158164473Y-41912714D02*
X158450187Y-41769857D01*
X158450187Y-41769857D02*
X159021615Y-41769857D01*
X159021615Y-41769857D02*
X159307330Y-41912714D01*
X159307330Y-41912714D02*
X159593044Y-42198428D01*
X159593044Y-42198428D02*
X159735901Y-42769857D01*
X159735901Y-42769857D02*
X159735901Y-43769857D01*
X159735901Y-43769857D02*
X159593044Y-44341285D01*
X159593044Y-44341285D02*
X159307330Y-44627000D01*
X159307330Y-44627000D02*
X159021615Y-44769857D01*
X159021615Y-44769857D02*
X158450187Y-44769857D01*
X160878758Y-44627000D02*
X161307330Y-44769857D01*
X161307330Y-44769857D02*
X162021615Y-44769857D01*
X162021615Y-44769857D02*
X162307330Y-44627000D01*
X162307330Y-44627000D02*
X162450187Y-44484142D01*
X162450187Y-44484142D02*
X162593044Y-44198428D01*
X162593044Y-44198428D02*
X162593044Y-43912714D01*
X162593044Y-43912714D02*
X162450187Y-43627000D01*
X162450187Y-43627000D02*
X162307330Y-43484142D01*
X162307330Y-43484142D02*
X162021615Y-43341285D01*
X162021615Y-43341285D02*
X161450187Y-43198428D01*
X161450187Y-43198428D02*
X161164472Y-43055571D01*
X161164472Y-43055571D02*
X161021615Y-42912714D01*
X161021615Y-42912714D02*
X160878758Y-42627000D01*
X160878758Y-42627000D02*
X160878758Y-42341285D01*
X160878758Y-42341285D02*
X161021615Y-42055571D01*
X161021615Y-42055571D02*
X161164472Y-41912714D01*
X161164472Y-41912714D02*
X161450187Y-41769857D01*
X161450187Y-41769857D02*
X162164472Y-41769857D01*
X162164472Y-41769857D02*
X162593044Y-41912714D01*
X163878758Y-44769857D02*
X163878758Y-41769857D01*
X163878758Y-41769857D02*
X164593044Y-41769857D01*
X164593044Y-41769857D02*
X165021615Y-41912714D01*
X165021615Y-41912714D02*
X165307330Y-42198428D01*
X165307330Y-42198428D02*
X165450187Y-42484142D01*
X165450187Y-42484142D02*
X165593044Y-43055571D01*
X165593044Y-43055571D02*
X165593044Y-43484142D01*
X165593044Y-43484142D02*
X165450187Y-44055571D01*
X165450187Y-44055571D02*
X165307330Y-44341285D01*
X165307330Y-44341285D02*
X165021615Y-44627000D01*
X165021615Y-44627000D02*
X164593044Y-44769857D01*
X164593044Y-44769857D02*
X163878758Y-44769857D01*
X166735901Y-42055571D02*
X166878758Y-41912714D01*
X166878758Y-41912714D02*
X167164473Y-41769857D01*
X167164473Y-41769857D02*
X167878758Y-41769857D01*
X167878758Y-41769857D02*
X168164473Y-41912714D01*
X168164473Y-41912714D02*
X168307330Y-42055571D01*
X168307330Y-42055571D02*
X168450187Y-42341285D01*
X168450187Y-42341285D02*
X168450187Y-42627000D01*
X168450187Y-42627000D02*
X168307330Y-43055571D01*
X168307330Y-43055571D02*
X166593044Y-44769857D01*
X166593044Y-44769857D02*
X168450187Y-44769857D01*
D12*
X121253006Y-78756028D02*
X120538720Y-78756028D01*
X120538720Y-78756028D02*
X120467292Y-79470314D01*
X120467292Y-79470314D02*
X120538720Y-79398885D01*
X120538720Y-79398885D02*
X120681578Y-79327457D01*
X120681578Y-79327457D02*
X121038720Y-79327457D01*
X121038720Y-79327457D02*
X121181578Y-79398885D01*
X121181578Y-79398885D02*
X121253006Y-79470314D01*
X121253006Y-79470314D02*
X121324435Y-79613171D01*
X121324435Y-79613171D02*
X121324435Y-79970314D01*
X121324435Y-79970314D02*
X121253006Y-80113171D01*
X121253006Y-80113171D02*
X121181578Y-80184600D01*
X121181578Y-80184600D02*
X121038720Y-80256028D01*
X121038720Y-80256028D02*
X120681578Y-80256028D01*
X120681578Y-80256028D02*
X120538720Y-80184600D01*
X120538720Y-80184600D02*
X120467292Y-80113171D01*
X121753006Y-78756028D02*
X122253006Y-80256028D01*
X122253006Y-80256028D02*
X122753006Y-78756028D01*
D13*
X179828758Y-83519857D02*
X179828758Y-80519857D01*
X181543044Y-83519857D02*
X180257330Y-81805571D01*
X181543044Y-80519857D02*
X179828758Y-82234142D01*
X183828758Y-81948428D02*
X182828758Y-81948428D01*
X182828758Y-83519857D02*
X182828758Y-80519857D01*
X182828758Y-80519857D02*
X184257330Y-80519857D01*
X186828759Y-80519857D02*
X185400187Y-80519857D01*
X185400187Y-80519857D02*
X185257330Y-81948428D01*
X185257330Y-81948428D02*
X185400187Y-81805571D01*
X185400187Y-81805571D02*
X185685902Y-81662714D01*
X185685902Y-81662714D02*
X186400187Y-81662714D01*
X186400187Y-81662714D02*
X186685902Y-81805571D01*
X186685902Y-81805571D02*
X186828759Y-81948428D01*
X186828759Y-81948428D02*
X186971616Y-82234142D01*
X186971616Y-82234142D02*
X186971616Y-82948428D01*
X186971616Y-82948428D02*
X186828759Y-83234142D01*
X186828759Y-83234142D02*
X186685902Y-83377000D01*
X186685902Y-83377000D02*
X186400187Y-83519857D01*
X186400187Y-83519857D02*
X185685902Y-83519857D01*
X185685902Y-83519857D02*
X185400187Y-83377000D01*
X185400187Y-83377000D02*
X185257330Y-83234142D01*
X188257330Y-83519857D02*
X188257330Y-80519857D01*
X188257330Y-80519857D02*
X189971616Y-83519857D01*
X189971616Y-83519857D02*
X189971616Y-80519857D01*
D12*
X111105863Y-42316028D02*
X110605863Y-41601742D01*
X110248720Y-42316028D02*
X110248720Y-40816028D01*
X110248720Y-40816028D02*
X110820149Y-40816028D01*
X110820149Y-40816028D02*
X110963006Y-40887457D01*
X110963006Y-40887457D02*
X111034435Y-40958885D01*
X111034435Y-40958885D02*
X111105863Y-41101742D01*
X111105863Y-41101742D02*
X111105863Y-41316028D01*
X111105863Y-41316028D02*
X111034435Y-41458885D01*
X111034435Y-41458885D02*
X110963006Y-41530314D01*
X110963006Y-41530314D02*
X110820149Y-41601742D01*
X110820149Y-41601742D02*
X110248720Y-41601742D01*
X112248720Y-41530314D02*
X111748720Y-41530314D01*
X111748720Y-42316028D02*
X111748720Y-40816028D01*
X111748720Y-40816028D02*
X112463006Y-40816028D01*
X114177291Y-42316028D02*
X114177291Y-40816028D01*
X114891577Y-42316028D02*
X114891577Y-40816028D01*
X114891577Y-40816028D02*
X115748720Y-42316028D01*
X115748720Y-42316028D02*
X115748720Y-40816028D01*
X116463006Y-42316028D02*
X116463006Y-40816028D01*
X116463006Y-40816028D02*
X117034435Y-40816028D01*
X117034435Y-40816028D02*
X117177292Y-40887457D01*
X117177292Y-40887457D02*
X117248721Y-40958885D01*
X117248721Y-40958885D02*
X117320149Y-41101742D01*
X117320149Y-41101742D02*
X117320149Y-41316028D01*
X117320149Y-41316028D02*
X117248721Y-41458885D01*
X117248721Y-41458885D02*
X117177292Y-41530314D01*
X117177292Y-41530314D02*
X117034435Y-41601742D01*
X117034435Y-41601742D02*
X116463006Y-41601742D01*
X117963006Y-40816028D02*
X117963006Y-42030314D01*
X117963006Y-42030314D02*
X118034435Y-42173171D01*
X118034435Y-42173171D02*
X118105864Y-42244600D01*
X118105864Y-42244600D02*
X118248721Y-42316028D01*
X118248721Y-42316028D02*
X118534435Y-42316028D01*
X118534435Y-42316028D02*
X118677292Y-42244600D01*
X118677292Y-42244600D02*
X118748721Y-42173171D01*
X118748721Y-42173171D02*
X118820149Y-42030314D01*
X118820149Y-42030314D02*
X118820149Y-40816028D01*
X119320150Y-40816028D02*
X120177293Y-40816028D01*
X119748721Y-42316028D02*
X119748721Y-40816028D01*
D14*
X118638095Y-69154819D02*
X118638095Y-69964342D01*
X118638095Y-69964342D02*
X118685714Y-70059580D01*
X118685714Y-70059580D02*
X118733333Y-70107200D01*
X118733333Y-70107200D02*
X118828571Y-70154819D01*
X118828571Y-70154819D02*
X119019047Y-70154819D01*
X119019047Y-70154819D02*
X119114285Y-70107200D01*
X119114285Y-70107200D02*
X119161904Y-70059580D01*
X119161904Y-70059580D02*
X119209523Y-69964342D01*
X119209523Y-69964342D02*
X119209523Y-69154819D01*
X119733333Y-70154819D02*
X119923809Y-70154819D01*
X119923809Y-70154819D02*
X120019047Y-70107200D01*
X120019047Y-70107200D02*
X120066666Y-70059580D01*
X120066666Y-70059580D02*
X120161904Y-69916723D01*
X120161904Y-69916723D02*
X120209523Y-69726247D01*
X120209523Y-69726247D02*
X120209523Y-69345295D01*
X120209523Y-69345295D02*
X120161904Y-69250057D01*
X120161904Y-69250057D02*
X120114285Y-69202438D01*
X120114285Y-69202438D02*
X120019047Y-69154819D01*
X120019047Y-69154819D02*
X119828571Y-69154819D01*
X119828571Y-69154819D02*
X119733333Y-69202438D01*
X119733333Y-69202438D02*
X119685714Y-69250057D01*
X119685714Y-69250057D02*
X119638095Y-69345295D01*
X119638095Y-69345295D02*
X119638095Y-69583390D01*
X119638095Y-69583390D02*
X119685714Y-69678628D01*
X119685714Y-69678628D02*
X119733333Y-69726247D01*
X119733333Y-69726247D02*
X119828571Y-69773866D01*
X119828571Y-69773866D02*
X120019047Y-69773866D01*
X120019047Y-69773866D02*
X120114285Y-69726247D01*
X120114285Y-69726247D02*
X120161904Y-69678628D01*
X120161904Y-69678628D02*
X120209523Y-69583390D01*
X138783333Y-45459580D02*
X138735714Y-45507200D01*
X138735714Y-45507200D02*
X138592857Y-45554819D01*
X138592857Y-45554819D02*
X138497619Y-45554819D01*
X138497619Y-45554819D02*
X138354762Y-45507200D01*
X138354762Y-45507200D02*
X138259524Y-45411961D01*
X138259524Y-45411961D02*
X138211905Y-45316723D01*
X138211905Y-45316723D02*
X138164286Y-45126247D01*
X138164286Y-45126247D02*
X138164286Y-44983390D01*
X138164286Y-44983390D02*
X138211905Y-44792914D01*
X138211905Y-44792914D02*
X138259524Y-44697676D01*
X138259524Y-44697676D02*
X138354762Y-44602438D01*
X138354762Y-44602438D02*
X138497619Y-44554819D01*
X138497619Y-44554819D02*
X138592857Y-44554819D01*
X138592857Y-44554819D02*
X138735714Y-44602438D01*
X138735714Y-44602438D02*
X138783333Y-44650057D01*
X139640476Y-44554819D02*
X139450000Y-44554819D01*
X139450000Y-44554819D02*
X139354762Y-44602438D01*
X139354762Y-44602438D02*
X139307143Y-44650057D01*
X139307143Y-44650057D02*
X139211905Y-44792914D01*
X139211905Y-44792914D02*
X139164286Y-44983390D01*
X139164286Y-44983390D02*
X139164286Y-45364342D01*
X139164286Y-45364342D02*
X139211905Y-45459580D01*
X139211905Y-45459580D02*
X139259524Y-45507200D01*
X139259524Y-45507200D02*
X139354762Y-45554819D01*
X139354762Y-45554819D02*
X139545238Y-45554819D01*
X139545238Y-45554819D02*
X139640476Y-45507200D01*
X139640476Y-45507200D02*
X139688095Y-45459580D01*
X139688095Y-45459580D02*
X139735714Y-45364342D01*
X139735714Y-45364342D02*
X139735714Y-45126247D01*
X139735714Y-45126247D02*
X139688095Y-45031009D01*
X139688095Y-45031009D02*
X139640476Y-44983390D01*
X139640476Y-44983390D02*
X139545238Y-44935771D01*
X139545238Y-44935771D02*
X139354762Y-44935771D01*
X139354762Y-44935771D02*
X139259524Y-44983390D01*
X139259524Y-44983390D02*
X139211905Y-45031009D01*
X139211905Y-45031009D02*
X139164286Y-45126247D01*
X140707143Y-44554819D02*
X140802381Y-44554819D01*
X140802381Y-44554819D02*
X140897619Y-44602438D01*
X140897619Y-44602438D02*
X140945238Y-44650057D01*
X140945238Y-44650057D02*
X140992857Y-44745295D01*
X140992857Y-44745295D02*
X141040476Y-44935771D01*
X141040476Y-44935771D02*
X141040476Y-45173866D01*
X141040476Y-45173866D02*
X140992857Y-45364342D01*
X140992857Y-45364342D02*
X140945238Y-45459580D01*
X140945238Y-45459580D02*
X140897619Y-45507200D01*
X140897619Y-45507200D02*
X140802381Y-45554819D01*
X140802381Y-45554819D02*
X140707143Y-45554819D01*
X140707143Y-45554819D02*
X140611905Y-45507200D01*
X140611905Y-45507200D02*
X140564286Y-45459580D01*
X140564286Y-45459580D02*
X140516667Y-45364342D01*
X140516667Y-45364342D02*
X140469048Y-45173866D01*
X140469048Y-45173866D02*
X140469048Y-44935771D01*
X140469048Y-44935771D02*
X140516667Y-44745295D01*
X140516667Y-44745295D02*
X140564286Y-44650057D01*
X140564286Y-44650057D02*
X140611905Y-44602438D01*
X140611905Y-44602438D02*
X140707143Y-44554819D01*
X141469048Y-45459580D02*
X141516667Y-45507200D01*
X141516667Y-45507200D02*
X141469048Y-45554819D01*
X141469048Y-45554819D02*
X141421429Y-45507200D01*
X141421429Y-45507200D02*
X141469048Y-45459580D01*
X141469048Y-45459580D02*
X141469048Y-45554819D01*
X142469047Y-45554819D02*
X141897619Y-45554819D01*
X142183333Y-45554819D02*
X142183333Y-44554819D01*
X142183333Y-44554819D02*
X142088095Y-44697676D01*
X142088095Y-44697676D02*
X141992857Y-44792914D01*
X141992857Y-44792914D02*
X141897619Y-44840533D01*
X143326190Y-44888152D02*
X143326190Y-45554819D01*
X142897619Y-44888152D02*
X142897619Y-45411961D01*
X142897619Y-45411961D02*
X142945238Y-45507200D01*
X142945238Y-45507200D02*
X143040476Y-45554819D01*
X143040476Y-45554819D02*
X143183333Y-45554819D01*
X143183333Y-45554819D02*
X143278571Y-45507200D01*
X143278571Y-45507200D02*
X143326190Y-45459580D01*
X144135714Y-45031009D02*
X143802381Y-45031009D01*
X143802381Y-45554819D02*
X143802381Y-44554819D01*
X143802381Y-44554819D02*
X144278571Y-44554819D01*
X130433333Y-44659580D02*
X130385714Y-44707200D01*
X130385714Y-44707200D02*
X130242857Y-44754819D01*
X130242857Y-44754819D02*
X130147619Y-44754819D01*
X130147619Y-44754819D02*
X130004762Y-44707200D01*
X130004762Y-44707200D02*
X129909524Y-44611961D01*
X129909524Y-44611961D02*
X129861905Y-44516723D01*
X129861905Y-44516723D02*
X129814286Y-44326247D01*
X129814286Y-44326247D02*
X129814286Y-44183390D01*
X129814286Y-44183390D02*
X129861905Y-43992914D01*
X129861905Y-43992914D02*
X129909524Y-43897676D01*
X129909524Y-43897676D02*
X130004762Y-43802438D01*
X130004762Y-43802438D02*
X130147619Y-43754819D01*
X130147619Y-43754819D02*
X130242857Y-43754819D01*
X130242857Y-43754819D02*
X130385714Y-43802438D01*
X130385714Y-43802438D02*
X130433333Y-43850057D01*
X131338095Y-43754819D02*
X130861905Y-43754819D01*
X130861905Y-43754819D02*
X130814286Y-44231009D01*
X130814286Y-44231009D02*
X130861905Y-44183390D01*
X130861905Y-44183390D02*
X130957143Y-44135771D01*
X130957143Y-44135771D02*
X131195238Y-44135771D01*
X131195238Y-44135771D02*
X131290476Y-44183390D01*
X131290476Y-44183390D02*
X131338095Y-44231009D01*
X131338095Y-44231009D02*
X131385714Y-44326247D01*
X131385714Y-44326247D02*
X131385714Y-44564342D01*
X131385714Y-44564342D02*
X131338095Y-44659580D01*
X131338095Y-44659580D02*
X131290476Y-44707200D01*
X131290476Y-44707200D02*
X131195238Y-44754819D01*
X131195238Y-44754819D02*
X130957143Y-44754819D01*
X130957143Y-44754819D02*
X130861905Y-44707200D01*
X130861905Y-44707200D02*
X130814286Y-44659580D01*
X132557143Y-43754819D02*
X132652381Y-43754819D01*
X132652381Y-43754819D02*
X132747619Y-43802438D01*
X132747619Y-43802438D02*
X132795238Y-43850057D01*
X132795238Y-43850057D02*
X132842857Y-43945295D01*
X132842857Y-43945295D02*
X132890476Y-44135771D01*
X132890476Y-44135771D02*
X132890476Y-44373866D01*
X132890476Y-44373866D02*
X132842857Y-44564342D01*
X132842857Y-44564342D02*
X132795238Y-44659580D01*
X132795238Y-44659580D02*
X132747619Y-44707200D01*
X132747619Y-44707200D02*
X132652381Y-44754819D01*
X132652381Y-44754819D02*
X132557143Y-44754819D01*
X132557143Y-44754819D02*
X132461905Y-44707200D01*
X132461905Y-44707200D02*
X132414286Y-44659580D01*
X132414286Y-44659580D02*
X132366667Y-44564342D01*
X132366667Y-44564342D02*
X132319048Y-44373866D01*
X132319048Y-44373866D02*
X132319048Y-44135771D01*
X132319048Y-44135771D02*
X132366667Y-43945295D01*
X132366667Y-43945295D02*
X132414286Y-43850057D01*
X132414286Y-43850057D02*
X132461905Y-43802438D01*
X132461905Y-43802438D02*
X132557143Y-43754819D01*
X133319048Y-44659580D02*
X133366667Y-44707200D01*
X133366667Y-44707200D02*
X133319048Y-44754819D01*
X133319048Y-44754819D02*
X133271429Y-44707200D01*
X133271429Y-44707200D02*
X133319048Y-44659580D01*
X133319048Y-44659580D02*
X133319048Y-44754819D01*
X134319047Y-44754819D02*
X133747619Y-44754819D01*
X134033333Y-44754819D02*
X134033333Y-43754819D01*
X134033333Y-43754819D02*
X133938095Y-43897676D01*
X133938095Y-43897676D02*
X133842857Y-43992914D01*
X133842857Y-43992914D02*
X133747619Y-44040533D01*
X135176190Y-44088152D02*
X135176190Y-44754819D01*
X134747619Y-44088152D02*
X134747619Y-44611961D01*
X134747619Y-44611961D02*
X134795238Y-44707200D01*
X134795238Y-44707200D02*
X134890476Y-44754819D01*
X134890476Y-44754819D02*
X135033333Y-44754819D01*
X135033333Y-44754819D02*
X135128571Y-44707200D01*
X135128571Y-44707200D02*
X135176190Y-44659580D01*
X135985714Y-44231009D02*
X135652381Y-44231009D01*
X135652381Y-44754819D02*
X135652381Y-43754819D01*
X135652381Y-43754819D02*
X136128571Y-43754819D01*
X130957142Y-67459580D02*
X130909523Y-67507200D01*
X130909523Y-67507200D02*
X130766666Y-67554819D01*
X130766666Y-67554819D02*
X130671428Y-67554819D01*
X130671428Y-67554819D02*
X130528571Y-67507200D01*
X130528571Y-67507200D02*
X130433333Y-67411961D01*
X130433333Y-67411961D02*
X130385714Y-67316723D01*
X130385714Y-67316723D02*
X130338095Y-67126247D01*
X130338095Y-67126247D02*
X130338095Y-66983390D01*
X130338095Y-66983390D02*
X130385714Y-66792914D01*
X130385714Y-66792914D02*
X130433333Y-66697676D01*
X130433333Y-66697676D02*
X130528571Y-66602438D01*
X130528571Y-66602438D02*
X130671428Y-66554819D01*
X130671428Y-66554819D02*
X130766666Y-66554819D01*
X130766666Y-66554819D02*
X130909523Y-66602438D01*
X130909523Y-66602438D02*
X130957142Y-66650057D01*
X131909523Y-67554819D02*
X131338095Y-67554819D01*
X131623809Y-67554819D02*
X131623809Y-66554819D01*
X131623809Y-66554819D02*
X131528571Y-66697676D01*
X131528571Y-66697676D02*
X131433333Y-66792914D01*
X131433333Y-66792914D02*
X131338095Y-66840533D01*
X132766666Y-66888152D02*
X132766666Y-67554819D01*
X132528571Y-66507200D02*
X132290476Y-67221485D01*
X132290476Y-67221485D02*
X132909523Y-67221485D01*
X127804762Y-68150057D02*
X127852381Y-68102438D01*
X127852381Y-68102438D02*
X127947619Y-68054819D01*
X127947619Y-68054819D02*
X128185714Y-68054819D01*
X128185714Y-68054819D02*
X128280952Y-68102438D01*
X128280952Y-68102438D02*
X128328571Y-68150057D01*
X128328571Y-68150057D02*
X128376190Y-68245295D01*
X128376190Y-68245295D02*
X128376190Y-68340533D01*
X128376190Y-68340533D02*
X128328571Y-68483390D01*
X128328571Y-68483390D02*
X127757143Y-69054819D01*
X127757143Y-69054819D02*
X128376190Y-69054819D01*
X128757143Y-68150057D02*
X128804762Y-68102438D01*
X128804762Y-68102438D02*
X128900000Y-68054819D01*
X128900000Y-68054819D02*
X129138095Y-68054819D01*
X129138095Y-68054819D02*
X129233333Y-68102438D01*
X129233333Y-68102438D02*
X129280952Y-68150057D01*
X129280952Y-68150057D02*
X129328571Y-68245295D01*
X129328571Y-68245295D02*
X129328571Y-68340533D01*
X129328571Y-68340533D02*
X129280952Y-68483390D01*
X129280952Y-68483390D02*
X128709524Y-69054819D01*
X128709524Y-69054819D02*
X129328571Y-69054819D01*
X129947619Y-68054819D02*
X130042857Y-68054819D01*
X130042857Y-68054819D02*
X130138095Y-68102438D01*
X130138095Y-68102438D02*
X130185714Y-68150057D01*
X130185714Y-68150057D02*
X130233333Y-68245295D01*
X130233333Y-68245295D02*
X130280952Y-68435771D01*
X130280952Y-68435771D02*
X130280952Y-68673866D01*
X130280952Y-68673866D02*
X130233333Y-68864342D01*
X130233333Y-68864342D02*
X130185714Y-68959580D01*
X130185714Y-68959580D02*
X130138095Y-69007200D01*
X130138095Y-69007200D02*
X130042857Y-69054819D01*
X130042857Y-69054819D02*
X129947619Y-69054819D01*
X129947619Y-69054819D02*
X129852381Y-69007200D01*
X129852381Y-69007200D02*
X129804762Y-68959580D01*
X129804762Y-68959580D02*
X129757143Y-68864342D01*
X129757143Y-68864342D02*
X129709524Y-68673866D01*
X129709524Y-68673866D02*
X129709524Y-68435771D01*
X129709524Y-68435771D02*
X129757143Y-68245295D01*
X129757143Y-68245295D02*
X129804762Y-68150057D01*
X129804762Y-68150057D02*
X129852381Y-68102438D01*
X129852381Y-68102438D02*
X129947619Y-68054819D01*
X130900000Y-68054819D02*
X130995238Y-68054819D01*
X130995238Y-68054819D02*
X131090476Y-68102438D01*
X131090476Y-68102438D02*
X131138095Y-68150057D01*
X131138095Y-68150057D02*
X131185714Y-68245295D01*
X131185714Y-68245295D02*
X131233333Y-68435771D01*
X131233333Y-68435771D02*
X131233333Y-68673866D01*
X131233333Y-68673866D02*
X131185714Y-68864342D01*
X131185714Y-68864342D02*
X131138095Y-68959580D01*
X131138095Y-68959580D02*
X131090476Y-69007200D01*
X131090476Y-69007200D02*
X130995238Y-69054819D01*
X130995238Y-69054819D02*
X130900000Y-69054819D01*
X130900000Y-69054819D02*
X130804762Y-69007200D01*
X130804762Y-69007200D02*
X130757143Y-68959580D01*
X130757143Y-68959580D02*
X130709524Y-68864342D01*
X130709524Y-68864342D02*
X130661905Y-68673866D01*
X130661905Y-68673866D02*
X130661905Y-68435771D01*
X130661905Y-68435771D02*
X130709524Y-68245295D01*
X130709524Y-68245295D02*
X130757143Y-68150057D01*
X130757143Y-68150057D02*
X130804762Y-68102438D01*
X130804762Y-68102438D02*
X130900000Y-68054819D01*
X131661905Y-68388152D02*
X131661905Y-69388152D01*
X131661905Y-68435771D02*
X131757143Y-68388152D01*
X131757143Y-68388152D02*
X131947619Y-68388152D01*
X131947619Y-68388152D02*
X132042857Y-68435771D01*
X132042857Y-68435771D02*
X132090476Y-68483390D01*
X132090476Y-68483390D02*
X132138095Y-68578628D01*
X132138095Y-68578628D02*
X132138095Y-68864342D01*
X132138095Y-68864342D02*
X132090476Y-68959580D01*
X132090476Y-68959580D02*
X132042857Y-69007200D01*
X132042857Y-69007200D02*
X131947619Y-69054819D01*
X131947619Y-69054819D02*
X131757143Y-69054819D01*
X131757143Y-69054819D02*
X131661905Y-69007200D01*
X132900000Y-68531009D02*
X132566667Y-68531009D01*
X132566667Y-69054819D02*
X132566667Y-68054819D01*
X132566667Y-68054819D02*
X133042857Y-68054819D01*
X175125142Y-62843580D02*
X175077523Y-62891200D01*
X175077523Y-62891200D02*
X174934666Y-62938819D01*
X174934666Y-62938819D02*
X174839428Y-62938819D01*
X174839428Y-62938819D02*
X174696571Y-62891200D01*
X174696571Y-62891200D02*
X174601333Y-62795961D01*
X174601333Y-62795961D02*
X174553714Y-62700723D01*
X174553714Y-62700723D02*
X174506095Y-62510247D01*
X174506095Y-62510247D02*
X174506095Y-62367390D01*
X174506095Y-62367390D02*
X174553714Y-62176914D01*
X174553714Y-62176914D02*
X174601333Y-62081676D01*
X174601333Y-62081676D02*
X174696571Y-61986438D01*
X174696571Y-61986438D02*
X174839428Y-61938819D01*
X174839428Y-61938819D02*
X174934666Y-61938819D01*
X174934666Y-61938819D02*
X175077523Y-61986438D01*
X175077523Y-61986438D02*
X175125142Y-62034057D01*
X175506095Y-62034057D02*
X175553714Y-61986438D01*
X175553714Y-61986438D02*
X175648952Y-61938819D01*
X175648952Y-61938819D02*
X175887047Y-61938819D01*
X175887047Y-61938819D02*
X175982285Y-61986438D01*
X175982285Y-61986438D02*
X176029904Y-62034057D01*
X176029904Y-62034057D02*
X176077523Y-62129295D01*
X176077523Y-62129295D02*
X176077523Y-62224533D01*
X176077523Y-62224533D02*
X176029904Y-62367390D01*
X176029904Y-62367390D02*
X175458476Y-62938819D01*
X175458476Y-62938819D02*
X176077523Y-62938819D01*
X176410857Y-61938819D02*
X177077523Y-61938819D01*
X177077523Y-61938819D02*
X176648952Y-62938819D01*
X178474761Y-62938819D02*
X177903333Y-62938819D01*
X178189047Y-62938819D02*
X178189047Y-61938819D01*
X178189047Y-61938819D02*
X178093809Y-62081676D01*
X178093809Y-62081676D02*
X177998571Y-62176914D01*
X177998571Y-62176914D02*
X177903333Y-62224533D01*
X179331904Y-62272152D02*
X179331904Y-62938819D01*
X178903333Y-62272152D02*
X178903333Y-62795961D01*
X178903333Y-62795961D02*
X178950952Y-62891200D01*
X178950952Y-62891200D02*
X179046190Y-62938819D01*
X179046190Y-62938819D02*
X179189047Y-62938819D01*
X179189047Y-62938819D02*
X179284285Y-62891200D01*
X179284285Y-62891200D02*
X179331904Y-62843580D01*
X180141428Y-62415009D02*
X179808095Y-62415009D01*
X179808095Y-62938819D02*
X179808095Y-61938819D01*
X179808095Y-61938819D02*
X180284285Y-61938819D01*
X118913333Y-64169580D02*
X118865714Y-64217200D01*
X118865714Y-64217200D02*
X118722857Y-64264819D01*
X118722857Y-64264819D02*
X118627619Y-64264819D01*
X118627619Y-64264819D02*
X118484762Y-64217200D01*
X118484762Y-64217200D02*
X118389524Y-64121961D01*
X118389524Y-64121961D02*
X118341905Y-64026723D01*
X118341905Y-64026723D02*
X118294286Y-63836247D01*
X118294286Y-63836247D02*
X118294286Y-63693390D01*
X118294286Y-63693390D02*
X118341905Y-63502914D01*
X118341905Y-63502914D02*
X118389524Y-63407676D01*
X118389524Y-63407676D02*
X118484762Y-63312438D01*
X118484762Y-63312438D02*
X118627619Y-63264819D01*
X118627619Y-63264819D02*
X118722857Y-63264819D01*
X118722857Y-63264819D02*
X118865714Y-63312438D01*
X118865714Y-63312438D02*
X118913333Y-63360057D01*
X119246667Y-63264819D02*
X119913333Y-63264819D01*
X119913333Y-63264819D02*
X119484762Y-64264819D01*
X118898571Y-65704819D02*
X118327143Y-65704819D01*
X118612857Y-65704819D02*
X118612857Y-64704819D01*
X118612857Y-64704819D02*
X118517619Y-64847676D01*
X118517619Y-64847676D02*
X118422381Y-64942914D01*
X118422381Y-64942914D02*
X118327143Y-64990533D01*
X119517619Y-64704819D02*
X119612857Y-64704819D01*
X119612857Y-64704819D02*
X119708095Y-64752438D01*
X119708095Y-64752438D02*
X119755714Y-64800057D01*
X119755714Y-64800057D02*
X119803333Y-64895295D01*
X119803333Y-64895295D02*
X119850952Y-65085771D01*
X119850952Y-65085771D02*
X119850952Y-65323866D01*
X119850952Y-65323866D02*
X119803333Y-65514342D01*
X119803333Y-65514342D02*
X119755714Y-65609580D01*
X119755714Y-65609580D02*
X119708095Y-65657200D01*
X119708095Y-65657200D02*
X119612857Y-65704819D01*
X119612857Y-65704819D02*
X119517619Y-65704819D01*
X119517619Y-65704819D02*
X119422381Y-65657200D01*
X119422381Y-65657200D02*
X119374762Y-65609580D01*
X119374762Y-65609580D02*
X119327143Y-65514342D01*
X119327143Y-65514342D02*
X119279524Y-65323866D01*
X119279524Y-65323866D02*
X119279524Y-65085771D01*
X119279524Y-65085771D02*
X119327143Y-64895295D01*
X119327143Y-64895295D02*
X119374762Y-64800057D01*
X119374762Y-64800057D02*
X119422381Y-64752438D01*
X119422381Y-64752438D02*
X119517619Y-64704819D01*
X120708095Y-65038152D02*
X120708095Y-65704819D01*
X120279524Y-65038152D02*
X120279524Y-65561961D01*
X120279524Y-65561961D02*
X120327143Y-65657200D01*
X120327143Y-65657200D02*
X120422381Y-65704819D01*
X120422381Y-65704819D02*
X120565238Y-65704819D01*
X120565238Y-65704819D02*
X120660476Y-65657200D01*
X120660476Y-65657200D02*
X120708095Y-65609580D01*
X121517619Y-65181009D02*
X121184286Y-65181009D01*
X121184286Y-65704819D02*
X121184286Y-64704819D01*
X121184286Y-64704819D02*
X121660476Y-64704819D01*
X169907142Y-74284580D02*
X169859523Y-74332200D01*
X169859523Y-74332200D02*
X169716666Y-74379819D01*
X169716666Y-74379819D02*
X169621428Y-74379819D01*
X169621428Y-74379819D02*
X169478571Y-74332200D01*
X169478571Y-74332200D02*
X169383333Y-74236961D01*
X169383333Y-74236961D02*
X169335714Y-74141723D01*
X169335714Y-74141723D02*
X169288095Y-73951247D01*
X169288095Y-73951247D02*
X169288095Y-73808390D01*
X169288095Y-73808390D02*
X169335714Y-73617914D01*
X169335714Y-73617914D02*
X169383333Y-73522676D01*
X169383333Y-73522676D02*
X169478571Y-73427438D01*
X169478571Y-73427438D02*
X169621428Y-73379819D01*
X169621428Y-73379819D02*
X169716666Y-73379819D01*
X169716666Y-73379819D02*
X169859523Y-73427438D01*
X169859523Y-73427438D02*
X169907142Y-73475057D01*
X170240476Y-73379819D02*
X170859523Y-73379819D01*
X170859523Y-73379819D02*
X170526190Y-73760771D01*
X170526190Y-73760771D02*
X170669047Y-73760771D01*
X170669047Y-73760771D02*
X170764285Y-73808390D01*
X170764285Y-73808390D02*
X170811904Y-73856009D01*
X170811904Y-73856009D02*
X170859523Y-73951247D01*
X170859523Y-73951247D02*
X170859523Y-74189342D01*
X170859523Y-74189342D02*
X170811904Y-74284580D01*
X170811904Y-74284580D02*
X170764285Y-74332200D01*
X170764285Y-74332200D02*
X170669047Y-74379819D01*
X170669047Y-74379819D02*
X170383333Y-74379819D01*
X170383333Y-74379819D02*
X170288095Y-74332200D01*
X170288095Y-74332200D02*
X170240476Y-74284580D01*
X171478571Y-73379819D02*
X171573809Y-73379819D01*
X171573809Y-73379819D02*
X171669047Y-73427438D01*
X171669047Y-73427438D02*
X171716666Y-73475057D01*
X171716666Y-73475057D02*
X171764285Y-73570295D01*
X171764285Y-73570295D02*
X171811904Y-73760771D01*
X171811904Y-73760771D02*
X171811904Y-73998866D01*
X171811904Y-73998866D02*
X171764285Y-74189342D01*
X171764285Y-74189342D02*
X171716666Y-74284580D01*
X171716666Y-74284580D02*
X171669047Y-74332200D01*
X171669047Y-74332200D02*
X171573809Y-74379819D01*
X171573809Y-74379819D02*
X171478571Y-74379819D01*
X171478571Y-74379819D02*
X171383333Y-74332200D01*
X171383333Y-74332200D02*
X171335714Y-74284580D01*
X171335714Y-74284580D02*
X171288095Y-74189342D01*
X171288095Y-74189342D02*
X171240476Y-73998866D01*
X171240476Y-73998866D02*
X171240476Y-73760771D01*
X171240476Y-73760771D02*
X171288095Y-73570295D01*
X171288095Y-73570295D02*
X171335714Y-73475057D01*
X171335714Y-73475057D02*
X171383333Y-73427438D01*
X171383333Y-73427438D02*
X171478571Y-73379819D01*
X169528571Y-75654819D02*
X168957143Y-75654819D01*
X169242857Y-75654819D02*
X169242857Y-74654819D01*
X169242857Y-74654819D02*
X169147619Y-74797676D01*
X169147619Y-74797676D02*
X169052381Y-74892914D01*
X169052381Y-74892914D02*
X168957143Y-74940533D01*
X170147619Y-74654819D02*
X170242857Y-74654819D01*
X170242857Y-74654819D02*
X170338095Y-74702438D01*
X170338095Y-74702438D02*
X170385714Y-74750057D01*
X170385714Y-74750057D02*
X170433333Y-74845295D01*
X170433333Y-74845295D02*
X170480952Y-75035771D01*
X170480952Y-75035771D02*
X170480952Y-75273866D01*
X170480952Y-75273866D02*
X170433333Y-75464342D01*
X170433333Y-75464342D02*
X170385714Y-75559580D01*
X170385714Y-75559580D02*
X170338095Y-75607200D01*
X170338095Y-75607200D02*
X170242857Y-75654819D01*
X170242857Y-75654819D02*
X170147619Y-75654819D01*
X170147619Y-75654819D02*
X170052381Y-75607200D01*
X170052381Y-75607200D02*
X170004762Y-75559580D01*
X170004762Y-75559580D02*
X169957143Y-75464342D01*
X169957143Y-75464342D02*
X169909524Y-75273866D01*
X169909524Y-75273866D02*
X169909524Y-75035771D01*
X169909524Y-75035771D02*
X169957143Y-74845295D01*
X169957143Y-74845295D02*
X170004762Y-74750057D01*
X170004762Y-74750057D02*
X170052381Y-74702438D01*
X170052381Y-74702438D02*
X170147619Y-74654819D01*
X171338095Y-74988152D02*
X171338095Y-75654819D01*
X170909524Y-74988152D02*
X170909524Y-75511961D01*
X170909524Y-75511961D02*
X170957143Y-75607200D01*
X170957143Y-75607200D02*
X171052381Y-75654819D01*
X171052381Y-75654819D02*
X171195238Y-75654819D01*
X171195238Y-75654819D02*
X171290476Y-75607200D01*
X171290476Y-75607200D02*
X171338095Y-75559580D01*
X172147619Y-75131009D02*
X171814286Y-75131009D01*
X171814286Y-75654819D02*
X171814286Y-74654819D01*
X171814286Y-74654819D02*
X172290476Y-74654819D01*
X110443333Y-47629580D02*
X110395714Y-47677200D01*
X110395714Y-47677200D02*
X110252857Y-47724819D01*
X110252857Y-47724819D02*
X110157619Y-47724819D01*
X110157619Y-47724819D02*
X110014762Y-47677200D01*
X110014762Y-47677200D02*
X109919524Y-47581961D01*
X109919524Y-47581961D02*
X109871905Y-47486723D01*
X109871905Y-47486723D02*
X109824286Y-47296247D01*
X109824286Y-47296247D02*
X109824286Y-47153390D01*
X109824286Y-47153390D02*
X109871905Y-46962914D01*
X109871905Y-46962914D02*
X109919524Y-46867676D01*
X109919524Y-46867676D02*
X110014762Y-46772438D01*
X110014762Y-46772438D02*
X110157619Y-46724819D01*
X110157619Y-46724819D02*
X110252857Y-46724819D01*
X110252857Y-46724819D02*
X110395714Y-46772438D01*
X110395714Y-46772438D02*
X110443333Y-46820057D01*
X110824286Y-46820057D02*
X110871905Y-46772438D01*
X110871905Y-46772438D02*
X110967143Y-46724819D01*
X110967143Y-46724819D02*
X111205238Y-46724819D01*
X111205238Y-46724819D02*
X111300476Y-46772438D01*
X111300476Y-46772438D02*
X111348095Y-46820057D01*
X111348095Y-46820057D02*
X111395714Y-46915295D01*
X111395714Y-46915295D02*
X111395714Y-47010533D01*
X111395714Y-47010533D02*
X111348095Y-47153390D01*
X111348095Y-47153390D02*
X110776667Y-47724819D01*
X110776667Y-47724819D02*
X111395714Y-47724819D01*
X112320952Y-46744819D02*
X112416190Y-46744819D01*
X112416190Y-46744819D02*
X112511428Y-46792438D01*
X112511428Y-46792438D02*
X112559047Y-46840057D01*
X112559047Y-46840057D02*
X112606666Y-46935295D01*
X112606666Y-46935295D02*
X112654285Y-47125771D01*
X112654285Y-47125771D02*
X112654285Y-47363866D01*
X112654285Y-47363866D02*
X112606666Y-47554342D01*
X112606666Y-47554342D02*
X112559047Y-47649580D01*
X112559047Y-47649580D02*
X112511428Y-47697200D01*
X112511428Y-47697200D02*
X112416190Y-47744819D01*
X112416190Y-47744819D02*
X112320952Y-47744819D01*
X112320952Y-47744819D02*
X112225714Y-47697200D01*
X112225714Y-47697200D02*
X112178095Y-47649580D01*
X112178095Y-47649580D02*
X112130476Y-47554342D01*
X112130476Y-47554342D02*
X112082857Y-47363866D01*
X112082857Y-47363866D02*
X112082857Y-47125771D01*
X112082857Y-47125771D02*
X112130476Y-46935295D01*
X112130476Y-46935295D02*
X112178095Y-46840057D01*
X112178095Y-46840057D02*
X112225714Y-46792438D01*
X112225714Y-46792438D02*
X112320952Y-46744819D01*
X113082857Y-47649580D02*
X113130476Y-47697200D01*
X113130476Y-47697200D02*
X113082857Y-47744819D01*
X113082857Y-47744819D02*
X113035238Y-47697200D01*
X113035238Y-47697200D02*
X113082857Y-47649580D01*
X113082857Y-47649580D02*
X113082857Y-47744819D01*
X113749523Y-46744819D02*
X113844761Y-46744819D01*
X113844761Y-46744819D02*
X113939999Y-46792438D01*
X113939999Y-46792438D02*
X113987618Y-46840057D01*
X113987618Y-46840057D02*
X114035237Y-46935295D01*
X114035237Y-46935295D02*
X114082856Y-47125771D01*
X114082856Y-47125771D02*
X114082856Y-47363866D01*
X114082856Y-47363866D02*
X114035237Y-47554342D01*
X114035237Y-47554342D02*
X113987618Y-47649580D01*
X113987618Y-47649580D02*
X113939999Y-47697200D01*
X113939999Y-47697200D02*
X113844761Y-47744819D01*
X113844761Y-47744819D02*
X113749523Y-47744819D01*
X113749523Y-47744819D02*
X113654285Y-47697200D01*
X113654285Y-47697200D02*
X113606666Y-47649580D01*
X113606666Y-47649580D02*
X113559047Y-47554342D01*
X113559047Y-47554342D02*
X113511428Y-47363866D01*
X113511428Y-47363866D02*
X113511428Y-47125771D01*
X113511428Y-47125771D02*
X113559047Y-46935295D01*
X113559047Y-46935295D02*
X113606666Y-46840057D01*
X113606666Y-46840057D02*
X113654285Y-46792438D01*
X113654285Y-46792438D02*
X113749523Y-46744819D01*
X115035237Y-47744819D02*
X114463809Y-47744819D01*
X114749523Y-47744819D02*
X114749523Y-46744819D01*
X114749523Y-46744819D02*
X114654285Y-46887676D01*
X114654285Y-46887676D02*
X114559047Y-46982914D01*
X114559047Y-46982914D02*
X114463809Y-47030533D01*
X115892380Y-47078152D02*
X115892380Y-47744819D01*
X115463809Y-47078152D02*
X115463809Y-47601961D01*
X115463809Y-47601961D02*
X115511428Y-47697200D01*
X115511428Y-47697200D02*
X115606666Y-47744819D01*
X115606666Y-47744819D02*
X115749523Y-47744819D01*
X115749523Y-47744819D02*
X115844761Y-47697200D01*
X115844761Y-47697200D02*
X115892380Y-47649580D01*
X116701904Y-47221009D02*
X116368571Y-47221009D01*
X116368571Y-47744819D02*
X116368571Y-46744819D01*
X116368571Y-46744819D02*
X116844761Y-46744819D01*
X175182142Y-59009580D02*
X175134523Y-59057200D01*
X175134523Y-59057200D02*
X174991666Y-59104819D01*
X174991666Y-59104819D02*
X174896428Y-59104819D01*
X174896428Y-59104819D02*
X174753571Y-59057200D01*
X174753571Y-59057200D02*
X174658333Y-58961961D01*
X174658333Y-58961961D02*
X174610714Y-58866723D01*
X174610714Y-58866723D02*
X174563095Y-58676247D01*
X174563095Y-58676247D02*
X174563095Y-58533390D01*
X174563095Y-58533390D02*
X174610714Y-58342914D01*
X174610714Y-58342914D02*
X174658333Y-58247676D01*
X174658333Y-58247676D02*
X174753571Y-58152438D01*
X174753571Y-58152438D02*
X174896428Y-58104819D01*
X174896428Y-58104819D02*
X174991666Y-58104819D01*
X174991666Y-58104819D02*
X175134523Y-58152438D01*
X175134523Y-58152438D02*
X175182142Y-58200057D01*
X175563095Y-58200057D02*
X175610714Y-58152438D01*
X175610714Y-58152438D02*
X175705952Y-58104819D01*
X175705952Y-58104819D02*
X175944047Y-58104819D01*
X175944047Y-58104819D02*
X176039285Y-58152438D01*
X176039285Y-58152438D02*
X176086904Y-58200057D01*
X176086904Y-58200057D02*
X176134523Y-58295295D01*
X176134523Y-58295295D02*
X176134523Y-58390533D01*
X176134523Y-58390533D02*
X176086904Y-58533390D01*
X176086904Y-58533390D02*
X175515476Y-59104819D01*
X175515476Y-59104819D02*
X176134523Y-59104819D01*
X176610714Y-59104819D02*
X176801190Y-59104819D01*
X176801190Y-59104819D02*
X176896428Y-59057200D01*
X176896428Y-59057200D02*
X176944047Y-59009580D01*
X176944047Y-59009580D02*
X177039285Y-58866723D01*
X177039285Y-58866723D02*
X177086904Y-58676247D01*
X177086904Y-58676247D02*
X177086904Y-58295295D01*
X177086904Y-58295295D02*
X177039285Y-58200057D01*
X177039285Y-58200057D02*
X176991666Y-58152438D01*
X176991666Y-58152438D02*
X176896428Y-58104819D01*
X176896428Y-58104819D02*
X176705952Y-58104819D01*
X176705952Y-58104819D02*
X176610714Y-58152438D01*
X176610714Y-58152438D02*
X176563095Y-58200057D01*
X176563095Y-58200057D02*
X176515476Y-58295295D01*
X176515476Y-58295295D02*
X176515476Y-58533390D01*
X176515476Y-58533390D02*
X176563095Y-58628628D01*
X176563095Y-58628628D02*
X176610714Y-58676247D01*
X176610714Y-58676247D02*
X176705952Y-58723866D01*
X176705952Y-58723866D02*
X176896428Y-58723866D01*
X176896428Y-58723866D02*
X176991666Y-58676247D01*
X176991666Y-58676247D02*
X177039285Y-58628628D01*
X177039285Y-58628628D02*
X177086904Y-58533390D01*
X175128571Y-60429819D02*
X174557143Y-60429819D01*
X174842857Y-60429819D02*
X174842857Y-59429819D01*
X174842857Y-59429819D02*
X174747619Y-59572676D01*
X174747619Y-59572676D02*
X174652381Y-59667914D01*
X174652381Y-59667914D02*
X174557143Y-59715533D01*
X175747619Y-59429819D02*
X175842857Y-59429819D01*
X175842857Y-59429819D02*
X175938095Y-59477438D01*
X175938095Y-59477438D02*
X175985714Y-59525057D01*
X175985714Y-59525057D02*
X176033333Y-59620295D01*
X176033333Y-59620295D02*
X176080952Y-59810771D01*
X176080952Y-59810771D02*
X176080952Y-60048866D01*
X176080952Y-60048866D02*
X176033333Y-60239342D01*
X176033333Y-60239342D02*
X175985714Y-60334580D01*
X175985714Y-60334580D02*
X175938095Y-60382200D01*
X175938095Y-60382200D02*
X175842857Y-60429819D01*
X175842857Y-60429819D02*
X175747619Y-60429819D01*
X175747619Y-60429819D02*
X175652381Y-60382200D01*
X175652381Y-60382200D02*
X175604762Y-60334580D01*
X175604762Y-60334580D02*
X175557143Y-60239342D01*
X175557143Y-60239342D02*
X175509524Y-60048866D01*
X175509524Y-60048866D02*
X175509524Y-59810771D01*
X175509524Y-59810771D02*
X175557143Y-59620295D01*
X175557143Y-59620295D02*
X175604762Y-59525057D01*
X175604762Y-59525057D02*
X175652381Y-59477438D01*
X175652381Y-59477438D02*
X175747619Y-59429819D01*
X176938095Y-59763152D02*
X176938095Y-60429819D01*
X176509524Y-59763152D02*
X176509524Y-60286961D01*
X176509524Y-60286961D02*
X176557143Y-60382200D01*
X176557143Y-60382200D02*
X176652381Y-60429819D01*
X176652381Y-60429819D02*
X176795238Y-60429819D01*
X176795238Y-60429819D02*
X176890476Y-60382200D01*
X176890476Y-60382200D02*
X176938095Y-60334580D01*
X177747619Y-59906009D02*
X177414286Y-59906009D01*
X177414286Y-60429819D02*
X177414286Y-59429819D01*
X177414286Y-59429819D02*
X177890476Y-59429819D01*
X164782142Y-55809580D02*
X164734523Y-55857200D01*
X164734523Y-55857200D02*
X164591666Y-55904819D01*
X164591666Y-55904819D02*
X164496428Y-55904819D01*
X164496428Y-55904819D02*
X164353571Y-55857200D01*
X164353571Y-55857200D02*
X164258333Y-55761961D01*
X164258333Y-55761961D02*
X164210714Y-55666723D01*
X164210714Y-55666723D02*
X164163095Y-55476247D01*
X164163095Y-55476247D02*
X164163095Y-55333390D01*
X164163095Y-55333390D02*
X164210714Y-55142914D01*
X164210714Y-55142914D02*
X164258333Y-55047676D01*
X164258333Y-55047676D02*
X164353571Y-54952438D01*
X164353571Y-54952438D02*
X164496428Y-54904819D01*
X164496428Y-54904819D02*
X164591666Y-54904819D01*
X164591666Y-54904819D02*
X164734523Y-54952438D01*
X164734523Y-54952438D02*
X164782142Y-55000057D01*
X165163095Y-55000057D02*
X165210714Y-54952438D01*
X165210714Y-54952438D02*
X165305952Y-54904819D01*
X165305952Y-54904819D02*
X165544047Y-54904819D01*
X165544047Y-54904819D02*
X165639285Y-54952438D01*
X165639285Y-54952438D02*
X165686904Y-55000057D01*
X165686904Y-55000057D02*
X165734523Y-55095295D01*
X165734523Y-55095295D02*
X165734523Y-55190533D01*
X165734523Y-55190533D02*
X165686904Y-55333390D01*
X165686904Y-55333390D02*
X165115476Y-55904819D01*
X165115476Y-55904819D02*
X165734523Y-55904819D01*
X166591666Y-55238152D02*
X166591666Y-55904819D01*
X166353571Y-54857200D02*
X166115476Y-55571485D01*
X166115476Y-55571485D02*
X166734523Y-55571485D01*
X164229761Y-57279819D02*
X163658333Y-57279819D01*
X163944047Y-57279819D02*
X163944047Y-56279819D01*
X163944047Y-56279819D02*
X163848809Y-56422676D01*
X163848809Y-56422676D02*
X163753571Y-56517914D01*
X163753571Y-56517914D02*
X163658333Y-56565533D01*
X165086904Y-56613152D02*
X165086904Y-57279819D01*
X164658333Y-56613152D02*
X164658333Y-57136961D01*
X164658333Y-57136961D02*
X164705952Y-57232200D01*
X164705952Y-57232200D02*
X164801190Y-57279819D01*
X164801190Y-57279819D02*
X164944047Y-57279819D01*
X164944047Y-57279819D02*
X165039285Y-57232200D01*
X165039285Y-57232200D02*
X165086904Y-57184580D01*
X165896428Y-56756009D02*
X165563095Y-56756009D01*
X165563095Y-57279819D02*
X165563095Y-56279819D01*
X165563095Y-56279819D02*
X166039285Y-56279819D01*
X137057142Y-70559580D02*
X137009523Y-70607200D01*
X137009523Y-70607200D02*
X136866666Y-70654819D01*
X136866666Y-70654819D02*
X136771428Y-70654819D01*
X136771428Y-70654819D02*
X136628571Y-70607200D01*
X136628571Y-70607200D02*
X136533333Y-70511961D01*
X136533333Y-70511961D02*
X136485714Y-70416723D01*
X136485714Y-70416723D02*
X136438095Y-70226247D01*
X136438095Y-70226247D02*
X136438095Y-70083390D01*
X136438095Y-70083390D02*
X136485714Y-69892914D01*
X136485714Y-69892914D02*
X136533333Y-69797676D01*
X136533333Y-69797676D02*
X136628571Y-69702438D01*
X136628571Y-69702438D02*
X136771428Y-69654819D01*
X136771428Y-69654819D02*
X136866666Y-69654819D01*
X136866666Y-69654819D02*
X137009523Y-69702438D01*
X137009523Y-69702438D02*
X137057142Y-69750057D01*
X138009523Y-70654819D02*
X137438095Y-70654819D01*
X137723809Y-70654819D02*
X137723809Y-69654819D01*
X137723809Y-69654819D02*
X137628571Y-69797676D01*
X137628571Y-69797676D02*
X137533333Y-69892914D01*
X137533333Y-69892914D02*
X137438095Y-69940533D01*
X138390476Y-69750057D02*
X138438095Y-69702438D01*
X138438095Y-69702438D02*
X138533333Y-69654819D01*
X138533333Y-69654819D02*
X138771428Y-69654819D01*
X138771428Y-69654819D02*
X138866666Y-69702438D01*
X138866666Y-69702438D02*
X138914285Y-69750057D01*
X138914285Y-69750057D02*
X138961904Y-69845295D01*
X138961904Y-69845295D02*
X138961904Y-69940533D01*
X138961904Y-69940533D02*
X138914285Y-70083390D01*
X138914285Y-70083390D02*
X138342857Y-70654819D01*
X138342857Y-70654819D02*
X138961904Y-70654819D01*
X135504762Y-71000057D02*
X135552381Y-70952438D01*
X135552381Y-70952438D02*
X135647619Y-70904819D01*
X135647619Y-70904819D02*
X135885714Y-70904819D01*
X135885714Y-70904819D02*
X135980952Y-70952438D01*
X135980952Y-70952438D02*
X136028571Y-71000057D01*
X136028571Y-71000057D02*
X136076190Y-71095295D01*
X136076190Y-71095295D02*
X136076190Y-71190533D01*
X136076190Y-71190533D02*
X136028571Y-71333390D01*
X136028571Y-71333390D02*
X135457143Y-71904819D01*
X135457143Y-71904819D02*
X136076190Y-71904819D01*
X136457143Y-71000057D02*
X136504762Y-70952438D01*
X136504762Y-70952438D02*
X136600000Y-70904819D01*
X136600000Y-70904819D02*
X136838095Y-70904819D01*
X136838095Y-70904819D02*
X136933333Y-70952438D01*
X136933333Y-70952438D02*
X136980952Y-71000057D01*
X136980952Y-71000057D02*
X137028571Y-71095295D01*
X137028571Y-71095295D02*
X137028571Y-71190533D01*
X137028571Y-71190533D02*
X136980952Y-71333390D01*
X136980952Y-71333390D02*
X136409524Y-71904819D01*
X136409524Y-71904819D02*
X137028571Y-71904819D01*
X137647619Y-70904819D02*
X137742857Y-70904819D01*
X137742857Y-70904819D02*
X137838095Y-70952438D01*
X137838095Y-70952438D02*
X137885714Y-71000057D01*
X137885714Y-71000057D02*
X137933333Y-71095295D01*
X137933333Y-71095295D02*
X137980952Y-71285771D01*
X137980952Y-71285771D02*
X137980952Y-71523866D01*
X137980952Y-71523866D02*
X137933333Y-71714342D01*
X137933333Y-71714342D02*
X137885714Y-71809580D01*
X137885714Y-71809580D02*
X137838095Y-71857200D01*
X137838095Y-71857200D02*
X137742857Y-71904819D01*
X137742857Y-71904819D02*
X137647619Y-71904819D01*
X137647619Y-71904819D02*
X137552381Y-71857200D01*
X137552381Y-71857200D02*
X137504762Y-71809580D01*
X137504762Y-71809580D02*
X137457143Y-71714342D01*
X137457143Y-71714342D02*
X137409524Y-71523866D01*
X137409524Y-71523866D02*
X137409524Y-71285771D01*
X137409524Y-71285771D02*
X137457143Y-71095295D01*
X137457143Y-71095295D02*
X137504762Y-71000057D01*
X137504762Y-71000057D02*
X137552381Y-70952438D01*
X137552381Y-70952438D02*
X137647619Y-70904819D01*
X138600000Y-70904819D02*
X138695238Y-70904819D01*
X138695238Y-70904819D02*
X138790476Y-70952438D01*
X138790476Y-70952438D02*
X138838095Y-71000057D01*
X138838095Y-71000057D02*
X138885714Y-71095295D01*
X138885714Y-71095295D02*
X138933333Y-71285771D01*
X138933333Y-71285771D02*
X138933333Y-71523866D01*
X138933333Y-71523866D02*
X138885714Y-71714342D01*
X138885714Y-71714342D02*
X138838095Y-71809580D01*
X138838095Y-71809580D02*
X138790476Y-71857200D01*
X138790476Y-71857200D02*
X138695238Y-71904819D01*
X138695238Y-71904819D02*
X138600000Y-71904819D01*
X138600000Y-71904819D02*
X138504762Y-71857200D01*
X138504762Y-71857200D02*
X138457143Y-71809580D01*
X138457143Y-71809580D02*
X138409524Y-71714342D01*
X138409524Y-71714342D02*
X138361905Y-71523866D01*
X138361905Y-71523866D02*
X138361905Y-71285771D01*
X138361905Y-71285771D02*
X138409524Y-71095295D01*
X138409524Y-71095295D02*
X138457143Y-71000057D01*
X138457143Y-71000057D02*
X138504762Y-70952438D01*
X138504762Y-70952438D02*
X138600000Y-70904819D01*
X139361905Y-71238152D02*
X139361905Y-72238152D01*
X139361905Y-71285771D02*
X139457143Y-71238152D01*
X139457143Y-71238152D02*
X139647619Y-71238152D01*
X139647619Y-71238152D02*
X139742857Y-71285771D01*
X139742857Y-71285771D02*
X139790476Y-71333390D01*
X139790476Y-71333390D02*
X139838095Y-71428628D01*
X139838095Y-71428628D02*
X139838095Y-71714342D01*
X139838095Y-71714342D02*
X139790476Y-71809580D01*
X139790476Y-71809580D02*
X139742857Y-71857200D01*
X139742857Y-71857200D02*
X139647619Y-71904819D01*
X139647619Y-71904819D02*
X139457143Y-71904819D01*
X139457143Y-71904819D02*
X139361905Y-71857200D01*
X140600000Y-71381009D02*
X140266667Y-71381009D01*
X140266667Y-71904819D02*
X140266667Y-70904819D01*
X140266667Y-70904819D02*
X140742857Y-70904819D01*
X104007142Y-52409580D02*
X103959523Y-52457200D01*
X103959523Y-52457200D02*
X103816666Y-52504819D01*
X103816666Y-52504819D02*
X103721428Y-52504819D01*
X103721428Y-52504819D02*
X103578571Y-52457200D01*
X103578571Y-52457200D02*
X103483333Y-52361961D01*
X103483333Y-52361961D02*
X103435714Y-52266723D01*
X103435714Y-52266723D02*
X103388095Y-52076247D01*
X103388095Y-52076247D02*
X103388095Y-51933390D01*
X103388095Y-51933390D02*
X103435714Y-51742914D01*
X103435714Y-51742914D02*
X103483333Y-51647676D01*
X103483333Y-51647676D02*
X103578571Y-51552438D01*
X103578571Y-51552438D02*
X103721428Y-51504819D01*
X103721428Y-51504819D02*
X103816666Y-51504819D01*
X103816666Y-51504819D02*
X103959523Y-51552438D01*
X103959523Y-51552438D02*
X104007142Y-51600057D01*
X104388095Y-51600057D02*
X104435714Y-51552438D01*
X104435714Y-51552438D02*
X104530952Y-51504819D01*
X104530952Y-51504819D02*
X104769047Y-51504819D01*
X104769047Y-51504819D02*
X104864285Y-51552438D01*
X104864285Y-51552438D02*
X104911904Y-51600057D01*
X104911904Y-51600057D02*
X104959523Y-51695295D01*
X104959523Y-51695295D02*
X104959523Y-51790533D01*
X104959523Y-51790533D02*
X104911904Y-51933390D01*
X104911904Y-51933390D02*
X104340476Y-52504819D01*
X104340476Y-52504819D02*
X104959523Y-52504819D01*
X105864285Y-51504819D02*
X105388095Y-51504819D01*
X105388095Y-51504819D02*
X105340476Y-51981009D01*
X105340476Y-51981009D02*
X105388095Y-51933390D01*
X105388095Y-51933390D02*
X105483333Y-51885771D01*
X105483333Y-51885771D02*
X105721428Y-51885771D01*
X105721428Y-51885771D02*
X105816666Y-51933390D01*
X105816666Y-51933390D02*
X105864285Y-51981009D01*
X105864285Y-51981009D02*
X105911904Y-52076247D01*
X105911904Y-52076247D02*
X105911904Y-52314342D01*
X105911904Y-52314342D02*
X105864285Y-52409580D01*
X105864285Y-52409580D02*
X105816666Y-52457200D01*
X105816666Y-52457200D02*
X105721428Y-52504819D01*
X105721428Y-52504819D02*
X105483333Y-52504819D01*
X105483333Y-52504819D02*
X105388095Y-52457200D01*
X105388095Y-52457200D02*
X105340476Y-52409580D01*
X103032143Y-52854819D02*
X103127381Y-52854819D01*
X103127381Y-52854819D02*
X103222619Y-52902438D01*
X103222619Y-52902438D02*
X103270238Y-52950057D01*
X103270238Y-52950057D02*
X103317857Y-53045295D01*
X103317857Y-53045295D02*
X103365476Y-53235771D01*
X103365476Y-53235771D02*
X103365476Y-53473866D01*
X103365476Y-53473866D02*
X103317857Y-53664342D01*
X103317857Y-53664342D02*
X103270238Y-53759580D01*
X103270238Y-53759580D02*
X103222619Y-53807200D01*
X103222619Y-53807200D02*
X103127381Y-53854819D01*
X103127381Y-53854819D02*
X103032143Y-53854819D01*
X103032143Y-53854819D02*
X102936905Y-53807200D01*
X102936905Y-53807200D02*
X102889286Y-53759580D01*
X102889286Y-53759580D02*
X102841667Y-53664342D01*
X102841667Y-53664342D02*
X102794048Y-53473866D01*
X102794048Y-53473866D02*
X102794048Y-53235771D01*
X102794048Y-53235771D02*
X102841667Y-53045295D01*
X102841667Y-53045295D02*
X102889286Y-52950057D01*
X102889286Y-52950057D02*
X102936905Y-52902438D01*
X102936905Y-52902438D02*
X103032143Y-52854819D01*
X103794048Y-53759580D02*
X103841667Y-53807200D01*
X103841667Y-53807200D02*
X103794048Y-53854819D01*
X103794048Y-53854819D02*
X103746429Y-53807200D01*
X103746429Y-53807200D02*
X103794048Y-53759580D01*
X103794048Y-53759580D02*
X103794048Y-53854819D01*
X104794047Y-53854819D02*
X104222619Y-53854819D01*
X104508333Y-53854819D02*
X104508333Y-52854819D01*
X104508333Y-52854819D02*
X104413095Y-52997676D01*
X104413095Y-52997676D02*
X104317857Y-53092914D01*
X104317857Y-53092914D02*
X104222619Y-53140533D01*
X105651190Y-53188152D02*
X105651190Y-53854819D01*
X105222619Y-53188152D02*
X105222619Y-53711961D01*
X105222619Y-53711961D02*
X105270238Y-53807200D01*
X105270238Y-53807200D02*
X105365476Y-53854819D01*
X105365476Y-53854819D02*
X105508333Y-53854819D01*
X105508333Y-53854819D02*
X105603571Y-53807200D01*
X105603571Y-53807200D02*
X105651190Y-53759580D01*
X106460714Y-53331009D02*
X106127381Y-53331009D01*
X106127381Y-53854819D02*
X106127381Y-52854819D01*
X106127381Y-52854819D02*
X106603571Y-52854819D01*
X141407142Y-78009580D02*
X141359523Y-78057200D01*
X141359523Y-78057200D02*
X141216666Y-78104819D01*
X141216666Y-78104819D02*
X141121428Y-78104819D01*
X141121428Y-78104819D02*
X140978571Y-78057200D01*
X140978571Y-78057200D02*
X140883333Y-77961961D01*
X140883333Y-77961961D02*
X140835714Y-77866723D01*
X140835714Y-77866723D02*
X140788095Y-77676247D01*
X140788095Y-77676247D02*
X140788095Y-77533390D01*
X140788095Y-77533390D02*
X140835714Y-77342914D01*
X140835714Y-77342914D02*
X140883333Y-77247676D01*
X140883333Y-77247676D02*
X140978571Y-77152438D01*
X140978571Y-77152438D02*
X141121428Y-77104819D01*
X141121428Y-77104819D02*
X141216666Y-77104819D01*
X141216666Y-77104819D02*
X141359523Y-77152438D01*
X141359523Y-77152438D02*
X141407142Y-77200057D01*
X142359523Y-78104819D02*
X141788095Y-78104819D01*
X142073809Y-78104819D02*
X142073809Y-77104819D01*
X142073809Y-77104819D02*
X141978571Y-77247676D01*
X141978571Y-77247676D02*
X141883333Y-77342914D01*
X141883333Y-77342914D02*
X141788095Y-77390533D01*
X143216666Y-77104819D02*
X143026190Y-77104819D01*
X143026190Y-77104819D02*
X142930952Y-77152438D01*
X142930952Y-77152438D02*
X142883333Y-77200057D01*
X142883333Y-77200057D02*
X142788095Y-77342914D01*
X142788095Y-77342914D02*
X142740476Y-77533390D01*
X142740476Y-77533390D02*
X142740476Y-77914342D01*
X142740476Y-77914342D02*
X142788095Y-78009580D01*
X142788095Y-78009580D02*
X142835714Y-78057200D01*
X142835714Y-78057200D02*
X142930952Y-78104819D01*
X142930952Y-78104819D02*
X143121428Y-78104819D01*
X143121428Y-78104819D02*
X143216666Y-78057200D01*
X143216666Y-78057200D02*
X143264285Y-78009580D01*
X143264285Y-78009580D02*
X143311904Y-77914342D01*
X143311904Y-77914342D02*
X143311904Y-77676247D01*
X143311904Y-77676247D02*
X143264285Y-77581009D01*
X143264285Y-77581009D02*
X143216666Y-77533390D01*
X143216666Y-77533390D02*
X143121428Y-77485771D01*
X143121428Y-77485771D02*
X142930952Y-77485771D01*
X142930952Y-77485771D02*
X142835714Y-77533390D01*
X142835714Y-77533390D02*
X142788095Y-77581009D01*
X142788095Y-77581009D02*
X142740476Y-77676247D01*
X140657142Y-78888152D02*
X140657142Y-79554819D01*
X140419047Y-78507200D02*
X140180952Y-79221485D01*
X140180952Y-79221485D02*
X140799999Y-79221485D01*
X141085714Y-78554819D02*
X141752380Y-78554819D01*
X141752380Y-78554819D02*
X141323809Y-79554819D01*
X142323809Y-78554819D02*
X142419047Y-78554819D01*
X142419047Y-78554819D02*
X142514285Y-78602438D01*
X142514285Y-78602438D02*
X142561904Y-78650057D01*
X142561904Y-78650057D02*
X142609523Y-78745295D01*
X142609523Y-78745295D02*
X142657142Y-78935771D01*
X142657142Y-78935771D02*
X142657142Y-79173866D01*
X142657142Y-79173866D02*
X142609523Y-79364342D01*
X142609523Y-79364342D02*
X142561904Y-79459580D01*
X142561904Y-79459580D02*
X142514285Y-79507200D01*
X142514285Y-79507200D02*
X142419047Y-79554819D01*
X142419047Y-79554819D02*
X142323809Y-79554819D01*
X142323809Y-79554819D02*
X142228571Y-79507200D01*
X142228571Y-79507200D02*
X142180952Y-79459580D01*
X142180952Y-79459580D02*
X142133333Y-79364342D01*
X142133333Y-79364342D02*
X142085714Y-79173866D01*
X142085714Y-79173866D02*
X142085714Y-78935771D01*
X142085714Y-78935771D02*
X142133333Y-78745295D01*
X142133333Y-78745295D02*
X142180952Y-78650057D01*
X142180952Y-78650057D02*
X142228571Y-78602438D01*
X142228571Y-78602438D02*
X142323809Y-78554819D01*
X143085714Y-78888152D02*
X143085714Y-79888152D01*
X143085714Y-78935771D02*
X143180952Y-78888152D01*
X143180952Y-78888152D02*
X143371428Y-78888152D01*
X143371428Y-78888152D02*
X143466666Y-78935771D01*
X143466666Y-78935771D02*
X143514285Y-78983390D01*
X143514285Y-78983390D02*
X143561904Y-79078628D01*
X143561904Y-79078628D02*
X143561904Y-79364342D01*
X143561904Y-79364342D02*
X143514285Y-79459580D01*
X143514285Y-79459580D02*
X143466666Y-79507200D01*
X143466666Y-79507200D02*
X143371428Y-79554819D01*
X143371428Y-79554819D02*
X143180952Y-79554819D01*
X143180952Y-79554819D02*
X143085714Y-79507200D01*
X144323809Y-79031009D02*
X143990476Y-79031009D01*
X143990476Y-79554819D02*
X143990476Y-78554819D01*
X143990476Y-78554819D02*
X144466666Y-78554819D01*
X172182142Y-80242580D02*
X172134523Y-80290200D01*
X172134523Y-80290200D02*
X171991666Y-80337819D01*
X171991666Y-80337819D02*
X171896428Y-80337819D01*
X171896428Y-80337819D02*
X171753571Y-80290200D01*
X171753571Y-80290200D02*
X171658333Y-80194961D01*
X171658333Y-80194961D02*
X171610714Y-80099723D01*
X171610714Y-80099723D02*
X171563095Y-79909247D01*
X171563095Y-79909247D02*
X171563095Y-79766390D01*
X171563095Y-79766390D02*
X171610714Y-79575914D01*
X171610714Y-79575914D02*
X171658333Y-79480676D01*
X171658333Y-79480676D02*
X171753571Y-79385438D01*
X171753571Y-79385438D02*
X171896428Y-79337819D01*
X171896428Y-79337819D02*
X171991666Y-79337819D01*
X171991666Y-79337819D02*
X172134523Y-79385438D01*
X172134523Y-79385438D02*
X172182142Y-79433057D01*
X172563095Y-79433057D02*
X172610714Y-79385438D01*
X172610714Y-79385438D02*
X172705952Y-79337819D01*
X172705952Y-79337819D02*
X172944047Y-79337819D01*
X172944047Y-79337819D02*
X173039285Y-79385438D01*
X173039285Y-79385438D02*
X173086904Y-79433057D01*
X173086904Y-79433057D02*
X173134523Y-79528295D01*
X173134523Y-79528295D02*
X173134523Y-79623533D01*
X173134523Y-79623533D02*
X173086904Y-79766390D01*
X173086904Y-79766390D02*
X172515476Y-80337819D01*
X172515476Y-80337819D02*
X173134523Y-80337819D01*
X173467857Y-79337819D02*
X174086904Y-79337819D01*
X174086904Y-79337819D02*
X173753571Y-79718771D01*
X173753571Y-79718771D02*
X173896428Y-79718771D01*
X173896428Y-79718771D02*
X173991666Y-79766390D01*
X173991666Y-79766390D02*
X174039285Y-79814009D01*
X174039285Y-79814009D02*
X174086904Y-79909247D01*
X174086904Y-79909247D02*
X174086904Y-80147342D01*
X174086904Y-80147342D02*
X174039285Y-80242580D01*
X174039285Y-80242580D02*
X173991666Y-80290200D01*
X173991666Y-80290200D02*
X173896428Y-80337819D01*
X173896428Y-80337819D02*
X173610714Y-80337819D01*
X173610714Y-80337819D02*
X173515476Y-80290200D01*
X173515476Y-80290200D02*
X173467857Y-80242580D01*
X175553761Y-80337819D02*
X174982333Y-80337819D01*
X175268047Y-80337819D02*
X175268047Y-79337819D01*
X175268047Y-79337819D02*
X175172809Y-79480676D01*
X175172809Y-79480676D02*
X175077571Y-79575914D01*
X175077571Y-79575914D02*
X174982333Y-79623533D01*
X176410904Y-79671152D02*
X176410904Y-80337819D01*
X175982333Y-79671152D02*
X175982333Y-80194961D01*
X175982333Y-80194961D02*
X176029952Y-80290200D01*
X176029952Y-80290200D02*
X176125190Y-80337819D01*
X176125190Y-80337819D02*
X176268047Y-80337819D01*
X176268047Y-80337819D02*
X176363285Y-80290200D01*
X176363285Y-80290200D02*
X176410904Y-80242580D01*
X177220428Y-79814009D02*
X176887095Y-79814009D01*
X176887095Y-80337819D02*
X176887095Y-79337819D01*
X176887095Y-79337819D02*
X177363285Y-79337819D01*
X176182142Y-69574580D02*
X176134523Y-69622200D01*
X176134523Y-69622200D02*
X175991666Y-69669819D01*
X175991666Y-69669819D02*
X175896428Y-69669819D01*
X175896428Y-69669819D02*
X175753571Y-69622200D01*
X175753571Y-69622200D02*
X175658333Y-69526961D01*
X175658333Y-69526961D02*
X175610714Y-69431723D01*
X175610714Y-69431723D02*
X175563095Y-69241247D01*
X175563095Y-69241247D02*
X175563095Y-69098390D01*
X175563095Y-69098390D02*
X175610714Y-68907914D01*
X175610714Y-68907914D02*
X175658333Y-68812676D01*
X175658333Y-68812676D02*
X175753571Y-68717438D01*
X175753571Y-68717438D02*
X175896428Y-68669819D01*
X175896428Y-68669819D02*
X175991666Y-68669819D01*
X175991666Y-68669819D02*
X176134523Y-68717438D01*
X176134523Y-68717438D02*
X176182142Y-68765057D01*
X176563095Y-68765057D02*
X176610714Y-68717438D01*
X176610714Y-68717438D02*
X176705952Y-68669819D01*
X176705952Y-68669819D02*
X176944047Y-68669819D01*
X176944047Y-68669819D02*
X177039285Y-68717438D01*
X177039285Y-68717438D02*
X177086904Y-68765057D01*
X177086904Y-68765057D02*
X177134523Y-68860295D01*
X177134523Y-68860295D02*
X177134523Y-68955533D01*
X177134523Y-68955533D02*
X177086904Y-69098390D01*
X177086904Y-69098390D02*
X176515476Y-69669819D01*
X176515476Y-69669819D02*
X177134523Y-69669819D01*
X177991666Y-68669819D02*
X177801190Y-68669819D01*
X177801190Y-68669819D02*
X177705952Y-68717438D01*
X177705952Y-68717438D02*
X177658333Y-68765057D01*
X177658333Y-68765057D02*
X177563095Y-68907914D01*
X177563095Y-68907914D02*
X177515476Y-69098390D01*
X177515476Y-69098390D02*
X177515476Y-69479342D01*
X177515476Y-69479342D02*
X177563095Y-69574580D01*
X177563095Y-69574580D02*
X177610714Y-69622200D01*
X177610714Y-69622200D02*
X177705952Y-69669819D01*
X177705952Y-69669819D02*
X177896428Y-69669819D01*
X177896428Y-69669819D02*
X177991666Y-69622200D01*
X177991666Y-69622200D02*
X178039285Y-69574580D01*
X178039285Y-69574580D02*
X178086904Y-69479342D01*
X178086904Y-69479342D02*
X178086904Y-69241247D01*
X178086904Y-69241247D02*
X178039285Y-69146009D01*
X178039285Y-69146009D02*
X177991666Y-69098390D01*
X177991666Y-69098390D02*
X177896428Y-69050771D01*
X177896428Y-69050771D02*
X177705952Y-69050771D01*
X177705952Y-69050771D02*
X177610714Y-69098390D01*
X177610714Y-69098390D02*
X177563095Y-69146009D01*
X177563095Y-69146009D02*
X177515476Y-69241247D01*
X179404761Y-69669819D02*
X178833333Y-69669819D01*
X179119047Y-69669819D02*
X179119047Y-68669819D01*
X179119047Y-68669819D02*
X179023809Y-68812676D01*
X179023809Y-68812676D02*
X178928571Y-68907914D01*
X178928571Y-68907914D02*
X178833333Y-68955533D01*
X180261904Y-69003152D02*
X180261904Y-69669819D01*
X179833333Y-69003152D02*
X179833333Y-69526961D01*
X179833333Y-69526961D02*
X179880952Y-69622200D01*
X179880952Y-69622200D02*
X179976190Y-69669819D01*
X179976190Y-69669819D02*
X180119047Y-69669819D01*
X180119047Y-69669819D02*
X180214285Y-69622200D01*
X180214285Y-69622200D02*
X180261904Y-69574580D01*
X181071428Y-69146009D02*
X180738095Y-69146009D01*
X180738095Y-69669819D02*
X180738095Y-68669819D01*
X180738095Y-68669819D02*
X181214285Y-68669819D01*
X119157142Y-54334580D02*
X119109523Y-54382200D01*
X119109523Y-54382200D02*
X118966666Y-54429819D01*
X118966666Y-54429819D02*
X118871428Y-54429819D01*
X118871428Y-54429819D02*
X118728571Y-54382200D01*
X118728571Y-54382200D02*
X118633333Y-54286961D01*
X118633333Y-54286961D02*
X118585714Y-54191723D01*
X118585714Y-54191723D02*
X118538095Y-54001247D01*
X118538095Y-54001247D02*
X118538095Y-53858390D01*
X118538095Y-53858390D02*
X118585714Y-53667914D01*
X118585714Y-53667914D02*
X118633333Y-53572676D01*
X118633333Y-53572676D02*
X118728571Y-53477438D01*
X118728571Y-53477438D02*
X118871428Y-53429819D01*
X118871428Y-53429819D02*
X118966666Y-53429819D01*
X118966666Y-53429819D02*
X119109523Y-53477438D01*
X119109523Y-53477438D02*
X119157142Y-53525057D01*
X119490476Y-53429819D02*
X120109523Y-53429819D01*
X120109523Y-53429819D02*
X119776190Y-53810771D01*
X119776190Y-53810771D02*
X119919047Y-53810771D01*
X119919047Y-53810771D02*
X120014285Y-53858390D01*
X120014285Y-53858390D02*
X120061904Y-53906009D01*
X120061904Y-53906009D02*
X120109523Y-54001247D01*
X120109523Y-54001247D02*
X120109523Y-54239342D01*
X120109523Y-54239342D02*
X120061904Y-54334580D01*
X120061904Y-54334580D02*
X120014285Y-54382200D01*
X120014285Y-54382200D02*
X119919047Y-54429819D01*
X119919047Y-54429819D02*
X119633333Y-54429819D01*
X119633333Y-54429819D02*
X119538095Y-54382200D01*
X119538095Y-54382200D02*
X119490476Y-54334580D01*
X120490476Y-53525057D02*
X120538095Y-53477438D01*
X120538095Y-53477438D02*
X120633333Y-53429819D01*
X120633333Y-53429819D02*
X120871428Y-53429819D01*
X120871428Y-53429819D02*
X120966666Y-53477438D01*
X120966666Y-53477438D02*
X121014285Y-53525057D01*
X121014285Y-53525057D02*
X121061904Y-53620295D01*
X121061904Y-53620295D02*
X121061904Y-53715533D01*
X121061904Y-53715533D02*
X121014285Y-53858390D01*
X121014285Y-53858390D02*
X120442857Y-54429819D01*
X120442857Y-54429819D02*
X121061904Y-54429819D01*
X117680952Y-54629819D02*
X117776190Y-54629819D01*
X117776190Y-54629819D02*
X117871428Y-54677438D01*
X117871428Y-54677438D02*
X117919047Y-54725057D01*
X117919047Y-54725057D02*
X117966666Y-54820295D01*
X117966666Y-54820295D02*
X118014285Y-55010771D01*
X118014285Y-55010771D02*
X118014285Y-55248866D01*
X118014285Y-55248866D02*
X117966666Y-55439342D01*
X117966666Y-55439342D02*
X117919047Y-55534580D01*
X117919047Y-55534580D02*
X117871428Y-55582200D01*
X117871428Y-55582200D02*
X117776190Y-55629819D01*
X117776190Y-55629819D02*
X117680952Y-55629819D01*
X117680952Y-55629819D02*
X117585714Y-55582200D01*
X117585714Y-55582200D02*
X117538095Y-55534580D01*
X117538095Y-55534580D02*
X117490476Y-55439342D01*
X117490476Y-55439342D02*
X117442857Y-55248866D01*
X117442857Y-55248866D02*
X117442857Y-55010771D01*
X117442857Y-55010771D02*
X117490476Y-54820295D01*
X117490476Y-54820295D02*
X117538095Y-54725057D01*
X117538095Y-54725057D02*
X117585714Y-54677438D01*
X117585714Y-54677438D02*
X117680952Y-54629819D01*
X118442857Y-55534580D02*
X118490476Y-55582200D01*
X118490476Y-55582200D02*
X118442857Y-55629819D01*
X118442857Y-55629819D02*
X118395238Y-55582200D01*
X118395238Y-55582200D02*
X118442857Y-55534580D01*
X118442857Y-55534580D02*
X118442857Y-55629819D01*
X119109523Y-54629819D02*
X119204761Y-54629819D01*
X119204761Y-54629819D02*
X119299999Y-54677438D01*
X119299999Y-54677438D02*
X119347618Y-54725057D01*
X119347618Y-54725057D02*
X119395237Y-54820295D01*
X119395237Y-54820295D02*
X119442856Y-55010771D01*
X119442856Y-55010771D02*
X119442856Y-55248866D01*
X119442856Y-55248866D02*
X119395237Y-55439342D01*
X119395237Y-55439342D02*
X119347618Y-55534580D01*
X119347618Y-55534580D02*
X119299999Y-55582200D01*
X119299999Y-55582200D02*
X119204761Y-55629819D01*
X119204761Y-55629819D02*
X119109523Y-55629819D01*
X119109523Y-55629819D02*
X119014285Y-55582200D01*
X119014285Y-55582200D02*
X118966666Y-55534580D01*
X118966666Y-55534580D02*
X118919047Y-55439342D01*
X118919047Y-55439342D02*
X118871428Y-55248866D01*
X118871428Y-55248866D02*
X118871428Y-55010771D01*
X118871428Y-55010771D02*
X118919047Y-54820295D01*
X118919047Y-54820295D02*
X118966666Y-54725057D01*
X118966666Y-54725057D02*
X119014285Y-54677438D01*
X119014285Y-54677438D02*
X119109523Y-54629819D01*
X120395237Y-55629819D02*
X119823809Y-55629819D01*
X120109523Y-55629819D02*
X120109523Y-54629819D01*
X120109523Y-54629819D02*
X120014285Y-54772676D01*
X120014285Y-54772676D02*
X119919047Y-54867914D01*
X119919047Y-54867914D02*
X119823809Y-54915533D01*
X121252380Y-54963152D02*
X121252380Y-55629819D01*
X120823809Y-54963152D02*
X120823809Y-55486961D01*
X120823809Y-55486961D02*
X120871428Y-55582200D01*
X120871428Y-55582200D02*
X120966666Y-55629819D01*
X120966666Y-55629819D02*
X121109523Y-55629819D01*
X121109523Y-55629819D02*
X121204761Y-55582200D01*
X121204761Y-55582200D02*
X121252380Y-55534580D01*
X122061904Y-55106009D02*
X121728571Y-55106009D01*
X121728571Y-55629819D02*
X121728571Y-54629819D01*
X121728571Y-54629819D02*
X122204761Y-54629819D01*
X163832142Y-72609580D02*
X163784523Y-72657200D01*
X163784523Y-72657200D02*
X163641666Y-72704819D01*
X163641666Y-72704819D02*
X163546428Y-72704819D01*
X163546428Y-72704819D02*
X163403571Y-72657200D01*
X163403571Y-72657200D02*
X163308333Y-72561961D01*
X163308333Y-72561961D02*
X163260714Y-72466723D01*
X163260714Y-72466723D02*
X163213095Y-72276247D01*
X163213095Y-72276247D02*
X163213095Y-72133390D01*
X163213095Y-72133390D02*
X163260714Y-71942914D01*
X163260714Y-71942914D02*
X163308333Y-71847676D01*
X163308333Y-71847676D02*
X163403571Y-71752438D01*
X163403571Y-71752438D02*
X163546428Y-71704819D01*
X163546428Y-71704819D02*
X163641666Y-71704819D01*
X163641666Y-71704819D02*
X163784523Y-71752438D01*
X163784523Y-71752438D02*
X163832142Y-71800057D01*
X164784523Y-72704819D02*
X164213095Y-72704819D01*
X164498809Y-72704819D02*
X164498809Y-71704819D01*
X164498809Y-71704819D02*
X164403571Y-71847676D01*
X164403571Y-71847676D02*
X164308333Y-71942914D01*
X164308333Y-71942914D02*
X164213095Y-71990533D01*
X165689285Y-71704819D02*
X165213095Y-71704819D01*
X165213095Y-71704819D02*
X165165476Y-72181009D01*
X165165476Y-72181009D02*
X165213095Y-72133390D01*
X165213095Y-72133390D02*
X165308333Y-72085771D01*
X165308333Y-72085771D02*
X165546428Y-72085771D01*
X165546428Y-72085771D02*
X165641666Y-72133390D01*
X165641666Y-72133390D02*
X165689285Y-72181009D01*
X165689285Y-72181009D02*
X165736904Y-72276247D01*
X165736904Y-72276247D02*
X165736904Y-72514342D01*
X165736904Y-72514342D02*
X165689285Y-72609580D01*
X165689285Y-72609580D02*
X165641666Y-72657200D01*
X165641666Y-72657200D02*
X165546428Y-72704819D01*
X165546428Y-72704819D02*
X165308333Y-72704819D01*
X165308333Y-72704819D02*
X165213095Y-72657200D01*
X165213095Y-72657200D02*
X165165476Y-72609580D01*
X167754761Y-72704819D02*
X167183333Y-72704819D01*
X167469047Y-72704819D02*
X167469047Y-71704819D01*
X167469047Y-71704819D02*
X167373809Y-71847676D01*
X167373809Y-71847676D02*
X167278571Y-71942914D01*
X167278571Y-71942914D02*
X167183333Y-71990533D01*
X168611904Y-72038152D02*
X168611904Y-72704819D01*
X168183333Y-72038152D02*
X168183333Y-72561961D01*
X168183333Y-72561961D02*
X168230952Y-72657200D01*
X168230952Y-72657200D02*
X168326190Y-72704819D01*
X168326190Y-72704819D02*
X168469047Y-72704819D01*
X168469047Y-72704819D02*
X168564285Y-72657200D01*
X168564285Y-72657200D02*
X168611904Y-72609580D01*
X169421428Y-72181009D02*
X169088095Y-72181009D01*
X169088095Y-72704819D02*
X169088095Y-71704819D01*
X169088095Y-71704819D02*
X169564285Y-71704819D01*
X143607142Y-49309580D02*
X143559523Y-49357200D01*
X143559523Y-49357200D02*
X143416666Y-49404819D01*
X143416666Y-49404819D02*
X143321428Y-49404819D01*
X143321428Y-49404819D02*
X143178571Y-49357200D01*
X143178571Y-49357200D02*
X143083333Y-49261961D01*
X143083333Y-49261961D02*
X143035714Y-49166723D01*
X143035714Y-49166723D02*
X142988095Y-48976247D01*
X142988095Y-48976247D02*
X142988095Y-48833390D01*
X142988095Y-48833390D02*
X143035714Y-48642914D01*
X143035714Y-48642914D02*
X143083333Y-48547676D01*
X143083333Y-48547676D02*
X143178571Y-48452438D01*
X143178571Y-48452438D02*
X143321428Y-48404819D01*
X143321428Y-48404819D02*
X143416666Y-48404819D01*
X143416666Y-48404819D02*
X143559523Y-48452438D01*
X143559523Y-48452438D02*
X143607142Y-48500057D01*
X143988095Y-48500057D02*
X144035714Y-48452438D01*
X144035714Y-48452438D02*
X144130952Y-48404819D01*
X144130952Y-48404819D02*
X144369047Y-48404819D01*
X144369047Y-48404819D02*
X144464285Y-48452438D01*
X144464285Y-48452438D02*
X144511904Y-48500057D01*
X144511904Y-48500057D02*
X144559523Y-48595295D01*
X144559523Y-48595295D02*
X144559523Y-48690533D01*
X144559523Y-48690533D02*
X144511904Y-48833390D01*
X144511904Y-48833390D02*
X143940476Y-49404819D01*
X143940476Y-49404819D02*
X144559523Y-49404819D01*
X144940476Y-48500057D02*
X144988095Y-48452438D01*
X144988095Y-48452438D02*
X145083333Y-48404819D01*
X145083333Y-48404819D02*
X145321428Y-48404819D01*
X145321428Y-48404819D02*
X145416666Y-48452438D01*
X145416666Y-48452438D02*
X145464285Y-48500057D01*
X145464285Y-48500057D02*
X145511904Y-48595295D01*
X145511904Y-48595295D02*
X145511904Y-48690533D01*
X145511904Y-48690533D02*
X145464285Y-48833390D01*
X145464285Y-48833390D02*
X144892857Y-49404819D01*
X144892857Y-49404819D02*
X145511904Y-49404819D01*
X142657143Y-49704819D02*
X142752381Y-49704819D01*
X142752381Y-49704819D02*
X142847619Y-49752438D01*
X142847619Y-49752438D02*
X142895238Y-49800057D01*
X142895238Y-49800057D02*
X142942857Y-49895295D01*
X142942857Y-49895295D02*
X142990476Y-50085771D01*
X142990476Y-50085771D02*
X142990476Y-50323866D01*
X142990476Y-50323866D02*
X142942857Y-50514342D01*
X142942857Y-50514342D02*
X142895238Y-50609580D01*
X142895238Y-50609580D02*
X142847619Y-50657200D01*
X142847619Y-50657200D02*
X142752381Y-50704819D01*
X142752381Y-50704819D02*
X142657143Y-50704819D01*
X142657143Y-50704819D02*
X142561905Y-50657200D01*
X142561905Y-50657200D02*
X142514286Y-50609580D01*
X142514286Y-50609580D02*
X142466667Y-50514342D01*
X142466667Y-50514342D02*
X142419048Y-50323866D01*
X142419048Y-50323866D02*
X142419048Y-50085771D01*
X142419048Y-50085771D02*
X142466667Y-49895295D01*
X142466667Y-49895295D02*
X142514286Y-49800057D01*
X142514286Y-49800057D02*
X142561905Y-49752438D01*
X142561905Y-49752438D02*
X142657143Y-49704819D01*
X143419048Y-50609580D02*
X143466667Y-50657200D01*
X143466667Y-50657200D02*
X143419048Y-50704819D01*
X143419048Y-50704819D02*
X143371429Y-50657200D01*
X143371429Y-50657200D02*
X143419048Y-50609580D01*
X143419048Y-50609580D02*
X143419048Y-50704819D01*
X144419047Y-50704819D02*
X143847619Y-50704819D01*
X144133333Y-50704819D02*
X144133333Y-49704819D01*
X144133333Y-49704819D02*
X144038095Y-49847676D01*
X144038095Y-49847676D02*
X143942857Y-49942914D01*
X143942857Y-49942914D02*
X143847619Y-49990533D01*
X145276190Y-50038152D02*
X145276190Y-50704819D01*
X144847619Y-50038152D02*
X144847619Y-50561961D01*
X144847619Y-50561961D02*
X144895238Y-50657200D01*
X144895238Y-50657200D02*
X144990476Y-50704819D01*
X144990476Y-50704819D02*
X145133333Y-50704819D01*
X145133333Y-50704819D02*
X145228571Y-50657200D01*
X145228571Y-50657200D02*
X145276190Y-50609580D01*
X146085714Y-50181009D02*
X145752381Y-50181009D01*
X145752381Y-50704819D02*
X145752381Y-49704819D01*
X145752381Y-49704819D02*
X146228571Y-49704819D01*
X145557142Y-77959580D02*
X145509523Y-78007200D01*
X145509523Y-78007200D02*
X145366666Y-78054819D01*
X145366666Y-78054819D02*
X145271428Y-78054819D01*
X145271428Y-78054819D02*
X145128571Y-78007200D01*
X145128571Y-78007200D02*
X145033333Y-77911961D01*
X145033333Y-77911961D02*
X144985714Y-77816723D01*
X144985714Y-77816723D02*
X144938095Y-77626247D01*
X144938095Y-77626247D02*
X144938095Y-77483390D01*
X144938095Y-77483390D02*
X144985714Y-77292914D01*
X144985714Y-77292914D02*
X145033333Y-77197676D01*
X145033333Y-77197676D02*
X145128571Y-77102438D01*
X145128571Y-77102438D02*
X145271428Y-77054819D01*
X145271428Y-77054819D02*
X145366666Y-77054819D01*
X145366666Y-77054819D02*
X145509523Y-77102438D01*
X145509523Y-77102438D02*
X145557142Y-77150057D01*
X146509523Y-78054819D02*
X145938095Y-78054819D01*
X146223809Y-78054819D02*
X146223809Y-77054819D01*
X146223809Y-77054819D02*
X146128571Y-77197676D01*
X146128571Y-77197676D02*
X146033333Y-77292914D01*
X146033333Y-77292914D02*
X145938095Y-77340533D01*
X146842857Y-77054819D02*
X147509523Y-77054819D01*
X147509523Y-77054819D02*
X147080952Y-78054819D01*
X145407142Y-78788152D02*
X145407142Y-79454819D01*
X145169047Y-78407200D02*
X144930952Y-79121485D01*
X144930952Y-79121485D02*
X145549999Y-79121485D01*
X145835714Y-78454819D02*
X146502380Y-78454819D01*
X146502380Y-78454819D02*
X146073809Y-79454819D01*
X147073809Y-78454819D02*
X147169047Y-78454819D01*
X147169047Y-78454819D02*
X147264285Y-78502438D01*
X147264285Y-78502438D02*
X147311904Y-78550057D01*
X147311904Y-78550057D02*
X147359523Y-78645295D01*
X147359523Y-78645295D02*
X147407142Y-78835771D01*
X147407142Y-78835771D02*
X147407142Y-79073866D01*
X147407142Y-79073866D02*
X147359523Y-79264342D01*
X147359523Y-79264342D02*
X147311904Y-79359580D01*
X147311904Y-79359580D02*
X147264285Y-79407200D01*
X147264285Y-79407200D02*
X147169047Y-79454819D01*
X147169047Y-79454819D02*
X147073809Y-79454819D01*
X147073809Y-79454819D02*
X146978571Y-79407200D01*
X146978571Y-79407200D02*
X146930952Y-79359580D01*
X146930952Y-79359580D02*
X146883333Y-79264342D01*
X146883333Y-79264342D02*
X146835714Y-79073866D01*
X146835714Y-79073866D02*
X146835714Y-78835771D01*
X146835714Y-78835771D02*
X146883333Y-78645295D01*
X146883333Y-78645295D02*
X146930952Y-78550057D01*
X146930952Y-78550057D02*
X146978571Y-78502438D01*
X146978571Y-78502438D02*
X147073809Y-78454819D01*
X147835714Y-78788152D02*
X147835714Y-79788152D01*
X147835714Y-78835771D02*
X147930952Y-78788152D01*
X147930952Y-78788152D02*
X148121428Y-78788152D01*
X148121428Y-78788152D02*
X148216666Y-78835771D01*
X148216666Y-78835771D02*
X148264285Y-78883390D01*
X148264285Y-78883390D02*
X148311904Y-78978628D01*
X148311904Y-78978628D02*
X148311904Y-79264342D01*
X148311904Y-79264342D02*
X148264285Y-79359580D01*
X148264285Y-79359580D02*
X148216666Y-79407200D01*
X148216666Y-79407200D02*
X148121428Y-79454819D01*
X148121428Y-79454819D02*
X147930952Y-79454819D01*
X147930952Y-79454819D02*
X147835714Y-79407200D01*
X149073809Y-78931009D02*
X148740476Y-78931009D01*
X148740476Y-79454819D02*
X148740476Y-78454819D01*
X148740476Y-78454819D02*
X149216666Y-78454819D01*
X179332142Y-75359580D02*
X179284523Y-75407200D01*
X179284523Y-75407200D02*
X179141666Y-75454819D01*
X179141666Y-75454819D02*
X179046428Y-75454819D01*
X179046428Y-75454819D02*
X178903571Y-75407200D01*
X178903571Y-75407200D02*
X178808333Y-75311961D01*
X178808333Y-75311961D02*
X178760714Y-75216723D01*
X178760714Y-75216723D02*
X178713095Y-75026247D01*
X178713095Y-75026247D02*
X178713095Y-74883390D01*
X178713095Y-74883390D02*
X178760714Y-74692914D01*
X178760714Y-74692914D02*
X178808333Y-74597676D01*
X178808333Y-74597676D02*
X178903571Y-74502438D01*
X178903571Y-74502438D02*
X179046428Y-74454819D01*
X179046428Y-74454819D02*
X179141666Y-74454819D01*
X179141666Y-74454819D02*
X179284523Y-74502438D01*
X179284523Y-74502438D02*
X179332142Y-74550057D01*
X179713095Y-74550057D02*
X179760714Y-74502438D01*
X179760714Y-74502438D02*
X179855952Y-74454819D01*
X179855952Y-74454819D02*
X180094047Y-74454819D01*
X180094047Y-74454819D02*
X180189285Y-74502438D01*
X180189285Y-74502438D02*
X180236904Y-74550057D01*
X180236904Y-74550057D02*
X180284523Y-74645295D01*
X180284523Y-74645295D02*
X180284523Y-74740533D01*
X180284523Y-74740533D02*
X180236904Y-74883390D01*
X180236904Y-74883390D02*
X179665476Y-75454819D01*
X179665476Y-75454819D02*
X180284523Y-75454819D01*
X181236904Y-75454819D02*
X180665476Y-75454819D01*
X180951190Y-75454819D02*
X180951190Y-74454819D01*
X180951190Y-74454819D02*
X180855952Y-74597676D01*
X180855952Y-74597676D02*
X180760714Y-74692914D01*
X180760714Y-74692914D02*
X180665476Y-74740533D01*
X178714286Y-79354819D02*
X178714286Y-78354819D01*
X178714286Y-78354819D02*
X178952381Y-78354819D01*
X178952381Y-78354819D02*
X179095238Y-78402438D01*
X179095238Y-78402438D02*
X179190476Y-78497676D01*
X179190476Y-78497676D02*
X179238095Y-78592914D01*
X179238095Y-78592914D02*
X179285714Y-78783390D01*
X179285714Y-78783390D02*
X179285714Y-78926247D01*
X179285714Y-78926247D02*
X179238095Y-79116723D01*
X179238095Y-79116723D02*
X179190476Y-79211961D01*
X179190476Y-79211961D02*
X179095238Y-79307200D01*
X179095238Y-79307200D02*
X178952381Y-79354819D01*
X178952381Y-79354819D02*
X178714286Y-79354819D01*
X179714286Y-79354819D02*
X179714286Y-78354819D01*
X179714286Y-78354819D02*
X180285714Y-79354819D01*
X180285714Y-79354819D02*
X180285714Y-78354819D01*
X180761905Y-79354819D02*
X180761905Y-78354819D01*
X180761905Y-78354819D02*
X181142857Y-78354819D01*
X181142857Y-78354819D02*
X181238095Y-78402438D01*
X181238095Y-78402438D02*
X181285714Y-78450057D01*
X181285714Y-78450057D02*
X181333333Y-78545295D01*
X181333333Y-78545295D02*
X181333333Y-78688152D01*
X181333333Y-78688152D02*
X181285714Y-78783390D01*
X181285714Y-78783390D02*
X181238095Y-78831009D01*
X181238095Y-78831009D02*
X181142857Y-78878628D01*
X181142857Y-78878628D02*
X180761905Y-78878628D01*
X111858333Y-49609580D02*
X111810714Y-49657200D01*
X111810714Y-49657200D02*
X111667857Y-49704819D01*
X111667857Y-49704819D02*
X111572619Y-49704819D01*
X111572619Y-49704819D02*
X111429762Y-49657200D01*
X111429762Y-49657200D02*
X111334524Y-49561961D01*
X111334524Y-49561961D02*
X111286905Y-49466723D01*
X111286905Y-49466723D02*
X111239286Y-49276247D01*
X111239286Y-49276247D02*
X111239286Y-49133390D01*
X111239286Y-49133390D02*
X111286905Y-48942914D01*
X111286905Y-48942914D02*
X111334524Y-48847676D01*
X111334524Y-48847676D02*
X111429762Y-48752438D01*
X111429762Y-48752438D02*
X111572619Y-48704819D01*
X111572619Y-48704819D02*
X111667857Y-48704819D01*
X111667857Y-48704819D02*
X111810714Y-48752438D01*
X111810714Y-48752438D02*
X111858333Y-48800057D01*
X112191667Y-48704819D02*
X112810714Y-48704819D01*
X112810714Y-48704819D02*
X112477381Y-49085771D01*
X112477381Y-49085771D02*
X112620238Y-49085771D01*
X112620238Y-49085771D02*
X112715476Y-49133390D01*
X112715476Y-49133390D02*
X112763095Y-49181009D01*
X112763095Y-49181009D02*
X112810714Y-49276247D01*
X112810714Y-49276247D02*
X112810714Y-49514342D01*
X112810714Y-49514342D02*
X112763095Y-49609580D01*
X112763095Y-49609580D02*
X112715476Y-49657200D01*
X112715476Y-49657200D02*
X112620238Y-49704819D01*
X112620238Y-49704819D02*
X112334524Y-49704819D01*
X112334524Y-49704819D02*
X112239286Y-49657200D01*
X112239286Y-49657200D02*
X112191667Y-49609580D01*
X110057143Y-49954819D02*
X110152381Y-49954819D01*
X110152381Y-49954819D02*
X110247619Y-50002438D01*
X110247619Y-50002438D02*
X110295238Y-50050057D01*
X110295238Y-50050057D02*
X110342857Y-50145295D01*
X110342857Y-50145295D02*
X110390476Y-50335771D01*
X110390476Y-50335771D02*
X110390476Y-50573866D01*
X110390476Y-50573866D02*
X110342857Y-50764342D01*
X110342857Y-50764342D02*
X110295238Y-50859580D01*
X110295238Y-50859580D02*
X110247619Y-50907200D01*
X110247619Y-50907200D02*
X110152381Y-50954819D01*
X110152381Y-50954819D02*
X110057143Y-50954819D01*
X110057143Y-50954819D02*
X109961905Y-50907200D01*
X109961905Y-50907200D02*
X109914286Y-50859580D01*
X109914286Y-50859580D02*
X109866667Y-50764342D01*
X109866667Y-50764342D02*
X109819048Y-50573866D01*
X109819048Y-50573866D02*
X109819048Y-50335771D01*
X109819048Y-50335771D02*
X109866667Y-50145295D01*
X109866667Y-50145295D02*
X109914286Y-50050057D01*
X109914286Y-50050057D02*
X109961905Y-50002438D01*
X109961905Y-50002438D02*
X110057143Y-49954819D01*
X110819048Y-50859580D02*
X110866667Y-50907200D01*
X110866667Y-50907200D02*
X110819048Y-50954819D01*
X110819048Y-50954819D02*
X110771429Y-50907200D01*
X110771429Y-50907200D02*
X110819048Y-50859580D01*
X110819048Y-50859580D02*
X110819048Y-50954819D01*
X111819047Y-50954819D02*
X111247619Y-50954819D01*
X111533333Y-50954819D02*
X111533333Y-49954819D01*
X111533333Y-49954819D02*
X111438095Y-50097676D01*
X111438095Y-50097676D02*
X111342857Y-50192914D01*
X111342857Y-50192914D02*
X111247619Y-50240533D01*
X112676190Y-50288152D02*
X112676190Y-50954819D01*
X112247619Y-50288152D02*
X112247619Y-50811961D01*
X112247619Y-50811961D02*
X112295238Y-50907200D01*
X112295238Y-50907200D02*
X112390476Y-50954819D01*
X112390476Y-50954819D02*
X112533333Y-50954819D01*
X112533333Y-50954819D02*
X112628571Y-50907200D01*
X112628571Y-50907200D02*
X112676190Y-50859580D01*
X113485714Y-50431009D02*
X113152381Y-50431009D01*
X113152381Y-50954819D02*
X113152381Y-49954819D01*
X113152381Y-49954819D02*
X113628571Y-49954819D01*
X166157142Y-51559580D02*
X166109523Y-51607200D01*
X166109523Y-51607200D02*
X165966666Y-51654819D01*
X165966666Y-51654819D02*
X165871428Y-51654819D01*
X165871428Y-51654819D02*
X165728571Y-51607200D01*
X165728571Y-51607200D02*
X165633333Y-51511961D01*
X165633333Y-51511961D02*
X165585714Y-51416723D01*
X165585714Y-51416723D02*
X165538095Y-51226247D01*
X165538095Y-51226247D02*
X165538095Y-51083390D01*
X165538095Y-51083390D02*
X165585714Y-50892914D01*
X165585714Y-50892914D02*
X165633333Y-50797676D01*
X165633333Y-50797676D02*
X165728571Y-50702438D01*
X165728571Y-50702438D02*
X165871428Y-50654819D01*
X165871428Y-50654819D02*
X165966666Y-50654819D01*
X165966666Y-50654819D02*
X166109523Y-50702438D01*
X166109523Y-50702438D02*
X166157142Y-50750057D01*
X166538095Y-50750057D02*
X166585714Y-50702438D01*
X166585714Y-50702438D02*
X166680952Y-50654819D01*
X166680952Y-50654819D02*
X166919047Y-50654819D01*
X166919047Y-50654819D02*
X167014285Y-50702438D01*
X167014285Y-50702438D02*
X167061904Y-50750057D01*
X167061904Y-50750057D02*
X167109523Y-50845295D01*
X167109523Y-50845295D02*
X167109523Y-50940533D01*
X167109523Y-50940533D02*
X167061904Y-51083390D01*
X167061904Y-51083390D02*
X166490476Y-51654819D01*
X166490476Y-51654819D02*
X167109523Y-51654819D01*
X167728571Y-50654819D02*
X167823809Y-50654819D01*
X167823809Y-50654819D02*
X167919047Y-50702438D01*
X167919047Y-50702438D02*
X167966666Y-50750057D01*
X167966666Y-50750057D02*
X168014285Y-50845295D01*
X168014285Y-50845295D02*
X168061904Y-51035771D01*
X168061904Y-51035771D02*
X168061904Y-51273866D01*
X168061904Y-51273866D02*
X168014285Y-51464342D01*
X168014285Y-51464342D02*
X167966666Y-51559580D01*
X167966666Y-51559580D02*
X167919047Y-51607200D01*
X167919047Y-51607200D02*
X167823809Y-51654819D01*
X167823809Y-51654819D02*
X167728571Y-51654819D01*
X167728571Y-51654819D02*
X167633333Y-51607200D01*
X167633333Y-51607200D02*
X167585714Y-51559580D01*
X167585714Y-51559580D02*
X167538095Y-51464342D01*
X167538095Y-51464342D02*
X167490476Y-51273866D01*
X167490476Y-51273866D02*
X167490476Y-51035771D01*
X167490476Y-51035771D02*
X167538095Y-50845295D01*
X167538095Y-50845295D02*
X167585714Y-50750057D01*
X167585714Y-50750057D02*
X167633333Y-50702438D01*
X167633333Y-50702438D02*
X167728571Y-50654819D01*
X168814286Y-51654819D02*
X168814286Y-50654819D01*
X168814286Y-50654819D02*
X169052381Y-50654819D01*
X169052381Y-50654819D02*
X169195238Y-50702438D01*
X169195238Y-50702438D02*
X169290476Y-50797676D01*
X169290476Y-50797676D02*
X169338095Y-50892914D01*
X169338095Y-50892914D02*
X169385714Y-51083390D01*
X169385714Y-51083390D02*
X169385714Y-51226247D01*
X169385714Y-51226247D02*
X169338095Y-51416723D01*
X169338095Y-51416723D02*
X169290476Y-51511961D01*
X169290476Y-51511961D02*
X169195238Y-51607200D01*
X169195238Y-51607200D02*
X169052381Y-51654819D01*
X169052381Y-51654819D02*
X168814286Y-51654819D01*
X169814286Y-51654819D02*
X169814286Y-50654819D01*
X169814286Y-50654819D02*
X170385714Y-51654819D01*
X170385714Y-51654819D02*
X170385714Y-50654819D01*
X170861905Y-51654819D02*
X170861905Y-50654819D01*
X170861905Y-50654819D02*
X171242857Y-50654819D01*
X171242857Y-50654819D02*
X171338095Y-50702438D01*
X171338095Y-50702438D02*
X171385714Y-50750057D01*
X171385714Y-50750057D02*
X171433333Y-50845295D01*
X171433333Y-50845295D02*
X171433333Y-50988152D01*
X171433333Y-50988152D02*
X171385714Y-51083390D01*
X171385714Y-51083390D02*
X171338095Y-51131009D01*
X171338095Y-51131009D02*
X171242857Y-51178628D01*
X171242857Y-51178628D02*
X170861905Y-51178628D01*
X131807142Y-76409580D02*
X131759523Y-76457200D01*
X131759523Y-76457200D02*
X131616666Y-76504819D01*
X131616666Y-76504819D02*
X131521428Y-76504819D01*
X131521428Y-76504819D02*
X131378571Y-76457200D01*
X131378571Y-76457200D02*
X131283333Y-76361961D01*
X131283333Y-76361961D02*
X131235714Y-76266723D01*
X131235714Y-76266723D02*
X131188095Y-76076247D01*
X131188095Y-76076247D02*
X131188095Y-75933390D01*
X131188095Y-75933390D02*
X131235714Y-75742914D01*
X131235714Y-75742914D02*
X131283333Y-75647676D01*
X131283333Y-75647676D02*
X131378571Y-75552438D01*
X131378571Y-75552438D02*
X131521428Y-75504819D01*
X131521428Y-75504819D02*
X131616666Y-75504819D01*
X131616666Y-75504819D02*
X131759523Y-75552438D01*
X131759523Y-75552438D02*
X131807142Y-75600057D01*
X132759523Y-76504819D02*
X132188095Y-76504819D01*
X132473809Y-76504819D02*
X132473809Y-75504819D01*
X132473809Y-75504819D02*
X132378571Y-75647676D01*
X132378571Y-75647676D02*
X132283333Y-75742914D01*
X132283333Y-75742914D02*
X132188095Y-75790533D01*
X133330952Y-75933390D02*
X133235714Y-75885771D01*
X133235714Y-75885771D02*
X133188095Y-75838152D01*
X133188095Y-75838152D02*
X133140476Y-75742914D01*
X133140476Y-75742914D02*
X133140476Y-75695295D01*
X133140476Y-75695295D02*
X133188095Y-75600057D01*
X133188095Y-75600057D02*
X133235714Y-75552438D01*
X133235714Y-75552438D02*
X133330952Y-75504819D01*
X133330952Y-75504819D02*
X133521428Y-75504819D01*
X133521428Y-75504819D02*
X133616666Y-75552438D01*
X133616666Y-75552438D02*
X133664285Y-75600057D01*
X133664285Y-75600057D02*
X133711904Y-75695295D01*
X133711904Y-75695295D02*
X133711904Y-75742914D01*
X133711904Y-75742914D02*
X133664285Y-75838152D01*
X133664285Y-75838152D02*
X133616666Y-75885771D01*
X133616666Y-75885771D02*
X133521428Y-75933390D01*
X133521428Y-75933390D02*
X133330952Y-75933390D01*
X133330952Y-75933390D02*
X133235714Y-75981009D01*
X133235714Y-75981009D02*
X133188095Y-76028628D01*
X133188095Y-76028628D02*
X133140476Y-76123866D01*
X133140476Y-76123866D02*
X133140476Y-76314342D01*
X133140476Y-76314342D02*
X133188095Y-76409580D01*
X133188095Y-76409580D02*
X133235714Y-76457200D01*
X133235714Y-76457200D02*
X133330952Y-76504819D01*
X133330952Y-76504819D02*
X133521428Y-76504819D01*
X133521428Y-76504819D02*
X133616666Y-76457200D01*
X133616666Y-76457200D02*
X133664285Y-76409580D01*
X133664285Y-76409580D02*
X133711904Y-76314342D01*
X133711904Y-76314342D02*
X133711904Y-76123866D01*
X133711904Y-76123866D02*
X133664285Y-76028628D01*
X133664285Y-76028628D02*
X133616666Y-75981009D01*
X133616666Y-75981009D02*
X133521428Y-75933390D01*
X130607142Y-77238152D02*
X130607142Y-77904819D01*
X130369047Y-76857200D02*
X130130952Y-77571485D01*
X130130952Y-77571485D02*
X130749999Y-77571485D01*
X131035714Y-76904819D02*
X131702380Y-76904819D01*
X131702380Y-76904819D02*
X131273809Y-77904819D01*
X132273809Y-76904819D02*
X132369047Y-76904819D01*
X132369047Y-76904819D02*
X132464285Y-76952438D01*
X132464285Y-76952438D02*
X132511904Y-77000057D01*
X132511904Y-77000057D02*
X132559523Y-77095295D01*
X132559523Y-77095295D02*
X132607142Y-77285771D01*
X132607142Y-77285771D02*
X132607142Y-77523866D01*
X132607142Y-77523866D02*
X132559523Y-77714342D01*
X132559523Y-77714342D02*
X132511904Y-77809580D01*
X132511904Y-77809580D02*
X132464285Y-77857200D01*
X132464285Y-77857200D02*
X132369047Y-77904819D01*
X132369047Y-77904819D02*
X132273809Y-77904819D01*
X132273809Y-77904819D02*
X132178571Y-77857200D01*
X132178571Y-77857200D02*
X132130952Y-77809580D01*
X132130952Y-77809580D02*
X132083333Y-77714342D01*
X132083333Y-77714342D02*
X132035714Y-77523866D01*
X132035714Y-77523866D02*
X132035714Y-77285771D01*
X132035714Y-77285771D02*
X132083333Y-77095295D01*
X132083333Y-77095295D02*
X132130952Y-77000057D01*
X132130952Y-77000057D02*
X132178571Y-76952438D01*
X132178571Y-76952438D02*
X132273809Y-76904819D01*
X133035714Y-77238152D02*
X133035714Y-78238152D01*
X133035714Y-77285771D02*
X133130952Y-77238152D01*
X133130952Y-77238152D02*
X133321428Y-77238152D01*
X133321428Y-77238152D02*
X133416666Y-77285771D01*
X133416666Y-77285771D02*
X133464285Y-77333390D01*
X133464285Y-77333390D02*
X133511904Y-77428628D01*
X133511904Y-77428628D02*
X133511904Y-77714342D01*
X133511904Y-77714342D02*
X133464285Y-77809580D01*
X133464285Y-77809580D02*
X133416666Y-77857200D01*
X133416666Y-77857200D02*
X133321428Y-77904819D01*
X133321428Y-77904819D02*
X133130952Y-77904819D01*
X133130952Y-77904819D02*
X133035714Y-77857200D01*
X134273809Y-77381009D02*
X133940476Y-77381009D01*
X133940476Y-77904819D02*
X133940476Y-76904819D01*
X133940476Y-76904819D02*
X134416666Y-76904819D01*
X137707142Y-78009580D02*
X137659523Y-78057200D01*
X137659523Y-78057200D02*
X137516666Y-78104819D01*
X137516666Y-78104819D02*
X137421428Y-78104819D01*
X137421428Y-78104819D02*
X137278571Y-78057200D01*
X137278571Y-78057200D02*
X137183333Y-77961961D01*
X137183333Y-77961961D02*
X137135714Y-77866723D01*
X137135714Y-77866723D02*
X137088095Y-77676247D01*
X137088095Y-77676247D02*
X137088095Y-77533390D01*
X137088095Y-77533390D02*
X137135714Y-77342914D01*
X137135714Y-77342914D02*
X137183333Y-77247676D01*
X137183333Y-77247676D02*
X137278571Y-77152438D01*
X137278571Y-77152438D02*
X137421428Y-77104819D01*
X137421428Y-77104819D02*
X137516666Y-77104819D01*
X137516666Y-77104819D02*
X137659523Y-77152438D01*
X137659523Y-77152438D02*
X137707142Y-77200057D01*
X138659523Y-78104819D02*
X138088095Y-78104819D01*
X138373809Y-78104819D02*
X138373809Y-77104819D01*
X138373809Y-77104819D02*
X138278571Y-77247676D01*
X138278571Y-77247676D02*
X138183333Y-77342914D01*
X138183333Y-77342914D02*
X138088095Y-77390533D01*
X139135714Y-78104819D02*
X139326190Y-78104819D01*
X139326190Y-78104819D02*
X139421428Y-78057200D01*
X139421428Y-78057200D02*
X139469047Y-78009580D01*
X139469047Y-78009580D02*
X139564285Y-77866723D01*
X139564285Y-77866723D02*
X139611904Y-77676247D01*
X139611904Y-77676247D02*
X139611904Y-77295295D01*
X139611904Y-77295295D02*
X139564285Y-77200057D01*
X139564285Y-77200057D02*
X139516666Y-77152438D01*
X139516666Y-77152438D02*
X139421428Y-77104819D01*
X139421428Y-77104819D02*
X139230952Y-77104819D01*
X139230952Y-77104819D02*
X139135714Y-77152438D01*
X139135714Y-77152438D02*
X139088095Y-77200057D01*
X139088095Y-77200057D02*
X139040476Y-77295295D01*
X139040476Y-77295295D02*
X139040476Y-77533390D01*
X139040476Y-77533390D02*
X139088095Y-77628628D01*
X139088095Y-77628628D02*
X139135714Y-77676247D01*
X139135714Y-77676247D02*
X139230952Y-77723866D01*
X139230952Y-77723866D02*
X139421428Y-77723866D01*
X139421428Y-77723866D02*
X139516666Y-77676247D01*
X139516666Y-77676247D02*
X139564285Y-77628628D01*
X139564285Y-77628628D02*
X139611904Y-77533390D01*
X135807142Y-78888152D02*
X135807142Y-79554819D01*
X135569047Y-78507200D02*
X135330952Y-79221485D01*
X135330952Y-79221485D02*
X135949999Y-79221485D01*
X136235714Y-78554819D02*
X136902380Y-78554819D01*
X136902380Y-78554819D02*
X136473809Y-79554819D01*
X137473809Y-78554819D02*
X137569047Y-78554819D01*
X137569047Y-78554819D02*
X137664285Y-78602438D01*
X137664285Y-78602438D02*
X137711904Y-78650057D01*
X137711904Y-78650057D02*
X137759523Y-78745295D01*
X137759523Y-78745295D02*
X137807142Y-78935771D01*
X137807142Y-78935771D02*
X137807142Y-79173866D01*
X137807142Y-79173866D02*
X137759523Y-79364342D01*
X137759523Y-79364342D02*
X137711904Y-79459580D01*
X137711904Y-79459580D02*
X137664285Y-79507200D01*
X137664285Y-79507200D02*
X137569047Y-79554819D01*
X137569047Y-79554819D02*
X137473809Y-79554819D01*
X137473809Y-79554819D02*
X137378571Y-79507200D01*
X137378571Y-79507200D02*
X137330952Y-79459580D01*
X137330952Y-79459580D02*
X137283333Y-79364342D01*
X137283333Y-79364342D02*
X137235714Y-79173866D01*
X137235714Y-79173866D02*
X137235714Y-78935771D01*
X137235714Y-78935771D02*
X137283333Y-78745295D01*
X137283333Y-78745295D02*
X137330952Y-78650057D01*
X137330952Y-78650057D02*
X137378571Y-78602438D01*
X137378571Y-78602438D02*
X137473809Y-78554819D01*
X138235714Y-78888152D02*
X138235714Y-79888152D01*
X138235714Y-78935771D02*
X138330952Y-78888152D01*
X138330952Y-78888152D02*
X138521428Y-78888152D01*
X138521428Y-78888152D02*
X138616666Y-78935771D01*
X138616666Y-78935771D02*
X138664285Y-78983390D01*
X138664285Y-78983390D02*
X138711904Y-79078628D01*
X138711904Y-79078628D02*
X138711904Y-79364342D01*
X138711904Y-79364342D02*
X138664285Y-79459580D01*
X138664285Y-79459580D02*
X138616666Y-79507200D01*
X138616666Y-79507200D02*
X138521428Y-79554819D01*
X138521428Y-79554819D02*
X138330952Y-79554819D01*
X138330952Y-79554819D02*
X138235714Y-79507200D01*
X139473809Y-79031009D02*
X139140476Y-79031009D01*
X139140476Y-79554819D02*
X139140476Y-78554819D01*
X139140476Y-78554819D02*
X139616666Y-78554819D01*
X110447142Y-75319580D02*
X110399523Y-75367200D01*
X110399523Y-75367200D02*
X110256666Y-75414819D01*
X110256666Y-75414819D02*
X110161428Y-75414819D01*
X110161428Y-75414819D02*
X110018571Y-75367200D01*
X110018571Y-75367200D02*
X109923333Y-75271961D01*
X109923333Y-75271961D02*
X109875714Y-75176723D01*
X109875714Y-75176723D02*
X109828095Y-74986247D01*
X109828095Y-74986247D02*
X109828095Y-74843390D01*
X109828095Y-74843390D02*
X109875714Y-74652914D01*
X109875714Y-74652914D02*
X109923333Y-74557676D01*
X109923333Y-74557676D02*
X110018571Y-74462438D01*
X110018571Y-74462438D02*
X110161428Y-74414819D01*
X110161428Y-74414819D02*
X110256666Y-74414819D01*
X110256666Y-74414819D02*
X110399523Y-74462438D01*
X110399523Y-74462438D02*
X110447142Y-74510057D01*
X111399523Y-75414819D02*
X110828095Y-75414819D01*
X111113809Y-75414819D02*
X111113809Y-74414819D01*
X111113809Y-74414819D02*
X111018571Y-74557676D01*
X111018571Y-74557676D02*
X110923333Y-74652914D01*
X110923333Y-74652914D02*
X110828095Y-74700533D01*
X112351904Y-75414819D02*
X111780476Y-75414819D01*
X112066190Y-75414819D02*
X112066190Y-74414819D01*
X112066190Y-74414819D02*
X111970952Y-74557676D01*
X111970952Y-74557676D02*
X111875714Y-74652914D01*
X111875714Y-74652914D02*
X111780476Y-74700533D01*
X109787143Y-75724819D02*
X109882381Y-75724819D01*
X109882381Y-75724819D02*
X109977619Y-75772438D01*
X109977619Y-75772438D02*
X110025238Y-75820057D01*
X110025238Y-75820057D02*
X110072857Y-75915295D01*
X110072857Y-75915295D02*
X110120476Y-76105771D01*
X110120476Y-76105771D02*
X110120476Y-76343866D01*
X110120476Y-76343866D02*
X110072857Y-76534342D01*
X110072857Y-76534342D02*
X110025238Y-76629580D01*
X110025238Y-76629580D02*
X109977619Y-76677200D01*
X109977619Y-76677200D02*
X109882381Y-76724819D01*
X109882381Y-76724819D02*
X109787143Y-76724819D01*
X109787143Y-76724819D02*
X109691905Y-76677200D01*
X109691905Y-76677200D02*
X109644286Y-76629580D01*
X109644286Y-76629580D02*
X109596667Y-76534342D01*
X109596667Y-76534342D02*
X109549048Y-76343866D01*
X109549048Y-76343866D02*
X109549048Y-76105771D01*
X109549048Y-76105771D02*
X109596667Y-75915295D01*
X109596667Y-75915295D02*
X109644286Y-75820057D01*
X109644286Y-75820057D02*
X109691905Y-75772438D01*
X109691905Y-75772438D02*
X109787143Y-75724819D01*
X110549048Y-76629580D02*
X110596667Y-76677200D01*
X110596667Y-76677200D02*
X110549048Y-76724819D01*
X110549048Y-76724819D02*
X110501429Y-76677200D01*
X110501429Y-76677200D02*
X110549048Y-76629580D01*
X110549048Y-76629580D02*
X110549048Y-76724819D01*
X111549047Y-76724819D02*
X110977619Y-76724819D01*
X111263333Y-76724819D02*
X111263333Y-75724819D01*
X111263333Y-75724819D02*
X111168095Y-75867676D01*
X111168095Y-75867676D02*
X111072857Y-75962914D01*
X111072857Y-75962914D02*
X110977619Y-76010533D01*
X112406190Y-76058152D02*
X112406190Y-76724819D01*
X111977619Y-76058152D02*
X111977619Y-76581961D01*
X111977619Y-76581961D02*
X112025238Y-76677200D01*
X112025238Y-76677200D02*
X112120476Y-76724819D01*
X112120476Y-76724819D02*
X112263333Y-76724819D01*
X112263333Y-76724819D02*
X112358571Y-76677200D01*
X112358571Y-76677200D02*
X112406190Y-76629580D01*
X113215714Y-76201009D02*
X112882381Y-76201009D01*
X112882381Y-76724819D02*
X112882381Y-75724819D01*
X112882381Y-75724819D02*
X113358571Y-75724819D01*
X118333333Y-80859580D02*
X118285714Y-80907200D01*
X118285714Y-80907200D02*
X118142857Y-80954819D01*
X118142857Y-80954819D02*
X118047619Y-80954819D01*
X118047619Y-80954819D02*
X117904762Y-80907200D01*
X117904762Y-80907200D02*
X117809524Y-80811961D01*
X117809524Y-80811961D02*
X117761905Y-80716723D01*
X117761905Y-80716723D02*
X117714286Y-80526247D01*
X117714286Y-80526247D02*
X117714286Y-80383390D01*
X117714286Y-80383390D02*
X117761905Y-80192914D01*
X117761905Y-80192914D02*
X117809524Y-80097676D01*
X117809524Y-80097676D02*
X117904762Y-80002438D01*
X117904762Y-80002438D02*
X118047619Y-79954819D01*
X118047619Y-79954819D02*
X118142857Y-79954819D01*
X118142857Y-79954819D02*
X118285714Y-80002438D01*
X118285714Y-80002438D02*
X118333333Y-80050057D01*
X119190476Y-80288152D02*
X119190476Y-80954819D01*
X118952381Y-79907200D02*
X118714286Y-80621485D01*
X118714286Y-80621485D02*
X119333333Y-80621485D01*
X118378571Y-82304819D02*
X117807143Y-82304819D01*
X118092857Y-82304819D02*
X118092857Y-81304819D01*
X118092857Y-81304819D02*
X117997619Y-81447676D01*
X117997619Y-81447676D02*
X117902381Y-81542914D01*
X117902381Y-81542914D02*
X117807143Y-81590533D01*
X118997619Y-81304819D02*
X119092857Y-81304819D01*
X119092857Y-81304819D02*
X119188095Y-81352438D01*
X119188095Y-81352438D02*
X119235714Y-81400057D01*
X119235714Y-81400057D02*
X119283333Y-81495295D01*
X119283333Y-81495295D02*
X119330952Y-81685771D01*
X119330952Y-81685771D02*
X119330952Y-81923866D01*
X119330952Y-81923866D02*
X119283333Y-82114342D01*
X119283333Y-82114342D02*
X119235714Y-82209580D01*
X119235714Y-82209580D02*
X119188095Y-82257200D01*
X119188095Y-82257200D02*
X119092857Y-82304819D01*
X119092857Y-82304819D02*
X118997619Y-82304819D01*
X118997619Y-82304819D02*
X118902381Y-82257200D01*
X118902381Y-82257200D02*
X118854762Y-82209580D01*
X118854762Y-82209580D02*
X118807143Y-82114342D01*
X118807143Y-82114342D02*
X118759524Y-81923866D01*
X118759524Y-81923866D02*
X118759524Y-81685771D01*
X118759524Y-81685771D02*
X118807143Y-81495295D01*
X118807143Y-81495295D02*
X118854762Y-81400057D01*
X118854762Y-81400057D02*
X118902381Y-81352438D01*
X118902381Y-81352438D02*
X118997619Y-81304819D01*
X120188095Y-81638152D02*
X120188095Y-82304819D01*
X119759524Y-81638152D02*
X119759524Y-82161961D01*
X119759524Y-82161961D02*
X119807143Y-82257200D01*
X119807143Y-82257200D02*
X119902381Y-82304819D01*
X119902381Y-82304819D02*
X120045238Y-82304819D01*
X120045238Y-82304819D02*
X120140476Y-82257200D01*
X120140476Y-82257200D02*
X120188095Y-82209580D01*
X120997619Y-81781009D02*
X120664286Y-81781009D01*
X120664286Y-82304819D02*
X120664286Y-81304819D01*
X120664286Y-81304819D02*
X121140476Y-81304819D01*
X173474142Y-84941580D02*
X173426523Y-84989200D01*
X173426523Y-84989200D02*
X173283666Y-85036819D01*
X173283666Y-85036819D02*
X173188428Y-85036819D01*
X173188428Y-85036819D02*
X173045571Y-84989200D01*
X173045571Y-84989200D02*
X172950333Y-84893961D01*
X172950333Y-84893961D02*
X172902714Y-84798723D01*
X172902714Y-84798723D02*
X172855095Y-84608247D01*
X172855095Y-84608247D02*
X172855095Y-84465390D01*
X172855095Y-84465390D02*
X172902714Y-84274914D01*
X172902714Y-84274914D02*
X172950333Y-84179676D01*
X172950333Y-84179676D02*
X173045571Y-84084438D01*
X173045571Y-84084438D02*
X173188428Y-84036819D01*
X173188428Y-84036819D02*
X173283666Y-84036819D01*
X173283666Y-84036819D02*
X173426523Y-84084438D01*
X173426523Y-84084438D02*
X173474142Y-84132057D01*
X174426523Y-85036819D02*
X173855095Y-85036819D01*
X174140809Y-85036819D02*
X174140809Y-84036819D01*
X174140809Y-84036819D02*
X174045571Y-84179676D01*
X174045571Y-84179676D02*
X173950333Y-84274914D01*
X173950333Y-84274914D02*
X173855095Y-84322533D01*
X174759857Y-84036819D02*
X175378904Y-84036819D01*
X175378904Y-84036819D02*
X175045571Y-84417771D01*
X175045571Y-84417771D02*
X175188428Y-84417771D01*
X175188428Y-84417771D02*
X175283666Y-84465390D01*
X175283666Y-84465390D02*
X175331285Y-84513009D01*
X175331285Y-84513009D02*
X175378904Y-84608247D01*
X175378904Y-84608247D02*
X175378904Y-84846342D01*
X175378904Y-84846342D02*
X175331285Y-84941580D01*
X175331285Y-84941580D02*
X175283666Y-84989200D01*
X175283666Y-84989200D02*
X175188428Y-85036819D01*
X175188428Y-85036819D02*
X174902714Y-85036819D01*
X174902714Y-85036819D02*
X174807476Y-84989200D01*
X174807476Y-84989200D02*
X174759857Y-84941580D01*
X173521761Y-87068819D02*
X172950333Y-87068819D01*
X173236047Y-87068819D02*
X173236047Y-86068819D01*
X173236047Y-86068819D02*
X173140809Y-86211676D01*
X173140809Y-86211676D02*
X173045571Y-86306914D01*
X173045571Y-86306914D02*
X172950333Y-86354533D01*
X174378904Y-86402152D02*
X174378904Y-87068819D01*
X173950333Y-86402152D02*
X173950333Y-86925961D01*
X173950333Y-86925961D02*
X173997952Y-87021200D01*
X173997952Y-87021200D02*
X174093190Y-87068819D01*
X174093190Y-87068819D02*
X174236047Y-87068819D01*
X174236047Y-87068819D02*
X174331285Y-87021200D01*
X174331285Y-87021200D02*
X174378904Y-86973580D01*
X175188428Y-86545009D02*
X174855095Y-86545009D01*
X174855095Y-87068819D02*
X174855095Y-86068819D01*
X174855095Y-86068819D02*
X175331285Y-86068819D01*
X175957142Y-53954819D02*
X175623809Y-53478628D01*
X175385714Y-53954819D02*
X175385714Y-52954819D01*
X175385714Y-52954819D02*
X175766666Y-52954819D01*
X175766666Y-52954819D02*
X175861904Y-53002438D01*
X175861904Y-53002438D02*
X175909523Y-53050057D01*
X175909523Y-53050057D02*
X175957142Y-53145295D01*
X175957142Y-53145295D02*
X175957142Y-53288152D01*
X175957142Y-53288152D02*
X175909523Y-53383390D01*
X175909523Y-53383390D02*
X175861904Y-53431009D01*
X175861904Y-53431009D02*
X175766666Y-53478628D01*
X175766666Y-53478628D02*
X175385714Y-53478628D01*
X176909523Y-53954819D02*
X176338095Y-53954819D01*
X176623809Y-53954819D02*
X176623809Y-52954819D01*
X176623809Y-52954819D02*
X176528571Y-53097676D01*
X176528571Y-53097676D02*
X176433333Y-53192914D01*
X176433333Y-53192914D02*
X176338095Y-53240533D01*
X177766666Y-53288152D02*
X177766666Y-53954819D01*
X177528571Y-52907200D02*
X177290476Y-53621485D01*
X177290476Y-53621485D02*
X177909523Y-53621485D01*
X175933333Y-55354819D02*
X175361905Y-55354819D01*
X175647619Y-55354819D02*
X175647619Y-54354819D01*
X175647619Y-54354819D02*
X175552381Y-54497676D01*
X175552381Y-54497676D02*
X175457143Y-54592914D01*
X175457143Y-54592914D02*
X175361905Y-54640533D01*
X176552381Y-54354819D02*
X176647619Y-54354819D01*
X176647619Y-54354819D02*
X176742857Y-54402438D01*
X176742857Y-54402438D02*
X176790476Y-54450057D01*
X176790476Y-54450057D02*
X176838095Y-54545295D01*
X176838095Y-54545295D02*
X176885714Y-54735771D01*
X176885714Y-54735771D02*
X176885714Y-54973866D01*
X176885714Y-54973866D02*
X176838095Y-55164342D01*
X176838095Y-55164342D02*
X176790476Y-55259580D01*
X176790476Y-55259580D02*
X176742857Y-55307200D01*
X176742857Y-55307200D02*
X176647619Y-55354819D01*
X176647619Y-55354819D02*
X176552381Y-55354819D01*
X176552381Y-55354819D02*
X176457143Y-55307200D01*
X176457143Y-55307200D02*
X176409524Y-55259580D01*
X176409524Y-55259580D02*
X176361905Y-55164342D01*
X176361905Y-55164342D02*
X176314286Y-54973866D01*
X176314286Y-54973866D02*
X176314286Y-54735771D01*
X176314286Y-54735771D02*
X176361905Y-54545295D01*
X176361905Y-54545295D02*
X176409524Y-54450057D01*
X176409524Y-54450057D02*
X176457143Y-54402438D01*
X176457143Y-54402438D02*
X176552381Y-54354819D01*
X177504762Y-54354819D02*
X177600000Y-54354819D01*
X177600000Y-54354819D02*
X177695238Y-54402438D01*
X177695238Y-54402438D02*
X177742857Y-54450057D01*
X177742857Y-54450057D02*
X177790476Y-54545295D01*
X177790476Y-54545295D02*
X177838095Y-54735771D01*
X177838095Y-54735771D02*
X177838095Y-54973866D01*
X177838095Y-54973866D02*
X177790476Y-55164342D01*
X177790476Y-55164342D02*
X177742857Y-55259580D01*
X177742857Y-55259580D02*
X177695238Y-55307200D01*
X177695238Y-55307200D02*
X177600000Y-55354819D01*
X177600000Y-55354819D02*
X177504762Y-55354819D01*
X177504762Y-55354819D02*
X177409524Y-55307200D01*
X177409524Y-55307200D02*
X177361905Y-55259580D01*
X177361905Y-55259580D02*
X177314286Y-55164342D01*
X177314286Y-55164342D02*
X177266667Y-54973866D01*
X177266667Y-54973866D02*
X177266667Y-54735771D01*
X177266667Y-54735771D02*
X177314286Y-54545295D01*
X177314286Y-54545295D02*
X177361905Y-54450057D01*
X177361905Y-54450057D02*
X177409524Y-54402438D01*
X177409524Y-54402438D02*
X177504762Y-54354819D01*
X109933333Y-66454819D02*
X109600000Y-65978628D01*
X109361905Y-66454819D02*
X109361905Y-65454819D01*
X109361905Y-65454819D02*
X109742857Y-65454819D01*
X109742857Y-65454819D02*
X109838095Y-65502438D01*
X109838095Y-65502438D02*
X109885714Y-65550057D01*
X109885714Y-65550057D02*
X109933333Y-65645295D01*
X109933333Y-65645295D02*
X109933333Y-65788152D01*
X109933333Y-65788152D02*
X109885714Y-65883390D01*
X109885714Y-65883390D02*
X109838095Y-65931009D01*
X109838095Y-65931009D02*
X109742857Y-65978628D01*
X109742857Y-65978628D02*
X109361905Y-65978628D01*
X110790476Y-65454819D02*
X110600000Y-65454819D01*
X110600000Y-65454819D02*
X110504762Y-65502438D01*
X110504762Y-65502438D02*
X110457143Y-65550057D01*
X110457143Y-65550057D02*
X110361905Y-65692914D01*
X110361905Y-65692914D02*
X110314286Y-65883390D01*
X110314286Y-65883390D02*
X110314286Y-66264342D01*
X110314286Y-66264342D02*
X110361905Y-66359580D01*
X110361905Y-66359580D02*
X110409524Y-66407200D01*
X110409524Y-66407200D02*
X110504762Y-66454819D01*
X110504762Y-66454819D02*
X110695238Y-66454819D01*
X110695238Y-66454819D02*
X110790476Y-66407200D01*
X110790476Y-66407200D02*
X110838095Y-66359580D01*
X110838095Y-66359580D02*
X110885714Y-66264342D01*
X110885714Y-66264342D02*
X110885714Y-66026247D01*
X110885714Y-66026247D02*
X110838095Y-65931009D01*
X110838095Y-65931009D02*
X110790476Y-65883390D01*
X110790476Y-65883390D02*
X110695238Y-65835771D01*
X110695238Y-65835771D02*
X110504762Y-65835771D01*
X110504762Y-65835771D02*
X110409524Y-65883390D01*
X110409524Y-65883390D02*
X110361905Y-65931009D01*
X110361905Y-65931009D02*
X110314286Y-66026247D01*
X112309523Y-66454819D02*
X111738095Y-66454819D01*
X112023809Y-66454819D02*
X112023809Y-65454819D01*
X112023809Y-65454819D02*
X111928571Y-65597676D01*
X111928571Y-65597676D02*
X111833333Y-65692914D01*
X111833333Y-65692914D02*
X111738095Y-65740533D01*
X112928571Y-65454819D02*
X113023809Y-65454819D01*
X113023809Y-65454819D02*
X113119047Y-65502438D01*
X113119047Y-65502438D02*
X113166666Y-65550057D01*
X113166666Y-65550057D02*
X113214285Y-65645295D01*
X113214285Y-65645295D02*
X113261904Y-65835771D01*
X113261904Y-65835771D02*
X113261904Y-66073866D01*
X113261904Y-66073866D02*
X113214285Y-66264342D01*
X113214285Y-66264342D02*
X113166666Y-66359580D01*
X113166666Y-66359580D02*
X113119047Y-66407200D01*
X113119047Y-66407200D02*
X113023809Y-66454819D01*
X113023809Y-66454819D02*
X112928571Y-66454819D01*
X112928571Y-66454819D02*
X112833333Y-66407200D01*
X112833333Y-66407200D02*
X112785714Y-66359580D01*
X112785714Y-66359580D02*
X112738095Y-66264342D01*
X112738095Y-66264342D02*
X112690476Y-66073866D01*
X112690476Y-66073866D02*
X112690476Y-65835771D01*
X112690476Y-65835771D02*
X112738095Y-65645295D01*
X112738095Y-65645295D02*
X112785714Y-65550057D01*
X112785714Y-65550057D02*
X112833333Y-65502438D01*
X112833333Y-65502438D02*
X112928571Y-65454819D01*
X136733333Y-52204819D02*
X136400000Y-51728628D01*
X136161905Y-52204819D02*
X136161905Y-51204819D01*
X136161905Y-51204819D02*
X136542857Y-51204819D01*
X136542857Y-51204819D02*
X136638095Y-51252438D01*
X136638095Y-51252438D02*
X136685714Y-51300057D01*
X136685714Y-51300057D02*
X136733333Y-51395295D01*
X136733333Y-51395295D02*
X136733333Y-51538152D01*
X136733333Y-51538152D02*
X136685714Y-51633390D01*
X136685714Y-51633390D02*
X136638095Y-51681009D01*
X136638095Y-51681009D02*
X136542857Y-51728628D01*
X136542857Y-51728628D02*
X136161905Y-51728628D01*
X137066667Y-51204819D02*
X137733333Y-51204819D01*
X137733333Y-51204819D02*
X137304762Y-52204819D01*
X139080952Y-52224819D02*
X138509524Y-52224819D01*
X138795238Y-52224819D02*
X138795238Y-51224819D01*
X138795238Y-51224819D02*
X138700000Y-51367676D01*
X138700000Y-51367676D02*
X138604762Y-51462914D01*
X138604762Y-51462914D02*
X138509524Y-51510533D01*
X139509524Y-52224819D02*
X139509524Y-51224819D01*
X139604762Y-51843866D02*
X139890476Y-52224819D01*
X139890476Y-51558152D02*
X139509524Y-51939104D01*
X152157142Y-72804819D02*
X151823809Y-72328628D01*
X151585714Y-72804819D02*
X151585714Y-71804819D01*
X151585714Y-71804819D02*
X151966666Y-71804819D01*
X151966666Y-71804819D02*
X152061904Y-71852438D01*
X152061904Y-71852438D02*
X152109523Y-71900057D01*
X152109523Y-71900057D02*
X152157142Y-71995295D01*
X152157142Y-71995295D02*
X152157142Y-72138152D01*
X152157142Y-72138152D02*
X152109523Y-72233390D01*
X152109523Y-72233390D02*
X152061904Y-72281009D01*
X152061904Y-72281009D02*
X151966666Y-72328628D01*
X151966666Y-72328628D02*
X151585714Y-72328628D01*
X153109523Y-72804819D02*
X152538095Y-72804819D01*
X152823809Y-72804819D02*
X152823809Y-71804819D01*
X152823809Y-71804819D02*
X152728571Y-71947676D01*
X152728571Y-71947676D02*
X152633333Y-72042914D01*
X152633333Y-72042914D02*
X152538095Y-72090533D01*
X153490476Y-71900057D02*
X153538095Y-71852438D01*
X153538095Y-71852438D02*
X153633333Y-71804819D01*
X153633333Y-71804819D02*
X153871428Y-71804819D01*
X153871428Y-71804819D02*
X153966666Y-71852438D01*
X153966666Y-71852438D02*
X154014285Y-71900057D01*
X154014285Y-71900057D02*
X154061904Y-71995295D01*
X154061904Y-71995295D02*
X154061904Y-72090533D01*
X154061904Y-72090533D02*
X154014285Y-72233390D01*
X154014285Y-72233390D02*
X153442857Y-72804819D01*
X153442857Y-72804819D02*
X154061904Y-72804819D01*
X155383333Y-72804819D02*
X154811905Y-72804819D01*
X155097619Y-72804819D02*
X155097619Y-71804819D01*
X155097619Y-71804819D02*
X155002381Y-71947676D01*
X155002381Y-71947676D02*
X154907143Y-72042914D01*
X154907143Y-72042914D02*
X154811905Y-72090533D01*
X156002381Y-71804819D02*
X156097619Y-71804819D01*
X156097619Y-71804819D02*
X156192857Y-71852438D01*
X156192857Y-71852438D02*
X156240476Y-71900057D01*
X156240476Y-71900057D02*
X156288095Y-71995295D01*
X156288095Y-71995295D02*
X156335714Y-72185771D01*
X156335714Y-72185771D02*
X156335714Y-72423866D01*
X156335714Y-72423866D02*
X156288095Y-72614342D01*
X156288095Y-72614342D02*
X156240476Y-72709580D01*
X156240476Y-72709580D02*
X156192857Y-72757200D01*
X156192857Y-72757200D02*
X156097619Y-72804819D01*
X156097619Y-72804819D02*
X156002381Y-72804819D01*
X156002381Y-72804819D02*
X155907143Y-72757200D01*
X155907143Y-72757200D02*
X155859524Y-72709580D01*
X155859524Y-72709580D02*
X155811905Y-72614342D01*
X155811905Y-72614342D02*
X155764286Y-72423866D01*
X155764286Y-72423866D02*
X155764286Y-72185771D01*
X155764286Y-72185771D02*
X155811905Y-71995295D01*
X155811905Y-71995295D02*
X155859524Y-71900057D01*
X155859524Y-71900057D02*
X155907143Y-71852438D01*
X155907143Y-71852438D02*
X156002381Y-71804819D01*
X156954762Y-71804819D02*
X157050000Y-71804819D01*
X157050000Y-71804819D02*
X157145238Y-71852438D01*
X157145238Y-71852438D02*
X157192857Y-71900057D01*
X157192857Y-71900057D02*
X157240476Y-71995295D01*
X157240476Y-71995295D02*
X157288095Y-72185771D01*
X157288095Y-72185771D02*
X157288095Y-72423866D01*
X157288095Y-72423866D02*
X157240476Y-72614342D01*
X157240476Y-72614342D02*
X157192857Y-72709580D01*
X157192857Y-72709580D02*
X157145238Y-72757200D01*
X157145238Y-72757200D02*
X157050000Y-72804819D01*
X157050000Y-72804819D02*
X156954762Y-72804819D01*
X156954762Y-72804819D02*
X156859524Y-72757200D01*
X156859524Y-72757200D02*
X156811905Y-72709580D01*
X156811905Y-72709580D02*
X156764286Y-72614342D01*
X156764286Y-72614342D02*
X156716667Y-72423866D01*
X156716667Y-72423866D02*
X156716667Y-72185771D01*
X156716667Y-72185771D02*
X156764286Y-71995295D01*
X156764286Y-71995295D02*
X156811905Y-71900057D01*
X156811905Y-71900057D02*
X156859524Y-71852438D01*
X156859524Y-71852438D02*
X156954762Y-71804819D01*
X154633333Y-59804819D02*
X154300000Y-59328628D01*
X154061905Y-59804819D02*
X154061905Y-58804819D01*
X154061905Y-58804819D02*
X154442857Y-58804819D01*
X154442857Y-58804819D02*
X154538095Y-58852438D01*
X154538095Y-58852438D02*
X154585714Y-58900057D01*
X154585714Y-58900057D02*
X154633333Y-58995295D01*
X154633333Y-58995295D02*
X154633333Y-59138152D01*
X154633333Y-59138152D02*
X154585714Y-59233390D01*
X154585714Y-59233390D02*
X154538095Y-59281009D01*
X154538095Y-59281009D02*
X154442857Y-59328628D01*
X154442857Y-59328628D02*
X154061905Y-59328628D01*
X155109524Y-59804819D02*
X155300000Y-59804819D01*
X155300000Y-59804819D02*
X155395238Y-59757200D01*
X155395238Y-59757200D02*
X155442857Y-59709580D01*
X155442857Y-59709580D02*
X155538095Y-59566723D01*
X155538095Y-59566723D02*
X155585714Y-59376247D01*
X155585714Y-59376247D02*
X155585714Y-58995295D01*
X155585714Y-58995295D02*
X155538095Y-58900057D01*
X155538095Y-58900057D02*
X155490476Y-58852438D01*
X155490476Y-58852438D02*
X155395238Y-58804819D01*
X155395238Y-58804819D02*
X155204762Y-58804819D01*
X155204762Y-58804819D02*
X155109524Y-58852438D01*
X155109524Y-58852438D02*
X155061905Y-58900057D01*
X155061905Y-58900057D02*
X155014286Y-58995295D01*
X155014286Y-58995295D02*
X155014286Y-59233390D01*
X155014286Y-59233390D02*
X155061905Y-59328628D01*
X155061905Y-59328628D02*
X155109524Y-59376247D01*
X155109524Y-59376247D02*
X155204762Y-59423866D01*
X155204762Y-59423866D02*
X155395238Y-59423866D01*
X155395238Y-59423866D02*
X155490476Y-59376247D01*
X155490476Y-59376247D02*
X155538095Y-59328628D01*
X155538095Y-59328628D02*
X155585714Y-59233390D01*
X153883333Y-61254819D02*
X153311905Y-61254819D01*
X153597619Y-61254819D02*
X153597619Y-60254819D01*
X153597619Y-60254819D02*
X153502381Y-60397676D01*
X153502381Y-60397676D02*
X153407143Y-60492914D01*
X153407143Y-60492914D02*
X153311905Y-60540533D01*
X154502381Y-60254819D02*
X154597619Y-60254819D01*
X154597619Y-60254819D02*
X154692857Y-60302438D01*
X154692857Y-60302438D02*
X154740476Y-60350057D01*
X154740476Y-60350057D02*
X154788095Y-60445295D01*
X154788095Y-60445295D02*
X154835714Y-60635771D01*
X154835714Y-60635771D02*
X154835714Y-60873866D01*
X154835714Y-60873866D02*
X154788095Y-61064342D01*
X154788095Y-61064342D02*
X154740476Y-61159580D01*
X154740476Y-61159580D02*
X154692857Y-61207200D01*
X154692857Y-61207200D02*
X154597619Y-61254819D01*
X154597619Y-61254819D02*
X154502381Y-61254819D01*
X154502381Y-61254819D02*
X154407143Y-61207200D01*
X154407143Y-61207200D02*
X154359524Y-61159580D01*
X154359524Y-61159580D02*
X154311905Y-61064342D01*
X154311905Y-61064342D02*
X154264286Y-60873866D01*
X154264286Y-60873866D02*
X154264286Y-60635771D01*
X154264286Y-60635771D02*
X154311905Y-60445295D01*
X154311905Y-60445295D02*
X154359524Y-60350057D01*
X154359524Y-60350057D02*
X154407143Y-60302438D01*
X154407143Y-60302438D02*
X154502381Y-60254819D01*
X155454762Y-60254819D02*
X155550000Y-60254819D01*
X155550000Y-60254819D02*
X155645238Y-60302438D01*
X155645238Y-60302438D02*
X155692857Y-60350057D01*
X155692857Y-60350057D02*
X155740476Y-60445295D01*
X155740476Y-60445295D02*
X155788095Y-60635771D01*
X155788095Y-60635771D02*
X155788095Y-60873866D01*
X155788095Y-60873866D02*
X155740476Y-61064342D01*
X155740476Y-61064342D02*
X155692857Y-61159580D01*
X155692857Y-61159580D02*
X155645238Y-61207200D01*
X155645238Y-61207200D02*
X155550000Y-61254819D01*
X155550000Y-61254819D02*
X155454762Y-61254819D01*
X155454762Y-61254819D02*
X155359524Y-61207200D01*
X155359524Y-61207200D02*
X155311905Y-61159580D01*
X155311905Y-61159580D02*
X155264286Y-61064342D01*
X155264286Y-61064342D02*
X155216667Y-60873866D01*
X155216667Y-60873866D02*
X155216667Y-60635771D01*
X155216667Y-60635771D02*
X155264286Y-60445295D01*
X155264286Y-60445295D02*
X155311905Y-60350057D01*
X155311905Y-60350057D02*
X155359524Y-60302438D01*
X155359524Y-60302438D02*
X155454762Y-60254819D01*
X127458333Y-44129819D02*
X127125000Y-43653628D01*
X126886905Y-44129819D02*
X126886905Y-43129819D01*
X126886905Y-43129819D02*
X127267857Y-43129819D01*
X127267857Y-43129819D02*
X127363095Y-43177438D01*
X127363095Y-43177438D02*
X127410714Y-43225057D01*
X127410714Y-43225057D02*
X127458333Y-43320295D01*
X127458333Y-43320295D02*
X127458333Y-43463152D01*
X127458333Y-43463152D02*
X127410714Y-43558390D01*
X127410714Y-43558390D02*
X127363095Y-43606009D01*
X127363095Y-43606009D02*
X127267857Y-43653628D01*
X127267857Y-43653628D02*
X126886905Y-43653628D01*
X127839286Y-43225057D02*
X127886905Y-43177438D01*
X127886905Y-43177438D02*
X127982143Y-43129819D01*
X127982143Y-43129819D02*
X128220238Y-43129819D01*
X128220238Y-43129819D02*
X128315476Y-43177438D01*
X128315476Y-43177438D02*
X128363095Y-43225057D01*
X128363095Y-43225057D02*
X128410714Y-43320295D01*
X128410714Y-43320295D02*
X128410714Y-43415533D01*
X128410714Y-43415533D02*
X128363095Y-43558390D01*
X128363095Y-43558390D02*
X127791667Y-44129819D01*
X127791667Y-44129819D02*
X128410714Y-44129819D01*
X126386905Y-44500057D02*
X126434524Y-44452438D01*
X126434524Y-44452438D02*
X126529762Y-44404819D01*
X126529762Y-44404819D02*
X126767857Y-44404819D01*
X126767857Y-44404819D02*
X126863095Y-44452438D01*
X126863095Y-44452438D02*
X126910714Y-44500057D01*
X126910714Y-44500057D02*
X126958333Y-44595295D01*
X126958333Y-44595295D02*
X126958333Y-44690533D01*
X126958333Y-44690533D02*
X126910714Y-44833390D01*
X126910714Y-44833390D02*
X126339286Y-45404819D01*
X126339286Y-45404819D02*
X126958333Y-45404819D01*
X127291667Y-44404819D02*
X127958333Y-44404819D01*
X127958333Y-44404819D02*
X127529762Y-45404819D01*
X128529762Y-44404819D02*
X128625000Y-44404819D01*
X128625000Y-44404819D02*
X128720238Y-44452438D01*
X128720238Y-44452438D02*
X128767857Y-44500057D01*
X128767857Y-44500057D02*
X128815476Y-44595295D01*
X128815476Y-44595295D02*
X128863095Y-44785771D01*
X128863095Y-44785771D02*
X128863095Y-45023866D01*
X128863095Y-45023866D02*
X128815476Y-45214342D01*
X128815476Y-45214342D02*
X128767857Y-45309580D01*
X128767857Y-45309580D02*
X128720238Y-45357200D01*
X128720238Y-45357200D02*
X128625000Y-45404819D01*
X128625000Y-45404819D02*
X128529762Y-45404819D01*
X128529762Y-45404819D02*
X128434524Y-45357200D01*
X128434524Y-45357200D02*
X128386905Y-45309580D01*
X128386905Y-45309580D02*
X128339286Y-45214342D01*
X128339286Y-45214342D02*
X128291667Y-45023866D01*
X128291667Y-45023866D02*
X128291667Y-44785771D01*
X128291667Y-44785771D02*
X128339286Y-44595295D01*
X128339286Y-44595295D02*
X128386905Y-44500057D01*
X128386905Y-44500057D02*
X128434524Y-44452438D01*
X128434524Y-44452438D02*
X128529762Y-44404819D01*
X131433333Y-48654819D02*
X131100000Y-48178628D01*
X130861905Y-48654819D02*
X130861905Y-47654819D01*
X130861905Y-47654819D02*
X131242857Y-47654819D01*
X131242857Y-47654819D02*
X131338095Y-47702438D01*
X131338095Y-47702438D02*
X131385714Y-47750057D01*
X131385714Y-47750057D02*
X131433333Y-47845295D01*
X131433333Y-47845295D02*
X131433333Y-47988152D01*
X131433333Y-47988152D02*
X131385714Y-48083390D01*
X131385714Y-48083390D02*
X131338095Y-48131009D01*
X131338095Y-48131009D02*
X131242857Y-48178628D01*
X131242857Y-48178628D02*
X130861905Y-48178628D01*
X132338095Y-47654819D02*
X131861905Y-47654819D01*
X131861905Y-47654819D02*
X131814286Y-48131009D01*
X131814286Y-48131009D02*
X131861905Y-48083390D01*
X131861905Y-48083390D02*
X131957143Y-48035771D01*
X131957143Y-48035771D02*
X132195238Y-48035771D01*
X132195238Y-48035771D02*
X132290476Y-48083390D01*
X132290476Y-48083390D02*
X132338095Y-48131009D01*
X132338095Y-48131009D02*
X132385714Y-48226247D01*
X132385714Y-48226247D02*
X132385714Y-48464342D01*
X132385714Y-48464342D02*
X132338095Y-48559580D01*
X132338095Y-48559580D02*
X132290476Y-48607200D01*
X132290476Y-48607200D02*
X132195238Y-48654819D01*
X132195238Y-48654819D02*
X131957143Y-48654819D01*
X131957143Y-48654819D02*
X131861905Y-48607200D01*
X131861905Y-48607200D02*
X131814286Y-48559580D01*
X133580952Y-48654819D02*
X133009524Y-48654819D01*
X133295238Y-48654819D02*
X133295238Y-47654819D01*
X133295238Y-47654819D02*
X133200000Y-47797676D01*
X133200000Y-47797676D02*
X133104762Y-47892914D01*
X133104762Y-47892914D02*
X133009524Y-47940533D01*
X134009524Y-48654819D02*
X134009524Y-47654819D01*
X134104762Y-48273866D02*
X134390476Y-48654819D01*
X134390476Y-47988152D02*
X134009524Y-48369104D01*
X159107142Y-57854819D02*
X158773809Y-57378628D01*
X158535714Y-57854819D02*
X158535714Y-56854819D01*
X158535714Y-56854819D02*
X158916666Y-56854819D01*
X158916666Y-56854819D02*
X159011904Y-56902438D01*
X159011904Y-56902438D02*
X159059523Y-56950057D01*
X159059523Y-56950057D02*
X159107142Y-57045295D01*
X159107142Y-57045295D02*
X159107142Y-57188152D01*
X159107142Y-57188152D02*
X159059523Y-57283390D01*
X159059523Y-57283390D02*
X159011904Y-57331009D01*
X159011904Y-57331009D02*
X158916666Y-57378628D01*
X158916666Y-57378628D02*
X158535714Y-57378628D01*
X159488095Y-56950057D02*
X159535714Y-56902438D01*
X159535714Y-56902438D02*
X159630952Y-56854819D01*
X159630952Y-56854819D02*
X159869047Y-56854819D01*
X159869047Y-56854819D02*
X159964285Y-56902438D01*
X159964285Y-56902438D02*
X160011904Y-56950057D01*
X160011904Y-56950057D02*
X160059523Y-57045295D01*
X160059523Y-57045295D02*
X160059523Y-57140533D01*
X160059523Y-57140533D02*
X160011904Y-57283390D01*
X160011904Y-57283390D02*
X159440476Y-57854819D01*
X159440476Y-57854819D02*
X160059523Y-57854819D01*
X160392857Y-56854819D02*
X161011904Y-56854819D01*
X161011904Y-56854819D02*
X160678571Y-57235771D01*
X160678571Y-57235771D02*
X160821428Y-57235771D01*
X160821428Y-57235771D02*
X160916666Y-57283390D01*
X160916666Y-57283390D02*
X160964285Y-57331009D01*
X160964285Y-57331009D02*
X161011904Y-57426247D01*
X161011904Y-57426247D02*
X161011904Y-57664342D01*
X161011904Y-57664342D02*
X160964285Y-57759580D01*
X160964285Y-57759580D02*
X160916666Y-57807200D01*
X160916666Y-57807200D02*
X160821428Y-57854819D01*
X160821428Y-57854819D02*
X160535714Y-57854819D01*
X160535714Y-57854819D02*
X160440476Y-57807200D01*
X160440476Y-57807200D02*
X160392857Y-57759580D01*
X158519048Y-58250057D02*
X158566667Y-58202438D01*
X158566667Y-58202438D02*
X158661905Y-58154819D01*
X158661905Y-58154819D02*
X158900000Y-58154819D01*
X158900000Y-58154819D02*
X158995238Y-58202438D01*
X158995238Y-58202438D02*
X159042857Y-58250057D01*
X159042857Y-58250057D02*
X159090476Y-58345295D01*
X159090476Y-58345295D02*
X159090476Y-58440533D01*
X159090476Y-58440533D02*
X159042857Y-58583390D01*
X159042857Y-58583390D02*
X158471429Y-59154819D01*
X158471429Y-59154819D02*
X159090476Y-59154819D01*
X159519048Y-59059580D02*
X159566667Y-59107200D01*
X159566667Y-59107200D02*
X159519048Y-59154819D01*
X159519048Y-59154819D02*
X159471429Y-59107200D01*
X159471429Y-59107200D02*
X159519048Y-59059580D01*
X159519048Y-59059580D02*
X159519048Y-59154819D01*
X160423809Y-58154819D02*
X160233333Y-58154819D01*
X160233333Y-58154819D02*
X160138095Y-58202438D01*
X160138095Y-58202438D02*
X160090476Y-58250057D01*
X160090476Y-58250057D02*
X159995238Y-58392914D01*
X159995238Y-58392914D02*
X159947619Y-58583390D01*
X159947619Y-58583390D02*
X159947619Y-58964342D01*
X159947619Y-58964342D02*
X159995238Y-59059580D01*
X159995238Y-59059580D02*
X160042857Y-59107200D01*
X160042857Y-59107200D02*
X160138095Y-59154819D01*
X160138095Y-59154819D02*
X160328571Y-59154819D01*
X160328571Y-59154819D02*
X160423809Y-59107200D01*
X160423809Y-59107200D02*
X160471428Y-59059580D01*
X160471428Y-59059580D02*
X160519047Y-58964342D01*
X160519047Y-58964342D02*
X160519047Y-58726247D01*
X160519047Y-58726247D02*
X160471428Y-58631009D01*
X160471428Y-58631009D02*
X160423809Y-58583390D01*
X160423809Y-58583390D02*
X160328571Y-58535771D01*
X160328571Y-58535771D02*
X160138095Y-58535771D01*
X160138095Y-58535771D02*
X160042857Y-58583390D01*
X160042857Y-58583390D02*
X159995238Y-58631009D01*
X159995238Y-58631009D02*
X159947619Y-58726247D01*
X161471428Y-59154819D02*
X160900000Y-59154819D01*
X161185714Y-59154819D02*
X161185714Y-58154819D01*
X161185714Y-58154819D02*
X161090476Y-58297676D01*
X161090476Y-58297676D02*
X160995238Y-58392914D01*
X160995238Y-58392914D02*
X160900000Y-58440533D01*
X161900000Y-59154819D02*
X161900000Y-58154819D01*
X161995238Y-58773866D02*
X162280952Y-59154819D01*
X162280952Y-58488152D02*
X161900000Y-58869104D01*
X156057142Y-81904819D02*
X155723809Y-81428628D01*
X155485714Y-81904819D02*
X155485714Y-80904819D01*
X155485714Y-80904819D02*
X155866666Y-80904819D01*
X155866666Y-80904819D02*
X155961904Y-80952438D01*
X155961904Y-80952438D02*
X156009523Y-81000057D01*
X156009523Y-81000057D02*
X156057142Y-81095295D01*
X156057142Y-81095295D02*
X156057142Y-81238152D01*
X156057142Y-81238152D02*
X156009523Y-81333390D01*
X156009523Y-81333390D02*
X155961904Y-81381009D01*
X155961904Y-81381009D02*
X155866666Y-81428628D01*
X155866666Y-81428628D02*
X155485714Y-81428628D01*
X156438095Y-81000057D02*
X156485714Y-80952438D01*
X156485714Y-80952438D02*
X156580952Y-80904819D01*
X156580952Y-80904819D02*
X156819047Y-80904819D01*
X156819047Y-80904819D02*
X156914285Y-80952438D01*
X156914285Y-80952438D02*
X156961904Y-81000057D01*
X156961904Y-81000057D02*
X157009523Y-81095295D01*
X157009523Y-81095295D02*
X157009523Y-81190533D01*
X157009523Y-81190533D02*
X156961904Y-81333390D01*
X156961904Y-81333390D02*
X156390476Y-81904819D01*
X156390476Y-81904819D02*
X157009523Y-81904819D01*
X157866666Y-81238152D02*
X157866666Y-81904819D01*
X157628571Y-80857200D02*
X157390476Y-81571485D01*
X157390476Y-81571485D02*
X158009523Y-81571485D01*
X154819048Y-82400057D02*
X154866667Y-82352438D01*
X154866667Y-82352438D02*
X154961905Y-82304819D01*
X154961905Y-82304819D02*
X155200000Y-82304819D01*
X155200000Y-82304819D02*
X155295238Y-82352438D01*
X155295238Y-82352438D02*
X155342857Y-82400057D01*
X155342857Y-82400057D02*
X155390476Y-82495295D01*
X155390476Y-82495295D02*
X155390476Y-82590533D01*
X155390476Y-82590533D02*
X155342857Y-82733390D01*
X155342857Y-82733390D02*
X154771429Y-83304819D01*
X154771429Y-83304819D02*
X155390476Y-83304819D01*
X155819048Y-83209580D02*
X155866667Y-83257200D01*
X155866667Y-83257200D02*
X155819048Y-83304819D01*
X155819048Y-83304819D02*
X155771429Y-83257200D01*
X155771429Y-83257200D02*
X155819048Y-83209580D01*
X155819048Y-83209580D02*
X155819048Y-83304819D01*
X156723809Y-82304819D02*
X156533333Y-82304819D01*
X156533333Y-82304819D02*
X156438095Y-82352438D01*
X156438095Y-82352438D02*
X156390476Y-82400057D01*
X156390476Y-82400057D02*
X156295238Y-82542914D01*
X156295238Y-82542914D02*
X156247619Y-82733390D01*
X156247619Y-82733390D02*
X156247619Y-83114342D01*
X156247619Y-83114342D02*
X156295238Y-83209580D01*
X156295238Y-83209580D02*
X156342857Y-83257200D01*
X156342857Y-83257200D02*
X156438095Y-83304819D01*
X156438095Y-83304819D02*
X156628571Y-83304819D01*
X156628571Y-83304819D02*
X156723809Y-83257200D01*
X156723809Y-83257200D02*
X156771428Y-83209580D01*
X156771428Y-83209580D02*
X156819047Y-83114342D01*
X156819047Y-83114342D02*
X156819047Y-82876247D01*
X156819047Y-82876247D02*
X156771428Y-82781009D01*
X156771428Y-82781009D02*
X156723809Y-82733390D01*
X156723809Y-82733390D02*
X156628571Y-82685771D01*
X156628571Y-82685771D02*
X156438095Y-82685771D01*
X156438095Y-82685771D02*
X156342857Y-82733390D01*
X156342857Y-82733390D02*
X156295238Y-82781009D01*
X156295238Y-82781009D02*
X156247619Y-82876247D01*
X157771428Y-83304819D02*
X157200000Y-83304819D01*
X157485714Y-83304819D02*
X157485714Y-82304819D01*
X157485714Y-82304819D02*
X157390476Y-82447676D01*
X157390476Y-82447676D02*
X157295238Y-82542914D01*
X157295238Y-82542914D02*
X157200000Y-82590533D01*
X158200000Y-83304819D02*
X158200000Y-82304819D01*
X158295238Y-82923866D02*
X158580952Y-83304819D01*
X158580952Y-82638152D02*
X158200000Y-83019104D01*
X115133333Y-49679819D02*
X114800000Y-49203628D01*
X114561905Y-49679819D02*
X114561905Y-48679819D01*
X114561905Y-48679819D02*
X114942857Y-48679819D01*
X114942857Y-48679819D02*
X115038095Y-48727438D01*
X115038095Y-48727438D02*
X115085714Y-48775057D01*
X115085714Y-48775057D02*
X115133333Y-48870295D01*
X115133333Y-48870295D02*
X115133333Y-49013152D01*
X115133333Y-49013152D02*
X115085714Y-49108390D01*
X115085714Y-49108390D02*
X115038095Y-49156009D01*
X115038095Y-49156009D02*
X114942857Y-49203628D01*
X114942857Y-49203628D02*
X114561905Y-49203628D01*
X115466667Y-48679819D02*
X116085714Y-48679819D01*
X116085714Y-48679819D02*
X115752381Y-49060771D01*
X115752381Y-49060771D02*
X115895238Y-49060771D01*
X115895238Y-49060771D02*
X115990476Y-49108390D01*
X115990476Y-49108390D02*
X116038095Y-49156009D01*
X116038095Y-49156009D02*
X116085714Y-49251247D01*
X116085714Y-49251247D02*
X116085714Y-49489342D01*
X116085714Y-49489342D02*
X116038095Y-49584580D01*
X116038095Y-49584580D02*
X115990476Y-49632200D01*
X115990476Y-49632200D02*
X115895238Y-49679819D01*
X115895238Y-49679819D02*
X115609524Y-49679819D01*
X115609524Y-49679819D02*
X115514286Y-49632200D01*
X115514286Y-49632200D02*
X115466667Y-49584580D01*
X114036905Y-50075057D02*
X114084524Y-50027438D01*
X114084524Y-50027438D02*
X114179762Y-49979819D01*
X114179762Y-49979819D02*
X114417857Y-49979819D01*
X114417857Y-49979819D02*
X114513095Y-50027438D01*
X114513095Y-50027438D02*
X114560714Y-50075057D01*
X114560714Y-50075057D02*
X114608333Y-50170295D01*
X114608333Y-50170295D02*
X114608333Y-50265533D01*
X114608333Y-50265533D02*
X114560714Y-50408390D01*
X114560714Y-50408390D02*
X113989286Y-50979819D01*
X113989286Y-50979819D02*
X114608333Y-50979819D01*
X114941667Y-49979819D02*
X115608333Y-49979819D01*
X115608333Y-49979819D02*
X115179762Y-50979819D01*
X116179762Y-49979819D02*
X116275000Y-49979819D01*
X116275000Y-49979819D02*
X116370238Y-50027438D01*
X116370238Y-50027438D02*
X116417857Y-50075057D01*
X116417857Y-50075057D02*
X116465476Y-50170295D01*
X116465476Y-50170295D02*
X116513095Y-50360771D01*
X116513095Y-50360771D02*
X116513095Y-50598866D01*
X116513095Y-50598866D02*
X116465476Y-50789342D01*
X116465476Y-50789342D02*
X116417857Y-50884580D01*
X116417857Y-50884580D02*
X116370238Y-50932200D01*
X116370238Y-50932200D02*
X116275000Y-50979819D01*
X116275000Y-50979819D02*
X116179762Y-50979819D01*
X116179762Y-50979819D02*
X116084524Y-50932200D01*
X116084524Y-50932200D02*
X116036905Y-50884580D01*
X116036905Y-50884580D02*
X115989286Y-50789342D01*
X115989286Y-50789342D02*
X115941667Y-50598866D01*
X115941667Y-50598866D02*
X115941667Y-50360771D01*
X115941667Y-50360771D02*
X115989286Y-50170295D01*
X115989286Y-50170295D02*
X116036905Y-50075057D01*
X116036905Y-50075057D02*
X116084524Y-50027438D01*
X116084524Y-50027438D02*
X116179762Y-49979819D01*
X124158333Y-44104819D02*
X123825000Y-43628628D01*
X123586905Y-44104819D02*
X123586905Y-43104819D01*
X123586905Y-43104819D02*
X123967857Y-43104819D01*
X123967857Y-43104819D02*
X124063095Y-43152438D01*
X124063095Y-43152438D02*
X124110714Y-43200057D01*
X124110714Y-43200057D02*
X124158333Y-43295295D01*
X124158333Y-43295295D02*
X124158333Y-43438152D01*
X124158333Y-43438152D02*
X124110714Y-43533390D01*
X124110714Y-43533390D02*
X124063095Y-43581009D01*
X124063095Y-43581009D02*
X123967857Y-43628628D01*
X123967857Y-43628628D02*
X123586905Y-43628628D01*
X125110714Y-44104819D02*
X124539286Y-44104819D01*
X124825000Y-44104819D02*
X124825000Y-43104819D01*
X124825000Y-43104819D02*
X124729762Y-43247676D01*
X124729762Y-43247676D02*
X124634524Y-43342914D01*
X124634524Y-43342914D02*
X124539286Y-43390533D01*
X123061905Y-44550057D02*
X123109524Y-44502438D01*
X123109524Y-44502438D02*
X123204762Y-44454819D01*
X123204762Y-44454819D02*
X123442857Y-44454819D01*
X123442857Y-44454819D02*
X123538095Y-44502438D01*
X123538095Y-44502438D02*
X123585714Y-44550057D01*
X123585714Y-44550057D02*
X123633333Y-44645295D01*
X123633333Y-44645295D02*
X123633333Y-44740533D01*
X123633333Y-44740533D02*
X123585714Y-44883390D01*
X123585714Y-44883390D02*
X123014286Y-45454819D01*
X123014286Y-45454819D02*
X123633333Y-45454819D01*
X123966667Y-44454819D02*
X124633333Y-44454819D01*
X124633333Y-44454819D02*
X124204762Y-45454819D01*
X125204762Y-44454819D02*
X125300000Y-44454819D01*
X125300000Y-44454819D02*
X125395238Y-44502438D01*
X125395238Y-44502438D02*
X125442857Y-44550057D01*
X125442857Y-44550057D02*
X125490476Y-44645295D01*
X125490476Y-44645295D02*
X125538095Y-44835771D01*
X125538095Y-44835771D02*
X125538095Y-45073866D01*
X125538095Y-45073866D02*
X125490476Y-45264342D01*
X125490476Y-45264342D02*
X125442857Y-45359580D01*
X125442857Y-45359580D02*
X125395238Y-45407200D01*
X125395238Y-45407200D02*
X125300000Y-45454819D01*
X125300000Y-45454819D02*
X125204762Y-45454819D01*
X125204762Y-45454819D02*
X125109524Y-45407200D01*
X125109524Y-45407200D02*
X125061905Y-45359580D01*
X125061905Y-45359580D02*
X125014286Y-45264342D01*
X125014286Y-45264342D02*
X124966667Y-45073866D01*
X124966667Y-45073866D02*
X124966667Y-44835771D01*
X124966667Y-44835771D02*
X125014286Y-44645295D01*
X125014286Y-44645295D02*
X125061905Y-44550057D01*
X125061905Y-44550057D02*
X125109524Y-44502438D01*
X125109524Y-44502438D02*
X125204762Y-44454819D01*
X134957142Y-53854819D02*
X134623809Y-53378628D01*
X134385714Y-53854819D02*
X134385714Y-52854819D01*
X134385714Y-52854819D02*
X134766666Y-52854819D01*
X134766666Y-52854819D02*
X134861904Y-52902438D01*
X134861904Y-52902438D02*
X134909523Y-52950057D01*
X134909523Y-52950057D02*
X134957142Y-53045295D01*
X134957142Y-53045295D02*
X134957142Y-53188152D01*
X134957142Y-53188152D02*
X134909523Y-53283390D01*
X134909523Y-53283390D02*
X134861904Y-53331009D01*
X134861904Y-53331009D02*
X134766666Y-53378628D01*
X134766666Y-53378628D02*
X134385714Y-53378628D01*
X135909523Y-53854819D02*
X135338095Y-53854819D01*
X135623809Y-53854819D02*
X135623809Y-52854819D01*
X135623809Y-52854819D02*
X135528571Y-52997676D01*
X135528571Y-52997676D02*
X135433333Y-53092914D01*
X135433333Y-53092914D02*
X135338095Y-53140533D01*
X136814285Y-52854819D02*
X136338095Y-52854819D01*
X136338095Y-52854819D02*
X136290476Y-53331009D01*
X136290476Y-53331009D02*
X136338095Y-53283390D01*
X136338095Y-53283390D02*
X136433333Y-53235771D01*
X136433333Y-53235771D02*
X136671428Y-53235771D01*
X136671428Y-53235771D02*
X136766666Y-53283390D01*
X136766666Y-53283390D02*
X136814285Y-53331009D01*
X136814285Y-53331009D02*
X136861904Y-53426247D01*
X136861904Y-53426247D02*
X136861904Y-53664342D01*
X136861904Y-53664342D02*
X136814285Y-53759580D01*
X136814285Y-53759580D02*
X136766666Y-53807200D01*
X136766666Y-53807200D02*
X136671428Y-53854819D01*
X136671428Y-53854819D02*
X136433333Y-53854819D01*
X136433333Y-53854819D02*
X136338095Y-53807200D01*
X136338095Y-53807200D02*
X136290476Y-53759580D01*
X137659524Y-52950057D02*
X137707143Y-52902438D01*
X137707143Y-52902438D02*
X137802381Y-52854819D01*
X137802381Y-52854819D02*
X138040476Y-52854819D01*
X138040476Y-52854819D02*
X138135714Y-52902438D01*
X138135714Y-52902438D02*
X138183333Y-52950057D01*
X138183333Y-52950057D02*
X138230952Y-53045295D01*
X138230952Y-53045295D02*
X138230952Y-53140533D01*
X138230952Y-53140533D02*
X138183333Y-53283390D01*
X138183333Y-53283390D02*
X137611905Y-53854819D01*
X137611905Y-53854819D02*
X138230952Y-53854819D01*
X138659524Y-53854819D02*
X138659524Y-52854819D01*
X138754762Y-53473866D02*
X139040476Y-53854819D01*
X139040476Y-53188152D02*
X138659524Y-53569104D01*
X147457142Y-68204819D02*
X147123809Y-67728628D01*
X146885714Y-68204819D02*
X146885714Y-67204819D01*
X146885714Y-67204819D02*
X147266666Y-67204819D01*
X147266666Y-67204819D02*
X147361904Y-67252438D01*
X147361904Y-67252438D02*
X147409523Y-67300057D01*
X147409523Y-67300057D02*
X147457142Y-67395295D01*
X147457142Y-67395295D02*
X147457142Y-67538152D01*
X147457142Y-67538152D02*
X147409523Y-67633390D01*
X147409523Y-67633390D02*
X147361904Y-67681009D01*
X147361904Y-67681009D02*
X147266666Y-67728628D01*
X147266666Y-67728628D02*
X146885714Y-67728628D01*
X147838095Y-67300057D02*
X147885714Y-67252438D01*
X147885714Y-67252438D02*
X147980952Y-67204819D01*
X147980952Y-67204819D02*
X148219047Y-67204819D01*
X148219047Y-67204819D02*
X148314285Y-67252438D01*
X148314285Y-67252438D02*
X148361904Y-67300057D01*
X148361904Y-67300057D02*
X148409523Y-67395295D01*
X148409523Y-67395295D02*
X148409523Y-67490533D01*
X148409523Y-67490533D02*
X148361904Y-67633390D01*
X148361904Y-67633390D02*
X147790476Y-68204819D01*
X147790476Y-68204819D02*
X148409523Y-68204819D01*
X148980952Y-67633390D02*
X148885714Y-67585771D01*
X148885714Y-67585771D02*
X148838095Y-67538152D01*
X148838095Y-67538152D02*
X148790476Y-67442914D01*
X148790476Y-67442914D02*
X148790476Y-67395295D01*
X148790476Y-67395295D02*
X148838095Y-67300057D01*
X148838095Y-67300057D02*
X148885714Y-67252438D01*
X148885714Y-67252438D02*
X148980952Y-67204819D01*
X148980952Y-67204819D02*
X149171428Y-67204819D01*
X149171428Y-67204819D02*
X149266666Y-67252438D01*
X149266666Y-67252438D02*
X149314285Y-67300057D01*
X149314285Y-67300057D02*
X149361904Y-67395295D01*
X149361904Y-67395295D02*
X149361904Y-67442914D01*
X149361904Y-67442914D02*
X149314285Y-67538152D01*
X149314285Y-67538152D02*
X149266666Y-67585771D01*
X149266666Y-67585771D02*
X149171428Y-67633390D01*
X149171428Y-67633390D02*
X148980952Y-67633390D01*
X148980952Y-67633390D02*
X148885714Y-67681009D01*
X148885714Y-67681009D02*
X148838095Y-67728628D01*
X148838095Y-67728628D02*
X148790476Y-67823866D01*
X148790476Y-67823866D02*
X148790476Y-68014342D01*
X148790476Y-68014342D02*
X148838095Y-68109580D01*
X148838095Y-68109580D02*
X148885714Y-68157200D01*
X148885714Y-68157200D02*
X148980952Y-68204819D01*
X148980952Y-68204819D02*
X149171428Y-68204819D01*
X149171428Y-68204819D02*
X149266666Y-68157200D01*
X149266666Y-68157200D02*
X149314285Y-68109580D01*
X149314285Y-68109580D02*
X149361904Y-68014342D01*
X149361904Y-68014342D02*
X149361904Y-67823866D01*
X149361904Y-67823866D02*
X149314285Y-67728628D01*
X149314285Y-67728628D02*
X149266666Y-67681009D01*
X149266666Y-67681009D02*
X149171428Y-67633390D01*
X148230952Y-69454819D02*
X147659524Y-69454819D01*
X147945238Y-69454819D02*
X147945238Y-68454819D01*
X147945238Y-68454819D02*
X147850000Y-68597676D01*
X147850000Y-68597676D02*
X147754762Y-68692914D01*
X147754762Y-68692914D02*
X147659524Y-68740533D01*
X148659524Y-69454819D02*
X148659524Y-68454819D01*
X148754762Y-69073866D02*
X149040476Y-69454819D01*
X149040476Y-68788152D02*
X148659524Y-69169104D01*
X173894642Y-75329819D02*
X173561309Y-74853628D01*
X173323214Y-75329819D02*
X173323214Y-74329819D01*
X173323214Y-74329819D02*
X173704166Y-74329819D01*
X173704166Y-74329819D02*
X173799404Y-74377438D01*
X173799404Y-74377438D02*
X173847023Y-74425057D01*
X173847023Y-74425057D02*
X173894642Y-74520295D01*
X173894642Y-74520295D02*
X173894642Y-74663152D01*
X173894642Y-74663152D02*
X173847023Y-74758390D01*
X173847023Y-74758390D02*
X173799404Y-74806009D01*
X173799404Y-74806009D02*
X173704166Y-74853628D01*
X173704166Y-74853628D02*
X173323214Y-74853628D01*
X174847023Y-75329819D02*
X174275595Y-75329819D01*
X174561309Y-75329819D02*
X174561309Y-74329819D01*
X174561309Y-74329819D02*
X174466071Y-74472676D01*
X174466071Y-74472676D02*
X174370833Y-74567914D01*
X174370833Y-74567914D02*
X174275595Y-74615533D01*
X175180357Y-74329819D02*
X175799404Y-74329819D01*
X175799404Y-74329819D02*
X175466071Y-74710771D01*
X175466071Y-74710771D02*
X175608928Y-74710771D01*
X175608928Y-74710771D02*
X175704166Y-74758390D01*
X175704166Y-74758390D02*
X175751785Y-74806009D01*
X175751785Y-74806009D02*
X175799404Y-74901247D01*
X175799404Y-74901247D02*
X175799404Y-75139342D01*
X175799404Y-75139342D02*
X175751785Y-75234580D01*
X175751785Y-75234580D02*
X175704166Y-75282200D01*
X175704166Y-75282200D02*
X175608928Y-75329819D01*
X175608928Y-75329819D02*
X175323214Y-75329819D01*
X175323214Y-75329819D02*
X175227976Y-75282200D01*
X175227976Y-75282200D02*
X175180357Y-75234580D01*
X173880833Y-73824819D02*
X173309405Y-73824819D01*
X173595119Y-73824819D02*
X173595119Y-72824819D01*
X173595119Y-72824819D02*
X173499881Y-72967676D01*
X173499881Y-72967676D02*
X173404643Y-73062914D01*
X173404643Y-73062914D02*
X173309405Y-73110533D01*
X174499881Y-72824819D02*
X174595119Y-72824819D01*
X174595119Y-72824819D02*
X174690357Y-72872438D01*
X174690357Y-72872438D02*
X174737976Y-72920057D01*
X174737976Y-72920057D02*
X174785595Y-73015295D01*
X174785595Y-73015295D02*
X174833214Y-73205771D01*
X174833214Y-73205771D02*
X174833214Y-73443866D01*
X174833214Y-73443866D02*
X174785595Y-73634342D01*
X174785595Y-73634342D02*
X174737976Y-73729580D01*
X174737976Y-73729580D02*
X174690357Y-73777200D01*
X174690357Y-73777200D02*
X174595119Y-73824819D01*
X174595119Y-73824819D02*
X174499881Y-73824819D01*
X174499881Y-73824819D02*
X174404643Y-73777200D01*
X174404643Y-73777200D02*
X174357024Y-73729580D01*
X174357024Y-73729580D02*
X174309405Y-73634342D01*
X174309405Y-73634342D02*
X174261786Y-73443866D01*
X174261786Y-73443866D02*
X174261786Y-73205771D01*
X174261786Y-73205771D02*
X174309405Y-73015295D01*
X174309405Y-73015295D02*
X174357024Y-72920057D01*
X174357024Y-72920057D02*
X174404643Y-72872438D01*
X174404643Y-72872438D02*
X174499881Y-72824819D01*
X175452262Y-72824819D02*
X175547500Y-72824819D01*
X175547500Y-72824819D02*
X175642738Y-72872438D01*
X175642738Y-72872438D02*
X175690357Y-72920057D01*
X175690357Y-72920057D02*
X175737976Y-73015295D01*
X175737976Y-73015295D02*
X175785595Y-73205771D01*
X175785595Y-73205771D02*
X175785595Y-73443866D01*
X175785595Y-73443866D02*
X175737976Y-73634342D01*
X175737976Y-73634342D02*
X175690357Y-73729580D01*
X175690357Y-73729580D02*
X175642738Y-73777200D01*
X175642738Y-73777200D02*
X175547500Y-73824819D01*
X175547500Y-73824819D02*
X175452262Y-73824819D01*
X175452262Y-73824819D02*
X175357024Y-73777200D01*
X175357024Y-73777200D02*
X175309405Y-73729580D01*
X175309405Y-73729580D02*
X175261786Y-73634342D01*
X175261786Y-73634342D02*
X175214167Y-73443866D01*
X175214167Y-73443866D02*
X175214167Y-73205771D01*
X175214167Y-73205771D02*
X175261786Y-73015295D01*
X175261786Y-73015295D02*
X175309405Y-72920057D01*
X175309405Y-72920057D02*
X175357024Y-72872438D01*
X175357024Y-72872438D02*
X175452262Y-72824819D01*
X155057142Y-66504819D02*
X154723809Y-66028628D01*
X154485714Y-66504819D02*
X154485714Y-65504819D01*
X154485714Y-65504819D02*
X154866666Y-65504819D01*
X154866666Y-65504819D02*
X154961904Y-65552438D01*
X154961904Y-65552438D02*
X155009523Y-65600057D01*
X155009523Y-65600057D02*
X155057142Y-65695295D01*
X155057142Y-65695295D02*
X155057142Y-65838152D01*
X155057142Y-65838152D02*
X155009523Y-65933390D01*
X155009523Y-65933390D02*
X154961904Y-65981009D01*
X154961904Y-65981009D02*
X154866666Y-66028628D01*
X154866666Y-66028628D02*
X154485714Y-66028628D01*
X156009523Y-66504819D02*
X155438095Y-66504819D01*
X155723809Y-66504819D02*
X155723809Y-65504819D01*
X155723809Y-65504819D02*
X155628571Y-65647676D01*
X155628571Y-65647676D02*
X155533333Y-65742914D01*
X155533333Y-65742914D02*
X155438095Y-65790533D01*
X156628571Y-65504819D02*
X156723809Y-65504819D01*
X156723809Y-65504819D02*
X156819047Y-65552438D01*
X156819047Y-65552438D02*
X156866666Y-65600057D01*
X156866666Y-65600057D02*
X156914285Y-65695295D01*
X156914285Y-65695295D02*
X156961904Y-65885771D01*
X156961904Y-65885771D02*
X156961904Y-66123866D01*
X156961904Y-66123866D02*
X156914285Y-66314342D01*
X156914285Y-66314342D02*
X156866666Y-66409580D01*
X156866666Y-66409580D02*
X156819047Y-66457200D01*
X156819047Y-66457200D02*
X156723809Y-66504819D01*
X156723809Y-66504819D02*
X156628571Y-66504819D01*
X156628571Y-66504819D02*
X156533333Y-66457200D01*
X156533333Y-66457200D02*
X156485714Y-66409580D01*
X156485714Y-66409580D02*
X156438095Y-66314342D01*
X156438095Y-66314342D02*
X156390476Y-66123866D01*
X156390476Y-66123866D02*
X156390476Y-65885771D01*
X156390476Y-65885771D02*
X156438095Y-65695295D01*
X156438095Y-65695295D02*
X156485714Y-65600057D01*
X156485714Y-65600057D02*
X156533333Y-65552438D01*
X156533333Y-65552438D02*
X156628571Y-65504819D01*
X155033333Y-67854819D02*
X154461905Y-67854819D01*
X154747619Y-67854819D02*
X154747619Y-66854819D01*
X154747619Y-66854819D02*
X154652381Y-66997676D01*
X154652381Y-66997676D02*
X154557143Y-67092914D01*
X154557143Y-67092914D02*
X154461905Y-67140533D01*
X155652381Y-66854819D02*
X155747619Y-66854819D01*
X155747619Y-66854819D02*
X155842857Y-66902438D01*
X155842857Y-66902438D02*
X155890476Y-66950057D01*
X155890476Y-66950057D02*
X155938095Y-67045295D01*
X155938095Y-67045295D02*
X155985714Y-67235771D01*
X155985714Y-67235771D02*
X155985714Y-67473866D01*
X155985714Y-67473866D02*
X155938095Y-67664342D01*
X155938095Y-67664342D02*
X155890476Y-67759580D01*
X155890476Y-67759580D02*
X155842857Y-67807200D01*
X155842857Y-67807200D02*
X155747619Y-67854819D01*
X155747619Y-67854819D02*
X155652381Y-67854819D01*
X155652381Y-67854819D02*
X155557143Y-67807200D01*
X155557143Y-67807200D02*
X155509524Y-67759580D01*
X155509524Y-67759580D02*
X155461905Y-67664342D01*
X155461905Y-67664342D02*
X155414286Y-67473866D01*
X155414286Y-67473866D02*
X155414286Y-67235771D01*
X155414286Y-67235771D02*
X155461905Y-67045295D01*
X155461905Y-67045295D02*
X155509524Y-66950057D01*
X155509524Y-66950057D02*
X155557143Y-66902438D01*
X155557143Y-66902438D02*
X155652381Y-66854819D01*
X156604762Y-66854819D02*
X156700000Y-66854819D01*
X156700000Y-66854819D02*
X156795238Y-66902438D01*
X156795238Y-66902438D02*
X156842857Y-66950057D01*
X156842857Y-66950057D02*
X156890476Y-67045295D01*
X156890476Y-67045295D02*
X156938095Y-67235771D01*
X156938095Y-67235771D02*
X156938095Y-67473866D01*
X156938095Y-67473866D02*
X156890476Y-67664342D01*
X156890476Y-67664342D02*
X156842857Y-67759580D01*
X156842857Y-67759580D02*
X156795238Y-67807200D01*
X156795238Y-67807200D02*
X156700000Y-67854819D01*
X156700000Y-67854819D02*
X156604762Y-67854819D01*
X156604762Y-67854819D02*
X156509524Y-67807200D01*
X156509524Y-67807200D02*
X156461905Y-67759580D01*
X156461905Y-67759580D02*
X156414286Y-67664342D01*
X156414286Y-67664342D02*
X156366667Y-67473866D01*
X156366667Y-67473866D02*
X156366667Y-67235771D01*
X156366667Y-67235771D02*
X156414286Y-67045295D01*
X156414286Y-67045295D02*
X156461905Y-66950057D01*
X156461905Y-66950057D02*
X156509524Y-66902438D01*
X156509524Y-66902438D02*
X156604762Y-66854819D01*
X123883333Y-54604819D02*
X123550000Y-54128628D01*
X123311905Y-54604819D02*
X123311905Y-53604819D01*
X123311905Y-53604819D02*
X123692857Y-53604819D01*
X123692857Y-53604819D02*
X123788095Y-53652438D01*
X123788095Y-53652438D02*
X123835714Y-53700057D01*
X123835714Y-53700057D02*
X123883333Y-53795295D01*
X123883333Y-53795295D02*
X123883333Y-53938152D01*
X123883333Y-53938152D02*
X123835714Y-54033390D01*
X123835714Y-54033390D02*
X123788095Y-54081009D01*
X123788095Y-54081009D02*
X123692857Y-54128628D01*
X123692857Y-54128628D02*
X123311905Y-54128628D01*
X124740476Y-53938152D02*
X124740476Y-54604819D01*
X124502381Y-53557200D02*
X124264286Y-54271485D01*
X124264286Y-54271485D02*
X124883333Y-54271485D01*
X123288095Y-55050057D02*
X123335714Y-55002438D01*
X123335714Y-55002438D02*
X123430952Y-54954819D01*
X123430952Y-54954819D02*
X123669047Y-54954819D01*
X123669047Y-54954819D02*
X123764285Y-55002438D01*
X123764285Y-55002438D02*
X123811904Y-55050057D01*
X123811904Y-55050057D02*
X123859523Y-55145295D01*
X123859523Y-55145295D02*
X123859523Y-55240533D01*
X123859523Y-55240533D02*
X123811904Y-55383390D01*
X123811904Y-55383390D02*
X123240476Y-55954819D01*
X123240476Y-55954819D02*
X123859523Y-55954819D01*
X124478571Y-54954819D02*
X124573809Y-54954819D01*
X124573809Y-54954819D02*
X124669047Y-55002438D01*
X124669047Y-55002438D02*
X124716666Y-55050057D01*
X124716666Y-55050057D02*
X124764285Y-55145295D01*
X124764285Y-55145295D02*
X124811904Y-55335771D01*
X124811904Y-55335771D02*
X124811904Y-55573866D01*
X124811904Y-55573866D02*
X124764285Y-55764342D01*
X124764285Y-55764342D02*
X124716666Y-55859580D01*
X124716666Y-55859580D02*
X124669047Y-55907200D01*
X124669047Y-55907200D02*
X124573809Y-55954819D01*
X124573809Y-55954819D02*
X124478571Y-55954819D01*
X124478571Y-55954819D02*
X124383333Y-55907200D01*
X124383333Y-55907200D02*
X124335714Y-55859580D01*
X124335714Y-55859580D02*
X124288095Y-55764342D01*
X124288095Y-55764342D02*
X124240476Y-55573866D01*
X124240476Y-55573866D02*
X124240476Y-55335771D01*
X124240476Y-55335771D02*
X124288095Y-55145295D01*
X124288095Y-55145295D02*
X124335714Y-55050057D01*
X124335714Y-55050057D02*
X124383333Y-55002438D01*
X124383333Y-55002438D02*
X124478571Y-54954819D01*
X151907142Y-82504819D02*
X151573809Y-82028628D01*
X151335714Y-82504819D02*
X151335714Y-81504819D01*
X151335714Y-81504819D02*
X151716666Y-81504819D01*
X151716666Y-81504819D02*
X151811904Y-81552438D01*
X151811904Y-81552438D02*
X151859523Y-81600057D01*
X151859523Y-81600057D02*
X151907142Y-81695295D01*
X151907142Y-81695295D02*
X151907142Y-81838152D01*
X151907142Y-81838152D02*
X151859523Y-81933390D01*
X151859523Y-81933390D02*
X151811904Y-81981009D01*
X151811904Y-81981009D02*
X151716666Y-82028628D01*
X151716666Y-82028628D02*
X151335714Y-82028628D01*
X152859523Y-82504819D02*
X152288095Y-82504819D01*
X152573809Y-82504819D02*
X152573809Y-81504819D01*
X152573809Y-81504819D02*
X152478571Y-81647676D01*
X152478571Y-81647676D02*
X152383333Y-81742914D01*
X152383333Y-81742914D02*
X152288095Y-81790533D01*
X153811904Y-82504819D02*
X153240476Y-82504819D01*
X153526190Y-82504819D02*
X153526190Y-81504819D01*
X153526190Y-81504819D02*
X153430952Y-81647676D01*
X153430952Y-81647676D02*
X153335714Y-81742914D01*
X153335714Y-81742914D02*
X153240476Y-81790533D01*
X151883333Y-83854819D02*
X151311905Y-83854819D01*
X151597619Y-83854819D02*
X151597619Y-82854819D01*
X151597619Y-82854819D02*
X151502381Y-82997676D01*
X151502381Y-82997676D02*
X151407143Y-83092914D01*
X151407143Y-83092914D02*
X151311905Y-83140533D01*
X152502381Y-82854819D02*
X152597619Y-82854819D01*
X152597619Y-82854819D02*
X152692857Y-82902438D01*
X152692857Y-82902438D02*
X152740476Y-82950057D01*
X152740476Y-82950057D02*
X152788095Y-83045295D01*
X152788095Y-83045295D02*
X152835714Y-83235771D01*
X152835714Y-83235771D02*
X152835714Y-83473866D01*
X152835714Y-83473866D02*
X152788095Y-83664342D01*
X152788095Y-83664342D02*
X152740476Y-83759580D01*
X152740476Y-83759580D02*
X152692857Y-83807200D01*
X152692857Y-83807200D02*
X152597619Y-83854819D01*
X152597619Y-83854819D02*
X152502381Y-83854819D01*
X152502381Y-83854819D02*
X152407143Y-83807200D01*
X152407143Y-83807200D02*
X152359524Y-83759580D01*
X152359524Y-83759580D02*
X152311905Y-83664342D01*
X152311905Y-83664342D02*
X152264286Y-83473866D01*
X152264286Y-83473866D02*
X152264286Y-83235771D01*
X152264286Y-83235771D02*
X152311905Y-83045295D01*
X152311905Y-83045295D02*
X152359524Y-82950057D01*
X152359524Y-82950057D02*
X152407143Y-82902438D01*
X152407143Y-82902438D02*
X152502381Y-82854819D01*
X153454762Y-82854819D02*
X153550000Y-82854819D01*
X153550000Y-82854819D02*
X153645238Y-82902438D01*
X153645238Y-82902438D02*
X153692857Y-82950057D01*
X153692857Y-82950057D02*
X153740476Y-83045295D01*
X153740476Y-83045295D02*
X153788095Y-83235771D01*
X153788095Y-83235771D02*
X153788095Y-83473866D01*
X153788095Y-83473866D02*
X153740476Y-83664342D01*
X153740476Y-83664342D02*
X153692857Y-83759580D01*
X153692857Y-83759580D02*
X153645238Y-83807200D01*
X153645238Y-83807200D02*
X153550000Y-83854819D01*
X153550000Y-83854819D02*
X153454762Y-83854819D01*
X153454762Y-83854819D02*
X153359524Y-83807200D01*
X153359524Y-83807200D02*
X153311905Y-83759580D01*
X153311905Y-83759580D02*
X153264286Y-83664342D01*
X153264286Y-83664342D02*
X153216667Y-83473866D01*
X153216667Y-83473866D02*
X153216667Y-83235771D01*
X153216667Y-83235771D02*
X153264286Y-83045295D01*
X153264286Y-83045295D02*
X153311905Y-82950057D01*
X153311905Y-82950057D02*
X153359524Y-82902438D01*
X153359524Y-82902438D02*
X153454762Y-82854819D01*
X107616666Y-85979819D02*
X107616666Y-86694104D01*
X107616666Y-86694104D02*
X107569047Y-86836961D01*
X107569047Y-86836961D02*
X107473809Y-86932200D01*
X107473809Y-86932200D02*
X107330952Y-86979819D01*
X107330952Y-86979819D02*
X107235714Y-86979819D01*
X107997619Y-85979819D02*
X108616666Y-85979819D01*
X108616666Y-85979819D02*
X108283333Y-86360771D01*
X108283333Y-86360771D02*
X108426190Y-86360771D01*
X108426190Y-86360771D02*
X108521428Y-86408390D01*
X108521428Y-86408390D02*
X108569047Y-86456009D01*
X108569047Y-86456009D02*
X108616666Y-86551247D01*
X108616666Y-86551247D02*
X108616666Y-86789342D01*
X108616666Y-86789342D02*
X108569047Y-86884580D01*
X108569047Y-86884580D02*
X108521428Y-86932200D01*
X108521428Y-86932200D02*
X108426190Y-86979819D01*
X108426190Y-86979819D02*
X108140476Y-86979819D01*
X108140476Y-86979819D02*
X108045238Y-86932200D01*
X108045238Y-86932200D02*
X107997619Y-86884580D01*
X123438095Y-58954819D02*
X124009523Y-58954819D01*
X123723809Y-59954819D02*
X123723809Y-58954819D01*
X124914285Y-59954819D02*
X124580952Y-59478628D01*
X124342857Y-59954819D02*
X124342857Y-58954819D01*
X124342857Y-58954819D02*
X124723809Y-58954819D01*
X124723809Y-58954819D02*
X124819047Y-59002438D01*
X124819047Y-59002438D02*
X124866666Y-59050057D01*
X124866666Y-59050057D02*
X124914285Y-59145295D01*
X124914285Y-59145295D02*
X124914285Y-59288152D01*
X124914285Y-59288152D02*
X124866666Y-59383390D01*
X124866666Y-59383390D02*
X124819047Y-59431009D01*
X124819047Y-59431009D02*
X124723809Y-59478628D01*
X124723809Y-59478628D02*
X124342857Y-59478628D01*
X125866666Y-59954819D02*
X125295238Y-59954819D01*
X125580952Y-59954819D02*
X125580952Y-58954819D01*
X125580952Y-58954819D02*
X125485714Y-59097676D01*
X125485714Y-59097676D02*
X125390476Y-59192914D01*
X125390476Y-59192914D02*
X125295238Y-59240533D01*
X141988095Y-68704819D02*
X141988095Y-69514342D01*
X141988095Y-69514342D02*
X142035714Y-69609580D01*
X142035714Y-69609580D02*
X142083333Y-69657200D01*
X142083333Y-69657200D02*
X142178571Y-69704819D01*
X142178571Y-69704819D02*
X142369047Y-69704819D01*
X142369047Y-69704819D02*
X142464285Y-69657200D01*
X142464285Y-69657200D02*
X142511904Y-69609580D01*
X142511904Y-69609580D02*
X142559523Y-69514342D01*
X142559523Y-69514342D02*
X142559523Y-68704819D01*
X143559523Y-69704819D02*
X142988095Y-69704819D01*
X143273809Y-69704819D02*
X143273809Y-68704819D01*
X143273809Y-68704819D02*
X143178571Y-68847676D01*
X143178571Y-68847676D02*
X143083333Y-68942914D01*
X143083333Y-68942914D02*
X142988095Y-68990533D01*
X118521905Y-43094819D02*
X118521905Y-43904342D01*
X118521905Y-43904342D02*
X118569524Y-43999580D01*
X118569524Y-43999580D02*
X118617143Y-44047200D01*
X118617143Y-44047200D02*
X118712381Y-44094819D01*
X118712381Y-44094819D02*
X118902857Y-44094819D01*
X118902857Y-44094819D02*
X118998095Y-44047200D01*
X118998095Y-44047200D02*
X119045714Y-43999580D01*
X119045714Y-43999580D02*
X119093333Y-43904342D01*
X119093333Y-43904342D02*
X119093333Y-43094819D01*
X120093333Y-44094819D02*
X119521905Y-44094819D01*
X119807619Y-44094819D02*
X119807619Y-43094819D01*
X119807619Y-43094819D02*
X119712381Y-43237676D01*
X119712381Y-43237676D02*
X119617143Y-43332914D01*
X119617143Y-43332914D02*
X119521905Y-43380533D01*
X120712381Y-43094819D02*
X120807619Y-43094819D01*
X120807619Y-43094819D02*
X120902857Y-43142438D01*
X120902857Y-43142438D02*
X120950476Y-43190057D01*
X120950476Y-43190057D02*
X120998095Y-43285295D01*
X120998095Y-43285295D02*
X121045714Y-43475771D01*
X121045714Y-43475771D02*
X121045714Y-43713866D01*
X121045714Y-43713866D02*
X120998095Y-43904342D01*
X120998095Y-43904342D02*
X120950476Y-43999580D01*
X120950476Y-43999580D02*
X120902857Y-44047200D01*
X120902857Y-44047200D02*
X120807619Y-44094819D01*
X120807619Y-44094819D02*
X120712381Y-44094819D01*
X120712381Y-44094819D02*
X120617143Y-44047200D01*
X120617143Y-44047200D02*
X120569524Y-43999580D01*
X120569524Y-43999580D02*
X120521905Y-43904342D01*
X120521905Y-43904342D02*
X120474286Y-43713866D01*
X120474286Y-43713866D02*
X120474286Y-43475771D01*
X120474286Y-43475771D02*
X120521905Y-43285295D01*
X120521905Y-43285295D02*
X120569524Y-43190057D01*
X120569524Y-43190057D02*
X120617143Y-43142438D01*
X120617143Y-43142438D02*
X120712381Y-43094819D01*
X117519047Y-49662438D02*
X117423809Y-49614819D01*
X117423809Y-49614819D02*
X117280952Y-49614819D01*
X117280952Y-49614819D02*
X117138095Y-49662438D01*
X117138095Y-49662438D02*
X117042857Y-49757676D01*
X117042857Y-49757676D02*
X116995238Y-49852914D01*
X116995238Y-49852914D02*
X116947619Y-50043390D01*
X116947619Y-50043390D02*
X116947619Y-50186247D01*
X116947619Y-50186247D02*
X116995238Y-50376723D01*
X116995238Y-50376723D02*
X117042857Y-50471961D01*
X117042857Y-50471961D02*
X117138095Y-50567200D01*
X117138095Y-50567200D02*
X117280952Y-50614819D01*
X117280952Y-50614819D02*
X117376190Y-50614819D01*
X117376190Y-50614819D02*
X117519047Y-50567200D01*
X117519047Y-50567200D02*
X117566666Y-50519580D01*
X117566666Y-50519580D02*
X117566666Y-50186247D01*
X117566666Y-50186247D02*
X117376190Y-50186247D01*
X117947619Y-50329104D02*
X118423809Y-50329104D01*
X117852381Y-50614819D02*
X118185714Y-49614819D01*
X118185714Y-49614819D02*
X118519047Y-50614819D01*
X119328571Y-50614819D02*
X118852381Y-50614819D01*
X118852381Y-50614819D02*
X118852381Y-49614819D01*
X119661905Y-50614819D02*
X119661905Y-49614819D01*
X120138095Y-50233866D02*
X120900000Y-50233866D01*
X121280952Y-49614819D02*
X121899999Y-49614819D01*
X121899999Y-49614819D02*
X121566666Y-49995771D01*
X121566666Y-49995771D02*
X121709523Y-49995771D01*
X121709523Y-49995771D02*
X121804761Y-50043390D01*
X121804761Y-50043390D02*
X121852380Y-50091009D01*
X121852380Y-50091009D02*
X121899999Y-50186247D01*
X121899999Y-50186247D02*
X121899999Y-50424342D01*
X121899999Y-50424342D02*
X121852380Y-50519580D01*
X121852380Y-50519580D02*
X121804761Y-50567200D01*
X121804761Y-50567200D02*
X121709523Y-50614819D01*
X121709523Y-50614819D02*
X121423809Y-50614819D01*
X121423809Y-50614819D02*
X121328571Y-50567200D01*
X121328571Y-50567200D02*
X121280952Y-50519580D01*
X122376190Y-50614819D02*
X122566666Y-50614819D01*
X122566666Y-50614819D02*
X122661904Y-50567200D01*
X122661904Y-50567200D02*
X122709523Y-50519580D01*
X122709523Y-50519580D02*
X122804761Y-50376723D01*
X122804761Y-50376723D02*
X122852380Y-50186247D01*
X122852380Y-50186247D02*
X122852380Y-49805295D01*
X122852380Y-49805295D02*
X122804761Y-49710057D01*
X122804761Y-49710057D02*
X122757142Y-49662438D01*
X122757142Y-49662438D02*
X122661904Y-49614819D01*
X122661904Y-49614819D02*
X122471428Y-49614819D01*
X122471428Y-49614819D02*
X122376190Y-49662438D01*
X122376190Y-49662438D02*
X122328571Y-49710057D01*
X122328571Y-49710057D02*
X122280952Y-49805295D01*
X122280952Y-49805295D02*
X122280952Y-50043390D01*
X122280952Y-50043390D02*
X122328571Y-50138628D01*
X122328571Y-50138628D02*
X122376190Y-50186247D01*
X122376190Y-50186247D02*
X122471428Y-50233866D01*
X122471428Y-50233866D02*
X122661904Y-50233866D01*
X122661904Y-50233866D02*
X122757142Y-50186247D01*
X122757142Y-50186247D02*
X122804761Y-50138628D01*
X122804761Y-50138628D02*
X122852380Y-50043390D01*
X137088095Y-54404819D02*
X137088095Y-55214342D01*
X137088095Y-55214342D02*
X137135714Y-55309580D01*
X137135714Y-55309580D02*
X137183333Y-55357200D01*
X137183333Y-55357200D02*
X137278571Y-55404819D01*
X137278571Y-55404819D02*
X137469047Y-55404819D01*
X137469047Y-55404819D02*
X137564285Y-55357200D01*
X137564285Y-55357200D02*
X137611904Y-55309580D01*
X137611904Y-55309580D02*
X137659523Y-55214342D01*
X137659523Y-55214342D02*
X137659523Y-54404819D01*
X138040476Y-54404819D02*
X138659523Y-54404819D01*
X138659523Y-54404819D02*
X138326190Y-54785771D01*
X138326190Y-54785771D02*
X138469047Y-54785771D01*
X138469047Y-54785771D02*
X138564285Y-54833390D01*
X138564285Y-54833390D02*
X138611904Y-54881009D01*
X138611904Y-54881009D02*
X138659523Y-54976247D01*
X138659523Y-54976247D02*
X138659523Y-55214342D01*
X138659523Y-55214342D02*
X138611904Y-55309580D01*
X138611904Y-55309580D02*
X138564285Y-55357200D01*
X138564285Y-55357200D02*
X138469047Y-55404819D01*
X138469047Y-55404819D02*
X138183333Y-55404819D01*
X138183333Y-55404819D02*
X138088095Y-55357200D01*
X138088095Y-55357200D02*
X138040476Y-55309580D01*
X163638095Y-57754819D02*
X163638095Y-58564342D01*
X163638095Y-58564342D02*
X163685714Y-58659580D01*
X163685714Y-58659580D02*
X163733333Y-58707200D01*
X163733333Y-58707200D02*
X163828571Y-58754819D01*
X163828571Y-58754819D02*
X164019047Y-58754819D01*
X164019047Y-58754819D02*
X164114285Y-58707200D01*
X164114285Y-58707200D02*
X164161904Y-58659580D01*
X164161904Y-58659580D02*
X164209523Y-58564342D01*
X164209523Y-58564342D02*
X164209523Y-57754819D01*
X165114285Y-57754819D02*
X164923809Y-57754819D01*
X164923809Y-57754819D02*
X164828571Y-57802438D01*
X164828571Y-57802438D02*
X164780952Y-57850057D01*
X164780952Y-57850057D02*
X164685714Y-57992914D01*
X164685714Y-57992914D02*
X164638095Y-58183390D01*
X164638095Y-58183390D02*
X164638095Y-58564342D01*
X164638095Y-58564342D02*
X164685714Y-58659580D01*
X164685714Y-58659580D02*
X164733333Y-58707200D01*
X164733333Y-58707200D02*
X164828571Y-58754819D01*
X164828571Y-58754819D02*
X165019047Y-58754819D01*
X165019047Y-58754819D02*
X165114285Y-58707200D01*
X165114285Y-58707200D02*
X165161904Y-58659580D01*
X165161904Y-58659580D02*
X165209523Y-58564342D01*
X165209523Y-58564342D02*
X165209523Y-58326247D01*
X165209523Y-58326247D02*
X165161904Y-58231009D01*
X165161904Y-58231009D02*
X165114285Y-58183390D01*
X165114285Y-58183390D02*
X165019047Y-58135771D01*
X165019047Y-58135771D02*
X164828571Y-58135771D01*
X164828571Y-58135771D02*
X164733333Y-58183390D01*
X164733333Y-58183390D02*
X164685714Y-58231009D01*
X164685714Y-58231009D02*
X164638095Y-58326247D01*
X104691666Y-49754819D02*
X104691666Y-50469104D01*
X104691666Y-50469104D02*
X104644047Y-50611961D01*
X104644047Y-50611961D02*
X104548809Y-50707200D01*
X104548809Y-50707200D02*
X104405952Y-50754819D01*
X104405952Y-50754819D02*
X104310714Y-50754819D01*
X105120238Y-49850057D02*
X105167857Y-49802438D01*
X105167857Y-49802438D02*
X105263095Y-49754819D01*
X105263095Y-49754819D02*
X105501190Y-49754819D01*
X105501190Y-49754819D02*
X105596428Y-49802438D01*
X105596428Y-49802438D02*
X105644047Y-49850057D01*
X105644047Y-49850057D02*
X105691666Y-49945295D01*
X105691666Y-49945295D02*
X105691666Y-50040533D01*
X105691666Y-50040533D02*
X105644047Y-50183390D01*
X105644047Y-50183390D02*
X105072619Y-50754819D01*
X105072619Y-50754819D02*
X105691666Y-50754819D01*
X160938095Y-74854819D02*
X160938095Y-75664342D01*
X160938095Y-75664342D02*
X160985714Y-75759580D01*
X160985714Y-75759580D02*
X161033333Y-75807200D01*
X161033333Y-75807200D02*
X161128571Y-75854819D01*
X161128571Y-75854819D02*
X161319047Y-75854819D01*
X161319047Y-75854819D02*
X161414285Y-75807200D01*
X161414285Y-75807200D02*
X161461904Y-75759580D01*
X161461904Y-75759580D02*
X161509523Y-75664342D01*
X161509523Y-75664342D02*
X161509523Y-74854819D01*
X162461904Y-74854819D02*
X161985714Y-74854819D01*
X161985714Y-74854819D02*
X161938095Y-75331009D01*
X161938095Y-75331009D02*
X161985714Y-75283390D01*
X161985714Y-75283390D02*
X162080952Y-75235771D01*
X162080952Y-75235771D02*
X162319047Y-75235771D01*
X162319047Y-75235771D02*
X162414285Y-75283390D01*
X162414285Y-75283390D02*
X162461904Y-75331009D01*
X162461904Y-75331009D02*
X162509523Y-75426247D01*
X162509523Y-75426247D02*
X162509523Y-75664342D01*
X162509523Y-75664342D02*
X162461904Y-75759580D01*
X162461904Y-75759580D02*
X162414285Y-75807200D01*
X162414285Y-75807200D02*
X162319047Y-75854819D01*
X162319047Y-75854819D02*
X162080952Y-75854819D01*
X162080952Y-75854819D02*
X161985714Y-75807200D01*
X161985714Y-75807200D02*
X161938095Y-75759580D01*
X173438095Y-82154819D02*
X173438095Y-82964342D01*
X173438095Y-82964342D02*
X173485714Y-83059580D01*
X173485714Y-83059580D02*
X173533333Y-83107200D01*
X173533333Y-83107200D02*
X173628571Y-83154819D01*
X173628571Y-83154819D02*
X173819047Y-83154819D01*
X173819047Y-83154819D02*
X173914285Y-83107200D01*
X173914285Y-83107200D02*
X173961904Y-83059580D01*
X173961904Y-83059580D02*
X174009523Y-82964342D01*
X174009523Y-82964342D02*
X174009523Y-82154819D01*
X174390476Y-82154819D02*
X175057142Y-82154819D01*
X175057142Y-82154819D02*
X174628571Y-83154819D01*
X143338095Y-54454819D02*
X143338095Y-55264342D01*
X143338095Y-55264342D02*
X143385714Y-55359580D01*
X143385714Y-55359580D02*
X143433333Y-55407200D01*
X143433333Y-55407200D02*
X143528571Y-55454819D01*
X143528571Y-55454819D02*
X143719047Y-55454819D01*
X143719047Y-55454819D02*
X143814285Y-55407200D01*
X143814285Y-55407200D02*
X143861904Y-55359580D01*
X143861904Y-55359580D02*
X143909523Y-55264342D01*
X143909523Y-55264342D02*
X143909523Y-54454819D01*
X144814285Y-54788152D02*
X144814285Y-55454819D01*
X144576190Y-54407200D02*
X144338095Y-55121485D01*
X144338095Y-55121485D02*
X144957142Y-55121485D01*
X156296666Y-44666819D02*
X156296666Y-45381104D01*
X156296666Y-45381104D02*
X156249047Y-45523961D01*
X156249047Y-45523961D02*
X156153809Y-45619200D01*
X156153809Y-45619200D02*
X156010952Y-45666819D01*
X156010952Y-45666819D02*
X155915714Y-45666819D01*
X157296666Y-45666819D02*
X156725238Y-45666819D01*
X157010952Y-45666819D02*
X157010952Y-44666819D01*
X157010952Y-44666819D02*
X156915714Y-44809676D01*
X156915714Y-44809676D02*
X156820476Y-44904914D01*
X156820476Y-44904914D02*
X156725238Y-44952533D01*
X190966102Y-59353909D02*
X190966102Y-60069404D01*
X190966102Y-60069404D02*
X190918402Y-60212503D01*
X190918402Y-60212503D02*
X190823003Y-60307903D01*
X190823003Y-60307903D02*
X190679904Y-60355602D01*
X190679904Y-60355602D02*
X190584505Y-60355602D01*
X191872396Y-59687807D02*
X191872396Y-60355602D01*
X191633898Y-59306210D02*
X191395399Y-60021705D01*
X191395399Y-60021705D02*
X192015495Y-60021705D01*
X149988095Y-59354819D02*
X150559523Y-59354819D01*
X150273809Y-60354819D02*
X150273809Y-59354819D01*
X150892857Y-60354819D02*
X150892857Y-59354819D01*
X150892857Y-59354819D02*
X151273809Y-59354819D01*
X151273809Y-59354819D02*
X151369047Y-59402438D01*
X151369047Y-59402438D02*
X151416666Y-59450057D01*
X151416666Y-59450057D02*
X151464285Y-59545295D01*
X151464285Y-59545295D02*
X151464285Y-59688152D01*
X151464285Y-59688152D02*
X151416666Y-59783390D01*
X151416666Y-59783390D02*
X151369047Y-59831009D01*
X151369047Y-59831009D02*
X151273809Y-59878628D01*
X151273809Y-59878628D02*
X150892857Y-59878628D01*
X151845238Y-59450057D02*
X151892857Y-59402438D01*
X151892857Y-59402438D02*
X151988095Y-59354819D01*
X151988095Y-59354819D02*
X152226190Y-59354819D01*
X152226190Y-59354819D02*
X152321428Y-59402438D01*
X152321428Y-59402438D02*
X152369047Y-59450057D01*
X152369047Y-59450057D02*
X152416666Y-59545295D01*
X152416666Y-59545295D02*
X152416666Y-59640533D01*
X152416666Y-59640533D02*
X152369047Y-59783390D01*
X152369047Y-59783390D02*
X151797619Y-60354819D01*
X151797619Y-60354819D02*
X152416666Y-60354819D01*
X176138095Y-65454819D02*
X176138095Y-66264342D01*
X176138095Y-66264342D02*
X176185714Y-66359580D01*
X176185714Y-66359580D02*
X176233333Y-66407200D01*
X176233333Y-66407200D02*
X176328571Y-66454819D01*
X176328571Y-66454819D02*
X176519047Y-66454819D01*
X176519047Y-66454819D02*
X176614285Y-66407200D01*
X176614285Y-66407200D02*
X176661904Y-66359580D01*
X176661904Y-66359580D02*
X176709523Y-66264342D01*
X176709523Y-66264342D02*
X176709523Y-65454819D01*
X177328571Y-65883390D02*
X177233333Y-65835771D01*
X177233333Y-65835771D02*
X177185714Y-65788152D01*
X177185714Y-65788152D02*
X177138095Y-65692914D01*
X177138095Y-65692914D02*
X177138095Y-65645295D01*
X177138095Y-65645295D02*
X177185714Y-65550057D01*
X177185714Y-65550057D02*
X177233333Y-65502438D01*
X177233333Y-65502438D02*
X177328571Y-65454819D01*
X177328571Y-65454819D02*
X177519047Y-65454819D01*
X177519047Y-65454819D02*
X177614285Y-65502438D01*
X177614285Y-65502438D02*
X177661904Y-65550057D01*
X177661904Y-65550057D02*
X177709523Y-65645295D01*
X177709523Y-65645295D02*
X177709523Y-65692914D01*
X177709523Y-65692914D02*
X177661904Y-65788152D01*
X177661904Y-65788152D02*
X177614285Y-65835771D01*
X177614285Y-65835771D02*
X177519047Y-65883390D01*
X177519047Y-65883390D02*
X177328571Y-65883390D01*
X177328571Y-65883390D02*
X177233333Y-65931009D01*
X177233333Y-65931009D02*
X177185714Y-65978628D01*
X177185714Y-65978628D02*
X177138095Y-66073866D01*
X177138095Y-66073866D02*
X177138095Y-66264342D01*
X177138095Y-66264342D02*
X177185714Y-66359580D01*
X177185714Y-66359580D02*
X177233333Y-66407200D01*
X177233333Y-66407200D02*
X177328571Y-66454819D01*
X177328571Y-66454819D02*
X177519047Y-66454819D01*
X177519047Y-66454819D02*
X177614285Y-66407200D01*
X177614285Y-66407200D02*
X177661904Y-66359580D01*
X177661904Y-66359580D02*
X177709523Y-66264342D01*
X177709523Y-66264342D02*
X177709523Y-66073866D01*
X177709523Y-66073866D02*
X177661904Y-65978628D01*
X177661904Y-65978628D02*
X177614285Y-65931009D01*
X177614285Y-65931009D02*
X177519047Y-65883390D01*
X151588095Y-52154819D02*
X151588095Y-52964342D01*
X151588095Y-52964342D02*
X151635714Y-53059580D01*
X151635714Y-53059580D02*
X151683333Y-53107200D01*
X151683333Y-53107200D02*
X151778571Y-53154819D01*
X151778571Y-53154819D02*
X151969047Y-53154819D01*
X151969047Y-53154819D02*
X152064285Y-53107200D01*
X152064285Y-53107200D02*
X152111904Y-53059580D01*
X152111904Y-53059580D02*
X152159523Y-52964342D01*
X152159523Y-52964342D02*
X152159523Y-52154819D01*
X152588095Y-52250057D02*
X152635714Y-52202438D01*
X152635714Y-52202438D02*
X152730952Y-52154819D01*
X152730952Y-52154819D02*
X152969047Y-52154819D01*
X152969047Y-52154819D02*
X153064285Y-52202438D01*
X153064285Y-52202438D02*
X153111904Y-52250057D01*
X153111904Y-52250057D02*
X153159523Y-52345295D01*
X153159523Y-52345295D02*
X153159523Y-52440533D01*
X153159523Y-52440533D02*
X153111904Y-52583390D01*
X153111904Y-52583390D02*
X152540476Y-53154819D01*
X152540476Y-53154819D02*
X153159523Y-53154819D01*
X144138095Y-69354819D02*
X144709523Y-69354819D01*
X144423809Y-70354819D02*
X144423809Y-69354819D01*
X145042857Y-70354819D02*
X145042857Y-69354819D01*
X145042857Y-69354819D02*
X145423809Y-69354819D01*
X145423809Y-69354819D02*
X145519047Y-69402438D01*
X145519047Y-69402438D02*
X145566666Y-69450057D01*
X145566666Y-69450057D02*
X145614285Y-69545295D01*
X145614285Y-69545295D02*
X145614285Y-69688152D01*
X145614285Y-69688152D02*
X145566666Y-69783390D01*
X145566666Y-69783390D02*
X145519047Y-69831009D01*
X145519047Y-69831009D02*
X145423809Y-69878628D01*
X145423809Y-69878628D02*
X145042857Y-69878628D01*
X146566666Y-70354819D02*
X145995238Y-70354819D01*
X146280952Y-70354819D02*
X146280952Y-69354819D01*
X146280952Y-69354819D02*
X146185714Y-69497676D01*
X146185714Y-69497676D02*
X146090476Y-69592914D01*
X146090476Y-69592914D02*
X145995238Y-69640533D01*
D12*
X118000000Y-70574999D02*
X120800000Y-70574999D01*
X118000000Y-77274998D02*
X118000000Y-70574999D01*
X118000000Y-77274998D02*
X120800000Y-77274998D01*
X120800000Y-77274998D02*
X120800000Y-70574999D01*
D13*
X116625002Y-70574999D02*
G75*
G02*
X116375000Y-70574999I-125001J0D01*
G01*
X116375000Y-70574999D02*
G75*
G02*
X116625002Y-70574999I125001J0D01*
G01*
D15*
X141586252Y-47910000D02*
X140163748Y-47910000D01*
X141586252Y-46090000D02*
X140163748Y-46090000D01*
X131788748Y-45240000D02*
X133211252Y-45240000D01*
X131788748Y-47060000D02*
X133211252Y-47060000D01*
X133590000Y-67861252D02*
X133590000Y-66438748D01*
X135410000Y-67861252D02*
X135410000Y-66438748D01*
X171188748Y-61515000D02*
X172611252Y-61515000D01*
X171188748Y-63335000D02*
X172611252Y-63335000D01*
X114783748Y-63800000D02*
X116206252Y-63800000D01*
X114783748Y-65620000D02*
X116206252Y-65620000D01*
X168538748Y-75990000D02*
X169961252Y-75990000D01*
X168538748Y-77810000D02*
X169961252Y-77810000D01*
X112363748Y-44452500D02*
X113786252Y-44452500D01*
X112363748Y-46272500D02*
X113786252Y-46272500D01*
X171363748Y-58565000D02*
X172786252Y-58565000D01*
X171363748Y-60385000D02*
X172786252Y-60385000D01*
X168488748Y-55690000D02*
X169911252Y-55690000D01*
X168488748Y-57510000D02*
X169911252Y-57510000D01*
X138610000Y-66463748D02*
X138610000Y-67886252D01*
X136790000Y-66463748D02*
X136790000Y-67886252D01*
X103938748Y-54490000D02*
X105361252Y-54490000D01*
X103938748Y-56310000D02*
X105361252Y-56310000D01*
X142960000Y-73738748D02*
X142960000Y-75161252D01*
X141140000Y-73738748D02*
X141140000Y-75161252D01*
X168338748Y-78690000D02*
X169761252Y-78690000D01*
X168338748Y-80510000D02*
X169761252Y-80510000D01*
X172213748Y-68215000D02*
X173636252Y-68215000D01*
X172213748Y-70035000D02*
X173636252Y-70035000D01*
X119088748Y-51240000D02*
X120511252Y-51240000D01*
X119088748Y-53060000D02*
X120511252Y-53060000D01*
X165713748Y-73190000D02*
X167136252Y-73190000D01*
X165713748Y-75010000D02*
X167136252Y-75010000D01*
X144983252Y-53107000D02*
X143560748Y-53107000D01*
X144983252Y-51287000D02*
X143560748Y-51287000D01*
X146060000Y-73763748D02*
X146060000Y-75186252D01*
X144240000Y-73763748D02*
X144240000Y-75186252D01*
X180711252Y-77785000D02*
X179288748Y-77785000D01*
X180711252Y-75965000D02*
X179288748Y-75965000D01*
X112960000Y-52863748D02*
X112960000Y-54286252D01*
X111140000Y-52863748D02*
X111140000Y-54286252D01*
X169163748Y-52165000D02*
X170586252Y-52165000D01*
X169163748Y-53985000D02*
X170586252Y-53985000D01*
X136210000Y-73763748D02*
X136210000Y-75186252D01*
X134390000Y-73763748D02*
X134390000Y-75186252D01*
X139910000Y-73738748D02*
X139910000Y-75161252D01*
X138090000Y-73738748D02*
X138090000Y-75161252D01*
X112010000Y-71058748D02*
X112010000Y-72481252D01*
X110190000Y-71058748D02*
X110190000Y-72481252D01*
X117210000Y-79763748D02*
X117210000Y-81186252D01*
X115390000Y-79763748D02*
X115390000Y-81186252D01*
X169363748Y-84790000D02*
X170786252Y-84790000D01*
X169363748Y-86610000D02*
X170786252Y-86610000D01*
X173015000Y-55264564D02*
X173015000Y-53810436D01*
X174835000Y-55264564D02*
X174835000Y-53810436D01*
X111822936Y-66690000D02*
X113277064Y-66690000D01*
X111822936Y-68510000D02*
X113277064Y-68510000D01*
X137222936Y-49040000D02*
X138677064Y-49040000D01*
X137222936Y-50860000D02*
X138677064Y-50860000D01*
X153322936Y-73290000D02*
X154777064Y-73290000D01*
X153322936Y-75110000D02*
X154777064Y-75110000D01*
X156190000Y-60764564D02*
X156190000Y-59310436D01*
X158010000Y-60764564D02*
X158010000Y-59310436D01*
X126690000Y-48739564D02*
X126690000Y-47285436D01*
X128510000Y-48739564D02*
X128510000Y-47285436D01*
X131760436Y-49040000D02*
X133214564Y-49040000D01*
X131760436Y-50860000D02*
X133214564Y-50860000D01*
X159015000Y-62702064D02*
X159015000Y-61247936D01*
X160835000Y-62702064D02*
X160835000Y-61247936D01*
X157610000Y-77472936D02*
X157610000Y-78927064D01*
X155790000Y-77472936D02*
X155790000Y-78927064D01*
X114365000Y-54314564D02*
X114365000Y-52860436D01*
X116185000Y-54314564D02*
X116185000Y-52860436D01*
X123415000Y-48739564D02*
X123415000Y-47285436D01*
X125235000Y-48739564D02*
X125235000Y-47285436D01*
X132377064Y-54310000D02*
X130922936Y-54310000D01*
X132377064Y-52490000D02*
X130922936Y-52490000D01*
X149317064Y-66823000D02*
X147862936Y-66823000D01*
X149317064Y-65003000D02*
X147862936Y-65003000D01*
X175289564Y-77810000D02*
X173835436Y-77810000D01*
X175289564Y-75990000D02*
X173835436Y-75990000D01*
X154997936Y-63215000D02*
X156452064Y-63215000D01*
X154997936Y-65035000D02*
X156452064Y-65035000D01*
X124722936Y-51240000D02*
X126177064Y-51240000D01*
X124722936Y-53060000D02*
X126177064Y-53060000D01*
X153460000Y-78235436D02*
X153460000Y-79689564D01*
X151640000Y-78235436D02*
X151640000Y-79689564D01*
X99920000Y-57290000D02*
X109040000Y-57290000D01*
X99920000Y-69340000D02*
X101230000Y-69340000D01*
X99920000Y-85490000D02*
X99920000Y-57290000D01*
X101230000Y-58590000D02*
X107730000Y-58590000D01*
X101230000Y-69340000D02*
X101230000Y-58590000D01*
X101230000Y-73440000D02*
X99920000Y-73440000D01*
X101230000Y-73440000D02*
X101230000Y-73440000D01*
X101230000Y-84190000D02*
X101230000Y-73440000D01*
X107730000Y-58590000D02*
X107730000Y-84190000D01*
X107730000Y-84190000D02*
X101230000Y-84190000D01*
X109040000Y-57290000D02*
X109040000Y-85490000D01*
X109040000Y-85490000D02*
X99920000Y-85490000D01*
X127439000Y-55476000D02*
X127439000Y-55830000D01*
X127439000Y-63250000D02*
X127439000Y-63604000D01*
X127439000Y-63604000D02*
X133281000Y-63604000D01*
X133281000Y-55476000D02*
X127439000Y-55476000D01*
X133281000Y-55830000D02*
X133281000Y-55476000D01*
X133281000Y-63604000D02*
X133281000Y-63250000D01*
X126990000Y-55910000D02*
X126750000Y-55574000D01*
X127230000Y-55574000D01*
X126990000Y-55910000D01*
G36*
X126990000Y-55910000D02*
G01*
X126750000Y-55574000D01*
X127230000Y-55574000D01*
X126990000Y-55910000D01*
G37*
X141745500Y-68211000D02*
X142545500Y-68211000D01*
X141745500Y-68211000D02*
X140945500Y-68211000D01*
X141745500Y-65091000D02*
X142545500Y-65091000D01*
X141745500Y-65091000D02*
X140945500Y-65091000D01*
X143285500Y-68491000D02*
X142805500Y-68491000D01*
X143045500Y-68161000D01*
X143285500Y-68491000D01*
G36*
X143285500Y-68491000D02*
G01*
X142805500Y-68491000D01*
X143045500Y-68161000D01*
X143285500Y-68491000D01*
G37*
X118555000Y-44515000D02*
X121135000Y-44515000D01*
X121135000Y-45495000D02*
X121135000Y-44515000D01*
X121135000Y-48255000D02*
X121135000Y-49235000D01*
X121135000Y-49235000D02*
X118415000Y-49235000D01*
X118005000Y-44665000D02*
X117765000Y-44335000D01*
X118245000Y-44335000D01*
X118005000Y-44665000D01*
G36*
X118005000Y-44665000D02*
G01*
X117765000Y-44335000D01*
X118245000Y-44335000D01*
X118005000Y-44665000D01*
G37*
X141568000Y-59476000D02*
X141568000Y-57276000D01*
X141568000Y-59476000D02*
X141568000Y-61676000D01*
X136098000Y-59476000D02*
X136098000Y-57276000D01*
X136098000Y-59476000D02*
X136098000Y-61676000D01*
X141108000Y-55616000D02*
X140868000Y-55286000D01*
X141348000Y-55286000D01*
X141108000Y-55616000D01*
G36*
X141108000Y-55616000D02*
G01*
X140868000Y-55286000D01*
X141348000Y-55286000D01*
X141108000Y-55616000D01*
G37*
D16*
X163165300Y-64408900D02*
X167407100Y-64408900D01*
X167407100Y-59151100D02*
X163165300Y-59151100D01*
D17*
X103735000Y-48537000D02*
X106285000Y-48537000D01*
X101710000Y-46437000D02*
X101710000Y-43987000D01*
X108435000Y-44062000D02*
X108435000Y-46237000D01*
X103885000Y-41862000D02*
X106210000Y-41862000D01*
D16*
X160317900Y-81583900D02*
X164559700Y-81583900D01*
X164559700Y-76326100D02*
X160317900Y-76326100D01*
X172911500Y-83504000D02*
X172911500Y-81850000D01*
X171872640Y-83504000D02*
X172911500Y-83504000D01*
X171671359Y-81850000D02*
X170847641Y-81850000D01*
X169607500Y-83504000D02*
X170646360Y-83504000D01*
X169607500Y-81850000D02*
X169607500Y-83504000D01*
X173418500Y-81427000D02*
G75*
G02*
X173164500Y-81427000I-127000J0D01*
G01*
X173164500Y-81427000D02*
G75*
G02*
X173418500Y-81427000I127000J0D01*
G01*
D15*
X143273000Y-59446000D02*
X143273000Y-61646000D01*
X143273000Y-59446000D02*
X143273000Y-57246000D01*
X148493000Y-59446000D02*
X148493000Y-61646000D01*
X148493000Y-59446000D02*
X148493000Y-57246000D01*
X143473000Y-62346000D02*
X143143000Y-62586000D01*
X143143000Y-62106000D01*
X143473000Y-62346000D01*
G36*
X143473000Y-62346000D02*
G01*
X143143000Y-62586000D01*
X143143000Y-62106000D01*
X143473000Y-62346000D01*
G37*
D17*
X149830000Y-48537000D02*
X152380000Y-48537000D01*
X147805000Y-46437000D02*
X147805000Y-43987000D01*
X154530000Y-44062000D02*
X154530000Y-46237000D01*
X149980000Y-41862000D02*
X152305000Y-41862000D01*
D18*
X198551500Y-56450000D02*
X195451500Y-56450000D01*
X198551500Y-55950000D02*
X198551500Y-56450000D01*
X198551500Y-50950000D02*
X198551500Y-55950000D01*
X198551500Y-50450000D02*
X198551500Y-50950000D01*
X198551500Y-50450000D02*
X197451500Y-50450000D01*
X194851500Y-50450000D02*
X188351500Y-50450000D01*
X192851500Y-56450000D02*
X184051500Y-56450000D01*
X185151500Y-50450000D02*
X184051500Y-50450000D01*
D15*
X184051500Y-56450000D02*
X184053300Y-55786800D01*
X184051500Y-50450000D02*
X184053300Y-52586400D01*
X150333000Y-58526000D02*
G75*
G02*
X148933000Y-58526000I-700000J0D01*
G01*
X148933000Y-58526000D02*
G75*
G02*
X150333000Y-58526000I700000J0D01*
G01*
D16*
X175769000Y-66746999D02*
X175769000Y-65092999D01*
X174730140Y-66746999D02*
X175769000Y-66746999D01*
X174528859Y-65092999D02*
X173705141Y-65092999D01*
X172465000Y-66746999D02*
X173503860Y-66746999D01*
X172465000Y-65092999D02*
X172465000Y-66746999D01*
X176276000Y-64669999D02*
G75*
G02*
X176022000Y-64669999I-127000J0D01*
G01*
X176022000Y-64669999D02*
G75*
G02*
X176276000Y-64669999I127000J0D01*
G01*
D15*
X152718000Y-55463500D02*
X152718000Y-54663500D01*
X152718000Y-55463500D02*
X152718000Y-56263500D01*
X149598000Y-55463500D02*
X149598000Y-54663500D01*
X149598000Y-55463500D02*
X149598000Y-56263500D01*
X152998000Y-54403500D02*
X152668000Y-54163500D01*
X152998000Y-53923500D01*
X152998000Y-54403500D01*
G36*
X152998000Y-54403500D02*
G01*
X152668000Y-54163500D01*
X152998000Y-53923500D01*
X152998000Y-54403500D01*
G37*
X146003000Y-68386000D02*
G75*
G02*
X144603000Y-68386000I-700000J0D01*
G01*
X144603000Y-68386000D02*
G75*
G02*
X146003000Y-68386000I700000J0D01*
G01*
M02*
