M48
; DRILL file {KiCad 8.0.1} date 2024-04-28T19:48:54-0400
; FORMAT={-:-/ absolute / metric / decimal}
; #@! TF.CreationDate,2024-04-28T19:48:54-04:00
; #@! TF.GenerationSoftware,Kicad,Pcbnew,8.0.1
; #@! TF.FileFunction,Plated,1,2,PTH
FMAT,2
METRIC
; #@! TA.AperFunction,Plated,PTH,ViaDrill
T1C0.500
; #@! TA.AperFunction,Plated,PTH,ComponentDrill
T2C1.000
; #@! TA.AperFunction,Plated,PTH,ComponentDrill
T3C1.500
; #@! TA.AperFunction,Plated,PTH,ComponentDrill
T4C1.600
%
G90
G05
T1
X100.55Y-106.55
X100.6Y-55.375
X100.7Y-86.975
X103.2Y-57.525
X107.31Y-66.22
X107.4Y-113.15
X108.03Y-55.41
X111.1Y-75.02
X112.33Y-64.84
X113.6Y-56.5
X114.25Y-73.9
X114.95Y-69.45
X116.225Y-46.875
X116.275Y-43.875
X116.3Y-83.95
X116.6Y-59.15
X116.96Y-62.45
X117.2Y-53.95
X117.85Y-77.65
X118.65Y-73.9
X118.7Y-71.55
X119.9Y-66.0
X120.0Y-45.275
X120.0Y-48.45
X120.0Y-50.2
X120.1Y-71.55
X120.15Y-73.9
X122.075Y-48.425
X122.125Y-45.225
X122.25Y-68.45
X122.5Y-71.15
X123.5Y-62.1
X124.4Y-75.85
X124.55Y-73.9
X125.2Y-53.9
X125.4Y-67.15
X126.05Y-78.45
X126.1Y-75.8
X127.6Y-44.65
X128.15Y-40.8
X128.25Y-62.05
X128.3Y-73.6
X128.46Y-59.54
X128.55Y-77.15
X129.5Y-48.0
X130.1Y-71.7
X130.5Y-90.0
X132.4Y-71.4
X132.5Y-65.9
X133.4Y-63.7
X133.7Y-82.3
X133.7Y-84.95
X134.45Y-51.9
X134.55Y-54.9
X135.3Y-77.65
X135.35Y-67.05
X135.7Y-64.2
X136.4Y-60.2
X136.9Y-58.9
X138.05Y-77.3
X138.9Y-60.0
X139.3Y-64.65
X139.5Y-55.0
X140.1Y-58.8
X140.5Y-77.3
X140.6Y-69.1
X141.2Y-51.15
X141.8Y-63.95
X142.65Y-55.05
X143.25Y-64.35
X143.6Y-77.3
X144.65Y-65.3
X145.2Y-57.0
X145.2Y-62.0
X145.3Y-55.25
X146.8Y-60.0
X146.85Y-92.6
X146.9Y-82.3
X146.9Y-84.95
X147.2Y-67.8
X147.2Y-75.95
X147.45Y-113.05
X148.9Y-54.9
X148.9Y-63.8
X149.1Y-69.9
X149.6Y-60.1
X150.0Y-53.65
X150.05Y-67.9
X150.35Y-73.1
X151.9Y-58.9
X152.0Y-63.8
X152.8Y-66.05
X152.95Y-51.9
X153.05Y-54.9
X153.8Y-59.9
X155.25Y-69.15
X155.3Y-62.0
X155.375Y-60.6
X156.2Y-55.9
X156.25Y-90.05
X157.4Y-56.9
X159.4Y-68.8
X160.9Y-82.35
X161.65Y-84.925
X163.44Y-75.58
X163.65Y-65.75
X163.9Y-82.25
X166.1Y-82.225
X166.3Y-53.05
X166.3Y-58.4
X166.37Y-68.199
X166.5Y-65.325
X167.45Y-72.2
X167.64Y-81.661
X168.975Y-65.35
X170.434Y-64.897
X171.196Y-74.93
X172.225Y-78.75
X172.275Y-57.675
X172.6Y-51.3
X173.37Y-85.72
X174.25Y-41.05
X175.26Y-62.44
X176.27Y-69.13
X176.3Y-56.03
X176.98Y-64.99
X177.275Y-75.225
X183.55Y-76.9
X184.3Y-48.05
X184.4Y-64.75
X186.9Y-64.8
X189.25Y-49.65
X191.1Y-113.15
X192.15Y-55.1
X196.15Y-47.05
X197.225Y-60.6
X197.26Y-41.44
X197.3Y-82.3
X197.85Y-107.3
T2
X103.21Y-62.5
X103.21Y-65.04
X103.21Y-67.58
X103.21Y-70.12
X103.21Y-72.66
X103.21Y-75.2
X103.21Y-77.74
X103.21Y-80.28
X105.75Y-62.5
X105.75Y-65.04
X105.75Y-67.58
X105.75Y-70.12
X105.75Y-72.66
X105.75Y-75.2
X105.75Y-77.74
X105.75Y-80.28
T3
X105.135Y-45.137
X151.23Y-45.137
T4
X102.495Y-42.672
X102.495Y-47.752
X107.575Y-42.672
X107.575Y-47.752
X148.59Y-42.672
X148.59Y-47.752
X153.67Y-42.672
X153.67Y-47.752
M30
