M48
; DRILL file {KiCad 8.0.0} date 2024-02-29T17:48:07-0500
; FORMAT={2:4/ absolute / inch / suppress leading zeros}
; #@! TF.CreationDate,2024-02-29T17:48:07-05:00
; #@! TF.GenerationSoftware,Kicad,Pcbnew,8.0.0
; #@! TF.FileFunction,Plated,1,2,PTH
FMAT,2
INCH,TZ
; #@! TA.AperFunction,Plated,PTH,ViaDrill
T1C0.0197
; #@! TA.AperFunction,Plated,PTH,ComponentDrill
T2C0.0394
; #@! TA.AperFunction,Plated,PTH,ComponentDrill
T3C0.0591
; #@! TA.AperFunction,Plated,PTH,ComponentDrill
T4C0.0630
%
G90
G05
T1
X39587Y-41949
X39606Y-21801
X39646Y-34242
X40630Y-22648
X42248Y-26071
X42283Y-44547
X42531Y-21815
X43740Y-29535
X44224Y-25528
X44724Y-22244
X44980Y-29094
X45256Y-27343
X45758Y-18455
X45778Y-17274
X45787Y-33051
X45906Y-23287
X46047Y-24587
X46142Y-21240
X46398Y-30571
X46713Y-29094
X46732Y-28169
X47205Y-25984
X47244Y-17825
X47244Y-19075
X47244Y-19764
X47283Y-28169
X47303Y-29094
X48061Y-19065
X48081Y-17805
X48130Y-26949
X48228Y-28012
X48976Y-29862
X49035Y-29094
X49291Y-21220
X49350Y-24449
X49626Y-30886
X49646Y-29843
X49951Y-25945
X50236Y-17579
X50453Y-16063
X50512Y-28976
X50610Y-30374
X50984Y-18898
X51220Y-28228
X51260Y-24429
X51339Y-23445
X52126Y-28110
X52165Y-25945
X52559Y-25177
X52638Y-32402
X52638Y-33445
X52933Y-20433
X53228Y-22028
X53268Y-30571
X53287Y-26398
X53543Y-25276
X53760Y-21654
X54035Y-23878
X54272Y-22874
X54350Y-30433
X54783Y-21713
X54783Y-23957
X54843Y-25453
X54941Y-23051
X55315Y-30433
X55354Y-27205
X55551Y-21654
X55591Y-20138
X55709Y-25217
X56004Y-23976
X56220Y-22264
X56220Y-24528
X56260Y-25335
X56535Y-30433
X56752Y-36506
X56890Y-25866
X57185Y-25157
X57441Y-23898
X57677Y-22874
X57717Y-21594
X57835Y-32402
X57835Y-33445
X57953Y-29902
X58051Y-44508
X58110Y-26850
X58130Y-23583
X58642Y-22028
X58661Y-24488
X58740Y-23917
X59075Y-26673
X59193Y-28780
X59213Y-25177
X59665Y-26535
X59882Y-22854
X60413Y-22520
X60846Y-24469
X61803Y-26020
X63346Y-32421
X63642Y-33435
X64346Y-29756
X64429Y-25886
X64528Y-32382
X65394Y-32372
X65472Y-20886
X65472Y-22992
X65500Y-26850
X65551Y-25719
X65925Y-28425
X66000Y-32150
X66526Y-25728
X67100Y-25550
X67400Y-29500
X67697Y-20118
X67805Y-31004
X67825Y-22707
X68256Y-33748
X68602Y-16161
X69000Y-24583
X69398Y-27217
X69409Y-22059
X69677Y-25587
X69793Y-29616
X72264Y-30276
X72451Y-36506
X72559Y-18917
X72598Y-25492
X73583Y-25512
X74508Y-19547
X75236Y-44547
X75650Y-21693
X77224Y-18524
X77648Y-23858
X77661Y-16315
X77677Y-32402
X77894Y-42244
T2
X40634Y-24606
X40634Y-25606
X40634Y-26606
X40634Y-27606
X40634Y-28606
X40634Y-29606
X40634Y-30606
X40634Y-31606
X41634Y-24606
X41634Y-25606
X41634Y-26606
X41634Y-27606
X41634Y-28606
X41634Y-29606
X41634Y-30606
X41634Y-31606
T3
X41392Y-17770
X59539Y-17770
T4
X40352Y-16800
X40352Y-18800
X42352Y-16800
X42352Y-18800
X58500Y-16800
X58500Y-18800
X60500Y-16800
X60500Y-18800
M30
