G04 #@! TF.GenerationSoftware,KiCad,Pcbnew,8.0.0*
G04 #@! TF.CreationDate,2024-02-29T17:48:04-05:00*
G04 #@! TF.ProjectId,qsd2,71736432-2e6b-4696-9361-645f70636258,rev?*
G04 #@! TF.SameCoordinates,Original*
G04 #@! TF.FileFunction,Copper,L2,Bot*
G04 #@! TF.FilePolarity,Positive*
%FSLAX46Y46*%
G04 Gerber Fmt 4.6, Leading zero omitted, Abs format (unit mm)*
G04 Created by KiCad (PCBNEW 8.0.0) date 2024-02-29 17:48:04*
%MOMM*%
%LPD*%
G01*
G04 APERTURE LIST*
G04 Aperture macros list*
%AMRoundRect*
0 Rectangle with rounded corners*
0 $1 Rounding radius*
0 $2 $3 $4 $5 $6 $7 $8 $9 X,Y pos of 4 corners*
0 Add a 4 corners polygon primitive as box body*
4,1,4,$2,$3,$4,$5,$6,$7,$8,$9,$2,$3,0*
0 Add four circle primitives for the rounded corners*
1,1,$1+$1,$2,$3*
1,1,$1+$1,$4,$5*
1,1,$1+$1,$6,$7*
1,1,$1+$1,$8,$9*
0 Add four rect primitives between the rounded corners*
20,1,$1+$1,$2,$3,$4,$5,0*
20,1,$1+$1,$4,$5,$6,$7,0*
20,1,$1+$1,$6,$7,$8,$9,0*
20,1,$1+$1,$8,$9,$2,$3,0*%
G04 Aperture macros list end*
G04 #@! TA.AperFunction,SMDPad,CuDef*
%ADD10RoundRect,0.250000X0.325000X0.650000X-0.325000X0.650000X-0.325000X-0.650000X0.325000X-0.650000X0*%
G04 #@! TD*
G04 #@! TA.AperFunction,SMDPad,CuDef*
%ADD11RoundRect,0.250000X-0.325000X-0.650000X0.325000X-0.650000X0.325000X0.650000X-0.325000X0.650000X0*%
G04 #@! TD*
G04 #@! TA.AperFunction,SMDPad,CuDef*
%ADD12RoundRect,0.250000X-0.625000X0.312500X-0.625000X-0.312500X0.625000X-0.312500X0.625000X0.312500X0*%
G04 #@! TD*
G04 #@! TA.AperFunction,ComponentPad*
%ADD13RoundRect,0.250000X-0.600000X-0.600000X0.600000X-0.600000X0.600000X0.600000X-0.600000X0.600000X0*%
G04 #@! TD*
G04 #@! TA.AperFunction,ComponentPad*
%ADD14C,1.700000*%
G04 #@! TD*
G04 #@! TA.AperFunction,ComponentPad*
%ADD15C,2.500000*%
G04 #@! TD*
G04 #@! TA.AperFunction,ComponentPad*
%ADD16C,2.600000*%
G04 #@! TD*
G04 #@! TA.AperFunction,ViaPad*
%ADD17C,1.000000*%
G04 #@! TD*
G04 #@! TA.AperFunction,Conductor*
%ADD18C,0.500000*%
G04 #@! TD*
G04 #@! TA.AperFunction,Conductor*
%ADD19C,0.250000*%
G04 #@! TD*
G04 APERTURE END LIST*
D10*
X134875000Y-59550000D03*
X131925000Y-59550000D03*
X145669000Y-69088000D03*
X142719000Y-69088000D03*
D11*
X140858000Y-59451000D03*
X143808000Y-59451000D03*
D10*
X147652000Y-51816000D03*
X144702000Y-51816000D03*
D12*
X169291000Y-71120000D03*
X169291000Y-74045000D03*
D13*
X103210000Y-62500000D03*
D14*
X105750000Y-62500000D03*
X103210000Y-65040000D03*
X105750000Y-65040000D03*
X103210000Y-67580000D03*
X105750000Y-67580000D03*
X103210000Y-70120000D03*
X105750000Y-70120000D03*
X103210000Y-72660000D03*
X105750000Y-72660000D03*
X103210000Y-75200000D03*
X105750000Y-75200000D03*
X103210000Y-77740000D03*
X105750000Y-77740000D03*
X103210000Y-80280000D03*
X105750000Y-80280000D03*
D15*
X105135000Y-45137000D03*
D16*
X102495000Y-42672000D03*
X107575000Y-42672000D03*
X107575000Y-47752000D03*
X102495000Y-47752000D03*
D15*
X151230000Y-45137000D03*
D16*
X148590000Y-42672000D03*
X153670000Y-42672000D03*
X153670000Y-47752000D03*
X148590000Y-47752000D03*
D17*
X186900000Y-64800000D03*
X120000000Y-45275000D03*
X142250000Y-60900000D03*
X122075000Y-48425000D03*
X150400000Y-63950000D03*
X184025000Y-92725000D03*
X133700000Y-82300000D03*
X112330000Y-64840000D03*
X197850000Y-107300000D03*
X126100000Y-75800000D03*
X156980000Y-66090000D03*
X172275000Y-57675000D03*
X150350000Y-73100000D03*
X142900000Y-64350000D03*
X108030000Y-55410000D03*
X166100000Y-82225000D03*
X116960000Y-62450000D03*
X166370000Y-68199000D03*
X133500000Y-63950000D03*
X141500000Y-64050000D03*
X114950000Y-69450000D03*
X166300000Y-53050000D03*
X161650000Y-84925000D03*
X175260000Y-62440000D03*
X122500000Y-71150000D03*
X143600000Y-77300000D03*
X124400000Y-75850000D03*
X135300000Y-77650000D03*
X197225000Y-60600000D03*
X196150000Y-47050000D03*
X120000000Y-50200000D03*
X191100000Y-113150000D03*
X111100000Y-75020000D03*
X118700000Y-71550000D03*
X176980000Y-64990000D03*
X177275000Y-75225000D03*
X132500000Y-65900000D03*
X147200000Y-75950000D03*
X114250000Y-73900000D03*
X126875000Y-65900000D03*
X160900000Y-82350000D03*
X117200000Y-53950000D03*
X125350000Y-62100000D03*
X135200000Y-55950000D03*
X119900000Y-66000000D03*
X100600000Y-55375000D03*
X151550000Y-67400000D03*
X116600000Y-59150000D03*
X163900000Y-82250000D03*
X173370000Y-85720000D03*
X116275000Y-43875000D03*
X172225000Y-78750000D03*
X117850000Y-77650000D03*
X174250000Y-41050000D03*
X147650000Y-59900000D03*
X184300000Y-48050000D03*
X100700000Y-86975000D03*
X133700000Y-84950000D03*
X138050000Y-77300000D03*
X153450000Y-57200000D03*
X120150000Y-73900000D03*
X141200000Y-51150000D03*
X125200000Y-53900000D03*
X128550000Y-77150000D03*
X107400000Y-113150000D03*
X130100000Y-71700000D03*
X184400000Y-64750000D03*
X116225000Y-46875000D03*
X118650000Y-73900000D03*
X183550000Y-76900000D03*
X116300000Y-83950000D03*
X107310000Y-66220000D03*
X128150000Y-40800000D03*
X144150000Y-92725000D03*
X146900000Y-84950000D03*
X144500000Y-65700000D03*
X124550000Y-73900000D03*
X171196000Y-74930000D03*
X140500000Y-77300000D03*
X147450000Y-113050000D03*
X163650000Y-65750000D03*
X197260000Y-41440000D03*
X163440000Y-75580000D03*
X176300000Y-56030000D03*
X146900000Y-82300000D03*
X128300000Y-73600000D03*
X166500000Y-65325000D03*
X189250000Y-49650000D03*
X176270000Y-69130000D03*
X120100000Y-71550000D03*
X197300000Y-82300000D03*
X127600000Y-44650000D03*
X129500000Y-48000000D03*
X168975000Y-65350000D03*
X192150000Y-55100000D03*
X171950000Y-51100000D03*
X122125000Y-45225000D03*
X130200000Y-62050000D03*
X113600000Y-56500000D03*
X147600000Y-68200000D03*
X134450000Y-51900000D03*
X100550000Y-106550000D03*
X141100000Y-55000000D03*
X167450000Y-72200000D03*
X136550000Y-55000000D03*
X122250000Y-68450000D03*
X154550000Y-62150000D03*
X149000000Y-62200000D03*
X126050000Y-78450000D03*
X166300000Y-58400000D03*
X120000000Y-48450000D03*
X132400000Y-71400000D03*
X142800000Y-62300000D03*
X140600000Y-69100000D03*
X152100000Y-58050000D03*
X142800000Y-56550000D03*
X139150000Y-55150000D03*
X137250000Y-60650000D03*
X135350000Y-67050000D03*
X139150000Y-60850000D03*
X139300000Y-64650000D03*
X137850000Y-58100000D03*
X139550000Y-58550000D03*
X136000000Y-64200000D03*
X150050000Y-67750000D03*
X103200000Y-57525000D03*
X145250000Y-63900000D03*
X149200000Y-60750000D03*
X146600000Y-54850000D03*
X148950000Y-55950000D03*
X145900000Y-60700000D03*
X146500000Y-58100000D03*
X167640000Y-81661000D03*
X170434000Y-64897000D03*
X130400000Y-59550000D03*
D18*
X143808000Y-59451000D02*
X143808000Y-57558000D01*
D19*
X142800000Y-62300000D02*
X142050000Y-62300000D01*
X143400000Y-62900000D02*
X142800000Y-62300000D01*
D18*
X143808000Y-57558000D02*
X142800000Y-56550000D01*
D19*
X140600000Y-63750000D02*
X140600000Y-69100000D01*
X152100000Y-60566727D02*
X147816727Y-64850000D01*
X152100000Y-58050000D02*
X152100000Y-60566727D01*
X147816727Y-64850000D02*
X145000000Y-64850000D01*
D18*
X143808000Y-61292000D02*
X142800000Y-62300000D01*
D19*
X145000000Y-64850000D02*
X143400000Y-63250000D01*
D18*
X132400000Y-71400000D02*
X138300000Y-71400000D01*
X138300000Y-71400000D02*
X140600000Y-69100000D01*
D19*
X142050000Y-62300000D02*
X140600000Y-63750000D01*
D18*
X142707000Y-69100000D02*
X142719000Y-69088000D01*
X143808000Y-59451000D02*
X143808000Y-61292000D01*
X140600000Y-69100000D02*
X142707000Y-69100000D01*
D19*
X143400000Y-63250000D02*
X143400000Y-62900000D01*
X136950000Y-58750000D02*
X137250000Y-59050000D01*
X137250000Y-59050000D02*
X137250000Y-60650000D01*
X136950000Y-57750000D02*
X139150000Y-55550000D01*
X139150000Y-55550000D02*
X139150000Y-55150000D01*
X136950000Y-57750000D02*
X136950000Y-58750000D01*
X136450000Y-67050000D02*
X135350000Y-67050000D01*
X139300000Y-64650000D02*
X136900000Y-67050000D01*
X139150000Y-60850000D02*
X137850000Y-59550000D01*
X137850000Y-59550000D02*
X137850000Y-58100000D01*
X136900000Y-67050000D02*
X136450000Y-67050000D01*
X139550000Y-59850000D02*
X139550000Y-58550000D01*
X136300000Y-63900000D02*
X136000000Y-64200000D01*
X139975000Y-60275000D02*
X139550000Y-59850000D01*
X139975000Y-61191727D02*
X139975000Y-60275000D01*
X137266727Y-63900000D02*
X136300000Y-63900000D01*
X137266727Y-63900000D02*
X139975000Y-61191727D01*
X146400000Y-71400000D02*
X143250000Y-71400000D01*
X150050000Y-67750000D02*
X146400000Y-71400000D01*
X112875000Y-67200000D02*
X103200000Y-57525000D01*
X141750000Y-72900000D02*
X129400000Y-72900000D01*
X143250000Y-71400000D02*
X141750000Y-72900000D01*
X129400000Y-72900000D02*
X123700000Y-67200000D01*
X123700000Y-67200000D02*
X112875000Y-67200000D01*
X103210000Y-62500000D02*
X103225000Y-62500000D01*
X149200000Y-60750000D02*
X148400000Y-60750000D01*
X148400000Y-60750000D02*
X145250000Y-63900000D01*
X147850000Y-54850000D02*
X146600000Y-54850000D01*
X148950000Y-55950000D02*
X147850000Y-54850000D01*
X144702000Y-56302000D02*
X146500000Y-58100000D01*
X144702000Y-51816000D02*
X144702000Y-56302000D01*
X145900000Y-60700000D02*
X146500000Y-60100000D01*
X146500000Y-60100000D02*
X146500000Y-58100000D01*
X167640000Y-81661000D02*
X169291000Y-80010000D01*
X169291000Y-80010000D02*
X169291000Y-74045000D01*
X169291000Y-68453000D02*
X169291000Y-71120000D01*
X170434000Y-67310000D02*
X169291000Y-68453000D01*
X170434000Y-64897000D02*
X170434000Y-67310000D01*
D18*
X131925000Y-59550000D02*
X130400000Y-59550000D01*
G04 #@! TA.AperFunction,Conductor*
G36*
X104564855Y-78406546D02*
G01*
X104581575Y-78425842D01*
X104711500Y-78611395D01*
X104711505Y-78611401D01*
X104878599Y-78778495D01*
X105064594Y-78908730D01*
X105108218Y-78963307D01*
X105115411Y-79032806D01*
X105083889Y-79095160D01*
X105064593Y-79111880D01*
X104988626Y-79165072D01*
X104988625Y-79165072D01*
X105620590Y-79797037D01*
X105557007Y-79814075D01*
X105442993Y-79879901D01*
X105349901Y-79972993D01*
X105284075Y-80087007D01*
X105267037Y-80150590D01*
X104635072Y-79518625D01*
X104635072Y-79518626D01*
X104581574Y-79595030D01*
X104526998Y-79638655D01*
X104457499Y-79645849D01*
X104395144Y-79614326D01*
X104378424Y-79595030D01*
X104324925Y-79518626D01*
X104324925Y-79518625D01*
X103692962Y-80150589D01*
X103675925Y-80087007D01*
X103610099Y-79972993D01*
X103517007Y-79879901D01*
X103402993Y-79814075D01*
X103339410Y-79797037D01*
X103971373Y-79165073D01*
X103971373Y-79165072D01*
X103895405Y-79111880D01*
X103851780Y-79057304D01*
X103844586Y-78987805D01*
X103876108Y-78925451D01*
X103895399Y-78908734D01*
X104081401Y-78778495D01*
X104248495Y-78611401D01*
X104378425Y-78425842D01*
X104433002Y-78382217D01*
X104502500Y-78375023D01*
X104564855Y-78406546D01*
G37*
G04 #@! TD.AperFunction*
G04 #@! TA.AperFunction,Conductor*
G36*
X105284075Y-75392993D02*
G01*
X105349901Y-75507007D01*
X105442993Y-75600099D01*
X105557007Y-75665925D01*
X105620590Y-75682962D01*
X104988625Y-76314925D01*
X105064594Y-76368119D01*
X105108219Y-76422696D01*
X105115413Y-76492194D01*
X105083890Y-76554549D01*
X105064595Y-76571269D01*
X104878594Y-76701508D01*
X104711505Y-76868597D01*
X104581575Y-77054158D01*
X104526998Y-77097783D01*
X104457500Y-77104977D01*
X104395145Y-77073454D01*
X104378425Y-77054158D01*
X104248494Y-76868597D01*
X104081402Y-76701506D01*
X104081401Y-76701505D01*
X103895405Y-76571269D01*
X103851781Y-76516692D01*
X103844588Y-76447193D01*
X103876110Y-76384839D01*
X103895405Y-76368119D01*
X103971373Y-76314925D01*
X103339409Y-75682962D01*
X103402993Y-75665925D01*
X103517007Y-75600099D01*
X103610099Y-75507007D01*
X103675925Y-75392993D01*
X103692962Y-75329410D01*
X104324925Y-75961373D01*
X104378425Y-75884968D01*
X104433002Y-75841344D01*
X104502501Y-75834151D01*
X104564855Y-75865673D01*
X104581576Y-75884969D01*
X104635073Y-75961372D01*
X105267037Y-75329409D01*
X105284075Y-75392993D01*
G37*
G04 #@! TD.AperFunction*
G04 #@! TA.AperFunction,Conductor*
G36*
X104564855Y-73326546D02*
G01*
X104581575Y-73345842D01*
X104711500Y-73531395D01*
X104711505Y-73531401D01*
X104878599Y-73698495D01*
X105064594Y-73828730D01*
X105108218Y-73883307D01*
X105115411Y-73952806D01*
X105083889Y-74015160D01*
X105064593Y-74031880D01*
X104988626Y-74085072D01*
X104988625Y-74085072D01*
X105620590Y-74717037D01*
X105557007Y-74734075D01*
X105442993Y-74799901D01*
X105349901Y-74892993D01*
X105284075Y-75007007D01*
X105267037Y-75070590D01*
X104635072Y-74438625D01*
X104635072Y-74438626D01*
X104581574Y-74515030D01*
X104526998Y-74558655D01*
X104457499Y-74565849D01*
X104395144Y-74534326D01*
X104378424Y-74515030D01*
X104324925Y-74438626D01*
X104324925Y-74438625D01*
X103692962Y-75070589D01*
X103675925Y-75007007D01*
X103610099Y-74892993D01*
X103517007Y-74799901D01*
X103402993Y-74734075D01*
X103339410Y-74717037D01*
X103971373Y-74085073D01*
X103971373Y-74085072D01*
X103895405Y-74031880D01*
X103851780Y-73977304D01*
X103844586Y-73907805D01*
X103876108Y-73845451D01*
X103895399Y-73828734D01*
X104081401Y-73698495D01*
X104248495Y-73531401D01*
X104378425Y-73345842D01*
X104433002Y-73302217D01*
X104502500Y-73295023D01*
X104564855Y-73326546D01*
G37*
G04 #@! TD.AperFunction*
G04 #@! TA.AperFunction,Conductor*
G36*
X105284075Y-70312993D02*
G01*
X105349901Y-70427007D01*
X105442993Y-70520099D01*
X105557007Y-70585925D01*
X105620590Y-70602962D01*
X104988625Y-71234925D01*
X105064594Y-71288119D01*
X105108219Y-71342696D01*
X105115413Y-71412194D01*
X105083890Y-71474549D01*
X105064595Y-71491269D01*
X104878594Y-71621508D01*
X104711505Y-71788597D01*
X104581575Y-71974158D01*
X104526998Y-72017783D01*
X104457500Y-72024977D01*
X104395145Y-71993454D01*
X104378425Y-71974158D01*
X104248494Y-71788597D01*
X104081402Y-71621506D01*
X104081401Y-71621505D01*
X103895405Y-71491269D01*
X103851781Y-71436692D01*
X103844588Y-71367193D01*
X103876110Y-71304839D01*
X103895405Y-71288119D01*
X103971373Y-71234925D01*
X103339409Y-70602962D01*
X103402993Y-70585925D01*
X103517007Y-70520099D01*
X103610099Y-70427007D01*
X103675925Y-70312993D01*
X103692962Y-70249410D01*
X104324925Y-70881373D01*
X104378425Y-70804968D01*
X104433002Y-70761344D01*
X104502501Y-70754151D01*
X104564855Y-70785673D01*
X104581576Y-70804969D01*
X104635073Y-70881372D01*
X105267037Y-70249409D01*
X105284075Y-70312993D01*
G37*
G04 #@! TD.AperFunction*
G04 #@! TA.AperFunction,Conductor*
G36*
X104564855Y-68246546D02*
G01*
X104581575Y-68265842D01*
X104711500Y-68451395D01*
X104711505Y-68451401D01*
X104878599Y-68618495D01*
X105046448Y-68736024D01*
X105064594Y-68748730D01*
X105108218Y-68803307D01*
X105115411Y-68872806D01*
X105083889Y-68935160D01*
X105064593Y-68951880D01*
X104988626Y-69005072D01*
X104988625Y-69005072D01*
X105620590Y-69637037D01*
X105557007Y-69654075D01*
X105442993Y-69719901D01*
X105349901Y-69812993D01*
X105284075Y-69927007D01*
X105267037Y-69990590D01*
X104635072Y-69358625D01*
X104635072Y-69358626D01*
X104581574Y-69435030D01*
X104526998Y-69478655D01*
X104457499Y-69485849D01*
X104395144Y-69454326D01*
X104378424Y-69435030D01*
X104324925Y-69358626D01*
X104324925Y-69358625D01*
X103692962Y-69990589D01*
X103675925Y-69927007D01*
X103610099Y-69812993D01*
X103517007Y-69719901D01*
X103402993Y-69654075D01*
X103339410Y-69637037D01*
X103971373Y-69005073D01*
X103971373Y-69005072D01*
X103895405Y-68951880D01*
X103851780Y-68897304D01*
X103844586Y-68827805D01*
X103876108Y-68765451D01*
X103895399Y-68748734D01*
X104081401Y-68618495D01*
X104248495Y-68451401D01*
X104378425Y-68265842D01*
X104433002Y-68222217D01*
X104502500Y-68215023D01*
X104564855Y-68246546D01*
G37*
G04 #@! TD.AperFunction*
G04 #@! TA.AperFunction,Conductor*
G36*
X198642539Y-40120185D02*
G01*
X198688294Y-40172989D01*
X198699500Y-40224500D01*
X198699500Y-113975500D01*
X198679815Y-114042539D01*
X198627011Y-114088294D01*
X198575500Y-114099500D01*
X99824500Y-114099500D01*
X99757461Y-114079815D01*
X99711706Y-114027011D01*
X99700500Y-113975500D01*
X99700500Y-110900005D01*
X100244556Y-110900005D01*
X100264310Y-111214004D01*
X100264311Y-111214011D01*
X100323270Y-111523083D01*
X100420497Y-111822316D01*
X100420499Y-111822321D01*
X100554461Y-112107003D01*
X100554464Y-112107009D01*
X100723051Y-112372661D01*
X100723054Y-112372665D01*
X100923606Y-112615090D01*
X100923608Y-112615092D01*
X101152968Y-112830476D01*
X101152978Y-112830484D01*
X101407504Y-113015408D01*
X101407509Y-113015410D01*
X101407516Y-113015416D01*
X101683234Y-113166994D01*
X101683239Y-113166996D01*
X101683241Y-113166997D01*
X101683242Y-113166998D01*
X101975771Y-113282818D01*
X101975774Y-113282819D01*
X102280523Y-113361065D01*
X102280527Y-113361066D01*
X102346010Y-113369338D01*
X102592670Y-113400499D01*
X102592679Y-113400499D01*
X102592682Y-113400500D01*
X102592684Y-113400500D01*
X102907316Y-113400500D01*
X102907318Y-113400500D01*
X102907321Y-113400499D01*
X102907329Y-113400499D01*
X103093593Y-113376968D01*
X103219473Y-113361066D01*
X103524225Y-113282819D01*
X103524228Y-113282818D01*
X103816757Y-113166998D01*
X103816758Y-113166997D01*
X103816756Y-113166997D01*
X103816766Y-113166994D01*
X104092484Y-113015416D01*
X104347030Y-112830478D01*
X104576390Y-112615094D01*
X104776947Y-112372663D01*
X104945537Y-112107007D01*
X105079503Y-111822315D01*
X105176731Y-111523079D01*
X105235688Y-111214015D01*
X105255444Y-110900005D01*
X193244556Y-110900005D01*
X193264310Y-111214004D01*
X193264311Y-111214011D01*
X193323270Y-111523083D01*
X193420497Y-111822316D01*
X193420499Y-111822321D01*
X193554461Y-112107003D01*
X193554464Y-112107009D01*
X193723051Y-112372661D01*
X193723054Y-112372665D01*
X193923606Y-112615090D01*
X193923608Y-112615092D01*
X194152968Y-112830476D01*
X194152978Y-112830484D01*
X194407504Y-113015408D01*
X194407509Y-113015410D01*
X194407516Y-113015416D01*
X194683234Y-113166994D01*
X194683239Y-113166996D01*
X194683241Y-113166997D01*
X194683242Y-113166998D01*
X194975771Y-113282818D01*
X194975774Y-113282819D01*
X195280523Y-113361065D01*
X195280527Y-113361066D01*
X195346010Y-113369338D01*
X195592670Y-113400499D01*
X195592679Y-113400499D01*
X195592682Y-113400500D01*
X195592684Y-113400500D01*
X195907316Y-113400500D01*
X195907318Y-113400500D01*
X195907321Y-113400499D01*
X195907329Y-113400499D01*
X196093593Y-113376968D01*
X196219473Y-113361066D01*
X196524225Y-113282819D01*
X196524228Y-113282818D01*
X196816757Y-113166998D01*
X196816758Y-113166997D01*
X196816756Y-113166997D01*
X196816766Y-113166994D01*
X197092484Y-113015416D01*
X197347030Y-112830478D01*
X197576390Y-112615094D01*
X197776947Y-112372663D01*
X197945537Y-112107007D01*
X198079503Y-111822315D01*
X198176731Y-111523079D01*
X198235688Y-111214015D01*
X198255444Y-110900000D01*
X198239916Y-110653190D01*
X198235689Y-110585995D01*
X198235688Y-110585988D01*
X198235688Y-110585985D01*
X198176731Y-110276921D01*
X198079503Y-109977685D01*
X197945537Y-109692993D01*
X197776947Y-109427337D01*
X197758983Y-109405622D01*
X197576393Y-109184909D01*
X197576391Y-109184907D01*
X197347031Y-108969523D01*
X197347021Y-108969515D01*
X197092495Y-108784591D01*
X197092488Y-108784586D01*
X197092484Y-108784584D01*
X196816766Y-108633006D01*
X196816763Y-108633004D01*
X196816758Y-108633002D01*
X196816757Y-108633001D01*
X196524228Y-108517181D01*
X196524225Y-108517180D01*
X196219476Y-108438934D01*
X196219463Y-108438932D01*
X195907329Y-108399500D01*
X195907318Y-108399500D01*
X195592682Y-108399500D01*
X195592670Y-108399500D01*
X195280536Y-108438932D01*
X195280523Y-108438934D01*
X194975774Y-108517180D01*
X194975771Y-108517181D01*
X194683242Y-108633001D01*
X194683241Y-108633002D01*
X194407516Y-108784584D01*
X194407504Y-108784591D01*
X194152978Y-108969515D01*
X194152968Y-108969523D01*
X193923608Y-109184907D01*
X193923606Y-109184909D01*
X193723054Y-109427334D01*
X193723051Y-109427338D01*
X193554464Y-109692990D01*
X193554461Y-109692996D01*
X193420499Y-109977678D01*
X193420497Y-109977683D01*
X193323270Y-110276916D01*
X193264311Y-110585988D01*
X193264310Y-110585995D01*
X193244556Y-110899994D01*
X193244556Y-110900005D01*
X105255444Y-110900005D01*
X105255444Y-110900000D01*
X105239916Y-110653190D01*
X105235689Y-110585995D01*
X105235688Y-110585988D01*
X105235688Y-110585985D01*
X105176731Y-110276921D01*
X105079503Y-109977685D01*
X104945537Y-109692993D01*
X104776947Y-109427337D01*
X104758983Y-109405622D01*
X104576393Y-109184909D01*
X104576391Y-109184907D01*
X104347031Y-108969523D01*
X104347021Y-108969515D01*
X104092495Y-108784591D01*
X104092488Y-108784586D01*
X104092484Y-108784584D01*
X103816766Y-108633006D01*
X103816763Y-108633004D01*
X103816758Y-108633002D01*
X103816757Y-108633001D01*
X103524228Y-108517181D01*
X103524225Y-108517180D01*
X103219476Y-108438934D01*
X103219463Y-108438932D01*
X102907329Y-108399500D01*
X102907318Y-108399500D01*
X102592682Y-108399500D01*
X102592670Y-108399500D01*
X102280536Y-108438932D01*
X102280523Y-108438934D01*
X101975774Y-108517180D01*
X101975771Y-108517181D01*
X101683242Y-108633001D01*
X101683241Y-108633002D01*
X101407516Y-108784584D01*
X101407504Y-108784591D01*
X101152978Y-108969515D01*
X101152968Y-108969523D01*
X100923608Y-109184907D01*
X100923606Y-109184909D01*
X100723054Y-109427334D01*
X100723051Y-109427338D01*
X100554464Y-109692990D01*
X100554461Y-109692996D01*
X100420499Y-109977678D01*
X100420497Y-109977683D01*
X100323270Y-110276916D01*
X100264311Y-110585988D01*
X100264310Y-110585995D01*
X100244556Y-110899994D01*
X100244556Y-110900005D01*
X99700500Y-110900005D01*
X99700500Y-81661000D01*
X166634659Y-81661000D01*
X166653975Y-81857129D01*
X166711188Y-82045733D01*
X166804086Y-82219532D01*
X166804090Y-82219539D01*
X166929116Y-82371883D01*
X167081460Y-82496909D01*
X167081467Y-82496913D01*
X167255266Y-82589811D01*
X167255269Y-82589811D01*
X167255273Y-82589814D01*
X167443868Y-82647024D01*
X167640000Y-82666341D01*
X167836132Y-82647024D01*
X168024727Y-82589814D01*
X168198538Y-82496910D01*
X168350883Y-82371883D01*
X168475910Y-82219538D01*
X168568814Y-82045727D01*
X168626024Y-81857132D01*
X168645341Y-81661000D01*
X168640262Y-81609437D01*
X168653280Y-81540794D01*
X168675981Y-81509607D01*
X169776858Y-80408733D01*
X169845312Y-80306285D01*
X169892463Y-80192451D01*
X169904400Y-80132440D01*
X169916501Y-80071608D01*
X169916501Y-79943283D01*
X169916500Y-79943257D01*
X169916500Y-75225034D01*
X169936185Y-75157995D01*
X169988989Y-75112240D01*
X170027897Y-75101676D01*
X170068797Y-75097499D01*
X170235334Y-75042314D01*
X170384656Y-74950212D01*
X170508712Y-74826156D01*
X170600814Y-74676834D01*
X170655999Y-74510297D01*
X170666500Y-74407509D01*
X170666499Y-73682492D01*
X170655999Y-73579703D01*
X170600814Y-73413166D01*
X170508712Y-73263844D01*
X170384656Y-73139788D01*
X170235334Y-73047686D01*
X170068797Y-72992501D01*
X170068795Y-72992500D01*
X169966010Y-72982000D01*
X168615998Y-72982000D01*
X168615981Y-72982001D01*
X168513203Y-72992500D01*
X168513200Y-72992501D01*
X168346668Y-73047685D01*
X168346663Y-73047687D01*
X168197342Y-73139789D01*
X168073289Y-73263842D01*
X167981187Y-73413163D01*
X167981185Y-73413168D01*
X167967551Y-73454313D01*
X167926001Y-73579703D01*
X167926001Y-73579704D01*
X167926000Y-73579704D01*
X167915500Y-73682483D01*
X167915500Y-74407501D01*
X167915501Y-74407519D01*
X167926000Y-74510296D01*
X167926001Y-74510299D01*
X167930019Y-74522423D01*
X167981186Y-74676834D01*
X168073288Y-74826156D01*
X168197344Y-74950212D01*
X168346666Y-75042314D01*
X168513203Y-75097499D01*
X168554103Y-75101677D01*
X168618793Y-75128073D01*
X168658945Y-75185253D01*
X168665500Y-75225035D01*
X168665500Y-79699547D01*
X168645815Y-79766586D01*
X168629181Y-79787228D01*
X167791394Y-80625014D01*
X167730071Y-80658499D01*
X167691562Y-80660736D01*
X167640003Y-80655659D01*
X167640000Y-80655659D01*
X167443870Y-80674975D01*
X167255266Y-80732188D01*
X167081467Y-80825086D01*
X167081460Y-80825090D01*
X166929116Y-80950116D01*
X166804090Y-81102460D01*
X166804086Y-81102467D01*
X166711188Y-81276266D01*
X166653975Y-81464870D01*
X166634659Y-81661000D01*
X99700500Y-81661000D01*
X99700500Y-77740000D01*
X101854341Y-77740000D01*
X101874936Y-77975403D01*
X101874938Y-77975413D01*
X101936094Y-78203655D01*
X101936096Y-78203659D01*
X101936097Y-78203663D01*
X101940000Y-78212032D01*
X102035965Y-78417830D01*
X102035967Y-78417834D01*
X102144281Y-78572521D01*
X102171505Y-78611401D01*
X102338599Y-78778495D01*
X102524594Y-78908730D01*
X102568218Y-78963307D01*
X102575411Y-79032806D01*
X102543889Y-79095160D01*
X102524593Y-79111880D01*
X102448626Y-79165072D01*
X102448625Y-79165072D01*
X103080590Y-79797037D01*
X103017007Y-79814075D01*
X102902993Y-79879901D01*
X102809901Y-79972993D01*
X102744075Y-80087007D01*
X102727037Y-80150590D01*
X102095072Y-79518625D01*
X102036401Y-79602419D01*
X101936570Y-79816507D01*
X101936566Y-79816516D01*
X101875432Y-80044673D01*
X101875430Y-80044684D01*
X101854843Y-80279998D01*
X101854843Y-80280001D01*
X101875430Y-80515315D01*
X101875432Y-80515326D01*
X101936566Y-80743483D01*
X101936570Y-80743492D01*
X102036400Y-80957579D01*
X102036402Y-80957583D01*
X102095072Y-81041373D01*
X102095073Y-81041373D01*
X102727037Y-80409409D01*
X102744075Y-80472993D01*
X102809901Y-80587007D01*
X102902993Y-80680099D01*
X103017007Y-80745925D01*
X103080590Y-80762962D01*
X102448625Y-81394925D01*
X102532421Y-81453599D01*
X102746507Y-81553429D01*
X102746516Y-81553433D01*
X102974673Y-81614567D01*
X102974684Y-81614569D01*
X103209998Y-81635157D01*
X103210002Y-81635157D01*
X103445315Y-81614569D01*
X103445326Y-81614567D01*
X103673483Y-81553433D01*
X103673492Y-81553429D01*
X103887578Y-81453600D01*
X103887582Y-81453598D01*
X103971373Y-81394926D01*
X103971373Y-81394925D01*
X103339409Y-80762962D01*
X103402993Y-80745925D01*
X103517007Y-80680099D01*
X103610099Y-80587007D01*
X103675925Y-80472993D01*
X103692962Y-80409410D01*
X104324925Y-81041373D01*
X104378425Y-80964968D01*
X104433002Y-80921344D01*
X104502501Y-80914151D01*
X104564855Y-80945673D01*
X104581576Y-80964969D01*
X104635073Y-81041372D01*
X105267037Y-80409409D01*
X105284075Y-80472993D01*
X105349901Y-80587007D01*
X105442993Y-80680099D01*
X105557007Y-80745925D01*
X105620590Y-80762962D01*
X104988625Y-81394925D01*
X105072421Y-81453599D01*
X105286507Y-81553429D01*
X105286516Y-81553433D01*
X105514673Y-81614567D01*
X105514684Y-81614569D01*
X105749998Y-81635157D01*
X105750002Y-81635157D01*
X105985315Y-81614569D01*
X105985326Y-81614567D01*
X106213483Y-81553433D01*
X106213492Y-81553429D01*
X106427578Y-81453600D01*
X106427582Y-81453598D01*
X106511373Y-81394926D01*
X106511373Y-81394925D01*
X105879409Y-80762962D01*
X105942993Y-80745925D01*
X106057007Y-80680099D01*
X106150099Y-80587007D01*
X106215925Y-80472993D01*
X106232962Y-80409410D01*
X106864925Y-81041373D01*
X106864926Y-81041373D01*
X106923598Y-80957582D01*
X106923600Y-80957578D01*
X107023429Y-80743492D01*
X107023433Y-80743483D01*
X107084567Y-80515326D01*
X107084569Y-80515315D01*
X107105157Y-80280001D01*
X107105157Y-80279998D01*
X107084569Y-80044684D01*
X107084567Y-80044673D01*
X107023433Y-79816516D01*
X107023429Y-79816507D01*
X106923600Y-79602423D01*
X106923599Y-79602421D01*
X106864925Y-79518626D01*
X106864925Y-79518625D01*
X106232962Y-80150589D01*
X106215925Y-80087007D01*
X106150099Y-79972993D01*
X106057007Y-79879901D01*
X105942993Y-79814075D01*
X105879410Y-79797037D01*
X106511373Y-79165073D01*
X106511373Y-79165072D01*
X106435405Y-79111880D01*
X106391780Y-79057304D01*
X106384586Y-78987805D01*
X106416108Y-78925451D01*
X106435399Y-78908734D01*
X106621401Y-78778495D01*
X106788495Y-78611401D01*
X106924035Y-78417830D01*
X107023903Y-78203663D01*
X107085063Y-77975408D01*
X107105659Y-77740000D01*
X107085063Y-77504592D01*
X107023903Y-77276337D01*
X106924035Y-77062171D01*
X106918425Y-77054158D01*
X106788494Y-76868597D01*
X106621402Y-76701506D01*
X106621401Y-76701505D01*
X106435405Y-76571269D01*
X106391781Y-76516692D01*
X106384588Y-76447193D01*
X106416110Y-76384839D01*
X106435405Y-76368119D01*
X106511373Y-76314925D01*
X105879409Y-75682962D01*
X105942993Y-75665925D01*
X106057007Y-75600099D01*
X106150099Y-75507007D01*
X106215925Y-75392993D01*
X106232962Y-75329410D01*
X106864925Y-75961373D01*
X106864926Y-75961373D01*
X106923598Y-75877582D01*
X106923600Y-75877578D01*
X107023429Y-75663492D01*
X107023433Y-75663483D01*
X107084567Y-75435326D01*
X107084569Y-75435315D01*
X107105157Y-75200001D01*
X107105157Y-75199998D01*
X107084569Y-74964684D01*
X107084567Y-74964673D01*
X107023433Y-74736516D01*
X107023429Y-74736507D01*
X106923600Y-74522423D01*
X106923599Y-74522421D01*
X106864925Y-74438626D01*
X106864925Y-74438625D01*
X106232962Y-75070589D01*
X106215925Y-75007007D01*
X106150099Y-74892993D01*
X106057007Y-74799901D01*
X105942993Y-74734075D01*
X105879410Y-74717037D01*
X106511373Y-74085073D01*
X106511373Y-74085072D01*
X106435405Y-74031880D01*
X106391780Y-73977304D01*
X106384586Y-73907805D01*
X106416108Y-73845451D01*
X106435399Y-73828734D01*
X106621401Y-73698495D01*
X106788495Y-73531401D01*
X106924035Y-73337830D01*
X107023903Y-73123663D01*
X107085063Y-72895408D01*
X107105659Y-72660000D01*
X107085063Y-72424592D01*
X107023903Y-72196337D01*
X106924035Y-71982171D01*
X106918425Y-71974158D01*
X106788494Y-71788597D01*
X106621402Y-71621506D01*
X106621401Y-71621505D01*
X106435405Y-71491269D01*
X106391781Y-71436692D01*
X106384588Y-71367193D01*
X106416110Y-71304839D01*
X106435405Y-71288119D01*
X106511373Y-71234925D01*
X105879409Y-70602962D01*
X105942993Y-70585925D01*
X106057007Y-70520099D01*
X106150099Y-70427007D01*
X106215925Y-70312993D01*
X106232962Y-70249410D01*
X106864925Y-70881373D01*
X106864926Y-70881373D01*
X106923598Y-70797582D01*
X106923600Y-70797578D01*
X107023429Y-70583492D01*
X107023433Y-70583483D01*
X107084567Y-70355326D01*
X107084569Y-70355315D01*
X107105157Y-70120001D01*
X107105157Y-70119998D01*
X107084569Y-69884684D01*
X107084567Y-69884673D01*
X107023433Y-69656516D01*
X107023429Y-69656507D01*
X106923600Y-69442423D01*
X106923599Y-69442421D01*
X106864925Y-69358626D01*
X106864925Y-69358625D01*
X106232962Y-69990589D01*
X106215925Y-69927007D01*
X106150099Y-69812993D01*
X106057007Y-69719901D01*
X105942993Y-69654075D01*
X105879410Y-69637037D01*
X106511373Y-69005073D01*
X106511373Y-69005072D01*
X106435405Y-68951880D01*
X106391780Y-68897304D01*
X106384586Y-68827805D01*
X106416108Y-68765451D01*
X106435399Y-68748734D01*
X106621401Y-68618495D01*
X106788495Y-68451401D01*
X106924035Y-68257830D01*
X107023903Y-68043663D01*
X107085063Y-67815408D01*
X107105659Y-67580000D01*
X107104572Y-67567581D01*
X107097038Y-67481463D01*
X107085063Y-67344592D01*
X107023903Y-67116337D01*
X106924035Y-66902171D01*
X106918425Y-66894158D01*
X106788494Y-66708597D01*
X106621402Y-66541506D01*
X106621396Y-66541501D01*
X106435842Y-66411575D01*
X106392217Y-66356998D01*
X106385023Y-66287500D01*
X106416546Y-66225145D01*
X106435842Y-66208425D01*
X106560432Y-66121186D01*
X106621401Y-66078495D01*
X106788495Y-65911401D01*
X106924035Y-65717830D01*
X107023903Y-65503663D01*
X107085063Y-65275408D01*
X107105659Y-65040000D01*
X107105301Y-65035913D01*
X107085063Y-64804596D01*
X107085063Y-64804592D01*
X107038626Y-64631285D01*
X107023905Y-64576344D01*
X107023904Y-64576343D01*
X107023903Y-64576337D01*
X106924035Y-64362171D01*
X106918425Y-64354158D01*
X106788494Y-64168597D01*
X106621402Y-64001506D01*
X106621396Y-64001501D01*
X106435842Y-63871575D01*
X106392217Y-63816998D01*
X106385023Y-63747500D01*
X106416546Y-63685145D01*
X106435842Y-63668425D01*
X106578325Y-63568657D01*
X106621401Y-63538495D01*
X106788495Y-63371401D01*
X106924035Y-63177830D01*
X107023903Y-62963663D01*
X107085063Y-62735408D01*
X107097346Y-62595015D01*
X107122797Y-62529949D01*
X107179388Y-62488970D01*
X107249150Y-62485092D01*
X107308554Y-62518144D01*
X112386016Y-67595606D01*
X112386045Y-67595637D01*
X112476263Y-67685855D01*
X112476267Y-67685858D01*
X112578707Y-67754307D01*
X112578713Y-67754310D01*
X112578714Y-67754311D01*
X112692548Y-67801463D01*
X112743542Y-67811606D01*
X112813391Y-67825499D01*
X112813392Y-67825500D01*
X112813393Y-67825500D01*
X112813394Y-67825500D01*
X123389548Y-67825500D01*
X123456587Y-67845185D01*
X123477229Y-67861819D01*
X128911016Y-73295606D01*
X128911045Y-73295637D01*
X129001263Y-73385855D01*
X129001267Y-73385858D01*
X129103707Y-73454307D01*
X129103716Y-73454312D01*
X129124739Y-73463020D01*
X129217548Y-73501463D01*
X129277971Y-73513481D01*
X129338393Y-73525500D01*
X141811607Y-73525500D01*
X141872029Y-73513481D01*
X141932452Y-73501463D01*
X141932455Y-73501461D01*
X141932458Y-73501461D01*
X141965787Y-73487654D01*
X141965786Y-73487654D01*
X141965792Y-73487652D01*
X142046286Y-73454312D01*
X142098384Y-73419500D01*
X142148733Y-73385858D01*
X142235858Y-73298733D01*
X142235858Y-73298731D01*
X142246066Y-73288524D01*
X142246067Y-73288521D01*
X143472772Y-72061819D01*
X143534095Y-72028334D01*
X143560453Y-72025500D01*
X146461607Y-72025500D01*
X146522029Y-72013481D01*
X146582452Y-72001463D01*
X146629027Y-71982171D01*
X146696286Y-71954312D01*
X146747509Y-71920084D01*
X146798733Y-71885858D01*
X146885858Y-71798733D01*
X146885858Y-71798731D01*
X146896066Y-71788524D01*
X146896067Y-71788521D01*
X147202087Y-71482501D01*
X167915500Y-71482501D01*
X167915501Y-71482519D01*
X167926000Y-71585296D01*
X167926001Y-71585299D01*
X167981185Y-71751831D01*
X167981187Y-71751836D01*
X168010113Y-71798733D01*
X168073288Y-71901156D01*
X168197344Y-72025212D01*
X168346666Y-72117314D01*
X168513203Y-72172499D01*
X168615991Y-72183000D01*
X169966008Y-72182999D01*
X170068797Y-72172499D01*
X170235334Y-72117314D01*
X170384656Y-72025212D01*
X170508712Y-71901156D01*
X170600814Y-71751834D01*
X170655999Y-71585297D01*
X170666500Y-71482509D01*
X170666499Y-70757492D01*
X170659514Y-70689117D01*
X170655999Y-70654703D01*
X170655998Y-70654700D01*
X170644948Y-70621353D01*
X170600814Y-70488166D01*
X170508712Y-70338844D01*
X170384656Y-70214788D01*
X170291888Y-70157569D01*
X170235336Y-70122687D01*
X170235331Y-70122685D01*
X170164518Y-70099220D01*
X170068797Y-70067501D01*
X170068795Y-70067500D01*
X170027896Y-70063322D01*
X169963205Y-70036925D01*
X169923054Y-69979744D01*
X169916500Y-69939964D01*
X169916500Y-68763451D01*
X169936185Y-68696412D01*
X169952815Y-68675774D01*
X170832729Y-67795860D01*
X170832733Y-67795858D01*
X170919858Y-67708733D01*
X170958125Y-67651463D01*
X170988312Y-67606286D01*
X171035463Y-67492451D01*
X171037650Y-67481459D01*
X171059500Y-67371606D01*
X171059500Y-65736602D01*
X171079185Y-65669563D01*
X171104837Y-65640748D01*
X171144882Y-65607884D01*
X171230415Y-65503663D01*
X171269910Y-65455538D01*
X171362814Y-65281727D01*
X171420024Y-65093132D01*
X171439341Y-64897000D01*
X171420024Y-64700868D01*
X171362814Y-64512273D01*
X171362811Y-64512269D01*
X171362811Y-64512266D01*
X171269913Y-64338467D01*
X171269909Y-64338460D01*
X171144883Y-64186116D01*
X170992539Y-64061090D01*
X170992532Y-64061086D01*
X170818733Y-63968188D01*
X170818727Y-63968186D01*
X170630132Y-63910976D01*
X170630129Y-63910975D01*
X170434000Y-63891659D01*
X170237870Y-63910975D01*
X170049266Y-63968188D01*
X169875467Y-64061086D01*
X169875460Y-64061090D01*
X169723116Y-64186116D01*
X169598090Y-64338460D01*
X169598086Y-64338467D01*
X169505188Y-64512266D01*
X169447975Y-64700870D01*
X169428659Y-64897000D01*
X169447975Y-65093129D01*
X169505188Y-65281733D01*
X169598086Y-65455532D01*
X169598090Y-65455539D01*
X169723117Y-65607884D01*
X169763163Y-65640748D01*
X169802499Y-65698493D01*
X169808500Y-65736602D01*
X169808500Y-66999547D01*
X169788815Y-67066586D01*
X169772181Y-67087228D01*
X169323551Y-67535858D01*
X168892270Y-67967139D01*
X168892267Y-67967142D01*
X168848704Y-68010704D01*
X168805142Y-68054266D01*
X168804424Y-68055341D01*
X168778153Y-68094659D01*
X168736687Y-68156715D01*
X168736685Y-68156718D01*
X168689540Y-68270538D01*
X168689535Y-68270554D01*
X168666176Y-68387993D01*
X168666175Y-68388001D01*
X168665500Y-68391389D01*
X168665500Y-69939965D01*
X168645815Y-70007004D01*
X168593011Y-70052759D01*
X168554102Y-70063323D01*
X168513202Y-70067501D01*
X168513200Y-70067501D01*
X168346668Y-70122685D01*
X168346663Y-70122687D01*
X168197342Y-70214789D01*
X168073289Y-70338842D01*
X168063122Y-70355326D01*
X167990200Y-70473553D01*
X167981190Y-70488160D01*
X167981185Y-70488168D01*
X167981075Y-70488500D01*
X167926001Y-70654703D01*
X167926001Y-70654704D01*
X167926000Y-70654704D01*
X167915500Y-70757483D01*
X167915500Y-71482501D01*
X147202087Y-71482501D01*
X149898607Y-68785982D01*
X149959928Y-68752499D01*
X149998437Y-68750262D01*
X150050000Y-68755341D01*
X150246132Y-68736024D01*
X150434727Y-68678814D01*
X150608538Y-68585910D01*
X150760883Y-68460883D01*
X150885910Y-68308538D01*
X150978814Y-68134727D01*
X151036024Y-67946132D01*
X151055341Y-67750000D01*
X151036024Y-67553868D01*
X150978814Y-67365273D01*
X150978811Y-67365269D01*
X150978811Y-67365266D01*
X150885913Y-67191467D01*
X150885909Y-67191460D01*
X150760883Y-67039116D01*
X150608539Y-66914090D01*
X150608532Y-66914086D01*
X150434733Y-66821188D01*
X150434727Y-66821186D01*
X150246132Y-66763976D01*
X150246129Y-66763975D01*
X150050000Y-66744659D01*
X149853870Y-66763975D01*
X149665266Y-66821188D01*
X149491467Y-66914086D01*
X149491460Y-66914090D01*
X149339116Y-67039116D01*
X149214090Y-67191460D01*
X149214086Y-67191467D01*
X149121188Y-67365266D01*
X149063975Y-67553870D01*
X149044659Y-67750000D01*
X149044659Y-67750001D01*
X149049736Y-67801560D01*
X149036716Y-67870206D01*
X149014014Y-67901393D01*
X146946834Y-69968575D01*
X146885511Y-70002060D01*
X146815819Y-69997076D01*
X146759886Y-69955204D01*
X146735469Y-69889740D01*
X146735795Y-69868291D01*
X146743999Y-69787986D01*
X146744000Y-69787973D01*
X146744000Y-69338000D01*
X145919000Y-69338000D01*
X145919000Y-70487999D01*
X146043972Y-70487999D01*
X146043986Y-70487998D01*
X146124293Y-70479794D01*
X146192985Y-70492563D01*
X146243870Y-70540444D01*
X146260791Y-70608233D01*
X146238376Y-70674410D01*
X146224577Y-70690832D01*
X146177230Y-70738180D01*
X146115907Y-70771666D01*
X146089548Y-70774500D01*
X143188389Y-70774500D01*
X143132219Y-70785673D01*
X143127971Y-70786518D01*
X143084743Y-70795116D01*
X143067546Y-70798537D01*
X142963919Y-70841462D01*
X142963917Y-70841463D01*
X142953714Y-70845688D01*
X142953707Y-70845692D01*
X142851266Y-70914142D01*
X142851262Y-70914145D01*
X141527229Y-72238181D01*
X141465906Y-72271666D01*
X141439548Y-72274500D01*
X138750855Y-72274500D01*
X138683816Y-72254815D01*
X138638061Y-72202011D01*
X138628117Y-72132853D01*
X138657142Y-72069297D01*
X138681959Y-72047400D01*
X138719649Y-72022218D01*
X138778416Y-71982952D01*
X140630775Y-70130591D01*
X140692096Y-70097108D01*
X140706295Y-70094871D01*
X140796132Y-70086024D01*
X140984727Y-70028814D01*
X141158538Y-69935910D01*
X141228313Y-69878647D01*
X141292623Y-69851334D01*
X141306978Y-69850500D01*
X141551107Y-69850500D01*
X141618146Y-69870185D01*
X141663901Y-69922989D01*
X141668811Y-69935492D01*
X141709186Y-70057334D01*
X141801288Y-70206656D01*
X141925344Y-70330712D01*
X142074666Y-70422814D01*
X142241203Y-70477999D01*
X142343991Y-70488500D01*
X143094008Y-70488499D01*
X143094016Y-70488498D01*
X143094019Y-70488498D01*
X143150302Y-70482748D01*
X143196797Y-70477999D01*
X143363334Y-70422814D01*
X143512656Y-70330712D01*
X143636712Y-70206656D01*
X143728814Y-70057334D01*
X143728815Y-70057331D01*
X143732605Y-70051187D01*
X143734799Y-70052540D01*
X143772997Y-70009157D01*
X143839209Y-69990000D01*
X144549346Y-69990000D01*
X144616385Y-70009685D01*
X144653639Y-70052338D01*
X144655851Y-70050975D01*
X144751684Y-70206345D01*
X144875654Y-70330315D01*
X145024875Y-70422356D01*
X145024880Y-70422358D01*
X145191302Y-70477505D01*
X145191309Y-70477506D01*
X145294019Y-70487999D01*
X145418999Y-70487999D01*
X145419000Y-70487998D01*
X145419000Y-67688000D01*
X145919000Y-67688000D01*
X145919000Y-68838000D01*
X146743999Y-68838000D01*
X146743999Y-68388028D01*
X146743998Y-68388013D01*
X146733505Y-68285302D01*
X146678358Y-68118880D01*
X146678356Y-68118875D01*
X146586315Y-67969654D01*
X146462345Y-67845684D01*
X146313124Y-67753643D01*
X146313119Y-67753641D01*
X146146697Y-67698494D01*
X146146690Y-67698493D01*
X146043986Y-67688000D01*
X145919000Y-67688000D01*
X145419000Y-67688000D01*
X145294027Y-67688000D01*
X145294012Y-67688001D01*
X145191302Y-67698494D01*
X145024880Y-67753641D01*
X145024875Y-67753643D01*
X144875654Y-67845684D01*
X144751684Y-67969654D01*
X144664442Y-68111097D01*
X144612494Y-68157821D01*
X144558903Y-68170000D01*
X143829684Y-68170000D01*
X143762645Y-68150315D01*
X143724145Y-68111097D01*
X143714005Y-68094657D01*
X143636712Y-67969344D01*
X143512656Y-67845288D01*
X143365158Y-67754311D01*
X143363336Y-67753187D01*
X143363331Y-67753185D01*
X143353719Y-67750000D01*
X143196797Y-67698001D01*
X143196795Y-67698000D01*
X143094010Y-67687500D01*
X142343998Y-67687500D01*
X142343980Y-67687501D01*
X142241203Y-67698000D01*
X142241200Y-67698001D01*
X142074668Y-67753185D01*
X142074663Y-67753187D01*
X141925342Y-67845289D01*
X141801289Y-67969342D01*
X141709187Y-68118663D01*
X141709185Y-68118668D01*
X141660860Y-68264504D01*
X141621087Y-68321949D01*
X141556571Y-68348772D01*
X141543154Y-68349500D01*
X141349500Y-68349500D01*
X141282461Y-68329815D01*
X141236706Y-68277011D01*
X141225500Y-68225500D01*
X141225500Y-64060452D01*
X141245185Y-63993413D01*
X141261819Y-63972771D01*
X141667049Y-63567541D01*
X142083914Y-63150675D01*
X142145235Y-63117192D01*
X142214926Y-63122176D01*
X142240498Y-63135265D01*
X142241459Y-63135908D01*
X142241462Y-63135910D01*
X142241464Y-63135911D01*
X142241473Y-63135917D01*
X142415266Y-63228811D01*
X142415269Y-63228811D01*
X142415273Y-63228814D01*
X142603868Y-63286024D01*
X142681197Y-63293639D01*
X142745983Y-63319799D01*
X142786343Y-63376833D01*
X142790658Y-63392841D01*
X142795928Y-63419334D01*
X142798537Y-63432452D01*
X142798539Y-63432458D01*
X142807344Y-63453715D01*
X142845685Y-63546281D01*
X142845687Y-63546284D01*
X142845688Y-63546286D01*
X142860637Y-63568657D01*
X142879914Y-63597507D01*
X142879915Y-63597509D01*
X142914140Y-63648731D01*
X142914141Y-63648732D01*
X142914142Y-63648733D01*
X143001267Y-63735858D01*
X143001268Y-63735858D01*
X143008335Y-63742925D01*
X143008334Y-63742925D01*
X143008338Y-63742928D01*
X144601263Y-65335855D01*
X144601267Y-65335858D01*
X144703710Y-65404309D01*
X144703711Y-65404309D01*
X144703715Y-65404312D01*
X144770396Y-65431931D01*
X144770398Y-65431933D01*
X144817543Y-65451461D01*
X144817548Y-65451463D01*
X144837597Y-65455451D01*
X144871196Y-65462134D01*
X144938392Y-65475501D01*
X144938394Y-65475501D01*
X145067721Y-65475501D01*
X145067741Y-65475500D01*
X147878334Y-65475500D01*
X147938756Y-65463481D01*
X147999179Y-65451463D01*
X147999182Y-65451461D01*
X147999185Y-65451461D01*
X148032514Y-65437654D01*
X148032513Y-65437654D01*
X148032519Y-65437652D01*
X148113013Y-65404312D01*
X148178007Y-65360883D01*
X148215460Y-65335858D01*
X148302585Y-65248733D01*
X148302586Y-65248731D01*
X148309652Y-65241665D01*
X148309655Y-65241661D01*
X152498729Y-61052587D01*
X152498733Y-61052585D01*
X152585858Y-60965460D01*
X152645324Y-60876463D01*
X152654312Y-60863012D01*
X152696315Y-60761607D01*
X152701463Y-60749179D01*
X152712575Y-60693315D01*
X152723500Y-60638392D01*
X152723501Y-60638392D01*
X152723501Y-60638382D01*
X152725500Y-60628334D01*
X152725500Y-60505120D01*
X152725500Y-58889602D01*
X152745185Y-58822563D01*
X152770837Y-58793748D01*
X152810882Y-58760884D01*
X152849289Y-58714086D01*
X152935910Y-58608538D01*
X153002085Y-58484733D01*
X153028811Y-58434733D01*
X153028811Y-58434732D01*
X153028814Y-58434727D01*
X153086024Y-58246132D01*
X153105341Y-58050000D01*
X153086024Y-57853868D01*
X153028814Y-57665273D01*
X153028811Y-57665269D01*
X153028811Y-57665266D01*
X152935913Y-57491467D01*
X152935909Y-57491460D01*
X152810883Y-57339116D01*
X152658539Y-57214090D01*
X152658532Y-57214086D01*
X152484733Y-57121188D01*
X152484727Y-57121186D01*
X152296132Y-57063976D01*
X152296129Y-57063975D01*
X152100000Y-57044659D01*
X151903870Y-57063975D01*
X151715266Y-57121188D01*
X151541467Y-57214086D01*
X151541460Y-57214090D01*
X151389116Y-57339116D01*
X151264090Y-57491460D01*
X151264086Y-57491467D01*
X151171188Y-57665266D01*
X151113975Y-57853870D01*
X151094659Y-58050000D01*
X151113975Y-58246129D01*
X151171188Y-58434733D01*
X151264086Y-58608532D01*
X151264090Y-58608539D01*
X151389117Y-58760884D01*
X151429163Y-58793748D01*
X151468499Y-58851493D01*
X151474500Y-58889602D01*
X151474500Y-60256275D01*
X151454815Y-60323314D01*
X151438181Y-60343956D01*
X147593956Y-64188181D01*
X147532633Y-64221666D01*
X147506275Y-64224500D01*
X146360194Y-64224500D01*
X146293155Y-64204815D01*
X146247400Y-64152011D01*
X146236791Y-64088346D01*
X146239538Y-64060452D01*
X146255341Y-63900000D01*
X146250262Y-63848437D01*
X146263280Y-63779794D01*
X146285981Y-63748607D01*
X148456110Y-61578479D01*
X148517431Y-61544996D01*
X148587123Y-61549980D01*
X148622452Y-61570308D01*
X148641462Y-61585910D01*
X148735219Y-61636024D01*
X148809759Y-61675867D01*
X148815273Y-61678814D01*
X149003868Y-61736024D01*
X149200000Y-61755341D01*
X149396132Y-61736024D01*
X149584727Y-61678814D01*
X149590241Y-61675867D01*
X149723592Y-61604589D01*
X149758538Y-61585910D01*
X149910883Y-61460883D01*
X150035910Y-61308538D01*
X150112666Y-61164938D01*
X150128811Y-61134733D01*
X150128811Y-61134732D01*
X150128814Y-61134727D01*
X150186024Y-60946132D01*
X150205341Y-60750000D01*
X150186024Y-60553868D01*
X150128814Y-60365273D01*
X150128811Y-60365269D01*
X150128811Y-60365266D01*
X150035913Y-60191467D01*
X150035909Y-60191460D01*
X149910883Y-60039116D01*
X149758539Y-59914090D01*
X149758532Y-59914086D01*
X149584733Y-59821188D01*
X149584727Y-59821186D01*
X149396132Y-59763976D01*
X149396129Y-59763975D01*
X149200000Y-59744659D01*
X149003870Y-59763975D01*
X148815266Y-59821188D01*
X148641467Y-59914086D01*
X148641460Y-59914090D01*
X148489116Y-60039116D01*
X148456250Y-60079165D01*
X148398505Y-60118499D01*
X148360397Y-60124500D01*
X148338394Y-60124500D01*
X148217548Y-60148537D01*
X148191026Y-60159523D01*
X148191024Y-60159524D01*
X148191023Y-60159523D01*
X148103717Y-60195686D01*
X148103713Y-60195689D01*
X148001267Y-60264141D01*
X148001263Y-60264144D01*
X147015870Y-61249537D01*
X146954547Y-61283022D01*
X146884855Y-61278038D01*
X146828922Y-61236166D01*
X146804505Y-61170702D01*
X146818832Y-61103400D01*
X146828814Y-61084727D01*
X146886024Y-60896132D01*
X146905341Y-60700000D01*
X146900262Y-60648439D01*
X146913280Y-60579797D01*
X146935979Y-60548611D01*
X146985858Y-60498733D01*
X147020084Y-60447509D01*
X147054312Y-60396286D01*
X147072370Y-60352690D01*
X147092020Y-60305250D01*
X147092020Y-60305249D01*
X147101463Y-60282452D01*
X147118721Y-60195688D01*
X147125500Y-60161607D01*
X147125500Y-60038393D01*
X147125500Y-58939602D01*
X147145185Y-58872563D01*
X147170837Y-58843748D01*
X147210882Y-58810884D01*
X147260030Y-58750998D01*
X147335910Y-58658538D01*
X147384919Y-58566848D01*
X147428811Y-58484733D01*
X147428811Y-58484732D01*
X147428814Y-58484727D01*
X147486024Y-58296132D01*
X147505341Y-58100000D01*
X147501548Y-58061493D01*
X147487635Y-57920229D01*
X147486024Y-57903868D01*
X147428814Y-57715273D01*
X147428811Y-57715269D01*
X147428811Y-57715266D01*
X147335913Y-57541467D01*
X147335909Y-57541460D01*
X147210883Y-57389116D01*
X147058539Y-57264090D01*
X147058532Y-57264086D01*
X146884733Y-57171188D01*
X146884727Y-57171186D01*
X146696132Y-57113976D01*
X146696129Y-57113975D01*
X146500000Y-57094659D01*
X146448439Y-57099737D01*
X146379793Y-57086718D01*
X146348605Y-57064015D01*
X145363819Y-56079229D01*
X145330334Y-56017906D01*
X145327500Y-55991548D01*
X145327500Y-54850000D01*
X145594659Y-54850000D01*
X145613975Y-55046129D01*
X145671188Y-55234733D01*
X145764086Y-55408532D01*
X145764090Y-55408539D01*
X145889116Y-55560883D01*
X146041460Y-55685909D01*
X146041467Y-55685913D01*
X146215266Y-55778811D01*
X146215269Y-55778811D01*
X146215273Y-55778814D01*
X146403868Y-55836024D01*
X146600000Y-55855341D01*
X146796132Y-55836024D01*
X146984727Y-55778814D01*
X147158538Y-55685910D01*
X147310883Y-55560883D01*
X147343750Y-55520835D01*
X147401495Y-55481501D01*
X147439603Y-55475500D01*
X147539548Y-55475500D01*
X147606587Y-55495185D01*
X147627229Y-55511819D01*
X147914015Y-55798605D01*
X147947500Y-55859928D01*
X147949737Y-55898439D01*
X147944659Y-55949999D01*
X147963975Y-56146129D01*
X148021188Y-56334733D01*
X148114086Y-56508532D01*
X148114090Y-56508539D01*
X148239116Y-56660883D01*
X148391460Y-56785909D01*
X148391467Y-56785913D01*
X148565266Y-56878811D01*
X148565269Y-56878811D01*
X148565273Y-56878814D01*
X148753868Y-56936024D01*
X148950000Y-56955341D01*
X149146132Y-56936024D01*
X149334727Y-56878814D01*
X149508538Y-56785910D01*
X149660883Y-56660883D01*
X149785910Y-56508538D01*
X149878814Y-56334727D01*
X149936024Y-56146132D01*
X149955341Y-55950000D01*
X149936024Y-55753868D01*
X149878814Y-55565273D01*
X149878811Y-55565269D01*
X149878811Y-55565266D01*
X149785913Y-55391467D01*
X149785909Y-55391460D01*
X149660883Y-55239116D01*
X149508539Y-55114090D01*
X149508532Y-55114086D01*
X149334733Y-55021188D01*
X149334727Y-55021186D01*
X149146132Y-54963976D01*
X149146129Y-54963975D01*
X148950000Y-54944659D01*
X148898439Y-54949737D01*
X148829793Y-54936718D01*
X148798605Y-54914015D01*
X148340198Y-54455608D01*
X148340178Y-54455586D01*
X148248733Y-54364141D01*
X148197509Y-54329915D01*
X148146287Y-54295689D01*
X148146286Y-54295688D01*
X148146283Y-54295686D01*
X148146280Y-54295685D01*
X148058976Y-54259523D01*
X148058976Y-54259524D01*
X148058974Y-54259523D01*
X148032452Y-54248537D01*
X147972029Y-54236518D01*
X147911610Y-54224500D01*
X147911607Y-54224500D01*
X147911606Y-54224500D01*
X147439603Y-54224500D01*
X147372564Y-54204815D01*
X147343750Y-54179165D01*
X147310883Y-54139116D01*
X147158539Y-54014090D01*
X147158532Y-54014086D01*
X146984733Y-53921188D01*
X146984727Y-53921186D01*
X146824057Y-53872447D01*
X146796129Y-53863975D01*
X146600000Y-53844659D01*
X146403870Y-53863975D01*
X146215266Y-53921188D01*
X146041467Y-54014086D01*
X146041460Y-54014090D01*
X145889116Y-54139116D01*
X145764090Y-54291460D01*
X145764086Y-54291467D01*
X145671188Y-54465266D01*
X145613975Y-54653870D01*
X145594659Y-54850000D01*
X145327500Y-54850000D01*
X145327500Y-53536611D01*
X186951000Y-53536611D01*
X186978098Y-53707701D01*
X187031627Y-53872445D01*
X187110268Y-54026788D01*
X187212086Y-54166928D01*
X187334572Y-54289414D01*
X187474712Y-54391232D01*
X187629055Y-54469873D01*
X187793799Y-54523402D01*
X187964889Y-54550500D01*
X187964890Y-54550500D01*
X188138110Y-54550500D01*
X188138111Y-54550500D01*
X188309201Y-54523402D01*
X188473945Y-54469873D01*
X188628288Y-54391232D01*
X188768428Y-54289414D01*
X188890914Y-54166928D01*
X188992732Y-54026788D01*
X189071373Y-53872445D01*
X189124902Y-53707701D01*
X189152000Y-53536611D01*
X193951000Y-53536611D01*
X193978098Y-53707701D01*
X194031627Y-53872445D01*
X194110268Y-54026788D01*
X194212086Y-54166928D01*
X194334572Y-54289414D01*
X194474712Y-54391232D01*
X194629055Y-54469873D01*
X194793799Y-54523402D01*
X194964889Y-54550500D01*
X194964890Y-54550500D01*
X195138110Y-54550500D01*
X195138111Y-54550500D01*
X195309201Y-54523402D01*
X195473945Y-54469873D01*
X195628288Y-54391232D01*
X195768428Y-54289414D01*
X195890914Y-54166928D01*
X195992732Y-54026788D01*
X196071373Y-53872445D01*
X196124902Y-53707701D01*
X196152000Y-53536611D01*
X196152000Y-53363389D01*
X196124902Y-53192299D01*
X196071373Y-53027555D01*
X195992732Y-52873212D01*
X195890914Y-52733072D01*
X195768428Y-52610586D01*
X195628288Y-52508768D01*
X195473945Y-52430127D01*
X195309201Y-52376598D01*
X195309199Y-52376597D01*
X195309198Y-52376597D01*
X195177771Y-52355781D01*
X195138111Y-52349500D01*
X194964889Y-52349500D01*
X194925228Y-52355781D01*
X194793802Y-52376597D01*
X194629052Y-52430128D01*
X194474711Y-52508768D01*
X194394756Y-52566859D01*
X194334572Y-52610586D01*
X194334570Y-52610588D01*
X194334569Y-52610588D01*
X194212088Y-52733069D01*
X194212088Y-52733070D01*
X194212086Y-52733072D01*
X194174115Y-52785334D01*
X194110268Y-52873211D01*
X194031628Y-53027552D01*
X193978097Y-53192302D01*
X193976006Y-53205505D01*
X193951000Y-53363389D01*
X193951000Y-53536611D01*
X189152000Y-53536611D01*
X189152000Y-53363389D01*
X189124902Y-53192299D01*
X189071373Y-53027555D01*
X188992732Y-52873212D01*
X188890914Y-52733072D01*
X188768428Y-52610586D01*
X188628288Y-52508768D01*
X188473945Y-52430127D01*
X188309201Y-52376598D01*
X188309199Y-52376597D01*
X188309198Y-52376597D01*
X188177771Y-52355781D01*
X188138111Y-52349500D01*
X187964889Y-52349500D01*
X187925228Y-52355781D01*
X187793802Y-52376597D01*
X187629052Y-52430128D01*
X187474711Y-52508768D01*
X187394756Y-52566859D01*
X187334572Y-52610586D01*
X187334570Y-52610588D01*
X187334569Y-52610588D01*
X187212088Y-52733069D01*
X187212088Y-52733070D01*
X187212086Y-52733072D01*
X187174115Y-52785334D01*
X187110268Y-52873211D01*
X187031628Y-53027552D01*
X186978097Y-53192302D01*
X186976006Y-53205505D01*
X186951000Y-53363389D01*
X186951000Y-53536611D01*
X145327500Y-53536611D01*
X145327500Y-53231638D01*
X145347185Y-53164599D01*
X145386401Y-53126100D01*
X145495656Y-53058712D01*
X145619712Y-52934656D01*
X145711814Y-52785334D01*
X145711928Y-52784988D01*
X145712068Y-52784785D01*
X145714864Y-52778791D01*
X145715888Y-52779268D01*
X145751704Y-52727547D01*
X145816222Y-52700727D01*
X145829632Y-52700000D01*
X146524894Y-52700000D01*
X146591933Y-52719685D01*
X146637688Y-52772489D01*
X146642598Y-52784990D01*
X146642640Y-52785119D01*
X146734684Y-52934345D01*
X146858654Y-53058315D01*
X147007875Y-53150356D01*
X147007880Y-53150358D01*
X147174302Y-53205505D01*
X147174309Y-53205506D01*
X147277019Y-53215999D01*
X147401999Y-53215999D01*
X147402000Y-53215998D01*
X147402000Y-52066000D01*
X147902000Y-52066000D01*
X147902000Y-53215999D01*
X148026972Y-53215999D01*
X148026986Y-53215998D01*
X148129697Y-53205505D01*
X148296119Y-53150358D01*
X148296124Y-53150356D01*
X148445345Y-53058315D01*
X148569315Y-52934345D01*
X148661356Y-52785124D01*
X148661358Y-52785119D01*
X148716505Y-52618697D01*
X148716506Y-52618690D01*
X148726999Y-52515986D01*
X148727000Y-52515973D01*
X148727000Y-52066000D01*
X147902000Y-52066000D01*
X147402000Y-52066000D01*
X147402000Y-50416000D01*
X147902000Y-50416000D01*
X147902000Y-51566000D01*
X148726999Y-51566000D01*
X148726999Y-51116028D01*
X148726998Y-51116013D01*
X148716505Y-51013302D01*
X148661358Y-50846880D01*
X148661356Y-50846875D01*
X148569315Y-50697654D01*
X148445345Y-50573684D01*
X148296124Y-50481643D01*
X148296119Y-50481641D01*
X148129697Y-50426494D01*
X148129690Y-50426493D01*
X148026986Y-50416000D01*
X147902000Y-50416000D01*
X147402000Y-50416000D01*
X147277027Y-50416000D01*
X147277012Y-50416001D01*
X147174302Y-50426494D01*
X147007880Y-50481641D01*
X147007875Y-50481643D01*
X146858654Y-50573684D01*
X146734684Y-50697654D01*
X146646208Y-50841097D01*
X146594260Y-50887821D01*
X146540669Y-50900000D01*
X145813918Y-50900000D01*
X145746879Y-50880315D01*
X145708379Y-50841097D01*
X145619712Y-50697344D01*
X145495656Y-50573288D01*
X145346334Y-50481186D01*
X145179797Y-50426001D01*
X145179795Y-50426000D01*
X145077010Y-50415500D01*
X144326998Y-50415500D01*
X144326980Y-50415501D01*
X144224203Y-50426000D01*
X144224200Y-50426001D01*
X144057668Y-50481185D01*
X144057663Y-50481187D01*
X143908342Y-50573289D01*
X143784289Y-50697342D01*
X143692187Y-50846663D01*
X143692185Y-50846668D01*
X143674513Y-50900000D01*
X143637001Y-51013203D01*
X143637001Y-51013204D01*
X143637000Y-51013204D01*
X143626500Y-51115983D01*
X143626500Y-52516001D01*
X143626501Y-52516018D01*
X143637000Y-52618796D01*
X143637001Y-52618799D01*
X143663909Y-52700000D01*
X143692186Y-52785334D01*
X143784288Y-52934656D01*
X143908344Y-53058712D01*
X144017597Y-53126099D01*
X144064321Y-53178047D01*
X144076500Y-53231638D01*
X144076500Y-56363604D01*
X144096452Y-56463914D01*
X144090223Y-56533505D01*
X144047360Y-56588682D01*
X143981470Y-56611926D01*
X143913473Y-56595858D01*
X143887153Y-56575785D01*
X143830593Y-56519225D01*
X143797108Y-56457902D01*
X143794871Y-56443697D01*
X143786024Y-56353871D01*
X143786024Y-56353870D01*
X143786024Y-56353868D01*
X143728814Y-56165273D01*
X143728811Y-56165269D01*
X143728811Y-56165266D01*
X143635913Y-55991467D01*
X143635909Y-55991460D01*
X143510883Y-55839116D01*
X143358539Y-55714090D01*
X143358532Y-55714086D01*
X143184733Y-55621188D01*
X143184727Y-55621186D01*
X143058997Y-55583046D01*
X142996129Y-55563975D01*
X142800000Y-55544659D01*
X142603870Y-55563975D01*
X142415266Y-55621188D01*
X142241467Y-55714086D01*
X142241460Y-55714090D01*
X142089116Y-55839116D01*
X141964090Y-55991460D01*
X141964086Y-55991467D01*
X141871188Y-56165266D01*
X141813975Y-56353870D01*
X141794659Y-56550000D01*
X141813975Y-56746129D01*
X141871188Y-56934733D01*
X141964086Y-57108532D01*
X141964090Y-57108539D01*
X142089116Y-57260883D01*
X142241460Y-57385909D01*
X142241467Y-57385913D01*
X142415266Y-57478811D01*
X142415269Y-57478811D01*
X142415273Y-57478814D01*
X142603868Y-57536024D01*
X142693697Y-57544871D01*
X142758485Y-57571031D01*
X142769225Y-57580593D01*
X142896902Y-57708270D01*
X143021181Y-57832548D01*
X143054666Y-57893871D01*
X143057500Y-57920229D01*
X143057500Y-58114132D01*
X143037815Y-58181171D01*
X143018616Y-58202346D01*
X143019451Y-58203181D01*
X142890289Y-58332342D01*
X142798187Y-58481663D01*
X142798185Y-58481668D01*
X142795422Y-58490008D01*
X142755647Y-58547451D01*
X142691131Y-58574272D01*
X142677717Y-58575000D01*
X141987756Y-58575000D01*
X141920717Y-58555315D01*
X141874962Y-58502511D01*
X141870050Y-58490002D01*
X141867360Y-58481884D01*
X141867356Y-58481875D01*
X141775315Y-58332654D01*
X141651345Y-58208684D01*
X141502124Y-58116643D01*
X141502119Y-58116641D01*
X141335697Y-58061494D01*
X141335690Y-58061493D01*
X141232986Y-58051000D01*
X141108000Y-58051000D01*
X141108000Y-60850999D01*
X141232972Y-60850999D01*
X141232986Y-60850998D01*
X141335697Y-60840505D01*
X141502119Y-60785358D01*
X141502124Y-60785356D01*
X141651345Y-60693315D01*
X141775315Y-60569345D01*
X141858857Y-60433903D01*
X141910805Y-60387179D01*
X141964396Y-60375000D01*
X142701017Y-60375000D01*
X142768056Y-60394685D01*
X142806556Y-60433904D01*
X142890287Y-60569655D01*
X143019451Y-60698819D01*
X143017559Y-60700710D01*
X143050774Y-60747583D01*
X143057500Y-60787867D01*
X143057500Y-60929769D01*
X143037815Y-60996808D01*
X143021181Y-61017450D01*
X142769225Y-61269405D01*
X142707902Y-61302890D01*
X142693700Y-61305127D01*
X142603870Y-61313975D01*
X142415266Y-61371188D01*
X142241467Y-61464086D01*
X142241460Y-61464090D01*
X142089118Y-61589114D01*
X142053171Y-61632916D01*
X141995425Y-61672250D01*
X141981510Y-61675867D01*
X141887599Y-61694546D01*
X141887600Y-61694547D01*
X141867553Y-61698535D01*
X141867546Y-61698537D01*
X141851120Y-61705340D01*
X141851121Y-61705341D01*
X141753717Y-61745686D01*
X141753708Y-61745691D01*
X141651267Y-61814141D01*
X141651263Y-61814144D01*
X140559924Y-62905485D01*
X140201269Y-63264140D01*
X140201267Y-63264142D01*
X140179385Y-63286024D01*
X140114140Y-63351268D01*
X140100689Y-63371400D01*
X140045689Y-63453712D01*
X140045685Y-63453719D01*
X140020190Y-63515272D01*
X139998539Y-63567541D01*
X139998535Y-63567555D01*
X139973373Y-63694053D01*
X139940988Y-63755964D01*
X139880272Y-63790539D01*
X139810503Y-63786799D01*
X139793303Y-63779220D01*
X139684733Y-63721188D01*
X139684727Y-63721186D01*
X139529292Y-63674035D01*
X139496129Y-63663975D01*
X139300000Y-63644659D01*
X139103870Y-63663975D01*
X138915266Y-63721188D01*
X138741467Y-63814086D01*
X138741460Y-63814090D01*
X138589116Y-63939116D01*
X138464090Y-64091460D01*
X138464086Y-64091467D01*
X138371188Y-64265266D01*
X138313975Y-64453870D01*
X138294659Y-64650000D01*
X138294659Y-64650001D01*
X138299736Y-64701560D01*
X138286716Y-64770206D01*
X138264014Y-64801393D01*
X136677229Y-66388181D01*
X136615906Y-66421666D01*
X136589548Y-66424500D01*
X136189603Y-66424500D01*
X136122564Y-66404815D01*
X136093750Y-66379165D01*
X136060883Y-66339116D01*
X135908539Y-66214090D01*
X135908532Y-66214086D01*
X135734733Y-66121188D01*
X135734727Y-66121186D01*
X135594004Y-66078498D01*
X135546129Y-66063975D01*
X135350000Y-66044659D01*
X135153870Y-66063975D01*
X134965266Y-66121188D01*
X134791467Y-66214086D01*
X134791460Y-66214090D01*
X134639116Y-66339116D01*
X134514090Y-66491460D01*
X134514086Y-66491467D01*
X134421188Y-66665266D01*
X134363975Y-66853870D01*
X134344659Y-67050000D01*
X134363975Y-67246129D01*
X134421188Y-67434733D01*
X134514086Y-67608532D01*
X134514090Y-67608539D01*
X134639116Y-67760883D01*
X134791460Y-67885909D01*
X134791467Y-67885913D01*
X134965266Y-67978811D01*
X134965269Y-67978811D01*
X134965273Y-67978814D01*
X135153868Y-68036024D01*
X135350000Y-68055341D01*
X135546132Y-68036024D01*
X135734727Y-67978814D01*
X135756570Y-67967139D01*
X135908532Y-67885913D01*
X135908538Y-67885910D01*
X136060883Y-67760883D01*
X136066276Y-67754312D01*
X136093750Y-67720835D01*
X136151495Y-67681501D01*
X136189603Y-67675500D01*
X136961607Y-67675500D01*
X137022029Y-67663481D01*
X137082452Y-67651463D01*
X137082455Y-67651461D01*
X137082458Y-67651461D01*
X137115787Y-67637654D01*
X137115786Y-67637654D01*
X137115792Y-67637652D01*
X137196286Y-67604312D01*
X137251306Y-67567548D01*
X137298733Y-67535858D01*
X137385858Y-67448733D01*
X137385858Y-67448731D01*
X137396066Y-67438524D01*
X137396067Y-67438521D01*
X139148607Y-65685982D01*
X139209928Y-65652499D01*
X139248437Y-65650262D01*
X139300000Y-65655341D01*
X139496132Y-65636024D01*
X139684727Y-65578814D01*
X139792048Y-65521449D01*
X139860449Y-65507208D01*
X139925693Y-65532208D01*
X139967064Y-65588512D01*
X139974500Y-65630808D01*
X139974500Y-68260397D01*
X139954815Y-68327436D01*
X139929166Y-68356249D01*
X139889114Y-68389118D01*
X139764090Y-68541460D01*
X139764086Y-68541467D01*
X139671188Y-68715266D01*
X139613975Y-68903870D01*
X139605127Y-68993700D01*
X139578965Y-69058487D01*
X139569405Y-69069225D01*
X138025451Y-70613181D01*
X137964128Y-70646666D01*
X137937770Y-70649500D01*
X133106978Y-70649500D01*
X133039939Y-70629815D01*
X133028313Y-70621353D01*
X132958539Y-70564090D01*
X132958532Y-70564086D01*
X132784733Y-70471188D01*
X132784727Y-70471186D01*
X132596132Y-70413976D01*
X132596129Y-70413975D01*
X132400000Y-70394659D01*
X132203870Y-70413975D01*
X132015266Y-70471188D01*
X131841467Y-70564086D01*
X131841460Y-70564090D01*
X131689116Y-70689116D01*
X131564090Y-70841460D01*
X131564089Y-70841463D01*
X131471188Y-71015266D01*
X131413975Y-71203870D01*
X131394659Y-71400000D01*
X131413975Y-71596129D01*
X131471188Y-71784733D01*
X131564086Y-71958532D01*
X131564090Y-71958539D01*
X131657070Y-72071835D01*
X131684383Y-72136145D01*
X131672592Y-72205013D01*
X131625440Y-72256573D01*
X131561217Y-72274500D01*
X129710452Y-72274500D01*
X129643413Y-72254815D01*
X129622771Y-72238181D01*
X124190198Y-66805608D01*
X124190178Y-66805586D01*
X124098733Y-66714141D01*
X124047509Y-66679915D01*
X123996287Y-66645689D01*
X123996286Y-66645688D01*
X123996283Y-66645686D01*
X123996280Y-66645685D01*
X123915792Y-66612347D01*
X123882453Y-66598537D01*
X123872427Y-66596543D01*
X123822029Y-66586518D01*
X123761610Y-66574500D01*
X123761607Y-66574500D01*
X123761606Y-66574500D01*
X113185452Y-66574500D01*
X113118413Y-66554815D01*
X113097771Y-66538181D01*
X110759590Y-64200000D01*
X134994659Y-64200000D01*
X135013975Y-64396129D01*
X135071188Y-64584733D01*
X135164086Y-64758532D01*
X135164090Y-64758539D01*
X135289116Y-64910883D01*
X135441460Y-65035909D01*
X135441467Y-65035913D01*
X135615266Y-65128811D01*
X135615269Y-65128811D01*
X135615273Y-65128814D01*
X135803868Y-65186024D01*
X136000000Y-65205341D01*
X136196132Y-65186024D01*
X136384727Y-65128814D01*
X136558538Y-65035910D01*
X136710883Y-64910883D01*
X136835910Y-64758538D01*
X136835910Y-64758536D01*
X136835914Y-64758532D01*
X136925437Y-64591047D01*
X136974399Y-64541202D01*
X137034795Y-64525500D01*
X137328335Y-64525500D01*
X137328335Y-64525499D01*
X137394832Y-64512273D01*
X137449179Y-64501463D01*
X137496309Y-64481941D01*
X137563013Y-64454312D01*
X137614236Y-64420084D01*
X137665460Y-64385858D01*
X137752585Y-64298733D01*
X137752585Y-64298731D01*
X137762793Y-64288524D01*
X137762794Y-64288521D01*
X140460857Y-61590461D01*
X140464792Y-61584571D01*
X140468644Y-61578809D01*
X140529307Y-61488019D01*
X140529307Y-61488018D01*
X140529311Y-61488013D01*
X140576463Y-61374179D01*
X140600500Y-61253333D01*
X140600500Y-60909861D01*
X140608000Y-60884319D01*
X140608000Y-58051000D01*
X140491972Y-58051000D01*
X140424933Y-58031315D01*
X140388871Y-57995893D01*
X140385909Y-57991460D01*
X140260883Y-57839116D01*
X140108539Y-57714090D01*
X140108532Y-57714086D01*
X139934733Y-57621188D01*
X139934727Y-57621186D01*
X139769389Y-57571031D01*
X139746129Y-57563975D01*
X139550000Y-57544659D01*
X139353870Y-57563975D01*
X139165266Y-57621188D01*
X138991467Y-57714086D01*
X138991460Y-57714090D01*
X138960009Y-57739902D01*
X138895699Y-57767214D01*
X138826831Y-57755422D01*
X138775272Y-57708270D01*
X138772005Y-57702535D01*
X138685910Y-57541462D01*
X138560883Y-57389117D01*
X138465938Y-57311197D01*
X138426605Y-57253454D01*
X138424734Y-57183610D01*
X138456921Y-57127667D01*
X139471206Y-56113382D01*
X139522895Y-56082403D01*
X139534727Y-56078814D01*
X139708538Y-55985910D01*
X139860883Y-55860883D01*
X139985910Y-55708538D01*
X140078814Y-55534727D01*
X140136024Y-55346132D01*
X140155341Y-55150000D01*
X140136024Y-54953868D01*
X140078814Y-54765273D01*
X140078811Y-54765269D01*
X140078811Y-54765266D01*
X139985913Y-54591467D01*
X139985909Y-54591460D01*
X139860883Y-54439116D01*
X139708539Y-54314090D01*
X139708532Y-54314086D01*
X139534733Y-54221188D01*
X139534727Y-54221186D01*
X139355867Y-54166929D01*
X139346129Y-54163975D01*
X139150000Y-54144659D01*
X138953870Y-54163975D01*
X138765266Y-54221188D01*
X138591467Y-54314086D01*
X138591460Y-54314090D01*
X138439116Y-54439116D01*
X138314090Y-54591460D01*
X138314086Y-54591467D01*
X138221188Y-54765266D01*
X138163975Y-54953870D01*
X138144659Y-55150000D01*
X138163976Y-55346134D01*
X138213458Y-55509252D01*
X138214082Y-55579119D01*
X138182479Y-55632929D01*
X136551270Y-57264139D01*
X136464144Y-57351264D01*
X136464138Y-57351272D01*
X136395690Y-57453708D01*
X136395688Y-57453713D01*
X136372572Y-57509522D01*
X136372572Y-57509523D01*
X136348538Y-57567545D01*
X136348535Y-57567555D01*
X136324500Y-57688389D01*
X136324500Y-57688394D01*
X136324500Y-58811606D01*
X136332434Y-58851493D01*
X136348537Y-58932453D01*
X136355200Y-58948536D01*
X136355201Y-58948540D01*
X136395686Y-59046283D01*
X136395687Y-59046285D01*
X136395688Y-59046286D01*
X136417619Y-59079107D01*
X136417620Y-59079110D01*
X136417621Y-59079110D01*
X136464141Y-59148732D01*
X136464144Y-59148736D01*
X136555586Y-59240178D01*
X136555608Y-59240198D01*
X136588181Y-59272771D01*
X136621666Y-59334094D01*
X136624500Y-59360452D01*
X136624500Y-59810397D01*
X136604815Y-59877436D01*
X136579166Y-59906249D01*
X136539114Y-59939118D01*
X136414090Y-60091460D01*
X136414086Y-60091467D01*
X136321188Y-60265266D01*
X136263975Y-60453870D01*
X136244659Y-60650000D01*
X136263975Y-60846129D01*
X136279143Y-60896132D01*
X136287981Y-60925267D01*
X136321188Y-61034733D01*
X136414086Y-61208532D01*
X136414090Y-61208539D01*
X136539116Y-61360883D01*
X136691460Y-61485909D01*
X136691467Y-61485913D01*
X136865266Y-61578811D01*
X136865269Y-61578811D01*
X136865273Y-61578814D01*
X137053868Y-61636024D01*
X137250000Y-61655341D01*
X137446132Y-61636024D01*
X137634727Y-61578814D01*
X137634737Y-61578809D01*
X137804592Y-61488019D01*
X137808538Y-61485910D01*
X137960883Y-61360883D01*
X138041623Y-61262501D01*
X138099368Y-61223167D01*
X138169213Y-61221296D01*
X138228981Y-61257483D01*
X138246834Y-61282713D01*
X138314085Y-61408532D01*
X138314090Y-61408539D01*
X138439116Y-61560883D01*
X138488320Y-61601264D01*
X138527654Y-61659010D01*
X138529525Y-61728855D01*
X138497336Y-61784798D01*
X137043956Y-63238181D01*
X136982633Y-63271666D01*
X136956275Y-63274500D01*
X136414045Y-63274500D01*
X136378053Y-63269161D01*
X136196132Y-63213976D01*
X136196129Y-63213975D01*
X136000000Y-63194659D01*
X135803870Y-63213975D01*
X135615266Y-63271188D01*
X135441467Y-63364086D01*
X135441460Y-63364090D01*
X135289116Y-63489116D01*
X135164090Y-63641460D01*
X135164086Y-63641467D01*
X135071188Y-63815266D01*
X135013975Y-64003870D01*
X134994659Y-64200000D01*
X110759590Y-64200000D01*
X106109590Y-59550000D01*
X129394659Y-59550000D01*
X129413975Y-59746129D01*
X129413976Y-59746132D01*
X129467078Y-59921186D01*
X129471188Y-59934733D01*
X129564086Y-60108532D01*
X129564090Y-60108539D01*
X129689116Y-60260883D01*
X129841460Y-60385909D01*
X129841467Y-60385913D01*
X130015266Y-60478811D01*
X130015269Y-60478811D01*
X130015273Y-60478814D01*
X130203868Y-60536024D01*
X130400000Y-60555341D01*
X130596132Y-60536024D01*
X130782175Y-60479587D01*
X130852041Y-60478964D01*
X130911154Y-60516212D01*
X130923709Y-60533152D01*
X131007287Y-60668655D01*
X131131635Y-60793003D01*
X131165120Y-60854326D01*
X131160136Y-60924018D01*
X131150000Y-60939789D01*
X131150000Y-60950000D01*
X131150000Y-63400000D01*
X134600000Y-63400000D01*
X134600000Y-61026361D01*
X134619685Y-60959322D01*
X134625000Y-60952726D01*
X134625000Y-59800000D01*
X135125000Y-59800000D01*
X135125000Y-60949999D01*
X135249972Y-60949999D01*
X135249986Y-60949998D01*
X135352697Y-60939505D01*
X135519119Y-60884358D01*
X135519124Y-60884356D01*
X135668345Y-60792315D01*
X135792315Y-60668345D01*
X135884356Y-60519124D01*
X135884358Y-60519119D01*
X135939505Y-60352697D01*
X135939506Y-60352690D01*
X135949999Y-60249986D01*
X135950000Y-60249973D01*
X135950000Y-59800000D01*
X135125000Y-59800000D01*
X134625000Y-59800000D01*
X134625000Y-58150000D01*
X135125000Y-58150000D01*
X135125000Y-59300000D01*
X135949999Y-59300000D01*
X135949999Y-58850028D01*
X135949998Y-58850013D01*
X135939505Y-58747302D01*
X135884358Y-58580880D01*
X135884356Y-58580875D01*
X135792315Y-58431654D01*
X135668345Y-58307684D01*
X135519124Y-58215643D01*
X135519119Y-58215641D01*
X135352697Y-58160494D01*
X135352690Y-58160493D01*
X135249986Y-58150000D01*
X135125000Y-58150000D01*
X134625000Y-58150000D01*
X134625000Y-58140589D01*
X134602834Y-58099996D01*
X134600000Y-58073638D01*
X134600000Y-55700000D01*
X131150000Y-55700000D01*
X131150000Y-58237270D01*
X131130315Y-58304309D01*
X131113681Y-58324951D01*
X131007289Y-58431342D01*
X130923709Y-58566848D01*
X130871761Y-58613572D01*
X130802798Y-58624795D01*
X130782175Y-58620412D01*
X130743012Y-58608532D01*
X130732002Y-58605192D01*
X130596130Y-58563975D01*
X130400000Y-58544659D01*
X130203870Y-58563975D01*
X130015266Y-58621188D01*
X129841467Y-58714086D01*
X129841460Y-58714090D01*
X129689116Y-58839116D01*
X129564090Y-58991460D01*
X129564086Y-58991467D01*
X129471188Y-59165266D01*
X129413975Y-59353870D01*
X129394659Y-59550000D01*
X106109590Y-59550000D01*
X104235984Y-57676394D01*
X104202499Y-57615071D01*
X104200262Y-57576562D01*
X104205341Y-57525000D01*
X104186024Y-57328868D01*
X104128814Y-57140273D01*
X104128811Y-57140269D01*
X104128811Y-57140266D01*
X104035913Y-56966467D01*
X104035909Y-56966460D01*
X103910883Y-56814116D01*
X103758539Y-56689090D01*
X103758532Y-56689086D01*
X103584733Y-56596188D01*
X103584727Y-56596186D01*
X103396132Y-56538976D01*
X103396129Y-56538975D01*
X103200000Y-56519659D01*
X103003870Y-56538975D01*
X102815266Y-56596188D01*
X102641467Y-56689086D01*
X102641460Y-56689090D01*
X102489116Y-56814116D01*
X102364090Y-56966460D01*
X102364086Y-56966467D01*
X102271188Y-57140266D01*
X102213975Y-57328870D01*
X102194659Y-57525000D01*
X102213975Y-57721129D01*
X102271188Y-57909733D01*
X102364086Y-58083532D01*
X102364090Y-58083539D01*
X102489116Y-58235883D01*
X102641460Y-58360909D01*
X102641467Y-58360913D01*
X102815266Y-58453811D01*
X102815269Y-58453811D01*
X102815273Y-58453814D01*
X103003868Y-58511024D01*
X103200000Y-58530341D01*
X103251560Y-58525262D01*
X103320203Y-58538280D01*
X103351394Y-58560984D01*
X105731855Y-60941445D01*
X105765340Y-61002768D01*
X105760356Y-61072460D01*
X105718484Y-61128393D01*
X105654982Y-61152654D01*
X105514596Y-61164936D01*
X105514586Y-61164938D01*
X105286344Y-61226094D01*
X105286335Y-61226098D01*
X105072171Y-61325964D01*
X105072169Y-61325965D01*
X104878597Y-61461505D01*
X104711503Y-61628599D01*
X104710349Y-61629975D01*
X104709688Y-61630414D01*
X104707676Y-61632427D01*
X104707271Y-61632022D01*
X104652173Y-61668671D01*
X104582312Y-61669772D01*
X104522946Y-61632928D01*
X104497663Y-61589265D01*
X104494814Y-61580666D01*
X104402712Y-61431344D01*
X104278656Y-61307288D01*
X104161015Y-61234727D01*
X104129336Y-61215187D01*
X104129331Y-61215185D01*
X104127862Y-61214698D01*
X103962797Y-61160001D01*
X103962795Y-61160000D01*
X103860010Y-61149500D01*
X102559998Y-61149500D01*
X102559981Y-61149501D01*
X102457203Y-61160000D01*
X102457200Y-61160001D01*
X102290668Y-61215185D01*
X102290663Y-61215187D01*
X102141342Y-61307289D01*
X102017289Y-61431342D01*
X101925187Y-61580663D01*
X101925185Y-61580668D01*
X101908701Y-61630414D01*
X101870001Y-61747203D01*
X101870001Y-61747204D01*
X101870000Y-61747204D01*
X101859500Y-61849983D01*
X101859500Y-63150001D01*
X101859501Y-63150018D01*
X101870000Y-63252796D01*
X101870001Y-63252799D01*
X101916411Y-63392852D01*
X101925186Y-63419334D01*
X102017288Y-63568656D01*
X102141344Y-63692712D01*
X102290666Y-63784814D01*
X102299264Y-63787663D01*
X102356707Y-63827433D01*
X102383531Y-63891948D01*
X102371217Y-63960724D01*
X102342234Y-63997483D01*
X102342427Y-63997676D01*
X102340798Y-63999304D01*
X102339975Y-64000349D01*
X102338599Y-64001503D01*
X102171505Y-64168597D01*
X102035965Y-64362169D01*
X102035964Y-64362171D01*
X101936098Y-64576335D01*
X101936094Y-64576344D01*
X101874938Y-64804586D01*
X101874936Y-64804596D01*
X101854341Y-65039999D01*
X101854341Y-65040000D01*
X101874936Y-65275403D01*
X101874938Y-65275413D01*
X101936094Y-65503655D01*
X101936096Y-65503659D01*
X101936097Y-65503663D01*
X102006826Y-65655341D01*
X102035965Y-65717830D01*
X102035967Y-65717834D01*
X102049109Y-65736602D01*
X102171501Y-65911396D01*
X102171506Y-65911402D01*
X102338597Y-66078493D01*
X102338603Y-66078498D01*
X102524158Y-66208425D01*
X102567783Y-66263002D01*
X102574977Y-66332500D01*
X102543454Y-66394855D01*
X102524158Y-66411575D01*
X102338597Y-66541505D01*
X102171505Y-66708597D01*
X102035965Y-66902169D01*
X102035964Y-66902171D01*
X101936098Y-67116335D01*
X101936094Y-67116344D01*
X101874938Y-67344586D01*
X101874936Y-67344596D01*
X101854341Y-67579999D01*
X101854341Y-67580000D01*
X101874936Y-67815403D01*
X101874938Y-67815413D01*
X101936094Y-68043655D01*
X101936096Y-68043659D01*
X101936097Y-68043663D01*
X101978561Y-68134727D01*
X102035965Y-68257830D01*
X102035967Y-68257834D01*
X102144281Y-68412521D01*
X102171505Y-68451401D01*
X102338599Y-68618495D01*
X102506448Y-68736024D01*
X102524594Y-68748730D01*
X102568218Y-68803307D01*
X102575411Y-68872806D01*
X102543889Y-68935160D01*
X102524593Y-68951880D01*
X102448626Y-69005072D01*
X102448625Y-69005072D01*
X103080590Y-69637037D01*
X103017007Y-69654075D01*
X102902993Y-69719901D01*
X102809901Y-69812993D01*
X102744075Y-69927007D01*
X102727037Y-69990590D01*
X102095072Y-69358625D01*
X102036401Y-69442419D01*
X101936570Y-69656507D01*
X101936566Y-69656516D01*
X101875432Y-69884673D01*
X101875430Y-69884684D01*
X101854843Y-70119998D01*
X101854843Y-70120001D01*
X101875430Y-70355315D01*
X101875432Y-70355326D01*
X101936566Y-70583483D01*
X101936570Y-70583492D01*
X102036400Y-70797579D01*
X102036402Y-70797583D01*
X102095072Y-70881373D01*
X102095073Y-70881373D01*
X102727037Y-70249409D01*
X102744075Y-70312993D01*
X102809901Y-70427007D01*
X102902993Y-70520099D01*
X103017007Y-70585925D01*
X103080590Y-70602962D01*
X102448625Y-71234925D01*
X102524594Y-71288119D01*
X102568219Y-71342696D01*
X102575413Y-71412194D01*
X102543890Y-71474549D01*
X102524595Y-71491269D01*
X102338594Y-71621508D01*
X102171505Y-71788597D01*
X102035966Y-71982169D01*
X102035965Y-71982171D01*
X102005549Y-72047399D01*
X101936098Y-72196335D01*
X101936094Y-72196344D01*
X101874938Y-72424586D01*
X101874936Y-72424596D01*
X101854341Y-72659999D01*
X101854341Y-72660000D01*
X101874936Y-72895403D01*
X101874938Y-72895413D01*
X101936094Y-73123655D01*
X101936096Y-73123659D01*
X101936097Y-73123663D01*
X101943617Y-73139789D01*
X102035965Y-73337830D01*
X102035967Y-73337834D01*
X102117527Y-73454313D01*
X102171505Y-73531401D01*
X102338599Y-73698495D01*
X102524594Y-73828730D01*
X102568218Y-73883307D01*
X102575411Y-73952806D01*
X102543889Y-74015160D01*
X102524593Y-74031880D01*
X102448626Y-74085072D01*
X102448625Y-74085072D01*
X103080590Y-74717037D01*
X103017007Y-74734075D01*
X102902993Y-74799901D01*
X102809901Y-74892993D01*
X102744075Y-75007007D01*
X102727037Y-75070590D01*
X102095072Y-74438625D01*
X102036401Y-74522419D01*
X101936570Y-74736507D01*
X101936566Y-74736516D01*
X101875432Y-74964673D01*
X101875430Y-74964684D01*
X101854843Y-75199998D01*
X101854843Y-75200001D01*
X101875430Y-75435315D01*
X101875432Y-75435326D01*
X101936566Y-75663483D01*
X101936570Y-75663492D01*
X102036400Y-75877579D01*
X102036402Y-75877583D01*
X102095072Y-75961373D01*
X102095073Y-75961373D01*
X102727037Y-75329409D01*
X102744075Y-75392993D01*
X102809901Y-75507007D01*
X102902993Y-75600099D01*
X103017007Y-75665925D01*
X103080590Y-75682962D01*
X102448625Y-76314925D01*
X102524594Y-76368119D01*
X102568219Y-76422696D01*
X102575413Y-76492194D01*
X102543890Y-76554549D01*
X102524595Y-76571269D01*
X102338594Y-76701508D01*
X102171505Y-76868597D01*
X102035965Y-77062169D01*
X102035964Y-77062171D01*
X101936098Y-77276335D01*
X101936094Y-77276344D01*
X101874938Y-77504586D01*
X101874936Y-77504596D01*
X101854341Y-77739999D01*
X101854341Y-77740000D01*
X99700500Y-77740000D01*
X99700500Y-47752004D01*
X100689953Y-47752004D01*
X100710113Y-48021026D01*
X100710113Y-48021028D01*
X100770142Y-48284033D01*
X100770148Y-48284052D01*
X100868709Y-48535181D01*
X100868708Y-48535181D01*
X101003602Y-48768822D01*
X101057294Y-48836151D01*
X101779152Y-48114293D01*
X101786049Y-48130942D01*
X101873599Y-48261970D01*
X101985030Y-48373401D01*
X102116058Y-48460951D01*
X102132705Y-48467846D01*
X101409848Y-49190702D01*
X101592483Y-49315220D01*
X101592485Y-49315221D01*
X101835539Y-49432269D01*
X101835537Y-49432269D01*
X102093337Y-49511790D01*
X102093343Y-49511792D01*
X102360101Y-49551999D01*
X102360110Y-49552000D01*
X102629890Y-49552000D01*
X102629898Y-49551999D01*
X102896656Y-49511792D01*
X102896662Y-49511790D01*
X103154461Y-49432269D01*
X103397521Y-49315218D01*
X103580150Y-49190702D01*
X102857294Y-48467846D01*
X102873942Y-48460951D01*
X103004970Y-48373401D01*
X103116401Y-48261970D01*
X103203951Y-48130942D01*
X103210846Y-48114294D01*
X103932703Y-48836151D01*
X103932704Y-48836150D01*
X103986393Y-48768828D01*
X103986400Y-48768817D01*
X104121290Y-48535181D01*
X104219851Y-48284052D01*
X104219857Y-48284033D01*
X104279886Y-48021028D01*
X104279886Y-48021026D01*
X104300047Y-47752004D01*
X104300047Y-47751995D01*
X104279886Y-47482973D01*
X104279886Y-47482971D01*
X104219857Y-47219966D01*
X104219851Y-47219947D01*
X104121290Y-46968818D01*
X104121291Y-46968818D01*
X104007961Y-46772527D01*
X103991488Y-46704627D01*
X104014340Y-46638600D01*
X104069261Y-46595410D01*
X104138815Y-46588768D01*
X104185197Y-46608071D01*
X104257296Y-46657228D01*
X104257301Y-46657230D01*
X104257302Y-46657231D01*
X104257303Y-46657232D01*
X104355721Y-46704627D01*
X104493673Y-46771061D01*
X104493674Y-46771061D01*
X104493677Y-46771063D01*
X104744385Y-46848396D01*
X105003818Y-46887500D01*
X105266182Y-46887500D01*
X105525615Y-46848396D01*
X105776323Y-46771063D01*
X105811056Y-46754336D01*
X105879994Y-46742985D01*
X105944128Y-46770706D01*
X105983094Y-46828701D01*
X105984520Y-46898556D01*
X105972243Y-46928056D01*
X105948708Y-46968820D01*
X105850148Y-47219947D01*
X105850142Y-47219966D01*
X105790113Y-47482971D01*
X105790113Y-47482973D01*
X105769953Y-47751995D01*
X105769953Y-47752004D01*
X105790113Y-48021026D01*
X105790113Y-48021028D01*
X105850142Y-48284033D01*
X105850148Y-48284052D01*
X105948709Y-48535181D01*
X105948708Y-48535181D01*
X106083602Y-48768822D01*
X106137294Y-48836151D01*
X106859152Y-48114293D01*
X106866049Y-48130942D01*
X106953599Y-48261970D01*
X107065030Y-48373401D01*
X107196058Y-48460951D01*
X107212705Y-48467846D01*
X106489848Y-49190702D01*
X106672483Y-49315220D01*
X106672485Y-49315221D01*
X106915539Y-49432269D01*
X106915537Y-49432269D01*
X107173337Y-49511790D01*
X107173343Y-49511792D01*
X107440101Y-49551999D01*
X107440110Y-49552000D01*
X107709890Y-49552000D01*
X107709898Y-49551999D01*
X107976656Y-49511792D01*
X107976662Y-49511790D01*
X108234461Y-49432269D01*
X108477521Y-49315218D01*
X108660150Y-49190702D01*
X107937294Y-48467846D01*
X107953942Y-48460951D01*
X108084970Y-48373401D01*
X108196401Y-48261970D01*
X108283951Y-48130942D01*
X108290846Y-48114294D01*
X109012703Y-48836151D01*
X109012704Y-48836150D01*
X109066393Y-48768828D01*
X109066400Y-48768817D01*
X109201290Y-48535181D01*
X109299851Y-48284052D01*
X109299857Y-48284033D01*
X109359886Y-48021028D01*
X109359886Y-48021026D01*
X109380047Y-47752004D01*
X146784953Y-47752004D01*
X146805113Y-48021026D01*
X146805113Y-48021028D01*
X146865142Y-48284033D01*
X146865148Y-48284052D01*
X146963709Y-48535181D01*
X146963708Y-48535181D01*
X147098602Y-48768822D01*
X147152294Y-48836151D01*
X147152295Y-48836151D01*
X147874153Y-48114293D01*
X147881049Y-48130942D01*
X147968599Y-48261970D01*
X148080030Y-48373401D01*
X148211058Y-48460951D01*
X148227705Y-48467846D01*
X147504848Y-49190702D01*
X147687483Y-49315220D01*
X147687485Y-49315221D01*
X147930539Y-49432269D01*
X147930537Y-49432269D01*
X148188337Y-49511790D01*
X148188343Y-49511792D01*
X148455101Y-49551999D01*
X148455110Y-49552000D01*
X148724890Y-49552000D01*
X148724898Y-49551999D01*
X148991656Y-49511792D01*
X148991662Y-49511790D01*
X149249461Y-49432269D01*
X149492521Y-49315218D01*
X149675150Y-49190702D01*
X148952294Y-48467846D01*
X148968942Y-48460951D01*
X149099970Y-48373401D01*
X149211401Y-48261970D01*
X149298951Y-48130942D01*
X149305846Y-48114294D01*
X150027703Y-48836151D01*
X150027704Y-48836150D01*
X150081393Y-48768828D01*
X150081400Y-48768817D01*
X150216290Y-48535181D01*
X150314851Y-48284052D01*
X150314857Y-48284033D01*
X150374886Y-48021028D01*
X150374886Y-48021026D01*
X150395047Y-47752004D01*
X150395047Y-47751995D01*
X150374886Y-47482973D01*
X150374886Y-47482971D01*
X150314857Y-47219966D01*
X150314851Y-47219947D01*
X150216290Y-46968818D01*
X150216291Y-46968818D01*
X150102961Y-46772527D01*
X150086488Y-46704627D01*
X150109340Y-46638600D01*
X150164261Y-46595410D01*
X150233815Y-46588768D01*
X150280197Y-46608071D01*
X150352296Y-46657228D01*
X150352301Y-46657230D01*
X150352302Y-46657231D01*
X150352303Y-46657232D01*
X150450721Y-46704627D01*
X150588673Y-46771061D01*
X150588674Y-46771061D01*
X150588677Y-46771063D01*
X150839385Y-46848396D01*
X151098818Y-46887500D01*
X151361182Y-46887500D01*
X151620615Y-46848396D01*
X151871323Y-46771063D01*
X151906056Y-46754336D01*
X151974994Y-46742985D01*
X152039128Y-46770706D01*
X152078094Y-46828701D01*
X152079520Y-46898556D01*
X152067243Y-46928056D01*
X152043708Y-46968820D01*
X151945148Y-47219947D01*
X151945142Y-47219966D01*
X151885113Y-47482971D01*
X151885113Y-47482973D01*
X151864953Y-47751995D01*
X151864953Y-47752004D01*
X151885113Y-48021026D01*
X151885113Y-48021028D01*
X151945142Y-48284033D01*
X151945148Y-48284052D01*
X152043709Y-48535181D01*
X152043708Y-48535181D01*
X152178602Y-48768822D01*
X152232294Y-48836151D01*
X152954152Y-48114293D01*
X152961049Y-48130942D01*
X153048599Y-48261970D01*
X153160030Y-48373401D01*
X153291058Y-48460951D01*
X153307705Y-48467846D01*
X152584848Y-49190702D01*
X152767483Y-49315220D01*
X152767485Y-49315221D01*
X153010539Y-49432269D01*
X153010537Y-49432269D01*
X153268337Y-49511790D01*
X153268343Y-49511792D01*
X153535101Y-49551999D01*
X153535110Y-49552000D01*
X153804890Y-49552000D01*
X153804898Y-49551999D01*
X154071656Y-49511792D01*
X154071662Y-49511790D01*
X154329461Y-49432269D01*
X154572521Y-49315218D01*
X154755150Y-49190702D01*
X154032294Y-48467846D01*
X154048942Y-48460951D01*
X154179970Y-48373401D01*
X154291401Y-48261970D01*
X154378951Y-48130942D01*
X154385846Y-48114294D01*
X155107703Y-48836151D01*
X155107704Y-48836150D01*
X155161393Y-48768828D01*
X155161400Y-48768817D01*
X155296290Y-48535181D01*
X155394851Y-48284052D01*
X155394857Y-48284033D01*
X155454886Y-48021028D01*
X155454886Y-48021026D01*
X155475047Y-47752004D01*
X155475047Y-47751995D01*
X155454886Y-47482973D01*
X155454886Y-47482971D01*
X155394857Y-47219966D01*
X155394851Y-47219947D01*
X155296290Y-46968818D01*
X155296291Y-46968818D01*
X155161397Y-46735177D01*
X155107704Y-46667847D01*
X154385846Y-47389705D01*
X154378951Y-47373058D01*
X154291401Y-47242030D01*
X154179970Y-47130599D01*
X154048942Y-47043049D01*
X154032293Y-47036153D01*
X154755150Y-46313296D01*
X154572517Y-46188779D01*
X154572516Y-46188778D01*
X154329460Y-46071730D01*
X154329462Y-46071730D01*
X154071662Y-45992209D01*
X154071656Y-45992207D01*
X153804898Y-45952000D01*
X153535101Y-45952000D01*
X153268343Y-45992207D01*
X153268337Y-45992209D01*
X153010544Y-46071728D01*
X152958711Y-46096690D01*
X152889769Y-46108041D01*
X152825635Y-46080318D01*
X152786670Y-46022323D01*
X152785245Y-45952468D01*
X152797522Y-45922970D01*
X152811568Y-45898643D01*
X152907420Y-45654416D01*
X152965802Y-45398630D01*
X152985408Y-45137000D01*
X152965802Y-44875370D01*
X152907420Y-44619584D01*
X152867923Y-44518949D01*
X152861755Y-44449353D01*
X152894193Y-44387470D01*
X152954938Y-44352947D01*
X153019902Y-44355157D01*
X153268337Y-44431790D01*
X153268343Y-44431792D01*
X153535101Y-44471999D01*
X153535110Y-44472000D01*
X153804890Y-44472000D01*
X153804898Y-44471999D01*
X154071656Y-44431792D01*
X154071662Y-44431790D01*
X154329461Y-44352269D01*
X154572521Y-44235218D01*
X154755150Y-44110702D01*
X154032294Y-43387846D01*
X154048942Y-43380951D01*
X154179970Y-43293401D01*
X154291401Y-43181970D01*
X154378951Y-43050942D01*
X154385846Y-43034294D01*
X155107703Y-43756151D01*
X155107704Y-43756150D01*
X155161393Y-43688828D01*
X155161400Y-43688817D01*
X155296290Y-43455181D01*
X155394851Y-43204052D01*
X155394857Y-43204033D01*
X155454886Y-42941028D01*
X155454886Y-42941026D01*
X155475047Y-42672004D01*
X155475047Y-42671995D01*
X155454886Y-42402973D01*
X155454886Y-42402971D01*
X155394857Y-42139966D01*
X155394851Y-42139947D01*
X155296290Y-41888818D01*
X155296291Y-41888818D01*
X155161397Y-41655177D01*
X155107704Y-41587847D01*
X154385846Y-42309705D01*
X154378951Y-42293058D01*
X154291401Y-42162030D01*
X154179970Y-42050599D01*
X154048942Y-41963049D01*
X154032294Y-41956153D01*
X154755150Y-41233296D01*
X154572517Y-41108779D01*
X154572516Y-41108778D01*
X154329460Y-40991730D01*
X154329462Y-40991730D01*
X154071662Y-40912209D01*
X154071656Y-40912207D01*
X153804898Y-40872000D01*
X153535101Y-40872000D01*
X153268343Y-40912207D01*
X153268337Y-40912209D01*
X153010538Y-40991730D01*
X152767485Y-41108778D01*
X152767476Y-41108783D01*
X152584848Y-41233296D01*
X153307705Y-41956153D01*
X153291058Y-41963049D01*
X153160030Y-42050599D01*
X153048599Y-42162030D01*
X152961049Y-42293058D01*
X152954153Y-42309706D01*
X152232295Y-41587848D01*
X152178600Y-41655180D01*
X152043709Y-41888818D01*
X151945148Y-42139947D01*
X151945142Y-42139966D01*
X151885113Y-42402971D01*
X151885113Y-42402973D01*
X151864953Y-42671995D01*
X151864953Y-42672004D01*
X151885113Y-42941026D01*
X151885113Y-42941028D01*
X151945142Y-43204033D01*
X151945148Y-43204052D01*
X151994706Y-43330324D01*
X152000875Y-43399921D01*
X151968437Y-43461804D01*
X151907692Y-43496327D01*
X151842729Y-43494117D01*
X151737973Y-43461804D01*
X151620623Y-43425606D01*
X151620619Y-43425605D01*
X151620615Y-43425604D01*
X151495823Y-43406794D01*
X151361187Y-43386500D01*
X151361182Y-43386500D01*
X151098818Y-43386500D01*
X151098812Y-43386500D01*
X150937247Y-43410853D01*
X150839385Y-43425604D01*
X150839382Y-43425605D01*
X150839376Y-43425606D01*
X150588673Y-43502938D01*
X150391052Y-43598107D01*
X150322111Y-43609459D01*
X150257976Y-43581736D01*
X150219011Y-43523741D01*
X150217586Y-43453886D01*
X150221823Y-43441085D01*
X150314851Y-43204052D01*
X150314857Y-43204033D01*
X150374886Y-42941028D01*
X150374886Y-42941026D01*
X150395047Y-42672004D01*
X150395047Y-42671995D01*
X150374886Y-42402973D01*
X150374886Y-42402971D01*
X150314857Y-42139966D01*
X150314851Y-42139947D01*
X150216290Y-41888818D01*
X150216291Y-41888818D01*
X150081397Y-41655177D01*
X150027704Y-41587847D01*
X149305846Y-42309705D01*
X149298951Y-42293058D01*
X149211401Y-42162030D01*
X149099970Y-42050599D01*
X148968942Y-41963049D01*
X148952294Y-41956153D01*
X149675150Y-41233296D01*
X149492517Y-41108779D01*
X149492516Y-41108778D01*
X149249460Y-40991730D01*
X149249462Y-40991730D01*
X148991662Y-40912209D01*
X148991656Y-40912207D01*
X148724898Y-40872000D01*
X148455101Y-40872000D01*
X148188343Y-40912207D01*
X148188337Y-40912209D01*
X147930538Y-40991730D01*
X147687485Y-41108778D01*
X147687476Y-41108783D01*
X147504848Y-41233296D01*
X148227705Y-41956153D01*
X148211058Y-41963049D01*
X148080030Y-42050599D01*
X147968599Y-42162030D01*
X147881049Y-42293058D01*
X147874153Y-42309706D01*
X147152295Y-41587848D01*
X147098600Y-41655180D01*
X146963709Y-41888818D01*
X146865148Y-42139947D01*
X146865142Y-42139966D01*
X146805113Y-42402971D01*
X146805113Y-42402973D01*
X146784953Y-42671995D01*
X146784953Y-42672004D01*
X146805113Y-42941026D01*
X146805113Y-42941028D01*
X146865142Y-43204033D01*
X146865148Y-43204052D01*
X146963709Y-43455181D01*
X146963708Y-43455181D01*
X147098602Y-43688822D01*
X147152294Y-43756151D01*
X147152295Y-43756151D01*
X147874153Y-43034293D01*
X147881049Y-43050942D01*
X147968599Y-43181970D01*
X148080030Y-43293401D01*
X148211058Y-43380951D01*
X148227705Y-43387846D01*
X147504848Y-44110702D01*
X147687483Y-44235220D01*
X147687485Y-44235221D01*
X147930539Y-44352269D01*
X147930537Y-44352269D01*
X148188337Y-44431790D01*
X148188343Y-44431792D01*
X148455101Y-44471999D01*
X148455110Y-44472000D01*
X148724890Y-44472000D01*
X148724898Y-44471999D01*
X148991656Y-44431792D01*
X148991662Y-44431790D01*
X149249458Y-44352270D01*
X149467927Y-44247061D01*
X149536869Y-44235709D01*
X149601003Y-44263431D01*
X149639969Y-44321426D01*
X149641394Y-44391281D01*
X149637158Y-44404081D01*
X149552583Y-44619578D01*
X149552578Y-44619590D01*
X149552576Y-44619597D01*
X149494197Y-44875374D01*
X149494196Y-44875379D01*
X149474592Y-45136995D01*
X149474592Y-45137004D01*
X149494196Y-45398620D01*
X149494197Y-45398625D01*
X149552576Y-45654402D01*
X149552582Y-45654421D01*
X149648432Y-45898643D01*
X149754256Y-46081937D01*
X149770729Y-46149837D01*
X149747876Y-46215864D01*
X149692955Y-46259055D01*
X149623402Y-46265696D01*
X149577017Y-46246390D01*
X149492526Y-46188784D01*
X149492516Y-46188778D01*
X149249460Y-46071730D01*
X149249462Y-46071730D01*
X148991662Y-45992209D01*
X148991656Y-45992207D01*
X148724898Y-45952000D01*
X148455101Y-45952000D01*
X148188343Y-45992207D01*
X148188337Y-45992209D01*
X147930538Y-46071730D01*
X147687485Y-46188778D01*
X147687476Y-46188783D01*
X147504848Y-46313296D01*
X148227705Y-47036153D01*
X148211058Y-47043049D01*
X148080030Y-47130599D01*
X147968599Y-47242030D01*
X147881049Y-47373058D01*
X147874153Y-47389706D01*
X147152295Y-46667848D01*
X147098600Y-46735180D01*
X146963709Y-46968818D01*
X146865148Y-47219947D01*
X146865142Y-47219966D01*
X146805113Y-47482971D01*
X146805113Y-47482973D01*
X146784953Y-47751995D01*
X146784953Y-47752004D01*
X109380047Y-47752004D01*
X109380047Y-47751995D01*
X109359886Y-47482973D01*
X109359886Y-47482971D01*
X109299857Y-47219966D01*
X109299851Y-47219947D01*
X109201290Y-46968818D01*
X109201291Y-46968818D01*
X109066397Y-46735177D01*
X109012704Y-46667847D01*
X108290846Y-47389705D01*
X108283951Y-47373058D01*
X108196401Y-47242030D01*
X108084970Y-47130599D01*
X107953942Y-47043049D01*
X107937293Y-47036153D01*
X108660150Y-46313296D01*
X108477517Y-46188779D01*
X108477516Y-46188778D01*
X108234460Y-46071730D01*
X108234462Y-46071730D01*
X107976662Y-45992209D01*
X107976656Y-45992207D01*
X107709898Y-45952000D01*
X107440101Y-45952000D01*
X107173343Y-45992207D01*
X107173337Y-45992209D01*
X106915544Y-46071728D01*
X106863711Y-46096690D01*
X106794769Y-46108041D01*
X106730635Y-46080318D01*
X106691670Y-46022323D01*
X106690245Y-45952468D01*
X106702522Y-45922970D01*
X106716568Y-45898643D01*
X106812420Y-45654416D01*
X106870802Y-45398630D01*
X106890408Y-45137000D01*
X106870802Y-44875370D01*
X106812420Y-44619584D01*
X106772923Y-44518949D01*
X106766755Y-44449353D01*
X106799193Y-44387470D01*
X106859938Y-44352947D01*
X106924902Y-44355157D01*
X107173337Y-44431790D01*
X107173343Y-44431792D01*
X107440101Y-44471999D01*
X107440110Y-44472000D01*
X107709890Y-44472000D01*
X107709898Y-44471999D01*
X107976656Y-44431792D01*
X107976662Y-44431790D01*
X108234461Y-44352269D01*
X108477521Y-44235218D01*
X108660150Y-44110702D01*
X107937294Y-43387846D01*
X107953942Y-43380951D01*
X108084970Y-43293401D01*
X108196401Y-43181970D01*
X108283951Y-43050942D01*
X108290846Y-43034294D01*
X109012703Y-43756151D01*
X109012704Y-43756150D01*
X109066393Y-43688828D01*
X109066400Y-43688817D01*
X109201290Y-43455181D01*
X109299851Y-43204052D01*
X109299857Y-43204033D01*
X109359886Y-42941028D01*
X109359886Y-42941026D01*
X109380047Y-42672004D01*
X109380047Y-42671995D01*
X109367157Y-42500000D01*
X115000000Y-42500000D01*
X115000000Y-43000000D01*
X123500000Y-43000000D01*
X123500000Y-42500000D01*
X115000000Y-42500000D01*
X109367157Y-42500000D01*
X109359886Y-42402973D01*
X109359886Y-42402971D01*
X109299857Y-42139966D01*
X109299851Y-42139947D01*
X109201290Y-41888818D01*
X109201291Y-41888818D01*
X109066397Y-41655177D01*
X109012704Y-41587847D01*
X108290846Y-42309705D01*
X108283951Y-42293058D01*
X108196401Y-42162030D01*
X108084970Y-42050599D01*
X107953942Y-41963049D01*
X107937294Y-41956153D01*
X108660150Y-41233296D01*
X108477517Y-41108779D01*
X108477516Y-41108778D01*
X108234460Y-40991730D01*
X108234462Y-40991730D01*
X107976662Y-40912209D01*
X107976656Y-40912207D01*
X107709898Y-40872000D01*
X107440101Y-40872000D01*
X107173343Y-40912207D01*
X107173337Y-40912209D01*
X106915538Y-40991730D01*
X106672485Y-41108778D01*
X106672476Y-41108783D01*
X106489848Y-41233296D01*
X107212705Y-41956153D01*
X107196058Y-41963049D01*
X107065030Y-42050599D01*
X106953599Y-42162030D01*
X106866049Y-42293058D01*
X106859153Y-42309706D01*
X106137295Y-41587848D01*
X106083600Y-41655180D01*
X105948709Y-41888818D01*
X105850148Y-42139947D01*
X105850142Y-42139966D01*
X105790113Y-42402971D01*
X105790113Y-42402973D01*
X105769953Y-42671995D01*
X105769953Y-42672004D01*
X105790113Y-42941026D01*
X105790113Y-42941028D01*
X105850142Y-43204033D01*
X105850148Y-43204052D01*
X105899706Y-43330324D01*
X105905875Y-43399921D01*
X105873437Y-43461804D01*
X105812692Y-43496327D01*
X105747729Y-43494117D01*
X105642973Y-43461804D01*
X105525623Y-43425606D01*
X105525619Y-43425605D01*
X105525615Y-43425604D01*
X105400823Y-43406794D01*
X105266187Y-43386500D01*
X105266182Y-43386500D01*
X105003818Y-43386500D01*
X105003812Y-43386500D01*
X104842247Y-43410853D01*
X104744385Y-43425604D01*
X104744382Y-43425605D01*
X104744376Y-43425606D01*
X104493673Y-43502938D01*
X104296052Y-43598107D01*
X104227111Y-43609459D01*
X104162976Y-43581736D01*
X104124011Y-43523741D01*
X104122586Y-43453886D01*
X104126823Y-43441085D01*
X104219851Y-43204052D01*
X104219857Y-43204033D01*
X104279886Y-42941028D01*
X104279886Y-42941026D01*
X104300047Y-42672004D01*
X104300047Y-42671995D01*
X104279886Y-42402973D01*
X104279886Y-42402971D01*
X104219857Y-42139966D01*
X104219851Y-42139947D01*
X104121290Y-41888818D01*
X104121291Y-41888818D01*
X103986397Y-41655177D01*
X103932704Y-41587847D01*
X103210846Y-42309705D01*
X103203951Y-42293058D01*
X103116401Y-42162030D01*
X103004970Y-42050599D01*
X102873942Y-41963049D01*
X102857294Y-41956153D01*
X103580150Y-41233296D01*
X103397517Y-41108779D01*
X103397516Y-41108778D01*
X103154460Y-40991730D01*
X103154462Y-40991730D01*
X102896662Y-40912209D01*
X102896656Y-40912207D01*
X102629898Y-40872000D01*
X102360101Y-40872000D01*
X102093343Y-40912207D01*
X102093337Y-40912209D01*
X101835538Y-40991730D01*
X101592485Y-41108778D01*
X101592476Y-41108783D01*
X101409848Y-41233296D01*
X102132705Y-41956153D01*
X102116058Y-41963049D01*
X101985030Y-42050599D01*
X101873599Y-42162030D01*
X101786049Y-42293058D01*
X101779153Y-42309706D01*
X101057295Y-41587848D01*
X101003600Y-41655180D01*
X100868709Y-41888818D01*
X100770148Y-42139947D01*
X100770142Y-42139966D01*
X100710113Y-42402971D01*
X100710113Y-42402973D01*
X100689953Y-42671995D01*
X100689953Y-42672004D01*
X100710113Y-42941026D01*
X100710113Y-42941028D01*
X100770142Y-43204033D01*
X100770148Y-43204052D01*
X100868709Y-43455181D01*
X100868708Y-43455181D01*
X101003602Y-43688822D01*
X101057294Y-43756151D01*
X101057295Y-43756151D01*
X101779153Y-43034293D01*
X101786049Y-43050942D01*
X101873599Y-43181970D01*
X101985030Y-43293401D01*
X102116058Y-43380951D01*
X102132705Y-43387846D01*
X101409848Y-44110702D01*
X101592483Y-44235220D01*
X101592485Y-44235221D01*
X101835539Y-44352269D01*
X101835537Y-44352269D01*
X102093337Y-44431790D01*
X102093343Y-44431792D01*
X102360101Y-44471999D01*
X102360110Y-44472000D01*
X102629890Y-44472000D01*
X102629898Y-44471999D01*
X102896656Y-44431792D01*
X102896662Y-44431790D01*
X103154458Y-44352270D01*
X103372927Y-44247061D01*
X103441869Y-44235709D01*
X103506003Y-44263431D01*
X103544969Y-44321426D01*
X103546394Y-44391281D01*
X103542158Y-44404081D01*
X103457583Y-44619578D01*
X103457578Y-44619590D01*
X103457576Y-44619597D01*
X103399197Y-44875374D01*
X103399196Y-44875379D01*
X103379592Y-45136995D01*
X103379592Y-45137004D01*
X103399196Y-45398620D01*
X103399197Y-45398625D01*
X103457576Y-45654402D01*
X103457582Y-45654421D01*
X103553432Y-45898643D01*
X103659256Y-46081937D01*
X103675729Y-46149837D01*
X103652876Y-46215864D01*
X103597955Y-46259055D01*
X103528402Y-46265696D01*
X103482017Y-46246390D01*
X103397526Y-46188784D01*
X103397516Y-46188778D01*
X103154460Y-46071730D01*
X103154462Y-46071730D01*
X102896662Y-45992209D01*
X102896656Y-45992207D01*
X102629898Y-45952000D01*
X102360101Y-45952000D01*
X102093343Y-45992207D01*
X102093337Y-45992209D01*
X101835538Y-46071730D01*
X101592485Y-46188778D01*
X101592476Y-46188783D01*
X101409848Y-46313296D01*
X102132705Y-47036153D01*
X102116058Y-47043049D01*
X101985030Y-47130599D01*
X101873599Y-47242030D01*
X101786049Y-47373058D01*
X101779153Y-47389706D01*
X101057295Y-46667848D01*
X101003600Y-46735180D01*
X100868709Y-46968818D01*
X100770148Y-47219947D01*
X100770142Y-47219966D01*
X100710113Y-47482971D01*
X100710113Y-47482973D01*
X100689953Y-47751995D01*
X100689953Y-47752004D01*
X99700500Y-47752004D01*
X99700500Y-40224500D01*
X99720185Y-40157461D01*
X99772989Y-40111706D01*
X99824500Y-40100500D01*
X198575500Y-40100500D01*
X198642539Y-40120185D01*
G37*
G04 #@! TD.AperFunction*
M02*
