G04 #@! TF.GenerationSoftware,KiCad,Pcbnew,7.0.10*
G04 #@! TF.CreationDate,2024-02-19T19:09:54-05:00*
G04 #@! TF.ProjectId,qsd2,71736432-2e6b-4696-9361-645f70636258,rev?*
G04 #@! TF.SameCoordinates,Original*
G04 #@! TF.FileFunction,Legend,Bot*
G04 #@! TF.FilePolarity,Positive*
%FSLAX46Y46*%
G04 Gerber Fmt 4.6, Leading zero omitted, Abs format (unit mm)*
G04 Created by KiCad (PCBNEW 7.0.10) date 2024-02-19 19:09:54*
%MOMM*%
%LPD*%
G01*
G04 APERTURE LIST*
%ADD10C,0.150000*%
%ADD11C,0.120000*%
G04 APERTURE END LIST*
D10*
X133692857Y-61784580D02*
X133740476Y-61832200D01*
X133740476Y-61832200D02*
X133883333Y-61879819D01*
X133883333Y-61879819D02*
X133978571Y-61879819D01*
X133978571Y-61879819D02*
X134121428Y-61832200D01*
X134121428Y-61832200D02*
X134216666Y-61736961D01*
X134216666Y-61736961D02*
X134264285Y-61641723D01*
X134264285Y-61641723D02*
X134311904Y-61451247D01*
X134311904Y-61451247D02*
X134311904Y-61308390D01*
X134311904Y-61308390D02*
X134264285Y-61117914D01*
X134264285Y-61117914D02*
X134216666Y-61022676D01*
X134216666Y-61022676D02*
X134121428Y-60927438D01*
X134121428Y-60927438D02*
X133978571Y-60879819D01*
X133978571Y-60879819D02*
X133883333Y-60879819D01*
X133883333Y-60879819D02*
X133740476Y-60927438D01*
X133740476Y-60927438D02*
X133692857Y-60975057D01*
X133359523Y-60879819D02*
X132740476Y-60879819D01*
X132740476Y-60879819D02*
X133073809Y-61260771D01*
X133073809Y-61260771D02*
X132930952Y-61260771D01*
X132930952Y-61260771D02*
X132835714Y-61308390D01*
X132835714Y-61308390D02*
X132788095Y-61356009D01*
X132788095Y-61356009D02*
X132740476Y-61451247D01*
X132740476Y-61451247D02*
X132740476Y-61689342D01*
X132740476Y-61689342D02*
X132788095Y-61784580D01*
X132788095Y-61784580D02*
X132835714Y-61832200D01*
X132835714Y-61832200D02*
X132930952Y-61879819D01*
X132930952Y-61879819D02*
X133216666Y-61879819D01*
X133216666Y-61879819D02*
X133311904Y-61832200D01*
X133311904Y-61832200D02*
X133359523Y-61784580D01*
X132407142Y-60879819D02*
X131788095Y-60879819D01*
X131788095Y-60879819D02*
X132121428Y-61260771D01*
X132121428Y-61260771D02*
X131978571Y-61260771D01*
X131978571Y-61260771D02*
X131883333Y-61308390D01*
X131883333Y-61308390D02*
X131835714Y-61356009D01*
X131835714Y-61356009D02*
X131788095Y-61451247D01*
X131788095Y-61451247D02*
X131788095Y-61689342D01*
X131788095Y-61689342D02*
X131835714Y-61784580D01*
X131835714Y-61784580D02*
X131883333Y-61832200D01*
X131883333Y-61832200D02*
X131978571Y-61879819D01*
X131978571Y-61879819D02*
X132264285Y-61879819D01*
X132264285Y-61879819D02*
X132359523Y-61832200D01*
X132359523Y-61832200D02*
X132407142Y-61784580D01*
X134042856Y-62104819D02*
X133947618Y-62104819D01*
X133947618Y-62104819D02*
X133852380Y-62152438D01*
X133852380Y-62152438D02*
X133804761Y-62200057D01*
X133804761Y-62200057D02*
X133757142Y-62295295D01*
X133757142Y-62295295D02*
X133709523Y-62485771D01*
X133709523Y-62485771D02*
X133709523Y-62723866D01*
X133709523Y-62723866D02*
X133757142Y-62914342D01*
X133757142Y-62914342D02*
X133804761Y-63009580D01*
X133804761Y-63009580D02*
X133852380Y-63057200D01*
X133852380Y-63057200D02*
X133947618Y-63104819D01*
X133947618Y-63104819D02*
X134042856Y-63104819D01*
X134042856Y-63104819D02*
X134138094Y-63057200D01*
X134138094Y-63057200D02*
X134185713Y-63009580D01*
X134185713Y-63009580D02*
X134233332Y-62914342D01*
X134233332Y-62914342D02*
X134280951Y-62723866D01*
X134280951Y-62723866D02*
X134280951Y-62485771D01*
X134280951Y-62485771D02*
X134233332Y-62295295D01*
X134233332Y-62295295D02*
X134185713Y-62200057D01*
X134185713Y-62200057D02*
X134138094Y-62152438D01*
X134138094Y-62152438D02*
X134042856Y-62104819D01*
X133280951Y-63009580D02*
X133233332Y-63057200D01*
X133233332Y-63057200D02*
X133280951Y-63104819D01*
X133280951Y-63104819D02*
X133328570Y-63057200D01*
X133328570Y-63057200D02*
X133280951Y-63009580D01*
X133280951Y-63009580D02*
X133280951Y-63104819D01*
X132280952Y-63104819D02*
X132852380Y-63104819D01*
X132566666Y-63104819D02*
X132566666Y-62104819D01*
X132566666Y-62104819D02*
X132661904Y-62247676D01*
X132661904Y-62247676D02*
X132757142Y-62342914D01*
X132757142Y-62342914D02*
X132852380Y-62390533D01*
X131423809Y-62438152D02*
X131423809Y-63104819D01*
X131852380Y-62438152D02*
X131852380Y-62961961D01*
X131852380Y-62961961D02*
X131804761Y-63057200D01*
X131804761Y-63057200D02*
X131709523Y-63104819D01*
X131709523Y-63104819D02*
X131566666Y-63104819D01*
X131566666Y-63104819D02*
X131471428Y-63057200D01*
X131471428Y-63057200D02*
X131423809Y-63009580D01*
X130614285Y-62581009D02*
X130947618Y-62581009D01*
X130947618Y-63104819D02*
X130947618Y-62104819D01*
X130947618Y-62104819D02*
X130471428Y-62104819D01*
X146510666Y-67637580D02*
X146558285Y-67685200D01*
X146558285Y-67685200D02*
X146701142Y-67732819D01*
X146701142Y-67732819D02*
X146796380Y-67732819D01*
X146796380Y-67732819D02*
X146939237Y-67685200D01*
X146939237Y-67685200D02*
X147034475Y-67589961D01*
X147034475Y-67589961D02*
X147082094Y-67494723D01*
X147082094Y-67494723D02*
X147129713Y-67304247D01*
X147129713Y-67304247D02*
X147129713Y-67161390D01*
X147129713Y-67161390D02*
X147082094Y-66970914D01*
X147082094Y-66970914D02*
X147034475Y-66875676D01*
X147034475Y-66875676D02*
X146939237Y-66780438D01*
X146939237Y-66780438D02*
X146796380Y-66732819D01*
X146796380Y-66732819D02*
X146701142Y-66732819D01*
X146701142Y-66732819D02*
X146558285Y-66780438D01*
X146558285Y-66780438D02*
X146510666Y-66828057D01*
X145558285Y-67732819D02*
X146129713Y-67732819D01*
X145843999Y-67732819D02*
X145843999Y-66732819D01*
X145843999Y-66732819D02*
X145939237Y-66875676D01*
X145939237Y-66875676D02*
X146034475Y-66970914D01*
X146034475Y-66970914D02*
X146129713Y-67018533D01*
X144916856Y-66742819D02*
X144821618Y-66742819D01*
X144821618Y-66742819D02*
X144726380Y-66790438D01*
X144726380Y-66790438D02*
X144678761Y-66838057D01*
X144678761Y-66838057D02*
X144631142Y-66933295D01*
X144631142Y-66933295D02*
X144583523Y-67123771D01*
X144583523Y-67123771D02*
X144583523Y-67361866D01*
X144583523Y-67361866D02*
X144631142Y-67552342D01*
X144631142Y-67552342D02*
X144678761Y-67647580D01*
X144678761Y-67647580D02*
X144726380Y-67695200D01*
X144726380Y-67695200D02*
X144821618Y-67742819D01*
X144821618Y-67742819D02*
X144916856Y-67742819D01*
X144916856Y-67742819D02*
X145012094Y-67695200D01*
X145012094Y-67695200D02*
X145059713Y-67647580D01*
X145059713Y-67647580D02*
X145107332Y-67552342D01*
X145107332Y-67552342D02*
X145154951Y-67361866D01*
X145154951Y-67361866D02*
X145154951Y-67123771D01*
X145154951Y-67123771D02*
X145107332Y-66933295D01*
X145107332Y-66933295D02*
X145059713Y-66838057D01*
X145059713Y-66838057D02*
X145012094Y-66790438D01*
X145012094Y-66790438D02*
X144916856Y-66742819D01*
X144154951Y-67647580D02*
X144107332Y-67695200D01*
X144107332Y-67695200D02*
X144154951Y-67742819D01*
X144154951Y-67742819D02*
X144202570Y-67695200D01*
X144202570Y-67695200D02*
X144154951Y-67647580D01*
X144154951Y-67647580D02*
X144154951Y-67742819D01*
X143154952Y-67742819D02*
X143726380Y-67742819D01*
X143440666Y-67742819D02*
X143440666Y-66742819D01*
X143440666Y-66742819D02*
X143535904Y-66885676D01*
X143535904Y-66885676D02*
X143631142Y-66980914D01*
X143631142Y-66980914D02*
X143726380Y-67028533D01*
X142297809Y-67076152D02*
X142297809Y-67742819D01*
X142726380Y-67076152D02*
X142726380Y-67599961D01*
X142726380Y-67599961D02*
X142678761Y-67695200D01*
X142678761Y-67695200D02*
X142583523Y-67742819D01*
X142583523Y-67742819D02*
X142440666Y-67742819D01*
X142440666Y-67742819D02*
X142345428Y-67695200D01*
X142345428Y-67695200D02*
X142297809Y-67647580D01*
X141488285Y-67219009D02*
X141821618Y-67219009D01*
X141821618Y-67742819D02*
X141821618Y-66742819D01*
X141821618Y-66742819D02*
X141345428Y-66742819D01*
X139592580Y-60958142D02*
X139640200Y-60910523D01*
X139640200Y-60910523D02*
X139687819Y-60767666D01*
X139687819Y-60767666D02*
X139687819Y-60672428D01*
X139687819Y-60672428D02*
X139640200Y-60529571D01*
X139640200Y-60529571D02*
X139544961Y-60434333D01*
X139544961Y-60434333D02*
X139449723Y-60386714D01*
X139449723Y-60386714D02*
X139259247Y-60339095D01*
X139259247Y-60339095D02*
X139116390Y-60339095D01*
X139116390Y-60339095D02*
X138925914Y-60386714D01*
X138925914Y-60386714D02*
X138830676Y-60434333D01*
X138830676Y-60434333D02*
X138735438Y-60529571D01*
X138735438Y-60529571D02*
X138687819Y-60672428D01*
X138687819Y-60672428D02*
X138687819Y-60767666D01*
X138687819Y-60767666D02*
X138735438Y-60910523D01*
X138735438Y-60910523D02*
X138783057Y-60958142D01*
X139687819Y-61910523D02*
X139687819Y-61339095D01*
X139687819Y-61624809D02*
X138687819Y-61624809D01*
X138687819Y-61624809D02*
X138830676Y-61529571D01*
X138830676Y-61529571D02*
X138925914Y-61434333D01*
X138925914Y-61434333D02*
X138973533Y-61339095D01*
X138687819Y-62529571D02*
X138687819Y-62624809D01*
X138687819Y-62624809D02*
X138735438Y-62720047D01*
X138735438Y-62720047D02*
X138783057Y-62767666D01*
X138783057Y-62767666D02*
X138878295Y-62815285D01*
X138878295Y-62815285D02*
X139068771Y-62862904D01*
X139068771Y-62862904D02*
X139306866Y-62862904D01*
X139306866Y-62862904D02*
X139497342Y-62815285D01*
X139497342Y-62815285D02*
X139592580Y-62767666D01*
X139592580Y-62767666D02*
X139640200Y-62720047D01*
X139640200Y-62720047D02*
X139687819Y-62624809D01*
X139687819Y-62624809D02*
X139687819Y-62529571D01*
X139687819Y-62529571D02*
X139640200Y-62434333D01*
X139640200Y-62434333D02*
X139592580Y-62386714D01*
X139592580Y-62386714D02*
X139497342Y-62339095D01*
X139497342Y-62339095D02*
X139306866Y-62291476D01*
X139306866Y-62291476D02*
X139068771Y-62291476D01*
X139068771Y-62291476D02*
X138878295Y-62339095D01*
X138878295Y-62339095D02*
X138783057Y-62386714D01*
X138783057Y-62386714D02*
X138735438Y-62434333D01*
X138735438Y-62434333D02*
X138687819Y-62529571D01*
X138687819Y-56158143D02*
X138687819Y-56253381D01*
X138687819Y-56253381D02*
X138735438Y-56348619D01*
X138735438Y-56348619D02*
X138783057Y-56396238D01*
X138783057Y-56396238D02*
X138878295Y-56443857D01*
X138878295Y-56443857D02*
X139068771Y-56491476D01*
X139068771Y-56491476D02*
X139306866Y-56491476D01*
X139306866Y-56491476D02*
X139497342Y-56443857D01*
X139497342Y-56443857D02*
X139592580Y-56396238D01*
X139592580Y-56396238D02*
X139640200Y-56348619D01*
X139640200Y-56348619D02*
X139687819Y-56253381D01*
X139687819Y-56253381D02*
X139687819Y-56158143D01*
X139687819Y-56158143D02*
X139640200Y-56062905D01*
X139640200Y-56062905D02*
X139592580Y-56015286D01*
X139592580Y-56015286D02*
X139497342Y-55967667D01*
X139497342Y-55967667D02*
X139306866Y-55920048D01*
X139306866Y-55920048D02*
X139068771Y-55920048D01*
X139068771Y-55920048D02*
X138878295Y-55967667D01*
X138878295Y-55967667D02*
X138783057Y-56015286D01*
X138783057Y-56015286D02*
X138735438Y-56062905D01*
X138735438Y-56062905D02*
X138687819Y-56158143D01*
X139592580Y-56920048D02*
X139640200Y-56967667D01*
X139640200Y-56967667D02*
X139687819Y-56920048D01*
X139687819Y-56920048D02*
X139640200Y-56872429D01*
X139640200Y-56872429D02*
X139592580Y-56920048D01*
X139592580Y-56920048D02*
X139687819Y-56920048D01*
X139687819Y-57920047D02*
X139687819Y-57348619D01*
X139687819Y-57634333D02*
X138687819Y-57634333D01*
X138687819Y-57634333D02*
X138830676Y-57539095D01*
X138830676Y-57539095D02*
X138925914Y-57443857D01*
X138925914Y-57443857D02*
X138973533Y-57348619D01*
X139021152Y-58777190D02*
X139687819Y-58777190D01*
X139021152Y-58348619D02*
X139544961Y-58348619D01*
X139544961Y-58348619D02*
X139640200Y-58396238D01*
X139640200Y-58396238D02*
X139687819Y-58491476D01*
X139687819Y-58491476D02*
X139687819Y-58634333D01*
X139687819Y-58634333D02*
X139640200Y-58729571D01*
X139640200Y-58729571D02*
X139592580Y-58777190D01*
X139164009Y-59586714D02*
X139164009Y-59253381D01*
X139687819Y-59253381D02*
X138687819Y-59253381D01*
X138687819Y-59253381D02*
X138687819Y-59729571D01*
X146819857Y-50325580D02*
X146867476Y-50373200D01*
X146867476Y-50373200D02*
X147010333Y-50420819D01*
X147010333Y-50420819D02*
X147105571Y-50420819D01*
X147105571Y-50420819D02*
X147248428Y-50373200D01*
X147248428Y-50373200D02*
X147343666Y-50277961D01*
X147343666Y-50277961D02*
X147391285Y-50182723D01*
X147391285Y-50182723D02*
X147438904Y-49992247D01*
X147438904Y-49992247D02*
X147438904Y-49849390D01*
X147438904Y-49849390D02*
X147391285Y-49658914D01*
X147391285Y-49658914D02*
X147343666Y-49563676D01*
X147343666Y-49563676D02*
X147248428Y-49468438D01*
X147248428Y-49468438D02*
X147105571Y-49420819D01*
X147105571Y-49420819D02*
X147010333Y-49420819D01*
X147010333Y-49420819D02*
X146867476Y-49468438D01*
X146867476Y-49468438D02*
X146819857Y-49516057D01*
X146486523Y-49420819D02*
X145867476Y-49420819D01*
X145867476Y-49420819D02*
X146200809Y-49801771D01*
X146200809Y-49801771D02*
X146057952Y-49801771D01*
X146057952Y-49801771D02*
X145962714Y-49849390D01*
X145962714Y-49849390D02*
X145915095Y-49897009D01*
X145915095Y-49897009D02*
X145867476Y-49992247D01*
X145867476Y-49992247D02*
X145867476Y-50230342D01*
X145867476Y-50230342D02*
X145915095Y-50325580D01*
X145915095Y-50325580D02*
X145962714Y-50373200D01*
X145962714Y-50373200D02*
X146057952Y-50420819D01*
X146057952Y-50420819D02*
X146343666Y-50420819D01*
X146343666Y-50420819D02*
X146438904Y-50373200D01*
X146438904Y-50373200D02*
X146486523Y-50325580D01*
X144915095Y-50420819D02*
X145486523Y-50420819D01*
X145200809Y-50420819D02*
X145200809Y-49420819D01*
X145200809Y-49420819D02*
X145296047Y-49563676D01*
X145296047Y-49563676D02*
X145391285Y-49658914D01*
X145391285Y-49658914D02*
X145486523Y-49706533D01*
X147819856Y-53120819D02*
X147724618Y-53120819D01*
X147724618Y-53120819D02*
X147629380Y-53168438D01*
X147629380Y-53168438D02*
X147581761Y-53216057D01*
X147581761Y-53216057D02*
X147534142Y-53311295D01*
X147534142Y-53311295D02*
X147486523Y-53501771D01*
X147486523Y-53501771D02*
X147486523Y-53739866D01*
X147486523Y-53739866D02*
X147534142Y-53930342D01*
X147534142Y-53930342D02*
X147581761Y-54025580D01*
X147581761Y-54025580D02*
X147629380Y-54073200D01*
X147629380Y-54073200D02*
X147724618Y-54120819D01*
X147724618Y-54120819D02*
X147819856Y-54120819D01*
X147819856Y-54120819D02*
X147915094Y-54073200D01*
X147915094Y-54073200D02*
X147962713Y-54025580D01*
X147962713Y-54025580D02*
X148010332Y-53930342D01*
X148010332Y-53930342D02*
X148057951Y-53739866D01*
X148057951Y-53739866D02*
X148057951Y-53501771D01*
X148057951Y-53501771D02*
X148010332Y-53311295D01*
X148010332Y-53311295D02*
X147962713Y-53216057D01*
X147962713Y-53216057D02*
X147915094Y-53168438D01*
X147915094Y-53168438D02*
X147819856Y-53120819D01*
X147057951Y-54025580D02*
X147010332Y-54073200D01*
X147010332Y-54073200D02*
X147057951Y-54120819D01*
X147057951Y-54120819D02*
X147105570Y-54073200D01*
X147105570Y-54073200D02*
X147057951Y-54025580D01*
X147057951Y-54025580D02*
X147057951Y-54120819D01*
X146057952Y-54120819D02*
X146629380Y-54120819D01*
X146343666Y-54120819D02*
X146343666Y-53120819D01*
X146343666Y-53120819D02*
X146438904Y-53263676D01*
X146438904Y-53263676D02*
X146534142Y-53358914D01*
X146534142Y-53358914D02*
X146629380Y-53406533D01*
X145200809Y-53454152D02*
X145200809Y-54120819D01*
X145629380Y-53454152D02*
X145629380Y-53977961D01*
X145629380Y-53977961D02*
X145581761Y-54073200D01*
X145581761Y-54073200D02*
X145486523Y-54120819D01*
X145486523Y-54120819D02*
X145343666Y-54120819D01*
X145343666Y-54120819D02*
X145248428Y-54073200D01*
X145248428Y-54073200D02*
X145200809Y-54025580D01*
X144391285Y-53597009D02*
X144724618Y-53597009D01*
X144724618Y-54120819D02*
X144724618Y-53120819D01*
X144724618Y-53120819D02*
X144248428Y-53120819D01*
X167925819Y-71939642D02*
X167449628Y-71606309D01*
X167925819Y-71368214D02*
X166925819Y-71368214D01*
X166925819Y-71368214D02*
X166925819Y-71749166D01*
X166925819Y-71749166D02*
X166973438Y-71844404D01*
X166973438Y-71844404D02*
X167021057Y-71892023D01*
X167021057Y-71892023D02*
X167116295Y-71939642D01*
X167116295Y-71939642D02*
X167259152Y-71939642D01*
X167259152Y-71939642D02*
X167354390Y-71892023D01*
X167354390Y-71892023D02*
X167402009Y-71844404D01*
X167402009Y-71844404D02*
X167449628Y-71749166D01*
X167449628Y-71749166D02*
X167449628Y-71368214D01*
X167925819Y-72892023D02*
X167925819Y-72320595D01*
X167925819Y-72606309D02*
X166925819Y-72606309D01*
X166925819Y-72606309D02*
X167068676Y-72511071D01*
X167068676Y-72511071D02*
X167163914Y-72415833D01*
X167163914Y-72415833D02*
X167211533Y-72320595D01*
X166925819Y-73749166D02*
X166925819Y-73558690D01*
X166925819Y-73558690D02*
X166973438Y-73463452D01*
X166973438Y-73463452D02*
X167021057Y-73415833D01*
X167021057Y-73415833D02*
X167163914Y-73320595D01*
X167163914Y-73320595D02*
X167354390Y-73272976D01*
X167354390Y-73272976D02*
X167735342Y-73272976D01*
X167735342Y-73272976D02*
X167830580Y-73320595D01*
X167830580Y-73320595D02*
X167878200Y-73368214D01*
X167878200Y-73368214D02*
X167925819Y-73463452D01*
X167925819Y-73463452D02*
X167925819Y-73653928D01*
X167925819Y-73653928D02*
X167878200Y-73749166D01*
X167878200Y-73749166D02*
X167830580Y-73796785D01*
X167830580Y-73796785D02*
X167735342Y-73844404D01*
X167735342Y-73844404D02*
X167497247Y-73844404D01*
X167497247Y-73844404D02*
X167402009Y-73796785D01*
X167402009Y-73796785D02*
X167354390Y-73749166D01*
X167354390Y-73749166D02*
X167306771Y-73653928D01*
X167306771Y-73653928D02*
X167306771Y-73463452D01*
X167306771Y-73463452D02*
X167354390Y-73368214D01*
X167354390Y-73368214D02*
X167402009Y-73320595D01*
X167402009Y-73320595D02*
X167497247Y-73272976D01*
X171565819Y-71296786D02*
X170565819Y-71296786D01*
X170565819Y-71296786D02*
X170565819Y-71534881D01*
X170565819Y-71534881D02*
X170613438Y-71677738D01*
X170613438Y-71677738D02*
X170708676Y-71772976D01*
X170708676Y-71772976D02*
X170803914Y-71820595D01*
X170803914Y-71820595D02*
X170994390Y-71868214D01*
X170994390Y-71868214D02*
X171137247Y-71868214D01*
X171137247Y-71868214D02*
X171327723Y-71820595D01*
X171327723Y-71820595D02*
X171422961Y-71772976D01*
X171422961Y-71772976D02*
X171518200Y-71677738D01*
X171518200Y-71677738D02*
X171565819Y-71534881D01*
X171565819Y-71534881D02*
X171565819Y-71296786D01*
X171565819Y-72296786D02*
X170565819Y-72296786D01*
X170565819Y-72296786D02*
X171565819Y-72868214D01*
X171565819Y-72868214D02*
X170565819Y-72868214D01*
X171565819Y-73344405D02*
X170565819Y-73344405D01*
X170565819Y-73344405D02*
X170565819Y-73725357D01*
X170565819Y-73725357D02*
X170613438Y-73820595D01*
X170613438Y-73820595D02*
X170661057Y-73868214D01*
X170661057Y-73868214D02*
X170756295Y-73915833D01*
X170756295Y-73915833D02*
X170899152Y-73915833D01*
X170899152Y-73915833D02*
X170994390Y-73868214D01*
X170994390Y-73868214D02*
X171042009Y-73820595D01*
X171042009Y-73820595D02*
X171089628Y-73725357D01*
X171089628Y-73725357D02*
X171089628Y-73344405D01*
D11*
X134111252Y-60460000D02*
X132688748Y-60460000D01*
X134111252Y-58640000D02*
X132688748Y-58640000D01*
X144905252Y-69998000D02*
X143482748Y-69998000D01*
X144905252Y-68178000D02*
X143482748Y-68178000D01*
X141621748Y-58541000D02*
X143044252Y-58541000D01*
X141621748Y-60361000D02*
X143044252Y-60361000D01*
X146888252Y-52726000D02*
X145465748Y-52726000D01*
X146888252Y-50906000D02*
X145465748Y-50906000D01*
X170201000Y-71855436D02*
X170201000Y-73309564D01*
X168381000Y-71855436D02*
X168381000Y-73309564D01*
M02*
