M48
INCH,TZ
T1C0.0197
T2C0.0315
T3C0.0394
T4C0.0591
T5C0.0630
%
G90
G05
T1
X39587Y-41949
X39606Y-21801
X39646Y-34242
X40630Y-22648
X42057Y-36467
X42283Y-44547
X43396Y-24163
X44242Y-32923
X44724Y-22244
X45758Y-18455
X45778Y-17274
X46142Y-21240
X46191Y-22313
X47244Y-17825
X47244Y-19075
X47244Y-19764
X48061Y-19065
X48081Y-17805
X48130Y-26949
X48533Y-31516
X48858Y-22313
X48950Y-23600
X49400Y-21063
X49951Y-25945
X50197Y-29913
X50394Y-24892
X50453Y-16063
X50874Y-30370
X51063Y-18100
X51437Y-22963
X51450Y-28650
X51654Y-21024
X52126Y-28110
X52195Y-27126
X52531Y-30902
X52717Y-28494
X52874Y-26447
X52992Y-19606
X53421Y-27630
X53957Y-22008
X54248Y-32992
X54331Y-23071
X54340Y-24970
X54382Y-26753
X54390Y-25719
X54636Y-21959
X55020Y-24301
X55522Y-27648
X55531Y-24429
X55673Y-20622
X55689Y-23071
X55700Y-34050
X55720Y-26230
X55740Y-25581
X55886Y-26900
X56469Y-22496
X56476Y-29457
X56590Y-26400
X56634Y-23071
X56673Y-25719
X56693Y-21681
X56740Y-20150
X56750Y-24560
X56752Y-36506
X57283Y-21693
X57283Y-24301
X57894Y-24892
X57923Y-26486
X57933Y-23327
X57992Y-20965
X58051Y-44508
X58120Y-24439
X58224Y-25650
X58248Y-27047
X58606Y-23591
X58748Y-22157
X58829Y-28238
X59173Y-30315
X59969Y-25146
X60000Y-27313
X60630Y-24016
X60856Y-31368
X61299Y-25839
X61307Y-28217
X62839Y-33524
X63346Y-32421
X63642Y-33435
X63652Y-29803
X64400Y-25925
X64419Y-27746
X64528Y-32382
X65010Y-23041
X65394Y-32372
X65500Y-26850
X65551Y-25719
X65850Y-27850
X66000Y-32150
X66526Y-25728
X67100Y-25550
X67400Y-29500
X67697Y-20118
X67805Y-31004
X67825Y-22707
X68500Y-33750
X68602Y-16161
X69400Y-27850
X69409Y-22059
X69419Y-25738
X69793Y-29616
X70350Y-24000
X70758Y-29045
X72451Y-36506
X75236Y-44547
X77648Y-23858
X77661Y-16315
X77677Y-32402
X77894Y-42244
T2
X46417Y-24321
X46417Y-25108
X47579Y-32087
X47579Y-32874
X49232Y-28465
X49232Y-29252
T3
X40634Y-24606
X40634Y-25606
X40634Y-26606
X40634Y-27606
X40634Y-28606
X40634Y-29606
X40634Y-30606
X40634Y-31606
X41634Y-24606
X41634Y-25606
X41634Y-26606
X41634Y-27606
X41634Y-28606
X41634Y-29606
X41634Y-30606
X41634Y-31606
T4
X41392Y-17437
X56280Y-17463
T5
X40352Y-16467
X40352Y-18467
X42352Y-16467
X42352Y-18467
X55240Y-16492
X55240Y-18492
X57240Y-16492
X57240Y-18492
T0
M30
