G04 #@! TF.GenerationSoftware,KiCad,Pcbnew,7.0.8*
G04 #@! TF.CreationDate,2023-10-18T13:56:24-04:00*
G04 #@! TF.ProjectId,qsd2_iamp_3,71736432-5f69-4616-9d70-5f332e6b6963,rev?*
G04 #@! TF.SameCoordinates,Original*
G04 #@! TF.FileFunction,Soldermask,Top*
G04 #@! TF.FilePolarity,Negative*
%FSLAX46Y46*%
G04 Gerber Fmt 4.6, Leading zero omitted, Abs format (unit mm)*
G04 Created by KiCad (PCBNEW 7.0.8) date 2023-10-18 13:56:24*
%MOMM*%
%LPD*%
G01*
G04 APERTURE LIST*
G04 Aperture macros list*
%AMRoundRect*
0 Rectangle with rounded corners*
0 $1 Rounding radius*
0 $2 $3 $4 $5 $6 $7 $8 $9 X,Y pos of 4 corners*
0 Add a 4 corners polygon primitive as box body*
4,1,4,$2,$3,$4,$5,$6,$7,$8,$9,$2,$3,0*
0 Add four circle primitives for the rounded corners*
1,1,$1+$1,$2,$3*
1,1,$1+$1,$4,$5*
1,1,$1+$1,$6,$7*
1,1,$1+$1,$8,$9*
0 Add four rect primitives between the rounded corners*
20,1,$1+$1,$2,$3,$4,$5,0*
20,1,$1+$1,$4,$5,$6,$7,0*
20,1,$1+$1,$6,$7,$8,$9,0*
20,1,$1+$1,$8,$9,$2,$3,0*%
%AMFreePoly0*
4,1,9,3.862500,-0.866500,0.737500,-0.866500,0.737500,-0.450000,-0.737500,-0.450000,-0.737500,0.450000,0.737500,0.450000,0.737500,0.866500,3.862500,0.866500,3.862500,-0.866500,3.862500,-0.866500,$1*%
G04 Aperture macros list end*
%ADD10RoundRect,0.250000X0.312500X0.625000X-0.312500X0.625000X-0.312500X-0.625000X0.312500X-0.625000X0*%
%ADD11RoundRect,0.250000X-0.312500X-0.625000X0.312500X-0.625000X0.312500X0.625000X-0.312500X0.625000X0*%
%ADD12RoundRect,0.250000X-0.275000X-0.700000X0.275000X-0.700000X0.275000X0.700000X-0.275000X0.700000X0*%
%ADD13RoundRect,0.250000X0.625000X-0.312500X0.625000X0.312500X-0.625000X0.312500X-0.625000X-0.312500X0*%
%ADD14RoundRect,0.150000X-0.150000X0.512500X-0.150000X-0.512500X0.150000X-0.512500X0.150000X0.512500X0*%
%ADD15RoundRect,0.250000X0.325000X0.650000X-0.325000X0.650000X-0.325000X-0.650000X0.325000X-0.650000X0*%
%ADD16RoundRect,0.250000X-0.325000X-0.650000X0.325000X-0.650000X0.325000X0.650000X-0.325000X0.650000X0*%
%ADD17R,1.600000X1.600000*%
%ADD18C,1.600000*%
%ADD19R,1.300000X0.900000*%
%ADD20FreePoly0,0.000000*%
%ADD21R,1.000000X0.400000*%
%ADD22R,1.969999X0.558000*%
%ADD23C,2.600000*%
%ADD24C,2.500000*%
%ADD25RoundRect,0.250000X-0.625000X0.312500X-0.625000X-0.312500X0.625000X-0.312500X0.625000X0.312500X0*%
%ADD26R,0.812800X0.889000*%
%ADD27RoundRect,0.020500X0.764500X0.184500X-0.764500X0.184500X-0.764500X-0.184500X0.764500X-0.184500X0*%
%ADD28RoundRect,0.250000X-0.650000X0.325000X-0.650000X-0.325000X0.650000X-0.325000X0.650000X0.325000X0*%
%ADD29C,1.700000*%
%ADD30R,2.800000X2.200000*%
%ADD31R,2.800000X2.800000*%
%ADD32R,2.800000X2.600000*%
%ADD33C,1.000000*%
%ADD34RoundRect,0.150000X-0.512500X-0.150000X0.512500X-0.150000X0.512500X0.150000X-0.512500X0.150000X0*%
%ADD35R,1.650000X2.540000*%
%ADD36RoundRect,0.250000X-0.600000X-0.600000X0.600000X-0.600000X0.600000X0.600000X-0.600000X0.600000X0*%
G04 APERTURE END LIST*
D10*
X133112500Y-51150000D03*
X130187500Y-51150000D03*
D11*
X130800000Y-47910000D03*
X133725000Y-47910000D03*
D12*
X111650000Y-77700000D03*
X114800000Y-77700000D03*
D13*
X173925000Y-56000000D03*
X173925000Y-53075000D03*
D11*
X117362500Y-67700000D03*
X120287500Y-67700000D03*
D14*
X150775000Y-61600000D03*
X149825000Y-61600000D03*
X148875000Y-61600000D03*
X148875000Y-63875000D03*
X150775000Y-63875000D03*
D15*
X147950000Y-70450000D03*
X145000000Y-70450000D03*
D11*
X152587500Y-74200000D03*
X155512500Y-74200000D03*
D16*
X170425000Y-62425000D03*
X173375000Y-62425000D03*
X167775000Y-76900000D03*
X170725000Y-76900000D03*
D17*
X125050000Y-74300000D03*
D18*
X125050000Y-72300000D03*
D16*
X120050000Y-58425000D03*
X123000000Y-58425000D03*
D12*
X111675000Y-67600000D03*
X114825000Y-67600000D03*
D16*
X111600000Y-45362500D03*
X114550000Y-45362500D03*
D11*
X153991900Y-59186200D03*
X156916900Y-59186200D03*
D13*
X127600000Y-49475000D03*
X127600000Y-46550000D03*
D17*
X120850000Y-81500000D03*
D18*
X120850000Y-83500000D03*
D16*
X170600000Y-59475000D03*
X173550000Y-59475000D03*
D19*
X117825000Y-45375000D03*
D20*
X117912500Y-46875000D03*
D19*
X117825000Y-48375000D03*
D11*
X129197500Y-80000000D03*
X132122500Y-80000000D03*
D16*
X167725000Y-56600000D03*
X170675000Y-56600000D03*
D21*
X139750000Y-63375000D03*
X139750000Y-64025000D03*
X139750000Y-64675000D03*
X139750000Y-65325000D03*
X139750000Y-65975000D03*
X139750000Y-66625000D03*
X139750000Y-67275000D03*
X139750000Y-67925000D03*
X145550000Y-67925000D03*
X145550000Y-67275000D03*
X145550000Y-66625000D03*
X145550000Y-65975000D03*
X145550000Y-65325000D03*
X145550000Y-64675000D03*
X145550000Y-64025000D03*
X145550000Y-63375000D03*
D12*
X111650000Y-72700000D03*
X114800000Y-72700000D03*
D13*
X159925000Y-63437500D03*
X159925000Y-60512500D03*
D22*
X162822400Y-59875000D03*
X162822400Y-61145000D03*
X162822400Y-62415000D03*
X162822400Y-63685000D03*
X167750000Y-63685000D03*
X167750000Y-62415000D03*
X167750000Y-61145000D03*
X167750000Y-59875000D03*
D23*
X102495000Y-41825000D03*
X102495000Y-46905000D03*
X107575000Y-41825000D03*
X107575000Y-46905000D03*
D24*
X105135000Y-44290000D03*
D22*
X159975000Y-77050000D03*
X159975000Y-78320000D03*
X159975000Y-79590000D03*
X159975000Y-80860000D03*
X164902600Y-80860000D03*
X164902600Y-79590000D03*
X164902600Y-78320000D03*
X164902600Y-77050000D03*
D11*
X117950000Y-77700000D03*
X120875000Y-77700000D03*
D25*
X156700000Y-76737500D03*
X156700000Y-79662500D03*
D16*
X117975000Y-71100000D03*
X120925000Y-71100000D03*
D26*
X169624998Y-81750000D03*
X167575000Y-81750000D03*
X168599999Y-83639999D03*
D27*
X145490000Y-60550000D03*
X145490000Y-59900000D03*
X145490000Y-59250000D03*
X145490000Y-58600000D03*
X145490000Y-57950000D03*
X145490000Y-57300000D03*
X145490000Y-56650000D03*
X139750000Y-56650000D03*
X139750000Y-57300000D03*
X139750000Y-57950000D03*
X139750000Y-58600000D03*
X139750000Y-59250000D03*
X139750000Y-59900000D03*
X139750000Y-60550000D03*
D13*
X115275000Y-55050000D03*
X115275000Y-52125000D03*
D28*
X150620000Y-65980000D03*
X150620000Y-68930000D03*
D11*
X129220000Y-74290000D03*
X132145000Y-74290000D03*
D16*
X103175000Y-55400000D03*
X106125000Y-55400000D03*
D23*
X140310000Y-41890000D03*
X140310000Y-46970000D03*
X145390000Y-41890000D03*
X145390000Y-46970000D03*
D24*
X142950000Y-44355000D03*
D16*
X154250000Y-70225000D03*
X157200000Y-70225000D03*
D29*
X181230000Y-43930000D03*
X181230000Y-50930000D03*
D30*
X177530000Y-42830000D03*
D31*
X177530000Y-52230000D03*
D30*
X184930000Y-44830000D03*
D32*
X181980000Y-56230000D03*
D28*
X136650000Y-46975000D03*
X136650000Y-49925000D03*
D13*
X124325000Y-49475000D03*
X124325000Y-46550000D03*
D16*
X167575000Y-79600000D03*
X170525000Y-79600000D03*
D11*
X129187500Y-65000000D03*
X132112500Y-65000000D03*
D33*
X141700000Y-54850000D03*
D26*
X172474998Y-64975000D03*
X170425000Y-64975000D03*
X171449999Y-66864999D03*
D16*
X171450000Y-69125000D03*
X174400000Y-69125000D03*
X118325000Y-52150000D03*
X121275000Y-52150000D03*
D10*
X176025000Y-76900000D03*
X173100000Y-76900000D03*
D16*
X164950000Y-74100000D03*
X167900000Y-74100000D03*
D28*
X135325000Y-57250000D03*
X135325000Y-60200000D03*
D16*
X154250000Y-67175000D03*
X157200000Y-67175000D03*
D15*
X181475000Y-76875000D03*
X178525000Y-76875000D03*
D11*
X154262500Y-64125000D03*
X157187500Y-64125000D03*
D28*
X112050000Y-52100000D03*
X112050000Y-55050000D03*
D34*
X137500000Y-52375000D03*
X137500000Y-53325000D03*
X137500000Y-54275000D03*
X139775000Y-54275000D03*
X139775000Y-52375000D03*
D33*
X151560000Y-59180000D03*
D16*
X168400000Y-53075000D03*
X171350000Y-53075000D03*
D35*
X131530000Y-55800000D03*
X128990000Y-55800000D03*
X126450000Y-55800000D03*
X126450000Y-60880000D03*
X128990000Y-60880000D03*
X131530000Y-60880000D03*
D28*
X114850000Y-80700000D03*
X114850000Y-83650000D03*
D25*
X135650000Y-62687500D03*
X135650000Y-65612500D03*
D28*
X145025000Y-73325000D03*
X145025000Y-76275000D03*
X148300000Y-73325000D03*
X148300000Y-76275000D03*
D11*
X123987500Y-52150000D03*
X126912500Y-52150000D03*
D25*
X152550000Y-77500000D03*
X152550000Y-80425000D03*
D17*
X117900000Y-63775000D03*
D18*
X117900000Y-61775000D03*
D28*
X113175000Y-61375000D03*
X113175000Y-64325000D03*
D36*
X103210000Y-62500000D03*
D29*
X105750000Y-62500000D03*
X103210000Y-65040000D03*
X105750000Y-65040000D03*
X103210000Y-67580000D03*
X105750000Y-67580000D03*
X103210000Y-70120000D03*
X105750000Y-70120000D03*
X103210000Y-72660000D03*
X105750000Y-72660000D03*
X103210000Y-75200000D03*
X105750000Y-75200000D03*
X103210000Y-77740000D03*
X105750000Y-77740000D03*
X103210000Y-80280000D03*
X105750000Y-80280000D03*
D11*
X117987500Y-74300000D03*
X120912500Y-74300000D03*
D16*
X168600000Y-85700000D03*
X171550000Y-85700000D03*
M02*
