G04 #@! TF.GenerationSoftware,KiCad,Pcbnew,10.0.3*
G04 #@! TF.CreationDate,2026-05-21T08:31:26-04:00*
G04 #@! TF.ProjectId,qsd2,71736432-2e6b-4696-9361-645f70636258,rev?*
G04 #@! TF.SameCoordinates,Original*
G04 #@! TF.FileFunction,Copper,L2,Bot*
G04 #@! TF.FilePolarity,Positive*
%FSLAX46Y46*%
G04 Gerber Fmt 4.6, Leading zero omitted, Abs format (unit mm)*
G04 Created by KiCad (PCBNEW 10.0.3) date 2026-05-21 08:31:26*
%MOMM*%
%LPD*%
G01*
G04 APERTURE LIST*
G04 Aperture macros list*
%AMRoundRect*
0 Rectangle with rounded corners*
0 $1 Rounding radius*
0 $2 $3 $4 $5 $6 $7 $8 $9 X,Y pos of 4 corners*
0 Add a 4 corners polygon primitive as box body*
4,1,4,$2,$3,$4,$5,$6,$7,$8,$9,$2,$3,0*
0 Add four circle primitives for the rounded corners*
1,1,$1+$1,$2,$3*
1,1,$1+$1,$4,$5*
1,1,$1+$1,$6,$7*
1,1,$1+$1,$8,$9*
0 Add four rect primitives between the rounded corners*
20,1,$1+$1,$2,$3,$4,$5,0*
20,1,$1+$1,$4,$5,$6,$7,0*
20,1,$1+$1,$6,$7,$8,$9,0*
20,1,$1+$1,$8,$9,$2,$3,0*%
G04 Aperture macros list end*
G04 #@! TA.AperFunction,ComponentPad*
%ADD10R,1.700000X1.700000*%
G04 #@! TD*
G04 #@! TA.AperFunction,ComponentPad*
%ADD11C,2.600000*%
G04 #@! TD*
G04 #@! TA.AperFunction,ComponentPad*
%ADD12C,2.500000*%
G04 #@! TD*
G04 #@! TA.AperFunction,ComponentPad*
%ADD13RoundRect,0.250000X-0.600000X-0.600000X0.600000X-0.600000X0.600000X0.600000X-0.600000X0.600000X0*%
G04 #@! TD*
G04 #@! TA.AperFunction,ComponentPad*
%ADD14C,1.700000*%
G04 #@! TD*
G04 #@! TA.AperFunction,ComponentPad*
%ADD15C,2.100000*%
G04 #@! TD*
G04 #@! TA.AperFunction,SMDPad,CuDef*
%ADD16RoundRect,0.250000X0.325000X0.650000X-0.325000X0.650000X-0.325000X-0.650000X0.325000X-0.650000X0*%
G04 #@! TD*
G04 #@! TA.AperFunction,SMDPad,CuDef*
%ADD17RoundRect,0.250000X-0.325000X-0.650000X0.325000X-0.650000X0.325000X0.650000X-0.325000X0.650000X0*%
G04 #@! TD*
G04 #@! TA.AperFunction,SMDPad,CuDef*
%ADD18RoundRect,0.250000X0.650000X-0.325000X0.650000X0.325000X-0.650000X0.325000X-0.650000X-0.325000X0*%
G04 #@! TD*
G04 #@! TA.AperFunction,SMDPad,CuDef*
%ADD19RoundRect,0.250000X-0.625000X0.312500X-0.625000X-0.312500X0.625000X-0.312500X0.625000X0.312500X0*%
G04 #@! TD*
G04 #@! TA.AperFunction,ViaPad*
%ADD20C,1.000000*%
G04 #@! TD*
G04 #@! TA.AperFunction,Conductor*
%ADD21C,0.250000*%
G04 #@! TD*
G04 #@! TA.AperFunction,Conductor*
%ADD22C,0.500000*%
G04 #@! TD*
G04 APERTURE END LIST*
D10*
X192400000Y-64800000D03*
D11*
X102495000Y-42672000D03*
X102495000Y-47752000D03*
X107575000Y-42672000D03*
X107575000Y-47752000D03*
D12*
X105035000Y-45212000D03*
D11*
X148590000Y-42672000D03*
X148590000Y-47752000D03*
X153670000Y-42672000D03*
X153670000Y-47752000D03*
D12*
X151130000Y-45212000D03*
D13*
X103210000Y-62500000D03*
D14*
X105750000Y-62500000D03*
X103210000Y-65040000D03*
X105750000Y-65040000D03*
X103210000Y-67580000D03*
X105750000Y-67580000D03*
X103210000Y-70120000D03*
X105750000Y-70120000D03*
X103210000Y-72660000D03*
X105750000Y-72660000D03*
X103210000Y-75200000D03*
X105750000Y-75200000D03*
X103210000Y-77740000D03*
X105750000Y-77740000D03*
X103210000Y-80280000D03*
X105750000Y-80280000D03*
D15*
X195000000Y-86600000D03*
X195000000Y-89100000D03*
X195000000Y-91600000D03*
X195000000Y-94100000D03*
D16*
X133350000Y-59550000D03*
X130400000Y-59550000D03*
X145669000Y-69088000D03*
X142719000Y-69088000D03*
D17*
X142250000Y-59500000D03*
X145200000Y-59500000D03*
D18*
X152350000Y-70825000D03*
X152350000Y-67875000D03*
D19*
X169291000Y-71120000D03*
X169291000Y-74045000D03*
D20*
X121500000Y-87100000D03*
X193300000Y-84900000D03*
X186600000Y-82100000D03*
X177300000Y-79000000D03*
X195000000Y-77500000D03*
X174800000Y-69500000D03*
X120000000Y-45275000D03*
X122075000Y-48425000D03*
X152000000Y-63800000D03*
X133700000Y-82300000D03*
X112330000Y-64840000D03*
X197850000Y-107300000D03*
X126100000Y-75800000D03*
X159400000Y-68800000D03*
X172275000Y-57675000D03*
X150350000Y-73100000D03*
X143250000Y-64350000D03*
X108030000Y-55410000D03*
X166100000Y-82225000D03*
X116960000Y-62450000D03*
X166370000Y-69950000D03*
X133400000Y-63700000D03*
X141800000Y-63950000D03*
X114950000Y-69450000D03*
X166300000Y-53050000D03*
X161600000Y-85050000D03*
X175260000Y-62440000D03*
X122500000Y-71150000D03*
X146800000Y-60000000D03*
X143600000Y-77300000D03*
X124400000Y-75850000D03*
X135300000Y-77650000D03*
X197225000Y-60600000D03*
X196150000Y-47050000D03*
X120000000Y-50200000D03*
X191100000Y-113150000D03*
X111100000Y-75020000D03*
X163600000Y-51800000D03*
X118700000Y-71550000D03*
X177275000Y-75225000D03*
X132500000Y-65900000D03*
X147200000Y-75950000D03*
X114250000Y-73900000D03*
X130500000Y-90000000D03*
X142650000Y-55050000D03*
X125400000Y-67150000D03*
X160900000Y-82350000D03*
X117200000Y-53950000D03*
X175300000Y-94600000D03*
X123500000Y-62100000D03*
X134550000Y-54900000D03*
X119900000Y-66000000D03*
X100600000Y-55375000D03*
X152800000Y-66050000D03*
X116600000Y-59150000D03*
X163900000Y-82250000D03*
X172300000Y-85050000D03*
X116275000Y-43875000D03*
X172225000Y-78750000D03*
X124300000Y-79800000D03*
X174250000Y-41050000D03*
X184300000Y-48050000D03*
X100700000Y-86975000D03*
X133700000Y-85100000D03*
X138050000Y-77300000D03*
X153800000Y-59900000D03*
X120150000Y-73900000D03*
X156250000Y-90050000D03*
X152950000Y-51900000D03*
X141200000Y-51150000D03*
X125200000Y-53900000D03*
X128550000Y-77150000D03*
X107400000Y-113150000D03*
X157400000Y-56900000D03*
X130100000Y-71700000D03*
X184400000Y-64750000D03*
X116225000Y-46875000D03*
X118650000Y-73900000D03*
X183550000Y-76900000D03*
X117000000Y-84800000D03*
X107310000Y-66220000D03*
X128150000Y-40800000D03*
X146900000Y-94500000D03*
X146850000Y-85050000D03*
X144650000Y-65300000D03*
X124550000Y-73900000D03*
X171196000Y-74930000D03*
X140500000Y-77300000D03*
X147450000Y-113050000D03*
X163650000Y-65750000D03*
X197260000Y-41440000D03*
X163440000Y-75580000D03*
X176300000Y-56030000D03*
X146900000Y-82300000D03*
X128300000Y-73600000D03*
X150000000Y-53650000D03*
X145300000Y-55250000D03*
X119200000Y-90100000D03*
X166500000Y-65325000D03*
X189250000Y-49650000D03*
X120100000Y-71550000D03*
X197200000Y-84800000D03*
X127600000Y-44650000D03*
X129500000Y-48000000D03*
X155250000Y-69150000D03*
X168600000Y-65350000D03*
X192150000Y-55100000D03*
X172600000Y-51300000D03*
X122125000Y-45225000D03*
X128250000Y-62050000D03*
X113600000Y-56500000D03*
X149100000Y-69900000D03*
X134450000Y-51900000D03*
X100550000Y-106550000D03*
X167450000Y-72200000D03*
X186900000Y-64800000D03*
X122250000Y-68450000D03*
X155300000Y-62000000D03*
X125900000Y-78650000D03*
X166300000Y-58400000D03*
X120000000Y-48450000D03*
X132400000Y-71400000D03*
X145200000Y-62000000D03*
X140600000Y-69100000D03*
X156200000Y-55900000D03*
X145200000Y-57000000D03*
X139500000Y-55000000D03*
X136400000Y-60200000D03*
X135350000Y-67050000D03*
X138900000Y-60000000D03*
X139300000Y-64650000D03*
X136900000Y-58900000D03*
X140100000Y-58800000D03*
X135700000Y-64200000D03*
X147200000Y-67800000D03*
X103200000Y-57525000D03*
X111300000Y-86700000D03*
X111300000Y-84200000D03*
X155375000Y-60600000D03*
X148900000Y-63800000D03*
X148900000Y-54900000D03*
X153050000Y-54900000D03*
X114500000Y-84200000D03*
X150050000Y-67900000D03*
X149600000Y-60100000D03*
X151900000Y-58900000D03*
X167640000Y-81661000D03*
X170434000Y-64897000D03*
X128460000Y-59540000D03*
D21*
X114500000Y-84200000D02*
X116450000Y-86150000D01*
X116450000Y-86150000D02*
X118250000Y-86150000D01*
X114500000Y-84200000D02*
X113300000Y-85400000D01*
X145200000Y-63150000D02*
X146900000Y-64850000D01*
X145200000Y-62000000D02*
X145200000Y-63150000D01*
X142350000Y-62000000D02*
X140600000Y-63750000D01*
X154250000Y-64850000D02*
X156200000Y-62900000D01*
D22*
X145200000Y-57000000D02*
X145200000Y-62000000D01*
D21*
X145150000Y-62050000D02*
X145200000Y-62000000D01*
D22*
X132400000Y-71400000D02*
X138300000Y-71400000D01*
X138300000Y-71400000D02*
X140600000Y-69100000D01*
D21*
X145200000Y-62000000D02*
X142350000Y-62000000D01*
X146900000Y-64850000D02*
X154250000Y-64850000D01*
D22*
X142707000Y-69100000D02*
X142719000Y-69088000D01*
D21*
X140600000Y-63750000D02*
X140600000Y-69100000D01*
D22*
X140600000Y-69100000D02*
X142707000Y-69100000D01*
D21*
X156200000Y-62900000D02*
X156200000Y-55900000D01*
X135900000Y-59700000D02*
X135900000Y-56700000D01*
X137600000Y-55000000D02*
X139500000Y-55000000D01*
X135900000Y-56700000D02*
X137600000Y-55000000D01*
X136400000Y-60200000D02*
X135900000Y-59700000D01*
X136450000Y-67050000D02*
X135350000Y-67050000D01*
X139300000Y-64650000D02*
X136900000Y-67050000D01*
X136900000Y-58900000D02*
X137800000Y-58900000D01*
X136900000Y-67050000D02*
X136450000Y-67050000D01*
X137800000Y-58900000D02*
X138900000Y-60000000D01*
X136800000Y-64200000D02*
X135700000Y-64200000D01*
X140100000Y-60900000D02*
X136800000Y-64200000D01*
X140100000Y-58800000D02*
X140100000Y-60900000D01*
X146400000Y-71400000D02*
X143250000Y-71400000D01*
X147150000Y-70650000D02*
X146400000Y-71400000D01*
X112875000Y-67200000D02*
X103200000Y-57525000D01*
X141750000Y-72900000D02*
X129400000Y-72900000D01*
X143250000Y-71400000D02*
X141750000Y-72900000D01*
X129400000Y-72900000D02*
X123700000Y-67200000D01*
X147200000Y-67800000D02*
X147200000Y-70600000D01*
X123700000Y-67200000D02*
X112875000Y-67200000D01*
X147200000Y-70600000D02*
X147150000Y-70650000D01*
X103210000Y-62500000D02*
X103225000Y-62500000D01*
X195000000Y-94100000D02*
X190600000Y-94100000D01*
X101600000Y-82700000D02*
X103100000Y-84200000D01*
X104575000Y-66215000D02*
X102913299Y-66215000D01*
X101600000Y-67528299D02*
X101600000Y-82700000D01*
X105750000Y-65040000D02*
X104575000Y-66215000D01*
X103100000Y-84200000D02*
X111300000Y-84200000D01*
X118050000Y-86700000D02*
X123400000Y-92050000D01*
X102913299Y-66215000D02*
X101600000Y-67528299D01*
X190600000Y-94100000D02*
X188550000Y-92050000D01*
X188550000Y-92050000D02*
X123400000Y-92050000D01*
X111300000Y-86700000D02*
X118050000Y-86700000D01*
X155375000Y-60625000D02*
X155375000Y-60600000D01*
X148900000Y-63800000D02*
X151875000Y-60825000D01*
X155175000Y-60825000D02*
X155375000Y-60625000D01*
X151875000Y-60825000D02*
X155175000Y-60825000D01*
X153050000Y-54900000D02*
X148900000Y-54900000D01*
X113300000Y-85400000D02*
X103663604Y-85400000D01*
X118250000Y-86150000D02*
X123700000Y-91600000D01*
X101150000Y-82886396D02*
X101150000Y-67100000D01*
X103663604Y-85400000D02*
X101150000Y-82886396D01*
X195000000Y-91600000D02*
X123700000Y-91600000D01*
X101150000Y-67100000D02*
X103210000Y-65040000D01*
X150800000Y-58900000D02*
X149600000Y-60100000D01*
X151900000Y-58900000D02*
X150800000Y-58900000D01*
X150050000Y-67900000D02*
X152325000Y-67900000D01*
X152325000Y-67900000D02*
X152350000Y-67875000D01*
X167640000Y-81661000D02*
X169291000Y-80010000D01*
X169291000Y-80010000D02*
X169291000Y-74045000D01*
X169291000Y-68453000D02*
X169291000Y-71120000D01*
X170434000Y-67310000D02*
X169291000Y-68453000D01*
X170434000Y-64897000D02*
X170434000Y-67310000D01*
D22*
X130400000Y-59550000D02*
X128470000Y-59550000D01*
X128470000Y-59550000D02*
X128460000Y-59540000D01*
G04 #@! TA.AperFunction,Conductor*
G36*
X104551444Y-78393999D02*
G01*
X104590486Y-78439056D01*
X104594951Y-78447820D01*
X104719890Y-78619786D01*
X104870213Y-78770109D01*
X105042179Y-78895048D01*
X105042181Y-78895049D01*
X105042184Y-78895051D01*
X105051493Y-78899794D01*
X105102290Y-78947766D01*
X105119087Y-79015587D01*
X105096552Y-79081722D01*
X105051505Y-79120760D01*
X105042446Y-79125376D01*
X105042440Y-79125380D01*
X104988282Y-79164727D01*
X104988282Y-79164728D01*
X105620591Y-79797037D01*
X105557007Y-79814075D01*
X105442993Y-79879901D01*
X105349901Y-79972993D01*
X105284075Y-80087007D01*
X105267037Y-80150591D01*
X104634728Y-79518282D01*
X104634727Y-79518282D01*
X104595380Y-79572440D01*
X104590483Y-79582051D01*
X104542506Y-79632845D01*
X104474684Y-79649638D01*
X104408550Y-79627098D01*
X104369516Y-79582048D01*
X104364626Y-79572452D01*
X104325270Y-79518282D01*
X104325269Y-79518282D01*
X103692962Y-80150590D01*
X103675925Y-80087007D01*
X103610099Y-79972993D01*
X103517007Y-79879901D01*
X103402993Y-79814075D01*
X103339407Y-79797036D01*
X103971716Y-79164728D01*
X103917547Y-79125373D01*
X103917547Y-79125372D01*
X103908500Y-79120763D01*
X103857706Y-79072788D01*
X103840912Y-79004966D01*
X103863451Y-78938832D01*
X103908508Y-78899793D01*
X103917816Y-78895051D01*
X103997007Y-78837515D01*
X104089786Y-78770109D01*
X104089788Y-78770106D01*
X104089792Y-78770104D01*
X104240104Y-78619792D01*
X104240106Y-78619788D01*
X104240109Y-78619786D01*
X104365048Y-78447820D01*
X104365047Y-78447820D01*
X104365051Y-78447816D01*
X104369514Y-78439054D01*
X104417488Y-78388259D01*
X104485308Y-78371463D01*
X104551444Y-78393999D01*
G37*
G04 #@! TD.AperFunction*
G04 #@! TA.AperFunction,Conductor*
G36*
X105284075Y-75392993D02*
G01*
X105349901Y-75507007D01*
X105442993Y-75600099D01*
X105557007Y-75665925D01*
X105620590Y-75682962D01*
X104988282Y-76315269D01*
X104988282Y-76315270D01*
X105042452Y-76354626D01*
X105042451Y-76354626D01*
X105051495Y-76359234D01*
X105102292Y-76407208D01*
X105119087Y-76475029D01*
X105096550Y-76541164D01*
X105051499Y-76580202D01*
X105042182Y-76584949D01*
X104870213Y-76709890D01*
X104719890Y-76860213D01*
X104594949Y-77032182D01*
X104590484Y-77040946D01*
X104542509Y-77091742D01*
X104474688Y-77108536D01*
X104408553Y-77085998D01*
X104369516Y-77040946D01*
X104365050Y-77032182D01*
X104240109Y-76860213D01*
X104089786Y-76709890D01*
X103917817Y-76584949D01*
X103908504Y-76580204D01*
X103857707Y-76532230D01*
X103840912Y-76464409D01*
X103863449Y-76398274D01*
X103908507Y-76359232D01*
X103917555Y-76354622D01*
X103971716Y-76315270D01*
X103971717Y-76315270D01*
X103339409Y-75682962D01*
X103402993Y-75665925D01*
X103517007Y-75600099D01*
X103610099Y-75507007D01*
X103675925Y-75392993D01*
X103692962Y-75329408D01*
X104325270Y-75961717D01*
X104325270Y-75961716D01*
X104364622Y-75907554D01*
X104369514Y-75897954D01*
X104417488Y-75847157D01*
X104485308Y-75830361D01*
X104551444Y-75852897D01*
X104590486Y-75897954D01*
X104595375Y-75907550D01*
X104634728Y-75961716D01*
X105267037Y-75329408D01*
X105284075Y-75392993D01*
G37*
G04 #@! TD.AperFunction*
G04 #@! TA.AperFunction,Conductor*
G36*
X104551444Y-73313999D02*
G01*
X104590486Y-73359056D01*
X104594951Y-73367820D01*
X104719890Y-73539786D01*
X104870213Y-73690109D01*
X105042179Y-73815048D01*
X105042181Y-73815049D01*
X105042184Y-73815051D01*
X105051493Y-73819794D01*
X105102290Y-73867766D01*
X105119087Y-73935587D01*
X105096552Y-74001722D01*
X105051505Y-74040760D01*
X105042446Y-74045376D01*
X105042440Y-74045380D01*
X104988282Y-74084727D01*
X104988282Y-74084728D01*
X105620591Y-74717037D01*
X105557007Y-74734075D01*
X105442993Y-74799901D01*
X105349901Y-74892993D01*
X105284075Y-75007007D01*
X105267037Y-75070591D01*
X104634728Y-74438282D01*
X104634727Y-74438282D01*
X104595380Y-74492440D01*
X104590483Y-74502051D01*
X104542506Y-74552845D01*
X104474684Y-74569638D01*
X104408550Y-74547098D01*
X104369516Y-74502048D01*
X104364626Y-74492452D01*
X104325270Y-74438282D01*
X104325269Y-74438282D01*
X103692962Y-75070590D01*
X103675925Y-75007007D01*
X103610099Y-74892993D01*
X103517007Y-74799901D01*
X103402993Y-74734075D01*
X103339407Y-74717036D01*
X103971716Y-74084728D01*
X103917547Y-74045373D01*
X103917547Y-74045372D01*
X103908500Y-74040763D01*
X103857706Y-73992788D01*
X103840912Y-73924966D01*
X103863451Y-73858832D01*
X103908508Y-73819793D01*
X103917816Y-73815051D01*
X103997007Y-73757515D01*
X104089786Y-73690109D01*
X104089788Y-73690106D01*
X104089792Y-73690104D01*
X104240104Y-73539792D01*
X104240106Y-73539788D01*
X104240109Y-73539786D01*
X104365048Y-73367820D01*
X104365047Y-73367820D01*
X104365051Y-73367816D01*
X104369514Y-73359054D01*
X104417488Y-73308259D01*
X104485308Y-73291463D01*
X104551444Y-73313999D01*
G37*
G04 #@! TD.AperFunction*
G04 #@! TA.AperFunction,Conductor*
G36*
X105284075Y-70312993D02*
G01*
X105349901Y-70427007D01*
X105442993Y-70520099D01*
X105557007Y-70585925D01*
X105620590Y-70602962D01*
X104988282Y-71235269D01*
X104988282Y-71235270D01*
X105042452Y-71274626D01*
X105042451Y-71274626D01*
X105051495Y-71279234D01*
X105102292Y-71327208D01*
X105119087Y-71395029D01*
X105096550Y-71461164D01*
X105051499Y-71500202D01*
X105042182Y-71504949D01*
X104870213Y-71629890D01*
X104719890Y-71780213D01*
X104594949Y-71952182D01*
X104590484Y-71960946D01*
X104542509Y-72011742D01*
X104474688Y-72028536D01*
X104408553Y-72005998D01*
X104369516Y-71960946D01*
X104365050Y-71952182D01*
X104240109Y-71780213D01*
X104089786Y-71629890D01*
X103917817Y-71504949D01*
X103908504Y-71500204D01*
X103857707Y-71452230D01*
X103840912Y-71384409D01*
X103863449Y-71318274D01*
X103908507Y-71279232D01*
X103917555Y-71274622D01*
X103971716Y-71235270D01*
X103971717Y-71235270D01*
X103339409Y-70602962D01*
X103402993Y-70585925D01*
X103517007Y-70520099D01*
X103610099Y-70427007D01*
X103675925Y-70312993D01*
X103692962Y-70249408D01*
X104325270Y-70881717D01*
X104325270Y-70881716D01*
X104364622Y-70827554D01*
X104369514Y-70817954D01*
X104417488Y-70767157D01*
X104485308Y-70750361D01*
X104551444Y-70772897D01*
X104590486Y-70817954D01*
X104595375Y-70827550D01*
X104634728Y-70881716D01*
X105267037Y-70249408D01*
X105284075Y-70312993D01*
G37*
G04 #@! TD.AperFunction*
G04 #@! TA.AperFunction,Conductor*
G36*
X104551444Y-68233999D02*
G01*
X104590486Y-68279056D01*
X104594951Y-68287820D01*
X104719890Y-68459786D01*
X104870213Y-68610109D01*
X105042179Y-68735048D01*
X105042181Y-68735049D01*
X105042184Y-68735051D01*
X105051493Y-68739794D01*
X105102290Y-68787766D01*
X105119087Y-68855587D01*
X105096552Y-68921722D01*
X105051505Y-68960760D01*
X105042446Y-68965376D01*
X105042440Y-68965380D01*
X104988282Y-69004727D01*
X104988282Y-69004728D01*
X105620591Y-69637037D01*
X105557007Y-69654075D01*
X105442993Y-69719901D01*
X105349901Y-69812993D01*
X105284075Y-69927007D01*
X105267037Y-69990591D01*
X104634728Y-69358282D01*
X104634727Y-69358282D01*
X104595380Y-69412440D01*
X104590483Y-69422051D01*
X104542506Y-69472845D01*
X104474684Y-69489638D01*
X104408550Y-69467098D01*
X104369516Y-69422048D01*
X104364626Y-69412452D01*
X104325270Y-69358282D01*
X104325269Y-69358282D01*
X103692962Y-69990590D01*
X103675925Y-69927007D01*
X103610099Y-69812993D01*
X103517007Y-69719901D01*
X103402993Y-69654075D01*
X103339407Y-69637036D01*
X103971716Y-69004728D01*
X103917547Y-68965373D01*
X103917547Y-68965372D01*
X103908500Y-68960763D01*
X103857706Y-68912788D01*
X103840912Y-68844966D01*
X103863451Y-68778832D01*
X103908508Y-68739793D01*
X103917816Y-68735051D01*
X104047566Y-68640783D01*
X104089786Y-68610109D01*
X104089788Y-68610106D01*
X104089792Y-68610104D01*
X104240104Y-68459792D01*
X104240106Y-68459788D01*
X104240109Y-68459786D01*
X104365048Y-68287820D01*
X104365047Y-68287820D01*
X104365051Y-68287816D01*
X104369514Y-68279054D01*
X104417488Y-68228259D01*
X104485308Y-68211463D01*
X104551444Y-68233999D01*
G37*
G04 #@! TD.AperFunction*
G04 #@! TA.AperFunction,Conductor*
G36*
X154876434Y-61470185D02*
G01*
X154878286Y-61471398D01*
X154901079Y-61486628D01*
X154901092Y-61486635D01*
X155083160Y-61562049D01*
X155083165Y-61562051D01*
X155083169Y-61562051D01*
X155083170Y-61562052D01*
X155276456Y-61600500D01*
X155450500Y-61600500D01*
X155517539Y-61620185D01*
X155563294Y-61672989D01*
X155574500Y-61724500D01*
X155574500Y-62589547D01*
X155554815Y-62656586D01*
X155538181Y-62677228D01*
X154027229Y-64188181D01*
X153965906Y-64221666D01*
X153939548Y-64224500D01*
X149986757Y-64224500D01*
X149919718Y-64204815D01*
X149873963Y-64152011D01*
X149864019Y-64082853D01*
X149865140Y-64076309D01*
X149898304Y-63909579D01*
X149900500Y-63898541D01*
X149900500Y-63735451D01*
X149920185Y-63668412D01*
X149936819Y-63647770D01*
X152097772Y-61486819D01*
X152159095Y-61453334D01*
X152185453Y-61450500D01*
X154809395Y-61450500D01*
X154876434Y-61470185D01*
G37*
G04 #@! TD.AperFunction*
G04 #@! TA.AperFunction,Conductor*
G36*
X198642539Y-40120185D02*
G01*
X198688294Y-40172989D01*
X198699500Y-40224500D01*
X198699500Y-113975500D01*
X198679815Y-114042539D01*
X198627011Y-114088294D01*
X198575500Y-114099500D01*
X99824500Y-114099500D01*
X99757461Y-114079815D01*
X99711706Y-114027011D01*
X99700500Y-113975500D01*
X99700500Y-110759568D01*
X100249500Y-110759568D01*
X100249500Y-111040431D01*
X100280942Y-111319494D01*
X100280945Y-111319512D01*
X100343439Y-111593317D01*
X100343443Y-111593329D01*
X100436200Y-111858411D01*
X100558053Y-112111442D01*
X100558055Y-112111445D01*
X100707477Y-112349248D01*
X100882584Y-112568825D01*
X101081175Y-112767416D01*
X101300752Y-112942523D01*
X101538555Y-113091945D01*
X101791592Y-113213801D01*
X101990680Y-113283465D01*
X102056670Y-113306556D01*
X102056682Y-113306560D01*
X102330491Y-113369055D01*
X102330497Y-113369055D01*
X102330505Y-113369057D01*
X102516547Y-113390018D01*
X102609569Y-113400499D01*
X102609572Y-113400500D01*
X102609575Y-113400500D01*
X102890428Y-113400500D01*
X102890429Y-113400499D01*
X103033055Y-113384429D01*
X103169494Y-113369057D01*
X103169499Y-113369056D01*
X103169509Y-113369055D01*
X103443318Y-113306560D01*
X103708408Y-113213801D01*
X103961445Y-113091945D01*
X104199248Y-112942523D01*
X104418825Y-112767416D01*
X104617416Y-112568825D01*
X104792523Y-112349248D01*
X104941945Y-112111445D01*
X105063801Y-111858408D01*
X105156560Y-111593318D01*
X105219055Y-111319509D01*
X105250500Y-111040425D01*
X105250500Y-110759575D01*
X105250499Y-110759568D01*
X193249500Y-110759568D01*
X193249500Y-111040431D01*
X193280942Y-111319494D01*
X193280945Y-111319512D01*
X193343439Y-111593317D01*
X193343443Y-111593329D01*
X193436200Y-111858411D01*
X193558053Y-112111442D01*
X193558055Y-112111445D01*
X193707477Y-112349248D01*
X193882584Y-112568825D01*
X194081175Y-112767416D01*
X194300752Y-112942523D01*
X194538555Y-113091945D01*
X194791592Y-113213801D01*
X194990680Y-113283465D01*
X195056670Y-113306556D01*
X195056682Y-113306560D01*
X195330491Y-113369055D01*
X195330497Y-113369055D01*
X195330505Y-113369057D01*
X195516547Y-113390018D01*
X195609569Y-113400499D01*
X195609572Y-113400500D01*
X195609575Y-113400500D01*
X195890428Y-113400500D01*
X195890429Y-113400499D01*
X196033055Y-113384429D01*
X196169494Y-113369057D01*
X196169499Y-113369056D01*
X196169509Y-113369055D01*
X196443318Y-113306560D01*
X196708408Y-113213801D01*
X196961445Y-113091945D01*
X197199248Y-112942523D01*
X197418825Y-112767416D01*
X197617416Y-112568825D01*
X197792523Y-112349248D01*
X197941945Y-112111445D01*
X198063801Y-111858408D01*
X198156560Y-111593318D01*
X198219055Y-111319509D01*
X198250500Y-111040425D01*
X198250500Y-110759575D01*
X198219055Y-110480491D01*
X198156560Y-110206682D01*
X198063801Y-109941592D01*
X197941945Y-109688555D01*
X197792523Y-109450752D01*
X197617416Y-109231175D01*
X197418825Y-109032584D01*
X197199248Y-108857477D01*
X196961445Y-108708055D01*
X196961442Y-108708053D01*
X196708411Y-108586200D01*
X196443329Y-108493443D01*
X196443317Y-108493439D01*
X196169512Y-108430945D01*
X196169494Y-108430942D01*
X195890431Y-108399500D01*
X195890425Y-108399500D01*
X195609575Y-108399500D01*
X195609568Y-108399500D01*
X195330505Y-108430942D01*
X195330487Y-108430945D01*
X195056682Y-108493439D01*
X195056670Y-108493443D01*
X194791588Y-108586200D01*
X194538557Y-108708053D01*
X194300753Y-108857476D01*
X194081175Y-109032583D01*
X193882583Y-109231175D01*
X193707476Y-109450753D01*
X193558053Y-109688557D01*
X193436200Y-109941588D01*
X193343443Y-110206670D01*
X193343439Y-110206682D01*
X193280945Y-110480487D01*
X193280942Y-110480505D01*
X193249500Y-110759568D01*
X105250499Y-110759568D01*
X105219055Y-110480491D01*
X105156560Y-110206682D01*
X105063801Y-109941592D01*
X104941945Y-109688555D01*
X104792523Y-109450752D01*
X104617416Y-109231175D01*
X104418825Y-109032584D01*
X104199248Y-108857477D01*
X103961445Y-108708055D01*
X103961442Y-108708053D01*
X103708411Y-108586200D01*
X103443329Y-108493443D01*
X103443317Y-108493439D01*
X103169512Y-108430945D01*
X103169494Y-108430942D01*
X102890431Y-108399500D01*
X102890425Y-108399500D01*
X102609575Y-108399500D01*
X102609568Y-108399500D01*
X102330505Y-108430942D01*
X102330487Y-108430945D01*
X102056682Y-108493439D01*
X102056670Y-108493443D01*
X101791588Y-108586200D01*
X101538557Y-108708053D01*
X101300753Y-108857476D01*
X101081175Y-109032583D01*
X100882583Y-109231175D01*
X100707476Y-109450753D01*
X100558053Y-109688557D01*
X100436200Y-109941588D01*
X100343443Y-110206670D01*
X100343439Y-110206682D01*
X100280945Y-110480487D01*
X100280942Y-110480505D01*
X100249500Y-110759568D01*
X99700500Y-110759568D01*
X99700500Y-67038394D01*
X100524500Y-67038394D01*
X100524500Y-67042323D01*
X100524500Y-82948007D01*
X100548535Y-83068840D01*
X100548540Y-83068857D01*
X100595685Y-83182677D01*
X100595687Y-83182681D01*
X100606926Y-83199500D01*
X100606927Y-83199502D01*
X100664141Y-83285128D01*
X100664144Y-83285132D01*
X100755586Y-83376574D01*
X100755608Y-83376594D01*
X103177743Y-85798729D01*
X103177746Y-85798733D01*
X103264871Y-85885858D01*
X103341794Y-85937256D01*
X103347594Y-85941132D01*
X103347597Y-85941134D01*
X103367314Y-85954309D01*
X103367316Y-85954310D01*
X103367319Y-85954312D01*
X103425333Y-85978342D01*
X103481152Y-86001463D01*
X103541575Y-86013481D01*
X103601997Y-86025500D01*
X103601998Y-86025500D01*
X110315407Y-86025500D01*
X110382446Y-86045185D01*
X110428201Y-86097989D01*
X110438145Y-86167147D01*
X110418509Y-86218391D01*
X110413371Y-86226079D01*
X110413364Y-86226092D01*
X110337950Y-86408160D01*
X110337947Y-86408170D01*
X110299500Y-86601456D01*
X110299500Y-86601459D01*
X110299500Y-86798541D01*
X110299500Y-86798543D01*
X110299499Y-86798543D01*
X110337947Y-86991829D01*
X110337950Y-86991839D01*
X110413364Y-87173907D01*
X110413371Y-87173920D01*
X110522860Y-87337781D01*
X110522863Y-87337785D01*
X110662214Y-87477136D01*
X110662218Y-87477139D01*
X110826079Y-87586628D01*
X110826092Y-87586635D01*
X111008160Y-87662049D01*
X111008165Y-87662051D01*
X111008169Y-87662051D01*
X111008170Y-87662052D01*
X111201456Y-87700500D01*
X111201459Y-87700500D01*
X111398543Y-87700500D01*
X111528582Y-87674632D01*
X111591835Y-87662051D01*
X111773914Y-87586632D01*
X111937782Y-87477139D01*
X112053103Y-87361817D01*
X112114424Y-87328334D01*
X112140783Y-87325500D01*
X117739548Y-87325500D01*
X117806587Y-87345185D01*
X117827229Y-87361819D01*
X123001263Y-92535855D01*
X123001267Y-92535858D01*
X123103710Y-92604309D01*
X123103711Y-92604309D01*
X123103715Y-92604312D01*
X123170397Y-92631932D01*
X123217548Y-92651463D01*
X123237597Y-92655451D01*
X123302624Y-92668385D01*
X123338392Y-92675501D01*
X123338394Y-92675501D01*
X123467721Y-92675501D01*
X123467741Y-92675500D01*
X188239548Y-92675500D01*
X188306587Y-92695185D01*
X188327229Y-92711819D01*
X190114139Y-94498729D01*
X190114142Y-94498733D01*
X190201267Y-94585858D01*
X190278190Y-94637256D01*
X190283990Y-94641132D01*
X190283993Y-94641134D01*
X190303710Y-94654309D01*
X190303712Y-94654310D01*
X190303715Y-94654312D01*
X190370396Y-94681931D01*
X190370398Y-94681933D01*
X190410640Y-94698601D01*
X190417548Y-94701463D01*
X190477971Y-94713481D01*
X190538393Y-94725500D01*
X190538394Y-94725500D01*
X193502554Y-94725500D01*
X193569593Y-94745185D01*
X193613039Y-94793205D01*
X193673896Y-94912642D01*
X193817339Y-95110076D01*
X193817343Y-95110081D01*
X193989918Y-95282656D01*
X193989923Y-95282660D01*
X194162136Y-95407779D01*
X194187361Y-95426106D01*
X194404815Y-95536904D01*
X194636924Y-95612321D01*
X194877973Y-95650500D01*
X194877974Y-95650500D01*
X195122026Y-95650500D01*
X195122027Y-95650500D01*
X195363076Y-95612321D01*
X195595185Y-95536904D01*
X195812639Y-95426106D01*
X196010083Y-95282655D01*
X196182655Y-95110083D01*
X196326106Y-94912639D01*
X196436904Y-94695185D01*
X196512321Y-94463076D01*
X196550500Y-94222027D01*
X196550500Y-93977973D01*
X196512321Y-93736924D01*
X196436904Y-93504815D01*
X196326106Y-93287361D01*
X196307779Y-93262136D01*
X196182660Y-93089923D01*
X196182656Y-93089918D01*
X196030419Y-92937681D01*
X195996934Y-92876358D01*
X196001918Y-92806666D01*
X196030419Y-92762319D01*
X196097553Y-92695185D01*
X196182655Y-92610083D01*
X196326106Y-92412639D01*
X196436904Y-92195185D01*
X196512321Y-91963076D01*
X196550500Y-91722027D01*
X196550500Y-91477973D01*
X196512321Y-91236924D01*
X196436904Y-91004815D01*
X196326106Y-90787361D01*
X196307779Y-90762136D01*
X196182660Y-90589923D01*
X196182656Y-90589918D01*
X196010085Y-90417347D01*
X196010079Y-90417342D01*
X195848698Y-90300092D01*
X195833902Y-90287455D01*
X195170234Y-89623787D01*
X195212292Y-89612518D01*
X195337708Y-89540110D01*
X195440110Y-89437708D01*
X195512518Y-89312292D01*
X195523787Y-89270234D01*
X196258454Y-90004902D01*
X196258454Y-90004901D01*
X196325678Y-89912377D01*
X196436439Y-89694998D01*
X196511834Y-89462959D01*
X196550000Y-89221993D01*
X196550000Y-88978006D01*
X196511834Y-88737040D01*
X196436439Y-88505001D01*
X196325676Y-88287619D01*
X196258456Y-88195097D01*
X196258454Y-88195096D01*
X195523787Y-88929764D01*
X195512518Y-88887708D01*
X195440110Y-88762292D01*
X195337708Y-88659890D01*
X195212292Y-88587482D01*
X195170232Y-88576212D01*
X195833901Y-87912544D01*
X195848684Y-87899917D01*
X196010083Y-87782655D01*
X196182655Y-87610083D01*
X196326106Y-87412639D01*
X196436904Y-87195185D01*
X196512321Y-86963076D01*
X196550500Y-86722027D01*
X196550500Y-86477973D01*
X196512321Y-86236924D01*
X196436904Y-86004815D01*
X196326106Y-85787361D01*
X196299882Y-85751267D01*
X196182660Y-85589923D01*
X196182656Y-85589918D01*
X196010081Y-85417343D01*
X196010076Y-85417339D01*
X195812642Y-85273896D01*
X195812641Y-85273895D01*
X195812639Y-85273894D01*
X195595185Y-85163096D01*
X195363076Y-85087679D01*
X195363074Y-85087678D01*
X195363072Y-85087678D01*
X195194769Y-85061021D01*
X195122027Y-85049500D01*
X194877973Y-85049500D01*
X194822093Y-85058350D01*
X194636927Y-85087678D01*
X194404812Y-85163097D01*
X194187357Y-85273896D01*
X193989923Y-85417339D01*
X193989918Y-85417343D01*
X193817343Y-85589918D01*
X193817339Y-85589923D01*
X193673896Y-85787357D01*
X193563097Y-86004812D01*
X193487678Y-86236927D01*
X193460557Y-86408160D01*
X193449500Y-86477973D01*
X193449500Y-86722027D01*
X193487679Y-86963076D01*
X193556182Y-87173907D01*
X193563097Y-87195187D01*
X193673896Y-87412642D01*
X193817339Y-87610076D01*
X193817343Y-87610081D01*
X193817345Y-87610083D01*
X193989917Y-87782655D01*
X194151308Y-87899912D01*
X194166097Y-87912544D01*
X194829765Y-88576212D01*
X194787708Y-88587482D01*
X194662292Y-88659890D01*
X194559890Y-88762292D01*
X194487482Y-88887708D01*
X194476212Y-88929765D01*
X193741544Y-88195097D01*
X193674319Y-88287626D01*
X193563560Y-88505001D01*
X193488165Y-88737040D01*
X193450000Y-88978006D01*
X193450000Y-89221993D01*
X193488165Y-89462959D01*
X193563560Y-89694998D01*
X193674323Y-89912380D01*
X193741543Y-90004901D01*
X193741544Y-90004902D01*
X194476212Y-89270234D01*
X194487482Y-89312292D01*
X194559890Y-89437708D01*
X194662292Y-89540110D01*
X194787708Y-89612518D01*
X194829765Y-89623787D01*
X194166099Y-90287452D01*
X194151304Y-90300088D01*
X193989923Y-90417340D01*
X193989914Y-90417347D01*
X193817343Y-90589918D01*
X193817339Y-90589923D01*
X193673896Y-90787357D01*
X193613039Y-90906795D01*
X193565064Y-90957591D01*
X193502554Y-90974500D01*
X124010452Y-90974500D01*
X123943413Y-90954815D01*
X123922771Y-90938181D01*
X118743150Y-85758560D01*
X118735860Y-85751270D01*
X118735858Y-85751267D01*
X118648733Y-85664142D01*
X118597509Y-85629915D01*
X118546286Y-85595688D01*
X118546283Y-85595686D01*
X118546280Y-85595685D01*
X118472603Y-85565168D01*
X118472601Y-85565167D01*
X118465792Y-85562347D01*
X118432452Y-85548537D01*
X118372029Y-85536518D01*
X118367306Y-85535578D01*
X118367304Y-85535578D01*
X118311610Y-85524500D01*
X118311607Y-85524500D01*
X118311606Y-85524500D01*
X116760453Y-85524500D01*
X116693414Y-85504815D01*
X116672772Y-85488181D01*
X115536819Y-84352228D01*
X115503334Y-84290905D01*
X115500500Y-84264547D01*
X115500500Y-84101456D01*
X115462052Y-83908170D01*
X115462051Y-83908169D01*
X115462051Y-83908165D01*
X115462049Y-83908160D01*
X115386635Y-83726092D01*
X115386628Y-83726079D01*
X115277139Y-83562218D01*
X115277136Y-83562214D01*
X115137785Y-83422863D01*
X115137781Y-83422860D01*
X114973920Y-83313371D01*
X114973907Y-83313364D01*
X114791839Y-83237950D01*
X114791829Y-83237947D01*
X114598543Y-83199500D01*
X114598541Y-83199500D01*
X114401459Y-83199500D01*
X114401457Y-83199500D01*
X114208170Y-83237947D01*
X114208160Y-83237950D01*
X114026092Y-83313364D01*
X114026079Y-83313371D01*
X113862218Y-83422860D01*
X113862214Y-83422863D01*
X113722863Y-83562214D01*
X113722860Y-83562218D01*
X113613371Y-83726079D01*
X113613364Y-83726092D01*
X113537950Y-83908160D01*
X113537947Y-83908170D01*
X113499500Y-84101456D01*
X113499500Y-84264547D01*
X113479815Y-84331586D01*
X113463181Y-84352228D01*
X113077229Y-84738181D01*
X113015906Y-84771666D01*
X112989548Y-84774500D01*
X112330547Y-84774500D01*
X112263508Y-84754815D01*
X112217753Y-84702011D01*
X112207809Y-84632853D01*
X112215986Y-84603048D01*
X112262049Y-84491839D01*
X112262051Y-84491835D01*
X112293927Y-84331586D01*
X112300500Y-84298543D01*
X112300500Y-84101456D01*
X112262052Y-83908170D01*
X112262051Y-83908169D01*
X112262051Y-83908165D01*
X112262049Y-83908160D01*
X112186635Y-83726092D01*
X112186628Y-83726079D01*
X112077139Y-83562218D01*
X112077136Y-83562214D01*
X111937785Y-83422863D01*
X111937781Y-83422860D01*
X111773920Y-83313371D01*
X111773907Y-83313364D01*
X111591839Y-83237950D01*
X111591829Y-83237947D01*
X111398543Y-83199500D01*
X111398541Y-83199500D01*
X111201459Y-83199500D01*
X111201457Y-83199500D01*
X111008170Y-83237947D01*
X111008160Y-83237950D01*
X110826092Y-83313364D01*
X110826079Y-83313371D01*
X110662219Y-83422859D01*
X110604559Y-83480520D01*
X110546896Y-83538182D01*
X110485576Y-83571666D01*
X110459217Y-83574500D01*
X103410453Y-83574500D01*
X103343414Y-83554815D01*
X103322772Y-83538181D01*
X102261819Y-82477228D01*
X102228334Y-82415905D01*
X102225500Y-82389547D01*
X102225500Y-81759543D01*
X166639499Y-81759543D01*
X166677947Y-81952829D01*
X166677950Y-81952839D01*
X166753364Y-82134907D01*
X166753371Y-82134920D01*
X166862860Y-82298781D01*
X166862863Y-82298785D01*
X167002214Y-82438136D01*
X167002218Y-82438139D01*
X167166079Y-82547628D01*
X167166092Y-82547635D01*
X167348160Y-82623049D01*
X167348165Y-82623051D01*
X167348169Y-82623051D01*
X167348170Y-82623052D01*
X167541456Y-82661500D01*
X167541459Y-82661500D01*
X167738543Y-82661500D01*
X167868582Y-82635632D01*
X167931835Y-82623051D01*
X168113914Y-82547632D01*
X168277782Y-82438139D01*
X168417139Y-82298782D01*
X168526632Y-82134914D01*
X168602051Y-81952835D01*
X168640500Y-81759541D01*
X168640500Y-81596452D01*
X168660185Y-81529413D01*
X168676819Y-81508771D01*
X169207637Y-80977954D01*
X169776858Y-80408733D01*
X169845312Y-80306285D01*
X169892463Y-80192451D01*
X169904969Y-80129580D01*
X169916501Y-80071608D01*
X169916501Y-79943283D01*
X169916500Y-79943257D01*
X169916500Y-75225034D01*
X169936185Y-75157995D01*
X169988989Y-75112240D01*
X170027897Y-75101676D01*
X170068797Y-75097499D01*
X170235334Y-75042314D01*
X170384656Y-74950212D01*
X170508712Y-74826156D01*
X170600814Y-74676834D01*
X170655999Y-74510297D01*
X170666500Y-74407509D01*
X170666499Y-73682492D01*
X170655999Y-73579703D01*
X170600814Y-73413166D01*
X170508712Y-73263844D01*
X170384656Y-73139788D01*
X170235334Y-73047686D01*
X170068797Y-72992501D01*
X170068795Y-72992500D01*
X169966010Y-72982000D01*
X168615998Y-72982000D01*
X168615981Y-72982001D01*
X168513203Y-72992500D01*
X168513200Y-72992501D01*
X168346668Y-73047685D01*
X168346663Y-73047687D01*
X168197342Y-73139789D01*
X168073289Y-73263842D01*
X167981187Y-73413163D01*
X167981185Y-73413168D01*
X167956504Y-73487652D01*
X167926001Y-73579703D01*
X167926001Y-73579704D01*
X167926000Y-73579704D01*
X167915500Y-73682483D01*
X167915500Y-74407501D01*
X167915501Y-74407519D01*
X167926000Y-74510296D01*
X167926001Y-74510299D01*
X167981185Y-74676831D01*
X167981186Y-74676834D01*
X168073288Y-74826156D01*
X168197344Y-74950212D01*
X168346666Y-75042314D01*
X168513203Y-75097499D01*
X168554103Y-75101677D01*
X168618793Y-75128073D01*
X168658945Y-75185253D01*
X168665500Y-75225035D01*
X168665500Y-79699546D01*
X168645815Y-79766585D01*
X168629181Y-79787227D01*
X167792227Y-80624181D01*
X167730904Y-80657666D01*
X167704546Y-80660500D01*
X167541457Y-80660500D01*
X167348170Y-80698947D01*
X167348160Y-80698950D01*
X167166092Y-80774364D01*
X167166079Y-80774371D01*
X167002218Y-80883860D01*
X167002214Y-80883863D01*
X166862863Y-81023214D01*
X166862860Y-81023218D01*
X166753371Y-81187079D01*
X166753364Y-81187092D01*
X166677950Y-81369160D01*
X166677947Y-81369170D01*
X166639500Y-81562456D01*
X166639500Y-81562459D01*
X166639500Y-81759541D01*
X166639500Y-81759543D01*
X166639499Y-81759543D01*
X102225500Y-81759543D01*
X102225500Y-81476774D01*
X102245185Y-81409735D01*
X102297989Y-81363980D01*
X102367147Y-81354036D01*
X102422385Y-81376456D01*
X102502442Y-81434620D01*
X102691782Y-81531095D01*
X102893870Y-81596757D01*
X103103754Y-81630000D01*
X103316246Y-81630000D01*
X103526127Y-81596757D01*
X103526130Y-81596757D01*
X103728217Y-81531095D01*
X103917554Y-81434622D01*
X103971716Y-81395270D01*
X103971717Y-81395270D01*
X103339409Y-80762962D01*
X103402993Y-80745925D01*
X103517007Y-80680099D01*
X103610099Y-80587007D01*
X103675925Y-80472993D01*
X103692962Y-80409408D01*
X104325270Y-81041717D01*
X104325270Y-81041716D01*
X104364622Y-80987554D01*
X104369514Y-80977954D01*
X104417488Y-80927157D01*
X104485308Y-80910361D01*
X104551444Y-80932897D01*
X104590486Y-80977954D01*
X104595375Y-80987550D01*
X104634728Y-81041716D01*
X105267037Y-80409408D01*
X105284075Y-80472993D01*
X105349901Y-80587007D01*
X105442993Y-80680099D01*
X105557007Y-80745925D01*
X105620590Y-80762962D01*
X104988282Y-81395269D01*
X104988282Y-81395270D01*
X105042449Y-81434624D01*
X105231782Y-81531095D01*
X105433870Y-81596757D01*
X105643754Y-81630000D01*
X105856246Y-81630000D01*
X106066127Y-81596757D01*
X106066130Y-81596757D01*
X106268217Y-81531095D01*
X106435457Y-81445882D01*
X106457554Y-81434622D01*
X106511716Y-81395270D01*
X106511717Y-81395270D01*
X105879408Y-80762962D01*
X105942993Y-80745925D01*
X106057007Y-80680099D01*
X106150099Y-80587007D01*
X106215925Y-80472993D01*
X106232962Y-80409409D01*
X106865270Y-81041717D01*
X106865270Y-81041716D01*
X106904622Y-80987554D01*
X107001095Y-80798217D01*
X107066757Y-80596130D01*
X107066757Y-80596127D01*
X107100000Y-80386246D01*
X107100000Y-80173753D01*
X107066757Y-79963872D01*
X107066757Y-79963869D01*
X107001095Y-79761782D01*
X106904624Y-79572449D01*
X106865270Y-79518282D01*
X106865269Y-79518282D01*
X106232962Y-80150590D01*
X106215925Y-80087007D01*
X106150099Y-79972993D01*
X106057007Y-79879901D01*
X105942993Y-79814075D01*
X105879409Y-79797037D01*
X106511716Y-79164728D01*
X106457547Y-79125373D01*
X106457547Y-79125372D01*
X106448500Y-79120763D01*
X106397706Y-79072788D01*
X106380912Y-79004966D01*
X106403451Y-78938832D01*
X106448508Y-78899793D01*
X106457816Y-78895051D01*
X106537007Y-78837515D01*
X106629786Y-78770109D01*
X106629788Y-78770106D01*
X106629792Y-78770104D01*
X106780104Y-78619792D01*
X106780106Y-78619788D01*
X106780109Y-78619786D01*
X106905048Y-78447820D01*
X106905047Y-78447820D01*
X106905051Y-78447816D01*
X107001557Y-78258412D01*
X107067246Y-78056243D01*
X107100500Y-77846287D01*
X107100500Y-77633713D01*
X107067246Y-77423757D01*
X107001557Y-77221588D01*
X106905051Y-77032184D01*
X106905049Y-77032181D01*
X106905048Y-77032179D01*
X106780109Y-76860213D01*
X106629786Y-76709890D01*
X106457817Y-76584949D01*
X106448504Y-76580204D01*
X106397707Y-76532230D01*
X106380912Y-76464409D01*
X106403449Y-76398274D01*
X106448507Y-76359232D01*
X106457555Y-76354622D01*
X106511716Y-76315270D01*
X106511717Y-76315270D01*
X105879408Y-75682962D01*
X105942993Y-75665925D01*
X106057007Y-75600099D01*
X106150099Y-75507007D01*
X106215925Y-75392993D01*
X106232962Y-75329409D01*
X106865270Y-75961717D01*
X106865270Y-75961716D01*
X106904622Y-75907554D01*
X107001095Y-75718217D01*
X107066757Y-75516130D01*
X107066757Y-75516127D01*
X107100000Y-75306246D01*
X107100000Y-75093753D01*
X107066757Y-74883872D01*
X107066757Y-74883869D01*
X107001095Y-74681782D01*
X106904624Y-74492449D01*
X106865270Y-74438282D01*
X106865269Y-74438282D01*
X106232962Y-75070590D01*
X106215925Y-75007007D01*
X106150099Y-74892993D01*
X106057007Y-74799901D01*
X105942993Y-74734075D01*
X105879409Y-74717037D01*
X106511716Y-74084728D01*
X106457547Y-74045373D01*
X106457547Y-74045372D01*
X106448500Y-74040763D01*
X106397706Y-73992788D01*
X106380912Y-73924966D01*
X106403451Y-73858832D01*
X106448508Y-73819793D01*
X106457816Y-73815051D01*
X106537007Y-73757515D01*
X106629786Y-73690109D01*
X106629788Y-73690106D01*
X106629792Y-73690104D01*
X106780104Y-73539792D01*
X106780106Y-73539788D01*
X106780109Y-73539786D01*
X106905048Y-73367820D01*
X106905047Y-73367820D01*
X106905051Y-73367816D01*
X107001557Y-73178412D01*
X107067246Y-72976243D01*
X107100500Y-72766287D01*
X107100500Y-72553713D01*
X107067246Y-72343757D01*
X107001557Y-72141588D01*
X106905051Y-71952184D01*
X106905049Y-71952181D01*
X106905048Y-71952179D01*
X106780109Y-71780213D01*
X106629786Y-71629890D01*
X106457817Y-71504949D01*
X106448504Y-71500204D01*
X106397707Y-71452230D01*
X106380912Y-71384409D01*
X106403449Y-71318274D01*
X106448507Y-71279232D01*
X106457555Y-71274622D01*
X106511716Y-71235270D01*
X106511717Y-71235270D01*
X105879408Y-70602962D01*
X105942993Y-70585925D01*
X106057007Y-70520099D01*
X106150099Y-70427007D01*
X106215925Y-70312993D01*
X106232962Y-70249409D01*
X106865270Y-70881717D01*
X106865270Y-70881716D01*
X106904622Y-70827554D01*
X107001095Y-70638217D01*
X107066757Y-70436130D01*
X107066757Y-70436127D01*
X107100000Y-70226246D01*
X107100000Y-70013753D01*
X107066757Y-69803872D01*
X107066757Y-69803869D01*
X107001095Y-69601782D01*
X106904624Y-69412449D01*
X106865270Y-69358282D01*
X106865269Y-69358282D01*
X106232962Y-69990590D01*
X106215925Y-69927007D01*
X106150099Y-69812993D01*
X106057007Y-69719901D01*
X105942993Y-69654075D01*
X105879409Y-69637037D01*
X106511716Y-69004728D01*
X106457547Y-68965373D01*
X106457547Y-68965372D01*
X106448500Y-68960763D01*
X106397706Y-68912788D01*
X106380912Y-68844966D01*
X106403451Y-68778832D01*
X106448508Y-68739793D01*
X106457816Y-68735051D01*
X106587566Y-68640783D01*
X106629786Y-68610109D01*
X106629788Y-68610106D01*
X106629792Y-68610104D01*
X106780104Y-68459792D01*
X106780106Y-68459788D01*
X106780109Y-68459786D01*
X106905048Y-68287820D01*
X106905047Y-68287820D01*
X106905051Y-68287816D01*
X107001557Y-68098412D01*
X107067246Y-67896243D01*
X107100500Y-67686287D01*
X107100500Y-67473713D01*
X107067246Y-67263757D01*
X107001557Y-67061588D01*
X106905051Y-66872184D01*
X106905049Y-66872181D01*
X106905048Y-66872179D01*
X106780109Y-66700213D01*
X106629786Y-66549890D01*
X106457820Y-66424951D01*
X106456935Y-66424500D01*
X106449054Y-66420485D01*
X106398259Y-66372512D01*
X106381463Y-66304692D01*
X106403999Y-66238556D01*
X106449054Y-66199515D01*
X106457816Y-66195051D01*
X106519825Y-66149999D01*
X106629786Y-66070109D01*
X106629788Y-66070106D01*
X106629792Y-66070104D01*
X106780104Y-65919792D01*
X106780106Y-65919788D01*
X106780109Y-65919786D01*
X106905048Y-65747820D01*
X106905047Y-65747820D01*
X106905051Y-65747816D01*
X107001557Y-65558412D01*
X107067246Y-65356243D01*
X107100500Y-65146287D01*
X107100500Y-64933713D01*
X107067246Y-64723757D01*
X107001557Y-64521588D01*
X106905051Y-64332184D01*
X106905049Y-64332181D01*
X106905048Y-64332179D01*
X106780109Y-64160213D01*
X106629786Y-64009890D01*
X106457820Y-63884951D01*
X106457115Y-63884591D01*
X106449054Y-63880485D01*
X106398259Y-63832512D01*
X106381463Y-63764692D01*
X106403999Y-63698556D01*
X106449054Y-63659515D01*
X106457816Y-63655051D01*
X106495094Y-63627967D01*
X106629786Y-63530109D01*
X106629788Y-63530106D01*
X106629792Y-63530104D01*
X106780104Y-63379792D01*
X106780106Y-63379788D01*
X106780109Y-63379786D01*
X106905048Y-63207820D01*
X106905047Y-63207820D01*
X106905051Y-63207816D01*
X107001557Y-63018412D01*
X107067246Y-62816243D01*
X107100500Y-62606287D01*
X107100500Y-62606284D01*
X107100883Y-62601424D01*
X107102812Y-62601575D01*
X107120185Y-62542413D01*
X107172989Y-62496658D01*
X107242147Y-62486714D01*
X107305703Y-62515739D01*
X107312181Y-62521771D01*
X112386016Y-67595606D01*
X112386045Y-67595637D01*
X112476263Y-67685855D01*
X112476267Y-67685858D01*
X112578707Y-67754307D01*
X112578713Y-67754310D01*
X112578714Y-67754311D01*
X112692548Y-67801463D01*
X112717912Y-67806508D01*
X112752489Y-67813386D01*
X112752509Y-67813389D01*
X112752531Y-67813394D01*
X112813391Y-67825499D01*
X112813392Y-67825500D01*
X112813393Y-67825500D01*
X112813394Y-67825500D01*
X123389548Y-67825500D01*
X123456587Y-67845185D01*
X123477229Y-67861819D01*
X128911016Y-73295606D01*
X128911045Y-73295637D01*
X129001263Y-73385855D01*
X129001267Y-73385858D01*
X129103707Y-73454307D01*
X129103716Y-73454312D01*
X129124739Y-73463020D01*
X129217548Y-73501463D01*
X129277971Y-73513481D01*
X129338393Y-73525500D01*
X141811607Y-73525500D01*
X141872029Y-73513481D01*
X141932452Y-73501463D01*
X141965792Y-73487652D01*
X142046286Y-73454312D01*
X142098384Y-73419500D01*
X142148733Y-73385858D01*
X142235858Y-73298733D01*
X142235858Y-73298731D01*
X142246066Y-73288524D01*
X142246067Y-73288521D01*
X143472772Y-72061819D01*
X143534095Y-72028334D01*
X143560453Y-72025500D01*
X146461607Y-72025500D01*
X146522029Y-72013481D01*
X146582452Y-72001463D01*
X146627144Y-71982951D01*
X146696286Y-71954312D01*
X146747509Y-71920084D01*
X146798733Y-71885858D01*
X146885858Y-71798733D01*
X146885859Y-71798731D01*
X146892925Y-71791665D01*
X146892928Y-71791661D01*
X147484603Y-71199986D01*
X150950001Y-71199986D01*
X150960494Y-71302697D01*
X151015641Y-71469119D01*
X151015643Y-71469124D01*
X151107684Y-71618345D01*
X151231654Y-71742315D01*
X151380875Y-71834356D01*
X151380880Y-71834358D01*
X151547302Y-71889505D01*
X151547309Y-71889506D01*
X151650019Y-71899999D01*
X152099999Y-71899999D01*
X152600000Y-71899999D01*
X153049972Y-71899999D01*
X153049986Y-71899998D01*
X153152697Y-71889505D01*
X153319119Y-71834358D01*
X153319124Y-71834356D01*
X153468345Y-71742315D01*
X153592315Y-71618345D01*
X153684356Y-71469124D01*
X153684358Y-71469119D01*
X153739505Y-71302697D01*
X153739506Y-71302690D01*
X153749999Y-71199986D01*
X153750000Y-71199973D01*
X153750000Y-71075000D01*
X152600000Y-71075000D01*
X152600000Y-71899999D01*
X152099999Y-71899999D01*
X152100000Y-71899998D01*
X152100000Y-71075000D01*
X150950001Y-71075000D01*
X150950001Y-71199986D01*
X147484603Y-71199986D01*
X147598729Y-71085860D01*
X147598733Y-71085858D01*
X147685858Y-70998733D01*
X147719928Y-70947743D01*
X147719931Y-70947740D01*
X147734393Y-70926095D01*
X147734393Y-70926094D01*
X147734399Y-70926086D01*
X147754312Y-70896285D01*
X147801463Y-70782451D01*
X147803364Y-70772897D01*
X147806430Y-70757483D01*
X167915500Y-70757483D01*
X167915500Y-71482501D01*
X167915501Y-71482519D01*
X167926000Y-71585296D01*
X167926001Y-71585299D01*
X167978032Y-71742315D01*
X167981186Y-71751834D01*
X168073288Y-71901156D01*
X168197344Y-72025212D01*
X168346666Y-72117314D01*
X168513203Y-72172499D01*
X168615991Y-72183000D01*
X169966008Y-72182999D01*
X170068797Y-72172499D01*
X170235334Y-72117314D01*
X170384656Y-72025212D01*
X170508712Y-71901156D01*
X170600814Y-71751834D01*
X170655999Y-71585297D01*
X170666500Y-71482509D01*
X170666499Y-70757492D01*
X170655999Y-70654703D01*
X170600814Y-70488166D01*
X170508712Y-70338844D01*
X170384656Y-70214788D01*
X170235334Y-70122686D01*
X170068797Y-70067501D01*
X170068795Y-70067500D01*
X170027896Y-70063322D01*
X169963205Y-70036925D01*
X169923054Y-69979744D01*
X169916500Y-69939964D01*
X169916500Y-68763451D01*
X169936185Y-68696412D01*
X169952815Y-68675774D01*
X170832729Y-67795860D01*
X170832733Y-67795858D01*
X170919858Y-67708733D01*
X170970494Y-67632951D01*
X170988312Y-67606286D01*
X171030798Y-67503714D01*
X171035463Y-67492452D01*
X171059500Y-67371606D01*
X171059500Y-65737783D01*
X171079185Y-65670744D01*
X171095814Y-65650106D01*
X171211139Y-65534782D01*
X171320632Y-65370914D01*
X171396051Y-65188835D01*
X171416381Y-65086632D01*
X171434500Y-64995543D01*
X171434500Y-64798456D01*
X171396052Y-64605170D01*
X171396051Y-64605169D01*
X171396051Y-64605165D01*
X171384944Y-64578349D01*
X171320635Y-64423092D01*
X171320628Y-64423079D01*
X171211139Y-64259218D01*
X171211136Y-64259214D01*
X171071785Y-64119863D01*
X171071781Y-64119860D01*
X170907920Y-64010371D01*
X170907907Y-64010364D01*
X170725839Y-63934950D01*
X170725829Y-63934947D01*
X170560973Y-63902155D01*
X191050000Y-63902155D01*
X191050000Y-64550000D01*
X191966988Y-64550000D01*
X191934075Y-64607007D01*
X191900000Y-64734174D01*
X191900000Y-64865826D01*
X191934075Y-64992993D01*
X191966988Y-65050000D01*
X191050000Y-65050000D01*
X191050000Y-65697844D01*
X191056401Y-65757372D01*
X191056403Y-65757379D01*
X191106645Y-65892086D01*
X191106649Y-65892093D01*
X191192809Y-66007187D01*
X191192812Y-66007190D01*
X191307906Y-66093350D01*
X191307913Y-66093354D01*
X191442620Y-66143596D01*
X191442627Y-66143598D01*
X191502155Y-66149999D01*
X191502172Y-66150000D01*
X192150000Y-66150000D01*
X192150000Y-65233012D01*
X192207007Y-65265925D01*
X192334174Y-65300000D01*
X192465826Y-65300000D01*
X192592993Y-65265925D01*
X192650000Y-65233012D01*
X192650000Y-66150000D01*
X193297828Y-66150000D01*
X193297844Y-66149999D01*
X193357372Y-66143598D01*
X193357379Y-66143596D01*
X193492086Y-66093354D01*
X193492093Y-66093350D01*
X193607187Y-66007190D01*
X193607190Y-66007187D01*
X193693350Y-65892093D01*
X193693354Y-65892086D01*
X193743596Y-65757379D01*
X193743598Y-65757372D01*
X193749999Y-65697844D01*
X193750000Y-65697827D01*
X193750000Y-65050000D01*
X192833012Y-65050000D01*
X192865925Y-64992993D01*
X192900000Y-64865826D01*
X192900000Y-64734174D01*
X192865925Y-64607007D01*
X192833012Y-64550000D01*
X193750000Y-64550000D01*
X193750000Y-63902172D01*
X193749999Y-63902155D01*
X193743598Y-63842627D01*
X193743596Y-63842620D01*
X193693354Y-63707913D01*
X193693350Y-63707906D01*
X193607190Y-63592812D01*
X193607187Y-63592809D01*
X193492093Y-63506649D01*
X193492086Y-63506645D01*
X193357379Y-63456403D01*
X193357372Y-63456401D01*
X193297844Y-63450000D01*
X192650000Y-63450000D01*
X192650000Y-64366988D01*
X192592993Y-64334075D01*
X192465826Y-64300000D01*
X192334174Y-64300000D01*
X192207007Y-64334075D01*
X192150000Y-64366988D01*
X192150000Y-63450000D01*
X191502155Y-63450000D01*
X191442627Y-63456401D01*
X191442620Y-63456403D01*
X191307913Y-63506645D01*
X191307906Y-63506649D01*
X191192812Y-63592809D01*
X191192809Y-63592812D01*
X191106649Y-63707906D01*
X191106645Y-63707913D01*
X191056403Y-63842620D01*
X191056401Y-63842627D01*
X191050000Y-63902155D01*
X170560973Y-63902155D01*
X170532543Y-63896500D01*
X170532541Y-63896500D01*
X170335459Y-63896500D01*
X170335457Y-63896500D01*
X170142170Y-63934947D01*
X170142160Y-63934950D01*
X169960092Y-64010364D01*
X169960079Y-64010371D01*
X169796218Y-64119860D01*
X169796214Y-64119863D01*
X169656863Y-64259214D01*
X169656860Y-64259218D01*
X169547371Y-64423079D01*
X169547364Y-64423092D01*
X169471950Y-64605160D01*
X169471947Y-64605170D01*
X169433500Y-64798456D01*
X169433500Y-64798459D01*
X169433500Y-64995541D01*
X169433500Y-64995543D01*
X169433499Y-64995543D01*
X169471947Y-65188829D01*
X169471950Y-65188839D01*
X169547364Y-65370907D01*
X169547371Y-65370920D01*
X169656859Y-65534780D01*
X169656860Y-65534781D01*
X169656861Y-65534782D01*
X169772182Y-65650103D01*
X169805666Y-65711424D01*
X169808500Y-65737783D01*
X169808500Y-66999547D01*
X169788815Y-67066586D01*
X169772181Y-67087228D01*
X168894827Y-67964581D01*
X168894818Y-67964590D01*
X168892270Y-67967139D01*
X168892267Y-67967142D01*
X168805142Y-68054267D01*
X168780040Y-68091835D01*
X168775281Y-68098956D01*
X168775280Y-68098958D01*
X168736687Y-68156714D01*
X168736685Y-68156718D01*
X168706767Y-68228947D01*
X168706764Y-68228955D01*
X168703347Y-68237207D01*
X168689537Y-68270548D01*
X168687972Y-68278416D01*
X168666177Y-68387992D01*
X168665542Y-68391179D01*
X168665539Y-68391194D01*
X168665500Y-68391389D01*
X168665500Y-69939965D01*
X168645815Y-70007004D01*
X168593011Y-70052759D01*
X168554102Y-70063323D01*
X168513202Y-70067501D01*
X168513200Y-70067501D01*
X168346668Y-70122685D01*
X168346663Y-70122687D01*
X168197342Y-70214789D01*
X168073289Y-70338842D01*
X168068071Y-70347302D01*
X168021777Y-70422358D01*
X167981190Y-70488160D01*
X167981185Y-70488168D01*
X167981075Y-70488500D01*
X167926001Y-70654703D01*
X167926001Y-70654704D01*
X167926000Y-70654704D01*
X167915500Y-70757483D01*
X147806430Y-70757483D01*
X147810365Y-70737698D01*
X147810364Y-70737698D01*
X147825501Y-70661606D01*
X147825501Y-70538393D01*
X147825500Y-70538387D01*
X147825500Y-68640783D01*
X147845185Y-68573744D01*
X147861814Y-68553106D01*
X147977139Y-68437782D01*
X148086632Y-68273914D01*
X148162051Y-68091835D01*
X148180608Y-67998543D01*
X149049499Y-67998543D01*
X149087947Y-68191829D01*
X149087950Y-68191839D01*
X149163364Y-68373907D01*
X149163371Y-68373920D01*
X149272860Y-68537781D01*
X149272863Y-68537785D01*
X149412214Y-68677136D01*
X149412218Y-68677139D01*
X149576079Y-68786628D01*
X149576092Y-68786635D01*
X149742559Y-68855587D01*
X149758165Y-68862051D01*
X149758169Y-68862051D01*
X149758170Y-68862052D01*
X149951456Y-68900500D01*
X149951459Y-68900500D01*
X150148543Y-68900500D01*
X150278582Y-68874632D01*
X150341835Y-68862051D01*
X150482655Y-68803721D01*
X150523907Y-68786635D01*
X150523907Y-68786634D01*
X150523914Y-68786632D01*
X150687782Y-68677139D01*
X150803103Y-68561817D01*
X150830034Y-68547111D01*
X150855848Y-68530523D01*
X150862047Y-68529631D01*
X150864424Y-68528334D01*
X150890783Y-68525500D01*
X150949782Y-68525500D01*
X151016821Y-68545185D01*
X151055319Y-68584401D01*
X151107288Y-68668656D01*
X151231344Y-68792712D01*
X151380666Y-68884814D01*
X151380667Y-68884814D01*
X151386813Y-68888605D01*
X151385789Y-68890265D01*
X151430836Y-68929918D01*
X151450000Y-68996141D01*
X151450000Y-69704413D01*
X151430315Y-69771452D01*
X151385989Y-69810171D01*
X151387025Y-69811851D01*
X151231654Y-69907684D01*
X151107684Y-70031654D01*
X151015643Y-70180875D01*
X151015641Y-70180880D01*
X150960494Y-70347302D01*
X150960493Y-70347309D01*
X150950000Y-70450013D01*
X150950000Y-70575000D01*
X153749999Y-70575000D01*
X153749999Y-70450028D01*
X153749998Y-70450013D01*
X153739505Y-70347302D01*
X153684358Y-70180880D01*
X153684356Y-70180875D01*
X153592315Y-70031654D01*
X153468345Y-69907684D01*
X153312975Y-69811851D01*
X153314032Y-69810137D01*
X153269153Y-69770619D01*
X153250000Y-69704413D01*
X153250000Y-68996141D01*
X153269685Y-68929102D01*
X153314190Y-68890231D01*
X153313187Y-68888605D01*
X153319332Y-68884814D01*
X153319334Y-68884814D01*
X153468656Y-68792712D01*
X153592712Y-68668656D01*
X153684814Y-68519334D01*
X153739999Y-68352797D01*
X153750500Y-68250009D01*
X153750499Y-67499992D01*
X153739999Y-67397203D01*
X153684814Y-67230666D01*
X153592712Y-67081344D01*
X153468656Y-66957288D01*
X153374966Y-66899500D01*
X153319336Y-66865187D01*
X153319331Y-66865185D01*
X153317862Y-66864698D01*
X153152797Y-66810001D01*
X153152795Y-66810000D01*
X153050010Y-66799500D01*
X151649998Y-66799500D01*
X151649981Y-66799501D01*
X151547203Y-66810000D01*
X151547200Y-66810001D01*
X151380668Y-66865185D01*
X151380663Y-66865187D01*
X151231342Y-66957289D01*
X151107289Y-67081342D01*
X151024481Y-67215597D01*
X151016893Y-67222421D01*
X151012655Y-67231703D01*
X150991355Y-67245391D01*
X150972533Y-67262321D01*
X150960897Y-67264965D01*
X150953877Y-67269477D01*
X150918942Y-67274500D01*
X150890783Y-67274500D01*
X150823744Y-67254815D01*
X150803106Y-67238185D01*
X150687782Y-67122861D01*
X150687781Y-67122860D01*
X150687780Y-67122859D01*
X150523920Y-67013371D01*
X150523907Y-67013364D01*
X150341839Y-66937950D01*
X150341829Y-66937947D01*
X150148543Y-66899500D01*
X150148541Y-66899500D01*
X149951459Y-66899500D01*
X149951457Y-66899500D01*
X149758170Y-66937947D01*
X149758160Y-66937950D01*
X149576092Y-67013364D01*
X149576079Y-67013371D01*
X149412218Y-67122860D01*
X149412214Y-67122863D01*
X149272863Y-67262214D01*
X149272860Y-67262218D01*
X149163371Y-67426079D01*
X149163364Y-67426092D01*
X149087950Y-67608160D01*
X149087947Y-67608170D01*
X149049500Y-67801456D01*
X149049500Y-67801459D01*
X149049500Y-67998541D01*
X149049500Y-67998543D01*
X149049499Y-67998543D01*
X148180608Y-67998543D01*
X148200500Y-67898541D01*
X148200500Y-67701459D01*
X148200500Y-67701456D01*
X148162052Y-67508170D01*
X148162051Y-67508169D01*
X148162051Y-67508165D01*
X148137434Y-67448733D01*
X148086635Y-67326092D01*
X148086628Y-67326079D01*
X147977139Y-67162218D01*
X147977136Y-67162214D01*
X147837785Y-67022863D01*
X147837781Y-67022860D01*
X147673920Y-66913371D01*
X147673907Y-66913364D01*
X147491839Y-66837950D01*
X147491829Y-66837947D01*
X147298543Y-66799500D01*
X147298541Y-66799500D01*
X147101459Y-66799500D01*
X147101457Y-66799500D01*
X146908170Y-66837947D01*
X146908160Y-66837950D01*
X146726092Y-66913364D01*
X146726079Y-66913371D01*
X146562218Y-67022860D01*
X146562214Y-67022863D01*
X146422863Y-67162214D01*
X146422860Y-67162218D01*
X146313371Y-67326079D01*
X146313364Y-67326092D01*
X146237950Y-67508160D01*
X146237947Y-67508169D01*
X146221031Y-67593210D01*
X146188645Y-67655121D01*
X146127929Y-67689694D01*
X146086813Y-67692375D01*
X146043991Y-67688000D01*
X145919000Y-67688000D01*
X145919000Y-70487999D01*
X146043972Y-70487999D01*
X146043986Y-70487998D01*
X146124293Y-70479794D01*
X146192985Y-70492563D01*
X146243870Y-70540444D01*
X146260791Y-70608233D01*
X146238376Y-70674410D01*
X146224577Y-70690832D01*
X146177230Y-70738180D01*
X146115907Y-70771666D01*
X146089548Y-70774500D01*
X143311606Y-70774500D01*
X143188393Y-70774500D01*
X143168406Y-70778475D01*
X143148419Y-70782451D01*
X143148418Y-70782450D01*
X143067555Y-70798535D01*
X143067547Y-70798537D01*
X142953716Y-70845687D01*
X142877991Y-70896286D01*
X142877990Y-70896287D01*
X142851263Y-70914144D01*
X142851262Y-70914145D01*
X141527229Y-72238181D01*
X141465906Y-72271666D01*
X141439548Y-72274500D01*
X138750855Y-72274500D01*
X138683816Y-72254815D01*
X138638061Y-72202011D01*
X138628117Y-72132853D01*
X138657142Y-72069297D01*
X138681959Y-72047400D01*
X138719649Y-72022218D01*
X138778416Y-71982952D01*
X138778416Y-71982951D01*
X138778420Y-71982949D01*
X138778421Y-71982947D01*
X139176073Y-71585295D01*
X140625379Y-70135987D01*
X140686700Y-70102504D01*
X140695176Y-70101169D01*
X140698539Y-70100500D01*
X140698541Y-70100500D01*
X140891835Y-70062051D01*
X141073914Y-69986632D01*
X141203736Y-69899888D01*
X141242847Y-69873755D01*
X141243867Y-69875282D01*
X141258791Y-69868943D01*
X141279675Y-69855523D01*
X141295876Y-69853193D01*
X141300255Y-69851334D01*
X141314610Y-69850500D01*
X141551107Y-69850500D01*
X141618146Y-69870185D01*
X141663901Y-69922989D01*
X141668811Y-69935492D01*
X141709186Y-70057334D01*
X141801288Y-70206656D01*
X141925344Y-70330712D01*
X142074666Y-70422814D01*
X142241203Y-70477999D01*
X142343991Y-70488500D01*
X143094008Y-70488499D01*
X143094016Y-70488498D01*
X143094019Y-70488498D01*
X143150302Y-70482748D01*
X143196797Y-70477999D01*
X143363334Y-70422814D01*
X143512656Y-70330712D01*
X143636712Y-70206656D01*
X143728814Y-70057334D01*
X143728815Y-70057331D01*
X143732605Y-70051187D01*
X143734799Y-70052540D01*
X143772997Y-70009157D01*
X143839209Y-69990000D01*
X144549346Y-69990000D01*
X144616385Y-70009685D01*
X144653639Y-70052338D01*
X144655851Y-70050975D01*
X144751684Y-70206345D01*
X144875654Y-70330315D01*
X145024875Y-70422356D01*
X145024880Y-70422358D01*
X145191302Y-70477505D01*
X145191309Y-70477506D01*
X145294019Y-70487999D01*
X145418999Y-70487999D01*
X145419000Y-70487998D01*
X145419000Y-67688000D01*
X145294027Y-67688000D01*
X145294012Y-67688001D01*
X145191302Y-67698494D01*
X145024880Y-67753641D01*
X145024875Y-67753643D01*
X144875654Y-67845684D01*
X144751684Y-67969654D01*
X144664442Y-68111097D01*
X144612494Y-68157821D01*
X144558903Y-68170000D01*
X143829684Y-68170000D01*
X143762645Y-68150315D01*
X143724145Y-68111097D01*
X143716658Y-68098958D01*
X143636712Y-67969344D01*
X143512656Y-67845288D01*
X143365158Y-67754311D01*
X143363336Y-67753187D01*
X143363331Y-67753185D01*
X143361862Y-67752698D01*
X143196797Y-67698001D01*
X143196795Y-67698000D01*
X143094010Y-67687500D01*
X142343998Y-67687500D01*
X142343980Y-67687501D01*
X142241203Y-67698000D01*
X142241200Y-67698001D01*
X142074668Y-67753185D01*
X142074663Y-67753187D01*
X141925342Y-67845289D01*
X141801289Y-67969342D01*
X141709187Y-68118663D01*
X141709185Y-68118668D01*
X141660860Y-68264504D01*
X141646989Y-68284536D01*
X141636867Y-68306703D01*
X141627454Y-68312751D01*
X141621087Y-68321949D01*
X141598588Y-68331302D01*
X141578089Y-68344477D01*
X141560987Y-68346935D01*
X141556571Y-68348772D01*
X141543154Y-68349500D01*
X141349500Y-68349500D01*
X141282461Y-68329815D01*
X141236706Y-68277011D01*
X141225500Y-68225500D01*
X141225500Y-64060452D01*
X141245185Y-63993413D01*
X141261819Y-63972771D01*
X142572771Y-62661819D01*
X142634094Y-62628334D01*
X142660452Y-62625500D01*
X144359217Y-62625500D01*
X144388657Y-62634144D01*
X144418644Y-62640668D01*
X144423659Y-62644422D01*
X144426256Y-62645185D01*
X144446898Y-62661819D01*
X144538181Y-62753102D01*
X144571666Y-62814425D01*
X144574500Y-62840783D01*
X144574500Y-63088393D01*
X144574500Y-63211607D01*
X144579740Y-63237949D01*
X144598537Y-63332452D01*
X144612347Y-63365792D01*
X144615577Y-63373591D01*
X144615579Y-63373597D01*
X144645685Y-63446281D01*
X144645690Y-63446290D01*
X144667108Y-63478343D01*
X144667109Y-63478344D01*
X144714141Y-63548732D01*
X144714144Y-63548736D01*
X144805586Y-63640178D01*
X144805608Y-63640198D01*
X146414139Y-65248729D01*
X146414142Y-65248733D01*
X146501267Y-65335858D01*
X146552490Y-65370084D01*
X146603714Y-65404312D01*
X146603715Y-65404312D01*
X146603716Y-65404313D01*
X146677390Y-65434829D01*
X146677394Y-65434830D01*
X146684207Y-65437652D01*
X146717548Y-65451463D01*
X146777971Y-65463481D01*
X146838393Y-65475500D01*
X154311607Y-65475500D01*
X154372029Y-65463481D01*
X154432452Y-65451463D01*
X154465792Y-65437652D01*
X154546286Y-65404312D01*
X154597509Y-65370084D01*
X154648733Y-65335858D01*
X154735858Y-65248733D01*
X154735858Y-65248731D01*
X154746066Y-65238524D01*
X154746067Y-65238521D01*
X156685857Y-63298734D01*
X156695512Y-63284284D01*
X156700289Y-63277137D01*
X156754307Y-63196292D01*
X156754307Y-63196291D01*
X156754311Y-63196286D01*
X156801463Y-63082452D01*
X156814201Y-63018412D01*
X156824319Y-62967549D01*
X156824319Y-62967543D01*
X156825500Y-62961607D01*
X156825500Y-62838394D01*
X156825500Y-56740783D01*
X156845185Y-56673744D01*
X156861814Y-56653106D01*
X156977139Y-56537782D01*
X157086632Y-56373914D01*
X157095507Y-56352489D01*
X157149199Y-56222863D01*
X157162051Y-56191835D01*
X157192662Y-56037947D01*
X157200500Y-55998543D01*
X157200500Y-55801456D01*
X157162052Y-55608170D01*
X157162051Y-55608169D01*
X157162051Y-55608165D01*
X157128984Y-55528334D01*
X157086635Y-55426092D01*
X157086628Y-55426079D01*
X156977139Y-55262218D01*
X156977136Y-55262214D01*
X156837785Y-55122863D01*
X156837781Y-55122860D01*
X156673920Y-55013371D01*
X156673907Y-55013364D01*
X156491839Y-54937950D01*
X156491829Y-54937947D01*
X156298543Y-54899500D01*
X156298541Y-54899500D01*
X156101459Y-54899500D01*
X156101457Y-54899500D01*
X155908170Y-54937947D01*
X155908160Y-54937950D01*
X155726092Y-55013364D01*
X155726079Y-55013371D01*
X155562218Y-55122860D01*
X155562214Y-55122863D01*
X155422863Y-55262214D01*
X155422860Y-55262218D01*
X155313371Y-55426079D01*
X155313364Y-55426092D01*
X155237950Y-55608160D01*
X155237947Y-55608170D01*
X155199500Y-55801456D01*
X155199500Y-55801459D01*
X155199500Y-55998541D01*
X155199500Y-55998543D01*
X155199499Y-55998543D01*
X155237947Y-56191829D01*
X155237950Y-56191839D01*
X155313364Y-56373907D01*
X155313371Y-56373920D01*
X155422859Y-56537780D01*
X155422860Y-56537781D01*
X155422861Y-56537782D01*
X155538182Y-56653103D01*
X155571666Y-56714424D01*
X155574500Y-56740783D01*
X155574500Y-59475500D01*
X155554815Y-59542539D01*
X155502011Y-59588294D01*
X155450500Y-59599500D01*
X155276457Y-59599500D01*
X155083170Y-59637947D01*
X155083160Y-59637950D01*
X154901092Y-59713364D01*
X154901079Y-59713371D01*
X154737218Y-59822860D01*
X154737214Y-59822863D01*
X154597863Y-59962214D01*
X154597860Y-59962218D01*
X154488371Y-60126079D01*
X154485498Y-60131456D01*
X154483618Y-60130451D01*
X154445841Y-60177345D01*
X154379550Y-60199420D01*
X154375105Y-60199500D01*
X151813392Y-60199500D01*
X151804508Y-60201267D01*
X151804507Y-60201266D01*
X151692555Y-60223535D01*
X151692545Y-60223538D01*
X151578716Y-60270687D01*
X151522628Y-60308165D01*
X151522627Y-60308166D01*
X151476263Y-60339144D01*
X151476262Y-60339145D01*
X149052228Y-62763181D01*
X148990905Y-62796666D01*
X148964547Y-62799500D01*
X148801457Y-62799500D01*
X148608170Y-62837947D01*
X148608160Y-62837950D01*
X148426092Y-62913364D01*
X148426079Y-62913371D01*
X148262218Y-63022860D01*
X148262214Y-63022863D01*
X148122863Y-63162214D01*
X148122860Y-63162218D01*
X148013371Y-63326079D01*
X148013364Y-63326092D01*
X147937950Y-63508160D01*
X147937947Y-63508170D01*
X147899500Y-63701456D01*
X147899500Y-63898545D01*
X147934860Y-64076309D01*
X147928633Y-64145900D01*
X147885770Y-64201077D01*
X147819880Y-64224322D01*
X147813243Y-64224500D01*
X147210452Y-64224500D01*
X147143413Y-64204815D01*
X147122771Y-64188181D01*
X145862436Y-62927846D01*
X145828951Y-62866523D01*
X145833935Y-62796831D01*
X145862432Y-62752488D01*
X145977139Y-62637782D01*
X146086632Y-62473914D01*
X146162051Y-62291835D01*
X146200500Y-62098541D01*
X146200500Y-61901459D01*
X146200500Y-61901456D01*
X146162052Y-61708170D01*
X146162051Y-61708169D01*
X146162051Y-61708165D01*
X146145321Y-61667775D01*
X146086635Y-61526092D01*
X146086628Y-61526079D01*
X145973755Y-61357153D01*
X145975278Y-61356135D01*
X145951331Y-61299723D01*
X145950500Y-61285389D01*
X145950500Y-60836867D01*
X145970185Y-60769828D01*
X145989386Y-60748656D01*
X145988549Y-60747819D01*
X146048049Y-60688319D01*
X146117712Y-60618656D01*
X146209814Y-60469334D01*
X146264999Y-60302797D01*
X146275500Y-60200009D01*
X146275500Y-60198543D01*
X148599499Y-60198543D01*
X148637947Y-60391829D01*
X148637950Y-60391839D01*
X148713364Y-60573907D01*
X148713371Y-60573920D01*
X148822860Y-60737781D01*
X148822863Y-60737785D01*
X148962214Y-60877136D01*
X148962218Y-60877139D01*
X149126079Y-60986628D01*
X149126092Y-60986635D01*
X149289039Y-61054129D01*
X149308165Y-61062051D01*
X149308169Y-61062051D01*
X149308170Y-61062052D01*
X149501456Y-61100500D01*
X149501459Y-61100500D01*
X149698543Y-61100500D01*
X149828582Y-61074632D01*
X149891835Y-61062051D01*
X150043712Y-60999142D01*
X150073907Y-60986635D01*
X150073907Y-60986634D01*
X150073914Y-60986632D01*
X150237782Y-60877139D01*
X150377139Y-60737782D01*
X150486632Y-60573914D01*
X150562051Y-60391835D01*
X150581942Y-60291839D01*
X150600500Y-60198543D01*
X150600500Y-60035451D01*
X150620185Y-59968412D01*
X150636819Y-59947770D01*
X150822982Y-59761607D01*
X150997154Y-59587434D01*
X151058476Y-59553951D01*
X151128168Y-59558935D01*
X151172513Y-59587434D01*
X151223026Y-59637947D01*
X151262219Y-59677140D01*
X151426079Y-59786628D01*
X151426092Y-59786635D01*
X151580440Y-59850567D01*
X151608165Y-59862051D01*
X151608169Y-59862051D01*
X151608170Y-59862052D01*
X151801456Y-59900500D01*
X151801459Y-59900500D01*
X151998543Y-59900500D01*
X152128582Y-59874632D01*
X152191835Y-59862051D01*
X152373914Y-59786632D01*
X152537782Y-59677139D01*
X152677139Y-59537782D01*
X152786632Y-59373914D01*
X152862051Y-59191835D01*
X152880982Y-59096666D01*
X152900500Y-58998543D01*
X152900500Y-58801456D01*
X152862052Y-58608170D01*
X152862051Y-58608169D01*
X152862051Y-58608165D01*
X152850747Y-58580875D01*
X152786635Y-58426092D01*
X152786628Y-58426079D01*
X152677139Y-58262218D01*
X152677136Y-58262214D01*
X152537785Y-58122863D01*
X152537781Y-58122860D01*
X152373920Y-58013371D01*
X152373907Y-58013364D01*
X152191839Y-57937950D01*
X152191829Y-57937947D01*
X151998543Y-57899500D01*
X151998541Y-57899500D01*
X151801459Y-57899500D01*
X151801457Y-57899500D01*
X151608170Y-57937947D01*
X151608160Y-57937950D01*
X151426092Y-58013364D01*
X151426079Y-58013371D01*
X151262219Y-58122859D01*
X151224586Y-58160493D01*
X151146896Y-58238182D01*
X151085576Y-58271666D01*
X151059217Y-58274500D01*
X150738389Y-58274500D01*
X150677971Y-58286518D01*
X150634743Y-58295116D01*
X150617546Y-58298537D01*
X150503716Y-58345687D01*
X150503707Y-58345692D01*
X150401268Y-58414140D01*
X150357705Y-58457703D01*
X150314142Y-58501267D01*
X149752228Y-59063181D01*
X149690905Y-59096666D01*
X149664547Y-59099500D01*
X149501457Y-59099500D01*
X149308170Y-59137947D01*
X149308160Y-59137950D01*
X149126092Y-59213364D01*
X149126079Y-59213371D01*
X148962218Y-59322860D01*
X148962214Y-59322863D01*
X148822863Y-59462214D01*
X148822860Y-59462218D01*
X148713371Y-59626079D01*
X148713364Y-59626092D01*
X148637950Y-59808160D01*
X148637947Y-59808170D01*
X148599500Y-60001456D01*
X148599500Y-60001459D01*
X148599500Y-60198541D01*
X148599500Y-60198543D01*
X148599499Y-60198543D01*
X146275500Y-60198543D01*
X146275499Y-59475500D01*
X146275499Y-58799998D01*
X146275498Y-58799981D01*
X146264999Y-58697203D01*
X146264998Y-58697200D01*
X146235496Y-58608170D01*
X146209814Y-58530666D01*
X146117712Y-58381344D01*
X145993656Y-58257288D01*
X145988549Y-58252181D01*
X145990435Y-58250294D01*
X145957212Y-58203375D01*
X145950500Y-58163132D01*
X145950500Y-57714610D01*
X145970185Y-57647571D01*
X145975228Y-57640641D01*
X145977136Y-57637784D01*
X145977139Y-57637782D01*
X146086632Y-57473914D01*
X146162051Y-57291835D01*
X146200500Y-57098541D01*
X146200500Y-56901459D01*
X146200500Y-56901456D01*
X146162052Y-56708170D01*
X146162051Y-56708169D01*
X146162051Y-56708165D01*
X146149200Y-56677139D01*
X146086635Y-56526092D01*
X146086628Y-56526079D01*
X145977139Y-56362218D01*
X145977136Y-56362214D01*
X145837785Y-56222863D01*
X145837781Y-56222860D01*
X145673920Y-56113371D01*
X145673907Y-56113364D01*
X145491839Y-56037950D01*
X145491829Y-56037947D01*
X145298543Y-55999500D01*
X145298541Y-55999500D01*
X145101459Y-55999500D01*
X145101457Y-55999500D01*
X144908170Y-56037947D01*
X144908160Y-56037950D01*
X144726092Y-56113364D01*
X144726079Y-56113371D01*
X144562218Y-56222860D01*
X144562214Y-56222863D01*
X144422863Y-56362214D01*
X144422860Y-56362218D01*
X144313371Y-56526079D01*
X144313364Y-56526092D01*
X144237950Y-56708160D01*
X144237947Y-56708170D01*
X144199500Y-56901456D01*
X144199500Y-56901459D01*
X144199500Y-57098541D01*
X144199500Y-57098543D01*
X144199499Y-57098543D01*
X144237947Y-57291829D01*
X144237950Y-57291839D01*
X144313364Y-57473907D01*
X144313371Y-57473920D01*
X144426245Y-57642847D01*
X144424717Y-57643867D01*
X144448666Y-57700255D01*
X144449500Y-57714610D01*
X144449500Y-58163132D01*
X144429815Y-58230171D01*
X144410616Y-58251346D01*
X144411451Y-58252181D01*
X144282289Y-58381342D01*
X144190187Y-58530663D01*
X144190185Y-58530668D01*
X144173617Y-58580668D01*
X144135001Y-58697203D01*
X144135001Y-58697204D01*
X144135000Y-58697204D01*
X144124500Y-58799983D01*
X144124500Y-60200001D01*
X144124501Y-60200018D01*
X144135000Y-60302796D01*
X144135001Y-60302799D01*
X144190185Y-60469331D01*
X144190187Y-60469336D01*
X144212124Y-60504901D01*
X144282096Y-60618345D01*
X144282289Y-60618657D01*
X144411451Y-60747819D01*
X144409559Y-60749710D01*
X144442774Y-60796583D01*
X144449500Y-60836867D01*
X144449500Y-61250500D01*
X144429815Y-61317539D01*
X144377011Y-61363294D01*
X144325500Y-61374500D01*
X142288389Y-61374500D01*
X142167553Y-61398535D01*
X142167541Y-61398539D01*
X142135262Y-61411909D01*
X142120397Y-61418067D01*
X142053719Y-61445685D01*
X142053711Y-61445690D01*
X142040808Y-61454310D01*
X142040809Y-61454311D01*
X141951268Y-61514140D01*
X141907705Y-61557703D01*
X141864142Y-61601267D01*
X140203721Y-63261687D01*
X140203712Y-63261696D01*
X140201270Y-63264139D01*
X140201267Y-63264142D01*
X140114142Y-63351267D01*
X140091029Y-63385858D01*
X140050655Y-63446281D01*
X140045686Y-63453717D01*
X140045685Y-63453719D01*
X140024978Y-63503713D01*
X140024978Y-63503714D01*
X139998537Y-63567547D01*
X139998535Y-63567553D01*
X139986517Y-63627967D01*
X139986518Y-63627968D01*
X139974615Y-63687818D01*
X139974590Y-63687947D01*
X139974586Y-63687965D01*
X139973978Y-63691003D01*
X139941520Y-63752876D01*
X139880764Y-63787379D01*
X139810999Y-63783557D01*
X139783499Y-63769772D01*
X139773918Y-63763370D01*
X139773907Y-63763364D01*
X139591839Y-63687950D01*
X139591829Y-63687947D01*
X139398543Y-63649500D01*
X139398541Y-63649500D01*
X139201459Y-63649500D01*
X139201457Y-63649500D01*
X139008170Y-63687947D01*
X139008160Y-63687950D01*
X138826092Y-63763364D01*
X138826079Y-63763371D01*
X138662218Y-63872860D01*
X138662214Y-63872863D01*
X138522863Y-64012214D01*
X138522860Y-64012218D01*
X138413371Y-64176079D01*
X138413364Y-64176092D01*
X138337950Y-64358160D01*
X138337947Y-64358170D01*
X138299500Y-64551456D01*
X138299500Y-64714546D01*
X138279815Y-64781585D01*
X138263181Y-64802227D01*
X137865310Y-65200099D01*
X137058220Y-66007190D01*
X136677229Y-66388181D01*
X136615906Y-66421666D01*
X136589548Y-66424500D01*
X136190783Y-66424500D01*
X136123744Y-66404815D01*
X136103106Y-66388185D01*
X135987782Y-66272861D01*
X135987781Y-66272860D01*
X135987780Y-66272859D01*
X135823920Y-66163371D01*
X135823907Y-66163364D01*
X135641839Y-66087950D01*
X135641829Y-66087947D01*
X135448543Y-66049500D01*
X135448541Y-66049500D01*
X135251459Y-66049500D01*
X135251457Y-66049500D01*
X135058170Y-66087947D01*
X135058160Y-66087950D01*
X134876092Y-66163364D01*
X134876079Y-66163371D01*
X134712218Y-66272860D01*
X134712214Y-66272863D01*
X134572863Y-66412214D01*
X134572860Y-66412218D01*
X134463371Y-66576079D01*
X134463364Y-66576092D01*
X134387950Y-66758160D01*
X134387947Y-66758170D01*
X134349500Y-66951456D01*
X134349500Y-66951459D01*
X134349500Y-67148541D01*
X134349500Y-67148543D01*
X134349499Y-67148543D01*
X134387947Y-67341829D01*
X134387950Y-67341839D01*
X134463364Y-67523907D01*
X134463371Y-67523920D01*
X134572860Y-67687781D01*
X134572863Y-67687785D01*
X134712214Y-67827136D01*
X134712218Y-67827139D01*
X134876079Y-67936628D01*
X134876092Y-67936635D01*
X135058160Y-68012049D01*
X135058165Y-68012051D01*
X135058169Y-68012051D01*
X135058170Y-68012052D01*
X135251456Y-68050500D01*
X135251459Y-68050500D01*
X135448543Y-68050500D01*
X135578582Y-68024632D01*
X135641835Y-68012051D01*
X135823914Y-67936632D01*
X135987782Y-67827139D01*
X136103103Y-67711817D01*
X136164424Y-67678334D01*
X136190783Y-67675500D01*
X136961607Y-67675500D01*
X137022029Y-67663481D01*
X137082452Y-67651463D01*
X137127144Y-67632951D01*
X137196286Y-67604312D01*
X137247509Y-67570084D01*
X137298733Y-67535858D01*
X137385858Y-67448733D01*
X137385858Y-67448731D01*
X137396066Y-67438524D01*
X137396067Y-67438521D01*
X139147771Y-65686819D01*
X139209094Y-65653334D01*
X139235452Y-65650500D01*
X139398543Y-65650500D01*
X139528582Y-65624632D01*
X139591835Y-65612051D01*
X139773914Y-65536632D01*
X139776686Y-65534780D01*
X139781609Y-65531491D01*
X139848286Y-65510613D01*
X139915667Y-65529097D01*
X139962357Y-65581076D01*
X139974500Y-65634593D01*
X139974500Y-68259216D01*
X139954815Y-68326255D01*
X139938181Y-68346897D01*
X139822863Y-68462214D01*
X139822860Y-68462218D01*
X139713371Y-68626079D01*
X139713364Y-68626092D01*
X139637950Y-68808160D01*
X139637947Y-68808170D01*
X139598311Y-69007434D01*
X139596514Y-69007076D01*
X139573555Y-69063902D01*
X139564010Y-69074621D01*
X138025451Y-70613181D01*
X137964128Y-70646666D01*
X137937770Y-70649500D01*
X133114610Y-70649500D01*
X133047571Y-70629815D01*
X133040641Y-70624771D01*
X132873920Y-70513371D01*
X132873907Y-70513364D01*
X132691839Y-70437950D01*
X132691829Y-70437947D01*
X132498543Y-70399500D01*
X132498541Y-70399500D01*
X132301459Y-70399500D01*
X132301457Y-70399500D01*
X132108170Y-70437947D01*
X132108160Y-70437950D01*
X131926092Y-70513364D01*
X131926079Y-70513371D01*
X131762218Y-70622860D01*
X131762214Y-70622863D01*
X131622863Y-70762214D01*
X131622860Y-70762218D01*
X131513371Y-70926079D01*
X131513367Y-70926088D01*
X131437950Y-71108160D01*
X131437947Y-71108170D01*
X131399500Y-71301456D01*
X131399500Y-71301459D01*
X131399500Y-71498541D01*
X131399500Y-71498543D01*
X131399499Y-71498543D01*
X131437947Y-71691829D01*
X131437950Y-71691839D01*
X131513364Y-71873907D01*
X131513371Y-71873920D01*
X131622860Y-72037781D01*
X131622863Y-72037785D01*
X131647897Y-72062819D01*
X131681382Y-72124142D01*
X131676398Y-72193834D01*
X131634526Y-72249767D01*
X131569062Y-72274184D01*
X131560216Y-72274500D01*
X129710452Y-72274500D01*
X129643413Y-72254815D01*
X129622771Y-72238181D01*
X124193150Y-66808560D01*
X124185860Y-66801270D01*
X124185858Y-66801267D01*
X124098733Y-66714142D01*
X124047509Y-66679915D01*
X123996286Y-66645688D01*
X123996283Y-66645686D01*
X123996280Y-66645685D01*
X123922603Y-66615168D01*
X123922601Y-66615167D01*
X123915792Y-66612347D01*
X123882452Y-66598537D01*
X123822029Y-66586518D01*
X123817306Y-66585578D01*
X123817304Y-66585578D01*
X123761610Y-66574500D01*
X123761607Y-66574500D01*
X123761606Y-66574500D01*
X113185452Y-66574500D01*
X113118413Y-66554815D01*
X113097771Y-66538181D01*
X110858133Y-64298543D01*
X134699499Y-64298543D01*
X134737947Y-64491829D01*
X134737950Y-64491839D01*
X134813364Y-64673907D01*
X134813371Y-64673920D01*
X134922860Y-64837781D01*
X134922863Y-64837785D01*
X135062214Y-64977136D01*
X135062218Y-64977139D01*
X135226079Y-65086628D01*
X135226092Y-65086635D01*
X135370107Y-65146287D01*
X135408165Y-65162051D01*
X135408169Y-65162051D01*
X135408170Y-65162052D01*
X135601456Y-65200500D01*
X135601459Y-65200500D01*
X135798543Y-65200500D01*
X135928582Y-65174632D01*
X135991835Y-65162051D01*
X136173914Y-65086632D01*
X136337782Y-64977139D01*
X136453103Y-64861817D01*
X136514424Y-64828334D01*
X136540783Y-64825500D01*
X136861607Y-64825500D01*
X136922029Y-64813481D01*
X136982452Y-64801463D01*
X137027144Y-64782951D01*
X137096286Y-64754312D01*
X137160198Y-64711606D01*
X137198733Y-64685858D01*
X137285858Y-64598733D01*
X137285859Y-64598731D01*
X137292925Y-64591665D01*
X137292928Y-64591661D01*
X140498729Y-61385860D01*
X140498733Y-61385858D01*
X140585858Y-61298733D01*
X140641682Y-61215186D01*
X140654312Y-61196285D01*
X140693987Y-61100500D01*
X140701463Y-61082452D01*
X140707729Y-61050946D01*
X140720523Y-60986631D01*
X140720523Y-60986625D01*
X140725500Y-60961609D01*
X140725500Y-60199986D01*
X141175001Y-60199986D01*
X141185494Y-60302697D01*
X141240641Y-60469119D01*
X141240643Y-60469124D01*
X141332684Y-60618345D01*
X141456654Y-60742315D01*
X141605875Y-60834356D01*
X141605880Y-60834358D01*
X141772302Y-60889505D01*
X141772309Y-60889506D01*
X141875019Y-60899999D01*
X141999999Y-60899999D01*
X142500000Y-60899999D01*
X142624972Y-60899999D01*
X142624986Y-60899998D01*
X142727697Y-60889505D01*
X142894119Y-60834358D01*
X142894124Y-60834356D01*
X143043345Y-60742315D01*
X143167315Y-60618345D01*
X143259356Y-60469124D01*
X143259358Y-60469119D01*
X143314505Y-60302697D01*
X143314506Y-60302690D01*
X143324999Y-60199986D01*
X143325000Y-60199973D01*
X143325000Y-59750000D01*
X142500000Y-59750000D01*
X142500000Y-60899999D01*
X141999999Y-60899999D01*
X142000000Y-60899998D01*
X142000000Y-59750000D01*
X141175001Y-59750000D01*
X141175001Y-60199986D01*
X140725500Y-60199986D01*
X140725500Y-59640783D01*
X140745185Y-59573744D01*
X140761814Y-59553106D01*
X140877139Y-59437782D01*
X140919819Y-59373907D01*
X140987717Y-59272291D01*
X141041329Y-59227485D01*
X141110654Y-59218778D01*
X141173681Y-59248932D01*
X141174808Y-59250000D01*
X142000000Y-59250000D01*
X142500000Y-59250000D01*
X143324999Y-59250000D01*
X143324999Y-58800028D01*
X143324998Y-58800013D01*
X143314505Y-58697302D01*
X143259358Y-58530880D01*
X143259356Y-58530875D01*
X143167315Y-58381654D01*
X143043345Y-58257684D01*
X142894124Y-58165643D01*
X142894119Y-58165641D01*
X142727697Y-58110494D01*
X142727690Y-58110493D01*
X142624986Y-58100000D01*
X142500000Y-58100000D01*
X142500000Y-59250000D01*
X142000000Y-59250000D01*
X142000000Y-58100000D01*
X141875027Y-58100000D01*
X141875012Y-58100001D01*
X141772302Y-58110494D01*
X141605880Y-58165641D01*
X141605875Y-58165643D01*
X141456654Y-58257684D01*
X141332683Y-58381655D01*
X141332680Y-58381659D01*
X141266730Y-58488581D01*
X141214782Y-58535306D01*
X141145820Y-58546527D01*
X141081738Y-58518684D01*
X141046631Y-58470936D01*
X140986635Y-58326092D01*
X140986628Y-58326079D01*
X140877139Y-58162218D01*
X140877136Y-58162214D01*
X140737785Y-58022863D01*
X140737781Y-58022860D01*
X140573920Y-57913371D01*
X140573907Y-57913364D01*
X140391839Y-57837950D01*
X140391829Y-57837947D01*
X140198543Y-57799500D01*
X140198541Y-57799500D01*
X140001459Y-57799500D01*
X140001457Y-57799500D01*
X139808170Y-57837947D01*
X139808160Y-57837950D01*
X139626092Y-57913364D01*
X139626079Y-57913371D01*
X139462218Y-58022860D01*
X139462214Y-58022863D01*
X139322863Y-58162214D01*
X139322860Y-58162218D01*
X139213371Y-58326079D01*
X139213364Y-58326092D01*
X139137950Y-58508160D01*
X139137947Y-58508170D01*
X139099500Y-58701456D01*
X139099500Y-58875500D01*
X139096949Y-58884185D01*
X139098238Y-58893147D01*
X139087259Y-58917187D01*
X139079815Y-58942539D01*
X139072974Y-58948466D01*
X139069213Y-58956703D01*
X139046978Y-58970992D01*
X139027011Y-58988294D01*
X139016496Y-58990581D01*
X139010435Y-58994477D01*
X138975500Y-58999500D01*
X138835452Y-58999500D01*
X138768413Y-58979815D01*
X138747771Y-58963181D01*
X138290198Y-58505608D01*
X138290178Y-58505586D01*
X138198733Y-58414141D01*
X138153325Y-58383801D01*
X138153324Y-58383800D01*
X138147509Y-58379915D01*
X138096286Y-58345688D01*
X138015792Y-58312347D01*
X137991141Y-58302136D01*
X137982453Y-58298537D01*
X137972427Y-58296543D01*
X137922029Y-58286518D01*
X137861610Y-58274500D01*
X137861607Y-58274500D01*
X137861606Y-58274500D01*
X137740783Y-58274500D01*
X137673744Y-58254815D01*
X137653106Y-58238185D01*
X137537782Y-58122861D01*
X137537781Y-58122860D01*
X137537780Y-58122859D01*
X137373920Y-58013371D01*
X137373907Y-58013364D01*
X137191839Y-57937950D01*
X137191829Y-57937947D01*
X136998543Y-57899500D01*
X136998541Y-57899500D01*
X136801459Y-57899500D01*
X136801456Y-57899500D01*
X136673691Y-57924914D01*
X136604100Y-57918687D01*
X136548922Y-57875824D01*
X136525678Y-57809934D01*
X136525500Y-57803297D01*
X136525500Y-57010452D01*
X136545185Y-56943413D01*
X136561819Y-56922771D01*
X137822771Y-55661819D01*
X137884094Y-55628334D01*
X137910452Y-55625500D01*
X138659217Y-55625500D01*
X138726256Y-55645185D01*
X138746893Y-55661814D01*
X138862215Y-55777136D01*
X138862219Y-55777140D01*
X139026079Y-55886628D01*
X139026092Y-55886635D01*
X139208160Y-55962049D01*
X139208165Y-55962051D01*
X139208169Y-55962051D01*
X139208170Y-55962052D01*
X139401456Y-56000500D01*
X139401459Y-56000500D01*
X139598543Y-56000500D01*
X139728582Y-55974632D01*
X139791835Y-55962051D01*
X139973914Y-55886632D01*
X140137782Y-55777139D01*
X140277139Y-55637782D01*
X140386632Y-55473914D01*
X140462051Y-55291835D01*
X140481942Y-55191839D01*
X140500500Y-55098543D01*
X140500500Y-54998543D01*
X147899499Y-54998543D01*
X147937947Y-55191829D01*
X147937950Y-55191839D01*
X148013364Y-55373907D01*
X148013371Y-55373920D01*
X148122860Y-55537781D01*
X148122863Y-55537785D01*
X148262214Y-55677136D01*
X148262218Y-55677139D01*
X148426079Y-55786628D01*
X148426092Y-55786635D01*
X148608160Y-55862049D01*
X148608165Y-55862051D01*
X148608169Y-55862051D01*
X148608170Y-55862052D01*
X148801456Y-55900500D01*
X148801459Y-55900500D01*
X148998543Y-55900500D01*
X149128582Y-55874632D01*
X149191835Y-55862051D01*
X149373914Y-55786632D01*
X149537782Y-55677139D01*
X149653103Y-55561817D01*
X149714424Y-55528334D01*
X149740783Y-55525500D01*
X152209217Y-55525500D01*
X152276256Y-55545185D01*
X152296893Y-55561814D01*
X152360579Y-55625500D01*
X152412219Y-55677140D01*
X152576079Y-55786628D01*
X152576092Y-55786635D01*
X152758160Y-55862049D01*
X152758165Y-55862051D01*
X152758169Y-55862051D01*
X152758170Y-55862052D01*
X152951456Y-55900500D01*
X152951459Y-55900500D01*
X153148543Y-55900500D01*
X153278582Y-55874632D01*
X153341835Y-55862051D01*
X153523914Y-55786632D01*
X153687782Y-55677139D01*
X153827139Y-55537782D01*
X153936632Y-55373914D01*
X154012051Y-55191835D01*
X154047551Y-55013368D01*
X154050500Y-54998543D01*
X154050500Y-54801456D01*
X154012052Y-54608170D01*
X154012051Y-54608169D01*
X154012051Y-54608165D01*
X153978050Y-54526079D01*
X153936635Y-54426092D01*
X153936628Y-54426079D01*
X153827139Y-54262218D01*
X153827136Y-54262214D01*
X153687785Y-54122863D01*
X153687781Y-54122860D01*
X153523920Y-54013371D01*
X153523907Y-54013364D01*
X153341839Y-53937950D01*
X153341829Y-53937947D01*
X153148543Y-53899500D01*
X153148541Y-53899500D01*
X152951459Y-53899500D01*
X152951457Y-53899500D01*
X152758170Y-53937947D01*
X152758160Y-53937950D01*
X152576092Y-54013364D01*
X152576079Y-54013371D01*
X152412219Y-54122859D01*
X152368151Y-54166928D01*
X152296896Y-54238182D01*
X152235576Y-54271666D01*
X152209217Y-54274500D01*
X149740783Y-54274500D01*
X149673744Y-54254815D01*
X149653106Y-54238185D01*
X149537782Y-54122861D01*
X149537781Y-54122860D01*
X149537780Y-54122859D01*
X149373920Y-54013371D01*
X149373907Y-54013364D01*
X149191839Y-53937950D01*
X149191829Y-53937947D01*
X148998543Y-53899500D01*
X148998541Y-53899500D01*
X148801459Y-53899500D01*
X148801457Y-53899500D01*
X148608170Y-53937947D01*
X148608160Y-53937950D01*
X148426092Y-54013364D01*
X148426079Y-54013371D01*
X148262218Y-54122860D01*
X148262214Y-54122863D01*
X148122863Y-54262214D01*
X148122860Y-54262218D01*
X148013371Y-54426079D01*
X148013364Y-54426092D01*
X147937950Y-54608160D01*
X147937947Y-54608170D01*
X147899500Y-54801456D01*
X147899500Y-54801459D01*
X147899500Y-54998541D01*
X147899500Y-54998543D01*
X147899499Y-54998543D01*
X140500500Y-54998543D01*
X140500500Y-54901456D01*
X140484209Y-54819559D01*
X140484209Y-54819558D01*
X140462052Y-54708172D01*
X140462051Y-54708165D01*
X140420628Y-54608160D01*
X140386635Y-54526092D01*
X140386628Y-54526079D01*
X140277139Y-54362218D01*
X140277136Y-54362214D01*
X140137785Y-54222863D01*
X140137781Y-54222860D01*
X139973920Y-54113371D01*
X139973907Y-54113364D01*
X139791839Y-54037950D01*
X139791829Y-54037947D01*
X139598543Y-53999500D01*
X139598541Y-53999500D01*
X139401459Y-53999500D01*
X139401457Y-53999500D01*
X139208170Y-54037947D01*
X139208160Y-54037950D01*
X139026092Y-54113364D01*
X139026079Y-54113371D01*
X138862219Y-54222859D01*
X138830264Y-54254815D01*
X138746896Y-54338182D01*
X138685576Y-54371666D01*
X138659217Y-54374500D01*
X137538389Y-54374500D01*
X137477971Y-54386518D01*
X137440259Y-54394019D01*
X137417550Y-54398536D01*
X137417548Y-54398537D01*
X137384207Y-54412347D01*
X137303718Y-54445685D01*
X137303709Y-54445690D01*
X137273559Y-54465836D01*
X137273549Y-54465843D01*
X137267520Y-54469873D01*
X137201267Y-54514142D01*
X137114142Y-54601267D01*
X137114139Y-54601270D01*
X137110667Y-54604741D01*
X137110661Y-54604747D01*
X135414144Y-56301264D01*
X135414138Y-56301272D01*
X135379914Y-56352489D01*
X135379915Y-56352490D01*
X135345688Y-56403712D01*
X135345687Y-56403716D01*
X135340166Y-56417046D01*
X135340165Y-56417049D01*
X135298538Y-56517545D01*
X135298535Y-56517555D01*
X135274500Y-56638389D01*
X135274500Y-59761611D01*
X135283054Y-59804618D01*
X135283060Y-59804641D01*
X135283761Y-59808165D01*
X135298537Y-59882452D01*
X135308082Y-59905495D01*
X135311363Y-59913416D01*
X135345688Y-59996287D01*
X135357462Y-60013907D01*
X135373824Y-60038393D01*
X135373825Y-60038395D01*
X135378601Y-60045542D01*
X135378601Y-60045543D01*
X135378605Y-60045549D01*
X135384409Y-60064089D01*
X135399480Y-60112219D01*
X135399500Y-60114435D01*
X135399500Y-60298541D01*
X135399500Y-60298543D01*
X135399499Y-60298543D01*
X135437947Y-60491829D01*
X135437950Y-60491839D01*
X135513364Y-60673907D01*
X135513371Y-60673920D01*
X135622860Y-60837781D01*
X135622863Y-60837785D01*
X135762214Y-60977136D01*
X135762218Y-60977139D01*
X135926079Y-61086628D01*
X135926092Y-61086635D01*
X136077864Y-61149500D01*
X136108165Y-61162051D01*
X136108169Y-61162051D01*
X136108170Y-61162052D01*
X136301456Y-61200500D01*
X136301459Y-61200500D01*
X136498543Y-61200500D01*
X136628582Y-61174632D01*
X136691835Y-61162051D01*
X136873914Y-61086632D01*
X137037782Y-60977139D01*
X137177139Y-60837782D01*
X137286632Y-60673914D01*
X137362051Y-60491835D01*
X137381942Y-60391839D01*
X137400500Y-60298543D01*
X137400500Y-60101456D01*
X137362052Y-59908170D01*
X137362051Y-59908169D01*
X137362051Y-59908165D01*
X137362049Y-59908160D01*
X137360283Y-59902338D01*
X137362904Y-59901542D01*
X137360765Y-59881819D01*
X137355631Y-59850567D01*
X137357028Y-59847338D01*
X137356649Y-59843842D01*
X137370797Y-59815513D01*
X137383376Y-59786442D01*
X137386903Y-59783266D01*
X137387868Y-59781335D01*
X137409581Y-59762800D01*
X137537782Y-59677139D01*
X137539025Y-59675895D01*
X137545458Y-59671577D01*
X137573298Y-59662792D01*
X137600175Y-59651366D01*
X137606230Y-59652400D01*
X137612089Y-59650552D01*
X137640261Y-59658214D01*
X137669047Y-59663132D01*
X137675632Y-59667834D01*
X137679510Y-59668889D01*
X137683858Y-59673708D01*
X137702256Y-59686846D01*
X137863181Y-59847771D01*
X137896666Y-59909094D01*
X137899500Y-59935452D01*
X137899500Y-60098541D01*
X137899500Y-60098543D01*
X137899499Y-60098543D01*
X137937947Y-60291829D01*
X137937950Y-60291839D01*
X138013364Y-60473907D01*
X138013371Y-60473920D01*
X138122860Y-60637781D01*
X138122863Y-60637785D01*
X138262214Y-60777136D01*
X138262218Y-60777139D01*
X138426079Y-60886628D01*
X138426092Y-60886635D01*
X138607093Y-60961607D01*
X138608165Y-60962051D01*
X138608169Y-60962051D01*
X138608170Y-60962052D01*
X138801456Y-61000500D01*
X138815547Y-61000500D01*
X138882586Y-61020185D01*
X138928341Y-61072989D01*
X138938285Y-61142147D01*
X138909260Y-61205703D01*
X138903228Y-61212181D01*
X136602846Y-63512563D01*
X136541523Y-63546048D01*
X136471831Y-63541064D01*
X136427485Y-63512564D01*
X136337782Y-63422861D01*
X136337781Y-63422860D01*
X136337780Y-63422859D01*
X136173920Y-63313371D01*
X136173907Y-63313364D01*
X135991839Y-63237950D01*
X135991829Y-63237947D01*
X135798543Y-63199500D01*
X135798541Y-63199500D01*
X135601459Y-63199500D01*
X135601457Y-63199500D01*
X135408170Y-63237947D01*
X135408160Y-63237950D01*
X135226092Y-63313364D01*
X135226079Y-63313371D01*
X135062218Y-63422860D01*
X135062214Y-63422863D01*
X134922863Y-63562214D01*
X134922860Y-63562218D01*
X134813371Y-63726079D01*
X134813364Y-63726092D01*
X134737950Y-63908160D01*
X134737947Y-63908170D01*
X134699500Y-64101456D01*
X134699500Y-64101459D01*
X134699500Y-64298541D01*
X134699500Y-64298543D01*
X134699499Y-64298543D01*
X110858133Y-64298543D01*
X106198133Y-59638543D01*
X127459499Y-59638543D01*
X127497947Y-59831829D01*
X127497950Y-59831839D01*
X127573364Y-60013907D01*
X127573371Y-60013920D01*
X127682860Y-60177781D01*
X127682863Y-60177785D01*
X127822214Y-60317136D01*
X127822218Y-60317139D01*
X127986079Y-60426628D01*
X127986092Y-60426635D01*
X128143501Y-60491835D01*
X128168165Y-60502051D01*
X128168169Y-60502051D01*
X128168170Y-60502052D01*
X128361456Y-60540500D01*
X128361459Y-60540500D01*
X128558543Y-60540500D01*
X128695851Y-60513187D01*
X128751835Y-60502051D01*
X128933914Y-60426632D01*
X128995480Y-60385495D01*
X129091408Y-60321398D01*
X129109454Y-60315747D01*
X129125364Y-60305523D01*
X129156323Y-60301071D01*
X129158085Y-60300520D01*
X129160299Y-60300500D01*
X129228130Y-60300500D01*
X129295169Y-60320185D01*
X129340924Y-60372989D01*
X129345836Y-60385495D01*
X129390186Y-60519334D01*
X129482096Y-60668345D01*
X129482289Y-60668657D01*
X129501951Y-60688319D01*
X129535436Y-60749642D01*
X129530452Y-60819334D01*
X129488580Y-60875267D01*
X129423116Y-60899684D01*
X129414270Y-60900000D01*
X129250000Y-60900000D01*
X129250000Y-63350000D01*
X132700000Y-63350000D01*
X132700000Y-61054129D01*
X132719685Y-60987090D01*
X132772489Y-60941335D01*
X132841647Y-60931391D01*
X132863010Y-60936425D01*
X132872305Y-60939505D01*
X132872309Y-60939506D01*
X132975019Y-60949999D01*
X133099999Y-60949999D01*
X133600000Y-60949999D01*
X133724972Y-60949999D01*
X133724986Y-60949998D01*
X133827697Y-60939505D01*
X133994119Y-60884358D01*
X133994124Y-60884356D01*
X134143345Y-60792315D01*
X134267315Y-60668345D01*
X134359356Y-60519124D01*
X134359358Y-60519119D01*
X134414505Y-60352697D01*
X134414506Y-60352690D01*
X134424999Y-60249986D01*
X134425000Y-60249973D01*
X134425000Y-59800000D01*
X133600000Y-59800000D01*
X133600000Y-60949999D01*
X133099999Y-60949999D01*
X133100000Y-60949998D01*
X133100000Y-59300000D01*
X133600000Y-59300000D01*
X134424999Y-59300000D01*
X134424999Y-58850028D01*
X134424998Y-58850013D01*
X134414505Y-58747302D01*
X134359358Y-58580880D01*
X134359356Y-58580875D01*
X134267315Y-58431654D01*
X134143345Y-58307684D01*
X133994124Y-58215643D01*
X133994119Y-58215641D01*
X133827697Y-58160494D01*
X133827690Y-58160493D01*
X133724986Y-58150000D01*
X133600000Y-58150000D01*
X133600000Y-59300000D01*
X133100000Y-59300000D01*
X133100000Y-58150000D01*
X132975027Y-58150000D01*
X132975012Y-58150001D01*
X132872302Y-58160494D01*
X132863001Y-58163576D01*
X132793173Y-58165976D01*
X132733132Y-58130243D01*
X132701941Y-58067722D01*
X132700000Y-58045869D01*
X132700000Y-55700000D01*
X129250000Y-55700000D01*
X129250000Y-58200000D01*
X129414270Y-58200000D01*
X129481309Y-58219685D01*
X129527064Y-58272489D01*
X129537008Y-58341647D01*
X129507983Y-58405203D01*
X129501951Y-58411681D01*
X129482289Y-58431342D01*
X129390187Y-58580663D01*
X129390185Y-58580668D01*
X129388149Y-58586813D01*
X129345835Y-58714505D01*
X129331966Y-58734536D01*
X129321844Y-58756703D01*
X129312431Y-58762751D01*
X129306064Y-58771949D01*
X129283564Y-58781303D01*
X129263066Y-58794477D01*
X129245965Y-58796935D01*
X129241549Y-58798772D01*
X129228131Y-58799500D01*
X129185784Y-58799500D01*
X129118745Y-58779815D01*
X129102496Y-58766721D01*
X129102492Y-58766726D01*
X129101939Y-58766272D01*
X129098103Y-58763181D01*
X129097785Y-58762863D01*
X129097781Y-58762860D01*
X128933920Y-58653371D01*
X128933907Y-58653364D01*
X128751839Y-58577950D01*
X128751829Y-58577947D01*
X128558543Y-58539500D01*
X128558541Y-58539500D01*
X128361459Y-58539500D01*
X128361457Y-58539500D01*
X128168170Y-58577947D01*
X128168160Y-58577950D01*
X127986092Y-58653364D01*
X127986079Y-58653371D01*
X127822218Y-58762860D01*
X127822214Y-58762863D01*
X127682863Y-58902214D01*
X127682860Y-58902218D01*
X127573371Y-59066079D01*
X127573364Y-59066092D01*
X127497950Y-59248160D01*
X127497947Y-59248170D01*
X127459500Y-59441456D01*
X127459500Y-59441459D01*
X127459500Y-59638541D01*
X127459500Y-59638543D01*
X127459499Y-59638543D01*
X106198133Y-59638543D01*
X104236819Y-57677229D01*
X104203334Y-57615906D01*
X104200500Y-57589548D01*
X104200500Y-57426456D01*
X104162052Y-57233170D01*
X104162051Y-57233169D01*
X104162051Y-57233165D01*
X104162049Y-57233160D01*
X104086635Y-57051092D01*
X104086628Y-57051079D01*
X103977139Y-56887218D01*
X103977136Y-56887214D01*
X103837785Y-56747863D01*
X103837781Y-56747860D01*
X103673920Y-56638371D01*
X103673907Y-56638364D01*
X103491839Y-56562950D01*
X103491829Y-56562947D01*
X103298543Y-56524500D01*
X103298541Y-56524500D01*
X103101459Y-56524500D01*
X103101457Y-56524500D01*
X102908170Y-56562947D01*
X102908160Y-56562950D01*
X102726092Y-56638364D01*
X102726079Y-56638371D01*
X102562218Y-56747860D01*
X102562214Y-56747863D01*
X102422863Y-56887214D01*
X102422860Y-56887218D01*
X102313371Y-57051079D01*
X102313364Y-57051092D01*
X102237950Y-57233160D01*
X102237947Y-57233170D01*
X102199500Y-57426456D01*
X102199500Y-57426459D01*
X102199500Y-57623541D01*
X102199500Y-57623543D01*
X102199499Y-57623543D01*
X102237947Y-57816829D01*
X102237950Y-57816839D01*
X102313364Y-57998907D01*
X102313371Y-57998920D01*
X102422860Y-58162781D01*
X102422863Y-58162785D01*
X102562214Y-58302136D01*
X102562218Y-58302139D01*
X102726079Y-58411628D01*
X102726092Y-58411635D01*
X102908160Y-58487049D01*
X102908165Y-58487051D01*
X102908169Y-58487051D01*
X102908170Y-58487052D01*
X103101456Y-58525500D01*
X103264548Y-58525500D01*
X103331587Y-58545185D01*
X103352229Y-58561819D01*
X105728229Y-60937819D01*
X105761714Y-60999142D01*
X105756730Y-61068834D01*
X105714858Y-61124767D01*
X105649394Y-61149184D01*
X105646339Y-61149293D01*
X105643715Y-61149499D01*
X105433760Y-61182753D01*
X105231585Y-61248444D01*
X105042179Y-61344951D01*
X104870213Y-61469890D01*
X104719894Y-61620209D01*
X104719885Y-61620219D01*
X104716330Y-61625113D01*
X104660997Y-61667775D01*
X104591383Y-61673748D01*
X104529591Y-61641137D01*
X104498312Y-61591223D01*
X104494815Y-61580670D01*
X104494814Y-61580666D01*
X104402712Y-61431344D01*
X104278656Y-61307288D01*
X104129334Y-61215186D01*
X103962797Y-61160001D01*
X103962795Y-61160000D01*
X103860010Y-61149500D01*
X102559998Y-61149500D01*
X102559981Y-61149501D01*
X102457203Y-61160000D01*
X102457200Y-61160001D01*
X102290668Y-61215185D01*
X102290663Y-61215187D01*
X102141342Y-61307289D01*
X102017289Y-61431342D01*
X101925187Y-61580663D01*
X101925185Y-61580668D01*
X101912083Y-61620208D01*
X101870001Y-61747203D01*
X101870001Y-61747204D01*
X101870000Y-61747204D01*
X101859500Y-61849983D01*
X101859500Y-63150001D01*
X101859501Y-63150018D01*
X101870000Y-63252796D01*
X101870001Y-63252799D01*
X101925185Y-63419331D01*
X101925187Y-63419336D01*
X101941807Y-63446281D01*
X102017288Y-63568656D01*
X102141344Y-63692712D01*
X102290666Y-63784814D01*
X102301223Y-63788312D01*
X102358668Y-63828084D01*
X102385492Y-63892600D01*
X102373177Y-63961376D01*
X102335113Y-64006330D01*
X102330219Y-64009885D01*
X102330209Y-64009894D01*
X102179890Y-64160213D01*
X102054951Y-64332179D01*
X101958444Y-64521585D01*
X101958443Y-64521587D01*
X101958443Y-64521588D01*
X101933378Y-64598729D01*
X101892753Y-64723760D01*
X101870887Y-64861819D01*
X101859500Y-64933713D01*
X101859500Y-65146287D01*
X101861997Y-65162051D01*
X101892753Y-65356241D01*
X101892754Y-65356243D01*
X101897518Y-65370907D01*
X101897821Y-65371837D01*
X101899816Y-65441678D01*
X101867571Y-65497837D01*
X100752723Y-66612685D01*
X100752708Y-66612700D01*
X100751270Y-66614139D01*
X100751267Y-66614142D01*
X100664142Y-66701267D01*
X100655539Y-66714143D01*
X100649910Y-66722566D01*
X100649908Y-66722569D01*
X100595690Y-66803709D01*
X100595685Y-66803718D01*
X100570225Y-66865187D01*
X100562347Y-66884207D01*
X100556823Y-66897543D01*
X100548537Y-66917545D01*
X100548535Y-66917553D01*
X100537310Y-66973986D01*
X100537311Y-66973987D01*
X100528012Y-67020736D01*
X100528008Y-67020754D01*
X100527590Y-67022861D01*
X100524500Y-67038394D01*
X99700500Y-67038394D01*
X99700500Y-53363389D01*
X186951000Y-53363389D01*
X186951000Y-53536611D01*
X186978098Y-53707701D01*
X187031627Y-53872445D01*
X187110268Y-54026788D01*
X187212086Y-54166928D01*
X187334572Y-54289414D01*
X187474712Y-54391232D01*
X187629055Y-54469873D01*
X187793799Y-54523402D01*
X187964889Y-54550500D01*
X187964890Y-54550500D01*
X188138110Y-54550500D01*
X188138111Y-54550500D01*
X188309201Y-54523402D01*
X188473945Y-54469873D01*
X188628288Y-54391232D01*
X188768428Y-54289414D01*
X188890914Y-54166928D01*
X188992732Y-54026788D01*
X189071373Y-53872445D01*
X189124902Y-53707701D01*
X189152000Y-53536611D01*
X189152000Y-53363389D01*
X193951000Y-53363389D01*
X193951000Y-53536611D01*
X193978098Y-53707701D01*
X194031627Y-53872445D01*
X194110268Y-54026788D01*
X194212086Y-54166928D01*
X194334572Y-54289414D01*
X194474712Y-54391232D01*
X194629055Y-54469873D01*
X194793799Y-54523402D01*
X194964889Y-54550500D01*
X194964890Y-54550500D01*
X195138110Y-54550500D01*
X195138111Y-54550500D01*
X195309201Y-54523402D01*
X195473945Y-54469873D01*
X195628288Y-54391232D01*
X195768428Y-54289414D01*
X195890914Y-54166928D01*
X195992732Y-54026788D01*
X196071373Y-53872445D01*
X196124902Y-53707701D01*
X196152000Y-53536611D01*
X196152000Y-53363389D01*
X196124902Y-53192299D01*
X196071373Y-53027555D01*
X195992732Y-52873212D01*
X195890914Y-52733072D01*
X195768428Y-52610586D01*
X195628288Y-52508768D01*
X195473945Y-52430127D01*
X195309201Y-52376598D01*
X195309199Y-52376597D01*
X195309198Y-52376597D01*
X195177771Y-52355781D01*
X195138111Y-52349500D01*
X194964889Y-52349500D01*
X194925228Y-52355781D01*
X194793802Y-52376597D01*
X194629052Y-52430128D01*
X194474711Y-52508768D01*
X194394756Y-52566859D01*
X194334572Y-52610586D01*
X194334570Y-52610588D01*
X194334569Y-52610588D01*
X194212088Y-52733069D01*
X194212088Y-52733070D01*
X194212086Y-52733072D01*
X194168359Y-52793256D01*
X194110268Y-52873211D01*
X194031628Y-53027552D01*
X193978097Y-53192302D01*
X193951000Y-53363389D01*
X189152000Y-53363389D01*
X189124902Y-53192299D01*
X189071373Y-53027555D01*
X188992732Y-52873212D01*
X188890914Y-52733072D01*
X188768428Y-52610586D01*
X188628288Y-52508768D01*
X188473945Y-52430127D01*
X188309201Y-52376598D01*
X188309199Y-52376597D01*
X188309198Y-52376597D01*
X188177771Y-52355781D01*
X188138111Y-52349500D01*
X187964889Y-52349500D01*
X187925228Y-52355781D01*
X187793802Y-52376597D01*
X187629052Y-52430128D01*
X187474711Y-52508768D01*
X187394756Y-52566859D01*
X187334572Y-52610586D01*
X187334570Y-52610588D01*
X187334569Y-52610588D01*
X187212088Y-52733069D01*
X187212088Y-52733070D01*
X187212086Y-52733072D01*
X187168359Y-52793256D01*
X187110268Y-52873211D01*
X187031628Y-53027552D01*
X186978097Y-53192302D01*
X186951000Y-53363389D01*
X99700500Y-53363389D01*
X99700500Y-42554014D01*
X100695000Y-42554014D01*
X100695000Y-42789985D01*
X100725799Y-43023914D01*
X100786870Y-43251837D01*
X100877160Y-43469819D01*
X100877165Y-43469828D01*
X100995144Y-43674171D01*
X100995145Y-43674172D01*
X101057721Y-43755723D01*
X101779152Y-43034292D01*
X101786049Y-43050942D01*
X101873599Y-43181970D01*
X101985030Y-43293401D01*
X102116058Y-43380951D01*
X102132706Y-43387846D01*
X101411275Y-44109277D01*
X101492827Y-44171854D01*
X101492828Y-44171855D01*
X101697171Y-44289834D01*
X101697180Y-44289839D01*
X101915163Y-44380129D01*
X101915161Y-44380129D01*
X102143085Y-44441200D01*
X102377014Y-44471999D01*
X102377029Y-44472000D01*
X102612971Y-44472000D01*
X102612985Y-44471999D01*
X102846914Y-44441200D01*
X103074834Y-44380130D01*
X103293184Y-44289687D01*
X103362654Y-44282218D01*
X103425133Y-44313493D01*
X103460785Y-44373582D01*
X103458291Y-44443407D01*
X103455198Y-44451700D01*
X103373842Y-44648111D01*
X103373842Y-44648112D01*
X103314453Y-44869759D01*
X103314451Y-44869770D01*
X103284500Y-45097258D01*
X103284500Y-45326741D01*
X103309446Y-45516215D01*
X103314452Y-45554238D01*
X103314453Y-45554240D01*
X103373842Y-45775887D01*
X103455198Y-45972299D01*
X103462667Y-46041768D01*
X103431392Y-46104247D01*
X103371303Y-46139899D01*
X103301477Y-46137405D01*
X103293185Y-46134312D01*
X103074836Y-46043870D01*
X103074838Y-46043870D01*
X102846914Y-45982799D01*
X102612985Y-45952000D01*
X102377014Y-45952000D01*
X102143085Y-45982799D01*
X101915162Y-46043870D01*
X101697180Y-46134160D01*
X101697171Y-46134165D01*
X101492828Y-46252144D01*
X101492818Y-46252150D01*
X101411275Y-46314720D01*
X101411275Y-46314721D01*
X102132706Y-47036152D01*
X102116058Y-47043049D01*
X101985030Y-47130599D01*
X101873599Y-47242030D01*
X101786049Y-47373058D01*
X101779152Y-47389706D01*
X101057721Y-46668275D01*
X101057720Y-46668275D01*
X100995150Y-46749818D01*
X100995144Y-46749828D01*
X100877165Y-46954171D01*
X100877160Y-46954180D01*
X100786870Y-47172162D01*
X100725799Y-47400085D01*
X100695000Y-47634014D01*
X100695000Y-47869985D01*
X100725799Y-48103914D01*
X100786870Y-48331837D01*
X100877160Y-48549819D01*
X100877165Y-48549828D01*
X100995144Y-48754171D01*
X100995145Y-48754172D01*
X101057721Y-48835723D01*
X101779152Y-48114292D01*
X101786049Y-48130942D01*
X101873599Y-48261970D01*
X101985030Y-48373401D01*
X102116058Y-48460951D01*
X102132706Y-48467846D01*
X101411275Y-49189277D01*
X101492827Y-49251854D01*
X101492828Y-49251855D01*
X101697171Y-49369834D01*
X101697180Y-49369839D01*
X101915163Y-49460129D01*
X101915161Y-49460129D01*
X102143085Y-49521200D01*
X102377014Y-49551999D01*
X102377029Y-49552000D01*
X102612971Y-49552000D01*
X102612985Y-49551999D01*
X102846914Y-49521200D01*
X103074837Y-49460129D01*
X103292819Y-49369839D01*
X103292828Y-49369834D01*
X103497181Y-49251850D01*
X103578723Y-49189279D01*
X103578723Y-49189276D01*
X102857293Y-48467847D01*
X102873942Y-48460951D01*
X103004970Y-48373401D01*
X103116401Y-48261970D01*
X103203951Y-48130942D01*
X103210847Y-48114293D01*
X103932276Y-48835723D01*
X103932279Y-48835723D01*
X103994850Y-48754181D01*
X104112834Y-48549828D01*
X104112839Y-48549819D01*
X104203129Y-48331837D01*
X104264200Y-48103914D01*
X104294999Y-47869985D01*
X104295000Y-47869971D01*
X104295000Y-47634028D01*
X104294999Y-47634014D01*
X104264200Y-47400085D01*
X104203130Y-47172165D01*
X104112687Y-46953815D01*
X104105218Y-46884345D01*
X104136493Y-46821866D01*
X104196582Y-46786214D01*
X104266407Y-46788708D01*
X104274696Y-46791799D01*
X104471113Y-46873158D01*
X104692762Y-46932548D01*
X104920266Y-46962500D01*
X104920273Y-46962500D01*
X105149727Y-46962500D01*
X105149734Y-46962500D01*
X105377238Y-46932548D01*
X105598887Y-46873158D01*
X105795299Y-46791800D01*
X105864768Y-46784332D01*
X105927247Y-46815607D01*
X105962899Y-46875696D01*
X105960405Y-46945521D01*
X105957312Y-46953814D01*
X105866870Y-47172162D01*
X105805799Y-47400085D01*
X105775000Y-47634014D01*
X105775000Y-47869985D01*
X105805799Y-48103914D01*
X105866870Y-48331837D01*
X105957160Y-48549819D01*
X105957165Y-48549828D01*
X106075144Y-48754171D01*
X106075145Y-48754172D01*
X106137721Y-48835723D01*
X106859152Y-48114292D01*
X106866049Y-48130942D01*
X106953599Y-48261970D01*
X107065030Y-48373401D01*
X107196058Y-48460951D01*
X107212706Y-48467846D01*
X106491275Y-49189277D01*
X106572827Y-49251854D01*
X106572828Y-49251855D01*
X106777171Y-49369834D01*
X106777180Y-49369839D01*
X106995163Y-49460129D01*
X106995161Y-49460129D01*
X107223085Y-49521200D01*
X107457014Y-49551999D01*
X107457029Y-49552000D01*
X107692971Y-49552000D01*
X107692985Y-49551999D01*
X107926914Y-49521200D01*
X108154837Y-49460129D01*
X108372819Y-49369839D01*
X108372828Y-49369834D01*
X108577181Y-49251850D01*
X108658723Y-49189279D01*
X108658723Y-49189276D01*
X107937293Y-48467847D01*
X107953942Y-48460951D01*
X108084970Y-48373401D01*
X108196401Y-48261970D01*
X108283951Y-48130942D01*
X108290846Y-48114293D01*
X109012276Y-48835723D01*
X109012279Y-48835723D01*
X109074850Y-48754181D01*
X109192834Y-48549828D01*
X109192839Y-48549819D01*
X109283129Y-48331837D01*
X109344200Y-48103914D01*
X109374999Y-47869985D01*
X109375000Y-47869971D01*
X109375000Y-47634028D01*
X109374999Y-47634014D01*
X109344200Y-47400085D01*
X109283129Y-47172162D01*
X109192839Y-46954180D01*
X109192834Y-46954171D01*
X109074855Y-46749828D01*
X109074854Y-46749827D01*
X109012277Y-46668275D01*
X108290846Y-47389705D01*
X108283951Y-47373058D01*
X108196401Y-47242030D01*
X108084970Y-47130599D01*
X107953942Y-47043049D01*
X107937292Y-47036152D01*
X108658723Y-46314721D01*
X108577172Y-46252145D01*
X108577171Y-46252144D01*
X108372828Y-46134165D01*
X108372819Y-46134160D01*
X108154836Y-46043870D01*
X108154838Y-46043870D01*
X107926914Y-45982799D01*
X107692985Y-45952000D01*
X107457014Y-45952000D01*
X107223085Y-45982799D01*
X106995162Y-46043870D01*
X106776814Y-46134312D01*
X106707345Y-46141781D01*
X106644866Y-46110505D01*
X106609214Y-46050416D01*
X106611708Y-45980591D01*
X106614801Y-45972299D01*
X106696158Y-45775887D01*
X106755548Y-45554238D01*
X106785500Y-45326734D01*
X106785500Y-45097266D01*
X106755548Y-44869762D01*
X106696158Y-44648113D01*
X106614800Y-44451700D01*
X106607332Y-44382231D01*
X106638607Y-44319752D01*
X106698696Y-44284100D01*
X106768521Y-44286594D01*
X106776815Y-44289687D01*
X106995165Y-44380130D01*
X107223085Y-44441200D01*
X107457014Y-44471999D01*
X107457029Y-44472000D01*
X107692971Y-44472000D01*
X107692985Y-44471999D01*
X107926914Y-44441200D01*
X108154837Y-44380129D01*
X108372819Y-44289839D01*
X108372828Y-44289834D01*
X108577181Y-44171850D01*
X108658723Y-44109279D01*
X108658723Y-44109276D01*
X107937293Y-43387847D01*
X107953942Y-43380951D01*
X108084970Y-43293401D01*
X108196401Y-43181970D01*
X108283951Y-43050942D01*
X108290846Y-43034293D01*
X109012276Y-43755723D01*
X109012279Y-43755723D01*
X109074850Y-43674181D01*
X109192834Y-43469828D01*
X109192839Y-43469819D01*
X109283129Y-43251837D01*
X109344200Y-43023914D01*
X109347349Y-43000000D01*
X115000000Y-43000000D01*
X123500000Y-43000000D01*
X123500000Y-42554014D01*
X146790000Y-42554014D01*
X146790000Y-42789985D01*
X146820799Y-43023914D01*
X146881870Y-43251837D01*
X146972160Y-43469819D01*
X146972165Y-43469828D01*
X147090144Y-43674171D01*
X147090145Y-43674172D01*
X147152721Y-43755723D01*
X147874152Y-43034292D01*
X147881049Y-43050942D01*
X147968599Y-43181970D01*
X148080030Y-43293401D01*
X148211058Y-43380951D01*
X148227706Y-43387846D01*
X147506275Y-44109277D01*
X147587827Y-44171854D01*
X147587828Y-44171855D01*
X147792171Y-44289834D01*
X147792180Y-44289839D01*
X148010163Y-44380129D01*
X148010161Y-44380129D01*
X148238085Y-44441200D01*
X148472014Y-44471999D01*
X148472029Y-44472000D01*
X148707971Y-44472000D01*
X148707985Y-44471999D01*
X148941914Y-44441200D01*
X149169834Y-44380130D01*
X149388184Y-44289687D01*
X149457654Y-44282218D01*
X149520133Y-44313493D01*
X149555785Y-44373582D01*
X149553291Y-44443407D01*
X149550198Y-44451700D01*
X149468842Y-44648111D01*
X149468842Y-44648112D01*
X149409453Y-44869759D01*
X149409451Y-44869770D01*
X149379500Y-45097258D01*
X149379500Y-45326741D01*
X149404446Y-45516215D01*
X149409452Y-45554238D01*
X149409453Y-45554240D01*
X149468842Y-45775887D01*
X149550198Y-45972299D01*
X149557667Y-46041768D01*
X149526392Y-46104247D01*
X149466303Y-46139899D01*
X149396477Y-46137405D01*
X149388185Y-46134312D01*
X149169836Y-46043870D01*
X149169838Y-46043870D01*
X148941914Y-45982799D01*
X148707985Y-45952000D01*
X148472014Y-45952000D01*
X148238085Y-45982799D01*
X148010162Y-46043870D01*
X147792180Y-46134160D01*
X147792171Y-46134165D01*
X147587828Y-46252144D01*
X147587818Y-46252150D01*
X147506275Y-46314720D01*
X147506275Y-46314721D01*
X148227706Y-47036152D01*
X148211058Y-47043049D01*
X148080030Y-47130599D01*
X147968599Y-47242030D01*
X147881049Y-47373058D01*
X147874152Y-47389706D01*
X147152721Y-46668275D01*
X147152720Y-46668275D01*
X147090150Y-46749818D01*
X147090144Y-46749828D01*
X146972165Y-46954171D01*
X146972160Y-46954180D01*
X146881870Y-47172162D01*
X146820799Y-47400085D01*
X146790000Y-47634014D01*
X146790000Y-47869985D01*
X146820799Y-48103914D01*
X146881870Y-48331837D01*
X146972160Y-48549819D01*
X146972165Y-48549828D01*
X147090144Y-48754171D01*
X147090145Y-48754172D01*
X147152721Y-48835723D01*
X147874152Y-48114292D01*
X147881049Y-48130942D01*
X147968599Y-48261970D01*
X148080030Y-48373401D01*
X148211058Y-48460951D01*
X148227706Y-48467846D01*
X147506275Y-49189277D01*
X147587827Y-49251854D01*
X147587828Y-49251855D01*
X147792171Y-49369834D01*
X147792180Y-49369839D01*
X148010163Y-49460129D01*
X148010161Y-49460129D01*
X148238085Y-49521200D01*
X148472014Y-49551999D01*
X148472029Y-49552000D01*
X148707971Y-49552000D01*
X148707985Y-49551999D01*
X148941914Y-49521200D01*
X149169837Y-49460129D01*
X149387819Y-49369839D01*
X149387828Y-49369834D01*
X149592181Y-49251850D01*
X149673723Y-49189279D01*
X149673723Y-49189276D01*
X148952293Y-48467847D01*
X148968942Y-48460951D01*
X149099970Y-48373401D01*
X149211401Y-48261970D01*
X149298951Y-48130942D01*
X149305847Y-48114293D01*
X150027276Y-48835723D01*
X150027279Y-48835723D01*
X150089850Y-48754181D01*
X150207834Y-48549828D01*
X150207839Y-48549819D01*
X150298129Y-48331837D01*
X150359200Y-48103914D01*
X150389999Y-47869985D01*
X150390000Y-47869971D01*
X150390000Y-47634028D01*
X150389999Y-47634014D01*
X150359200Y-47400085D01*
X150298130Y-47172165D01*
X150207687Y-46953815D01*
X150200218Y-46884345D01*
X150231493Y-46821866D01*
X150291582Y-46786214D01*
X150361407Y-46788708D01*
X150369696Y-46791799D01*
X150566113Y-46873158D01*
X150787762Y-46932548D01*
X151015266Y-46962500D01*
X151015273Y-46962500D01*
X151244727Y-46962500D01*
X151244734Y-46962500D01*
X151472238Y-46932548D01*
X151693887Y-46873158D01*
X151890299Y-46791800D01*
X151959768Y-46784332D01*
X152022247Y-46815607D01*
X152057899Y-46875696D01*
X152055405Y-46945521D01*
X152052312Y-46953814D01*
X151961870Y-47172162D01*
X151900799Y-47400085D01*
X151870000Y-47634014D01*
X151870000Y-47869985D01*
X151900799Y-48103914D01*
X151961870Y-48331837D01*
X152052160Y-48549819D01*
X152052165Y-48549828D01*
X152170144Y-48754171D01*
X152170145Y-48754172D01*
X152232721Y-48835723D01*
X152954152Y-48114292D01*
X152961049Y-48130942D01*
X153048599Y-48261970D01*
X153160030Y-48373401D01*
X153291058Y-48460951D01*
X153307706Y-48467846D01*
X152586275Y-49189277D01*
X152667827Y-49251854D01*
X152667828Y-49251855D01*
X152872171Y-49369834D01*
X152872180Y-49369839D01*
X153090163Y-49460129D01*
X153090161Y-49460129D01*
X153318085Y-49521200D01*
X153552014Y-49551999D01*
X153552029Y-49552000D01*
X153787971Y-49552000D01*
X153787985Y-49551999D01*
X154021914Y-49521200D01*
X154249837Y-49460129D01*
X154467819Y-49369839D01*
X154467828Y-49369834D01*
X154672181Y-49251850D01*
X154753723Y-49189279D01*
X154753723Y-49189276D01*
X154032293Y-48467847D01*
X154048942Y-48460951D01*
X154179970Y-48373401D01*
X154291401Y-48261970D01*
X154378951Y-48130942D01*
X154385846Y-48114293D01*
X155107276Y-48835723D01*
X155107279Y-48835723D01*
X155169850Y-48754181D01*
X155287834Y-48549828D01*
X155287839Y-48549819D01*
X155378129Y-48331837D01*
X155439200Y-48103914D01*
X155469999Y-47869985D01*
X155470000Y-47869971D01*
X155470000Y-47634028D01*
X155469999Y-47634014D01*
X155439200Y-47400085D01*
X155378129Y-47172162D01*
X155287839Y-46954180D01*
X155287834Y-46954171D01*
X155169855Y-46749828D01*
X155169854Y-46749827D01*
X155107277Y-46668275D01*
X154385846Y-47389705D01*
X154378951Y-47373058D01*
X154291401Y-47242030D01*
X154179970Y-47130599D01*
X154048942Y-47043049D01*
X154032292Y-47036152D01*
X154753723Y-46314721D01*
X154672172Y-46252145D01*
X154672171Y-46252144D01*
X154467828Y-46134165D01*
X154467819Y-46134160D01*
X154249836Y-46043870D01*
X154249838Y-46043870D01*
X154021914Y-45982799D01*
X153787985Y-45952000D01*
X153552014Y-45952000D01*
X153318085Y-45982799D01*
X153090162Y-46043870D01*
X152871814Y-46134312D01*
X152802345Y-46141781D01*
X152739866Y-46110505D01*
X152704214Y-46050416D01*
X152706708Y-45980591D01*
X152709801Y-45972299D01*
X152791158Y-45775887D01*
X152850548Y-45554238D01*
X152880500Y-45326734D01*
X152880500Y-45097266D01*
X152850548Y-44869762D01*
X152791158Y-44648113D01*
X152709800Y-44451700D01*
X152702332Y-44382231D01*
X152733607Y-44319752D01*
X152793696Y-44284100D01*
X152863521Y-44286594D01*
X152871815Y-44289687D01*
X153090165Y-44380130D01*
X153318085Y-44441200D01*
X153552014Y-44471999D01*
X153552029Y-44472000D01*
X153787971Y-44472000D01*
X153787985Y-44471999D01*
X154021914Y-44441200D01*
X154249837Y-44380129D01*
X154467819Y-44289839D01*
X154467828Y-44289834D01*
X154672181Y-44171850D01*
X154753723Y-44109279D01*
X154753723Y-44109276D01*
X154032293Y-43387847D01*
X154048942Y-43380951D01*
X154179970Y-43293401D01*
X154291401Y-43181970D01*
X154378951Y-43050942D01*
X154385846Y-43034293D01*
X155107276Y-43755723D01*
X155107279Y-43755723D01*
X155169850Y-43674181D01*
X155287834Y-43469828D01*
X155287839Y-43469819D01*
X155378129Y-43251837D01*
X155439200Y-43023914D01*
X155469999Y-42789985D01*
X155470000Y-42789971D01*
X155470000Y-42554028D01*
X155469999Y-42554014D01*
X155439200Y-42320085D01*
X155378129Y-42092162D01*
X155287839Y-41874180D01*
X155287834Y-41874171D01*
X155169855Y-41669828D01*
X155169854Y-41669827D01*
X155107277Y-41588275D01*
X154385846Y-42309705D01*
X154378951Y-42293058D01*
X154291401Y-42162030D01*
X154179970Y-42050599D01*
X154048942Y-41963049D01*
X154032293Y-41956152D01*
X154753723Y-41234721D01*
X154672172Y-41172145D01*
X154672171Y-41172144D01*
X154467828Y-41054165D01*
X154467819Y-41054160D01*
X154249836Y-40963870D01*
X154249838Y-40963870D01*
X154021914Y-40902799D01*
X153787985Y-40872000D01*
X153552014Y-40872000D01*
X153318085Y-40902799D01*
X153090162Y-40963870D01*
X152872180Y-41054160D01*
X152872171Y-41054165D01*
X152667828Y-41172144D01*
X152667818Y-41172150D01*
X152586275Y-41234720D01*
X152586275Y-41234721D01*
X153307706Y-41956152D01*
X153291058Y-41963049D01*
X153160030Y-42050599D01*
X153048599Y-42162030D01*
X152961049Y-42293058D01*
X152954152Y-42309706D01*
X152232721Y-41588275D01*
X152232720Y-41588275D01*
X152170150Y-41669818D01*
X152170144Y-41669828D01*
X152052165Y-41874171D01*
X152052160Y-41874180D01*
X151961870Y-42092162D01*
X151900799Y-42320085D01*
X151870000Y-42554014D01*
X151870000Y-42789985D01*
X151900799Y-43023914D01*
X151961870Y-43251837D01*
X152052312Y-43470185D01*
X152059781Y-43539654D01*
X152028506Y-43602133D01*
X151968417Y-43637785D01*
X151898591Y-43635291D01*
X151890299Y-43632198D01*
X151693887Y-43550842D01*
X151652132Y-43539654D01*
X151472238Y-43491452D01*
X151434215Y-43486446D01*
X151244741Y-43461500D01*
X151244734Y-43461500D01*
X151015266Y-43461500D01*
X151015258Y-43461500D01*
X150798715Y-43490009D01*
X150787762Y-43491452D01*
X150694076Y-43516554D01*
X150566112Y-43550842D01*
X150566111Y-43550842D01*
X150369700Y-43632198D01*
X150300231Y-43639667D01*
X150237752Y-43608391D01*
X150202100Y-43548302D01*
X150204594Y-43478477D01*
X150207687Y-43470184D01*
X150298130Y-43251834D01*
X150359200Y-43023914D01*
X150389999Y-42789985D01*
X150390000Y-42789971D01*
X150390000Y-42554028D01*
X150389999Y-42554014D01*
X150359200Y-42320085D01*
X150298129Y-42092162D01*
X150207839Y-41874180D01*
X150207834Y-41874171D01*
X150089855Y-41669828D01*
X150089854Y-41669827D01*
X150027277Y-41588275D01*
X149305846Y-42309706D01*
X149298951Y-42293058D01*
X149211401Y-42162030D01*
X149099970Y-42050599D01*
X148968942Y-41963049D01*
X148952293Y-41956152D01*
X149673723Y-41234721D01*
X149592172Y-41172145D01*
X149592171Y-41172144D01*
X149387828Y-41054165D01*
X149387819Y-41054160D01*
X149169836Y-40963870D01*
X149169838Y-40963870D01*
X148941914Y-40902799D01*
X148707985Y-40872000D01*
X148472014Y-40872000D01*
X148238085Y-40902799D01*
X148010162Y-40963870D01*
X147792180Y-41054160D01*
X147792171Y-41054165D01*
X147587828Y-41172144D01*
X147587818Y-41172150D01*
X147506275Y-41234720D01*
X147506275Y-41234721D01*
X148227706Y-41956152D01*
X148211058Y-41963049D01*
X148080030Y-42050599D01*
X147968599Y-42162030D01*
X147881049Y-42293058D01*
X147874152Y-42309706D01*
X147152721Y-41588275D01*
X147152720Y-41588275D01*
X147090150Y-41669818D01*
X147090144Y-41669828D01*
X146972165Y-41874171D01*
X146972160Y-41874180D01*
X146881870Y-42092162D01*
X146820799Y-42320085D01*
X146790000Y-42554014D01*
X123500000Y-42554014D01*
X123500000Y-42500000D01*
X115000000Y-42500000D01*
X115000000Y-43000000D01*
X109347349Y-43000000D01*
X109374999Y-42789985D01*
X109375000Y-42789971D01*
X109375000Y-42554028D01*
X109374998Y-42554011D01*
X109363257Y-42464823D01*
X109344200Y-42320085D01*
X109283129Y-42092162D01*
X109192839Y-41874180D01*
X109192834Y-41874171D01*
X109074855Y-41669828D01*
X109074854Y-41669827D01*
X109012277Y-41588275D01*
X108290846Y-42309705D01*
X108283951Y-42293058D01*
X108196401Y-42162030D01*
X108084970Y-42050599D01*
X107953942Y-41963049D01*
X107937293Y-41956152D01*
X108658723Y-41234721D01*
X108577172Y-41172145D01*
X108577171Y-41172144D01*
X108372828Y-41054165D01*
X108372819Y-41054160D01*
X108154836Y-40963870D01*
X108154838Y-40963870D01*
X107926914Y-40902799D01*
X107692985Y-40872000D01*
X107457014Y-40872000D01*
X107223085Y-40902799D01*
X106995162Y-40963870D01*
X106777180Y-41054160D01*
X106777171Y-41054165D01*
X106572828Y-41172144D01*
X106572818Y-41172150D01*
X106491275Y-41234720D01*
X106491275Y-41234721D01*
X107212706Y-41956152D01*
X107196058Y-41963049D01*
X107065030Y-42050599D01*
X106953599Y-42162030D01*
X106866049Y-42293058D01*
X106859152Y-42309706D01*
X106137721Y-41588275D01*
X106137720Y-41588275D01*
X106075150Y-41669818D01*
X106075144Y-41669828D01*
X105957165Y-41874171D01*
X105957160Y-41874180D01*
X105866870Y-42092162D01*
X105805799Y-42320085D01*
X105775000Y-42554014D01*
X105775000Y-42789985D01*
X105805799Y-43023914D01*
X105866870Y-43251837D01*
X105957312Y-43470185D01*
X105964781Y-43539654D01*
X105933506Y-43602133D01*
X105873417Y-43637785D01*
X105803591Y-43635291D01*
X105795299Y-43632198D01*
X105598887Y-43550842D01*
X105557132Y-43539654D01*
X105377238Y-43491452D01*
X105339215Y-43486446D01*
X105149741Y-43461500D01*
X105149734Y-43461500D01*
X104920266Y-43461500D01*
X104920258Y-43461500D01*
X104703715Y-43490009D01*
X104692762Y-43491452D01*
X104599076Y-43516554D01*
X104471112Y-43550842D01*
X104471111Y-43550842D01*
X104274700Y-43632198D01*
X104205231Y-43639667D01*
X104142752Y-43608391D01*
X104107100Y-43548302D01*
X104109594Y-43478477D01*
X104112687Y-43470184D01*
X104203130Y-43251834D01*
X104264200Y-43023914D01*
X104294999Y-42789985D01*
X104295000Y-42789971D01*
X104295000Y-42554028D01*
X104294999Y-42554014D01*
X104264200Y-42320085D01*
X104203129Y-42092162D01*
X104112839Y-41874180D01*
X104112834Y-41874171D01*
X103994855Y-41669828D01*
X103994854Y-41669827D01*
X103932277Y-41588275D01*
X103210846Y-42309706D01*
X103203951Y-42293058D01*
X103116401Y-42162030D01*
X103004970Y-42050599D01*
X102873942Y-41963049D01*
X102857293Y-41956152D01*
X103578723Y-41234721D01*
X103497172Y-41172145D01*
X103497171Y-41172144D01*
X103292828Y-41054165D01*
X103292819Y-41054160D01*
X103074836Y-40963870D01*
X103074838Y-40963870D01*
X102846914Y-40902799D01*
X102612985Y-40872000D01*
X102377014Y-40872000D01*
X102143085Y-40902799D01*
X101915162Y-40963870D01*
X101697180Y-41054160D01*
X101697171Y-41054165D01*
X101492828Y-41172144D01*
X101492818Y-41172150D01*
X101411275Y-41234720D01*
X101411275Y-41234721D01*
X102132706Y-41956152D01*
X102116058Y-41963049D01*
X101985030Y-42050599D01*
X101873599Y-42162030D01*
X101786049Y-42293058D01*
X101779152Y-42309706D01*
X101057721Y-41588275D01*
X101057720Y-41588275D01*
X100995150Y-41669818D01*
X100995144Y-41669828D01*
X100877165Y-41874171D01*
X100877160Y-41874180D01*
X100786870Y-42092162D01*
X100725799Y-42320085D01*
X100695000Y-42554014D01*
X99700500Y-42554014D01*
X99700500Y-40224500D01*
X99720185Y-40157461D01*
X99772989Y-40111706D01*
X99824500Y-40100500D01*
X198575500Y-40100500D01*
X198642539Y-40120185D01*
G37*
G04 #@! TD.AperFunction*
M02*
