G04 #@! TF.GenerationSoftware,KiCad,Pcbnew,7.0.9*
G04 #@! TF.CreationDate,2023-11-18T11:05:28-05:00*
G04 #@! TF.ProjectId,qsd2,71736432-2e6b-4696-9361-645f70636258,rev?*
G04 #@! TF.SameCoordinates,Original*
G04 #@! TF.FileFunction,Legend,Bot*
G04 #@! TF.FilePolarity,Positive*
%FSLAX46Y46*%
G04 Gerber Fmt 4.6, Leading zero omitted, Abs format (unit mm)*
G04 Created by KiCad (PCBNEW 7.0.9) date 2023-11-18 11:05:28*
%MOMM*%
%LPD*%
G01*
G04 APERTURE LIST*
%ADD10C,0.150000*%
%ADD11C,0.120000*%
G04 APERTURE END LIST*
D10*
X150279580Y-58123333D02*
X150327200Y-58075714D01*
X150327200Y-58075714D02*
X150374819Y-57932857D01*
X150374819Y-57932857D02*
X150374819Y-57837619D01*
X150374819Y-57837619D02*
X150327200Y-57694762D01*
X150327200Y-57694762D02*
X150231961Y-57599524D01*
X150231961Y-57599524D02*
X150136723Y-57551905D01*
X150136723Y-57551905D02*
X149946247Y-57504286D01*
X149946247Y-57504286D02*
X149803390Y-57504286D01*
X149803390Y-57504286D02*
X149612914Y-57551905D01*
X149612914Y-57551905D02*
X149517676Y-57599524D01*
X149517676Y-57599524D02*
X149422438Y-57694762D01*
X149422438Y-57694762D02*
X149374819Y-57837619D01*
X149374819Y-57837619D02*
X149374819Y-57932857D01*
X149374819Y-57932857D02*
X149422438Y-58075714D01*
X149422438Y-58075714D02*
X149470057Y-58123333D01*
X150374819Y-59075714D02*
X150374819Y-58504286D01*
X150374819Y-58790000D02*
X149374819Y-58790000D01*
X149374819Y-58790000D02*
X149517676Y-58694762D01*
X149517676Y-58694762D02*
X149612914Y-58599524D01*
X149612914Y-58599524D02*
X149660533Y-58504286D01*
X149384819Y-59717143D02*
X149384819Y-59812381D01*
X149384819Y-59812381D02*
X149432438Y-59907619D01*
X149432438Y-59907619D02*
X149480057Y-59955238D01*
X149480057Y-59955238D02*
X149575295Y-60002857D01*
X149575295Y-60002857D02*
X149765771Y-60050476D01*
X149765771Y-60050476D02*
X150003866Y-60050476D01*
X150003866Y-60050476D02*
X150194342Y-60002857D01*
X150194342Y-60002857D02*
X150289580Y-59955238D01*
X150289580Y-59955238D02*
X150337200Y-59907619D01*
X150337200Y-59907619D02*
X150384819Y-59812381D01*
X150384819Y-59812381D02*
X150384819Y-59717143D01*
X150384819Y-59717143D02*
X150337200Y-59621905D01*
X150337200Y-59621905D02*
X150289580Y-59574286D01*
X150289580Y-59574286D02*
X150194342Y-59526667D01*
X150194342Y-59526667D02*
X150003866Y-59479048D01*
X150003866Y-59479048D02*
X149765771Y-59479048D01*
X149765771Y-59479048D02*
X149575295Y-59526667D01*
X149575295Y-59526667D02*
X149480057Y-59574286D01*
X149480057Y-59574286D02*
X149432438Y-59621905D01*
X149432438Y-59621905D02*
X149384819Y-59717143D01*
X150289580Y-60479048D02*
X150337200Y-60526667D01*
X150337200Y-60526667D02*
X150384819Y-60479048D01*
X150384819Y-60479048D02*
X150337200Y-60431429D01*
X150337200Y-60431429D02*
X150289580Y-60479048D01*
X150289580Y-60479048D02*
X150384819Y-60479048D01*
X150384819Y-61479047D02*
X150384819Y-60907619D01*
X150384819Y-61193333D02*
X149384819Y-61193333D01*
X149384819Y-61193333D02*
X149527676Y-61098095D01*
X149527676Y-61098095D02*
X149622914Y-61002857D01*
X149622914Y-61002857D02*
X149670533Y-60907619D01*
X149718152Y-62336190D02*
X150384819Y-62336190D01*
X149718152Y-61907619D02*
X150241961Y-61907619D01*
X150241961Y-61907619D02*
X150337200Y-61955238D01*
X150337200Y-61955238D02*
X150384819Y-62050476D01*
X150384819Y-62050476D02*
X150384819Y-62193333D01*
X150384819Y-62193333D02*
X150337200Y-62288571D01*
X150337200Y-62288571D02*
X150289580Y-62336190D01*
X149861009Y-63145714D02*
X149861009Y-62812381D01*
X150384819Y-62812381D02*
X149384819Y-62812381D01*
X149384819Y-62812381D02*
X149384819Y-63288571D01*
X145417857Y-65609580D02*
X145465476Y-65657200D01*
X145465476Y-65657200D02*
X145608333Y-65704819D01*
X145608333Y-65704819D02*
X145703571Y-65704819D01*
X145703571Y-65704819D02*
X145846428Y-65657200D01*
X145846428Y-65657200D02*
X145941666Y-65561961D01*
X145941666Y-65561961D02*
X145989285Y-65466723D01*
X145989285Y-65466723D02*
X146036904Y-65276247D01*
X146036904Y-65276247D02*
X146036904Y-65133390D01*
X146036904Y-65133390D02*
X145989285Y-64942914D01*
X145989285Y-64942914D02*
X145941666Y-64847676D01*
X145941666Y-64847676D02*
X145846428Y-64752438D01*
X145846428Y-64752438D02*
X145703571Y-64704819D01*
X145703571Y-64704819D02*
X145608333Y-64704819D01*
X145608333Y-64704819D02*
X145465476Y-64752438D01*
X145465476Y-64752438D02*
X145417857Y-64800057D01*
X144465476Y-65704819D02*
X145036904Y-65704819D01*
X144751190Y-65704819D02*
X144751190Y-64704819D01*
X144751190Y-64704819D02*
X144846428Y-64847676D01*
X144846428Y-64847676D02*
X144941666Y-64942914D01*
X144941666Y-64942914D02*
X145036904Y-64990533D01*
X143846428Y-64704819D02*
X143751190Y-64704819D01*
X143751190Y-64704819D02*
X143655952Y-64752438D01*
X143655952Y-64752438D02*
X143608333Y-64800057D01*
X143608333Y-64800057D02*
X143560714Y-64895295D01*
X143560714Y-64895295D02*
X143513095Y-65085771D01*
X143513095Y-65085771D02*
X143513095Y-65323866D01*
X143513095Y-65323866D02*
X143560714Y-65514342D01*
X143560714Y-65514342D02*
X143608333Y-65609580D01*
X143608333Y-65609580D02*
X143655952Y-65657200D01*
X143655952Y-65657200D02*
X143751190Y-65704819D01*
X143751190Y-65704819D02*
X143846428Y-65704819D01*
X143846428Y-65704819D02*
X143941666Y-65657200D01*
X143941666Y-65657200D02*
X143989285Y-65609580D01*
X143989285Y-65609580D02*
X144036904Y-65514342D01*
X144036904Y-65514342D02*
X144084523Y-65323866D01*
X144084523Y-65323866D02*
X144084523Y-65085771D01*
X144084523Y-65085771D02*
X144036904Y-64895295D01*
X144036904Y-64895295D02*
X143989285Y-64800057D01*
X143989285Y-64800057D02*
X143941666Y-64752438D01*
X143941666Y-64752438D02*
X143846428Y-64704819D01*
X142617856Y-64704819D02*
X142522618Y-64704819D01*
X142522618Y-64704819D02*
X142427380Y-64752438D01*
X142427380Y-64752438D02*
X142379761Y-64800057D01*
X142379761Y-64800057D02*
X142332142Y-64895295D01*
X142332142Y-64895295D02*
X142284523Y-65085771D01*
X142284523Y-65085771D02*
X142284523Y-65323866D01*
X142284523Y-65323866D02*
X142332142Y-65514342D01*
X142332142Y-65514342D02*
X142379761Y-65609580D01*
X142379761Y-65609580D02*
X142427380Y-65657200D01*
X142427380Y-65657200D02*
X142522618Y-65704819D01*
X142522618Y-65704819D02*
X142617856Y-65704819D01*
X142617856Y-65704819D02*
X142713094Y-65657200D01*
X142713094Y-65657200D02*
X142760713Y-65609580D01*
X142760713Y-65609580D02*
X142808332Y-65514342D01*
X142808332Y-65514342D02*
X142855951Y-65323866D01*
X142855951Y-65323866D02*
X142855951Y-65085771D01*
X142855951Y-65085771D02*
X142808332Y-64895295D01*
X142808332Y-64895295D02*
X142760713Y-64800057D01*
X142760713Y-64800057D02*
X142713094Y-64752438D01*
X142713094Y-64752438D02*
X142617856Y-64704819D01*
X141855951Y-65609580D02*
X141808332Y-65657200D01*
X141808332Y-65657200D02*
X141855951Y-65704819D01*
X141855951Y-65704819D02*
X141903570Y-65657200D01*
X141903570Y-65657200D02*
X141855951Y-65609580D01*
X141855951Y-65609580D02*
X141855951Y-65704819D01*
X140855952Y-65704819D02*
X141427380Y-65704819D01*
X141141666Y-65704819D02*
X141141666Y-64704819D01*
X141141666Y-64704819D02*
X141236904Y-64847676D01*
X141236904Y-64847676D02*
X141332142Y-64942914D01*
X141332142Y-64942914D02*
X141427380Y-64990533D01*
X139998809Y-65038152D02*
X139998809Y-65704819D01*
X140427380Y-65038152D02*
X140427380Y-65561961D01*
X140427380Y-65561961D02*
X140379761Y-65657200D01*
X140379761Y-65657200D02*
X140284523Y-65704819D01*
X140284523Y-65704819D02*
X140141666Y-65704819D01*
X140141666Y-65704819D02*
X140046428Y-65657200D01*
X140046428Y-65657200D02*
X139998809Y-65609580D01*
X139189285Y-65181009D02*
X139522618Y-65181009D01*
X139522618Y-65704819D02*
X139522618Y-64704819D01*
X139522618Y-64704819D02*
X139046428Y-64704819D01*
X133759580Y-55457142D02*
X133807200Y-55409523D01*
X133807200Y-55409523D02*
X133854819Y-55266666D01*
X133854819Y-55266666D02*
X133854819Y-55171428D01*
X133854819Y-55171428D02*
X133807200Y-55028571D01*
X133807200Y-55028571D02*
X133711961Y-54933333D01*
X133711961Y-54933333D02*
X133616723Y-54885714D01*
X133616723Y-54885714D02*
X133426247Y-54838095D01*
X133426247Y-54838095D02*
X133283390Y-54838095D01*
X133283390Y-54838095D02*
X133092914Y-54885714D01*
X133092914Y-54885714D02*
X132997676Y-54933333D01*
X132997676Y-54933333D02*
X132902438Y-55028571D01*
X132902438Y-55028571D02*
X132854819Y-55171428D01*
X132854819Y-55171428D02*
X132854819Y-55266666D01*
X132854819Y-55266666D02*
X132902438Y-55409523D01*
X132902438Y-55409523D02*
X132950057Y-55457142D01*
X132854819Y-55790476D02*
X132854819Y-56409523D01*
X132854819Y-56409523D02*
X133235771Y-56076190D01*
X133235771Y-56076190D02*
X133235771Y-56219047D01*
X133235771Y-56219047D02*
X133283390Y-56314285D01*
X133283390Y-56314285D02*
X133331009Y-56361904D01*
X133331009Y-56361904D02*
X133426247Y-56409523D01*
X133426247Y-56409523D02*
X133664342Y-56409523D01*
X133664342Y-56409523D02*
X133759580Y-56361904D01*
X133759580Y-56361904D02*
X133807200Y-56314285D01*
X133807200Y-56314285D02*
X133854819Y-56219047D01*
X133854819Y-56219047D02*
X133854819Y-55933333D01*
X133854819Y-55933333D02*
X133807200Y-55838095D01*
X133807200Y-55838095D02*
X133759580Y-55790476D01*
X133854819Y-57361904D02*
X133854819Y-56790476D01*
X133854819Y-57076190D02*
X132854819Y-57076190D01*
X132854819Y-57076190D02*
X132997676Y-56980952D01*
X132997676Y-56980952D02*
X133092914Y-56885714D01*
X133092914Y-56885714D02*
X133140533Y-56790476D01*
X136554819Y-54457143D02*
X136554819Y-54552381D01*
X136554819Y-54552381D02*
X136602438Y-54647619D01*
X136602438Y-54647619D02*
X136650057Y-54695238D01*
X136650057Y-54695238D02*
X136745295Y-54742857D01*
X136745295Y-54742857D02*
X136935771Y-54790476D01*
X136935771Y-54790476D02*
X137173866Y-54790476D01*
X137173866Y-54790476D02*
X137364342Y-54742857D01*
X137364342Y-54742857D02*
X137459580Y-54695238D01*
X137459580Y-54695238D02*
X137507200Y-54647619D01*
X137507200Y-54647619D02*
X137554819Y-54552381D01*
X137554819Y-54552381D02*
X137554819Y-54457143D01*
X137554819Y-54457143D02*
X137507200Y-54361905D01*
X137507200Y-54361905D02*
X137459580Y-54314286D01*
X137459580Y-54314286D02*
X137364342Y-54266667D01*
X137364342Y-54266667D02*
X137173866Y-54219048D01*
X137173866Y-54219048D02*
X136935771Y-54219048D01*
X136935771Y-54219048D02*
X136745295Y-54266667D01*
X136745295Y-54266667D02*
X136650057Y-54314286D01*
X136650057Y-54314286D02*
X136602438Y-54361905D01*
X136602438Y-54361905D02*
X136554819Y-54457143D01*
X137459580Y-55219048D02*
X137507200Y-55266667D01*
X137507200Y-55266667D02*
X137554819Y-55219048D01*
X137554819Y-55219048D02*
X137507200Y-55171429D01*
X137507200Y-55171429D02*
X137459580Y-55219048D01*
X137459580Y-55219048D02*
X137554819Y-55219048D01*
X137554819Y-56219047D02*
X137554819Y-55647619D01*
X137554819Y-55933333D02*
X136554819Y-55933333D01*
X136554819Y-55933333D02*
X136697676Y-55838095D01*
X136697676Y-55838095D02*
X136792914Y-55742857D01*
X136792914Y-55742857D02*
X136840533Y-55647619D01*
X136888152Y-57076190D02*
X137554819Y-57076190D01*
X136888152Y-56647619D02*
X137411961Y-56647619D01*
X137411961Y-56647619D02*
X137507200Y-56695238D01*
X137507200Y-56695238D02*
X137554819Y-56790476D01*
X137554819Y-56790476D02*
X137554819Y-56933333D01*
X137554819Y-56933333D02*
X137507200Y-57028571D01*
X137507200Y-57028571D02*
X137459580Y-57076190D01*
X137031009Y-57885714D02*
X137031009Y-57552381D01*
X137554819Y-57552381D02*
X136554819Y-57552381D01*
X136554819Y-57552381D02*
X136554819Y-58028571D01*
X167925819Y-71939642D02*
X167449628Y-71606309D01*
X167925819Y-71368214D02*
X166925819Y-71368214D01*
X166925819Y-71368214D02*
X166925819Y-71749166D01*
X166925819Y-71749166D02*
X166973438Y-71844404D01*
X166973438Y-71844404D02*
X167021057Y-71892023D01*
X167021057Y-71892023D02*
X167116295Y-71939642D01*
X167116295Y-71939642D02*
X167259152Y-71939642D01*
X167259152Y-71939642D02*
X167354390Y-71892023D01*
X167354390Y-71892023D02*
X167402009Y-71844404D01*
X167402009Y-71844404D02*
X167449628Y-71749166D01*
X167449628Y-71749166D02*
X167449628Y-71368214D01*
X167925819Y-72892023D02*
X167925819Y-72320595D01*
X167925819Y-72606309D02*
X166925819Y-72606309D01*
X166925819Y-72606309D02*
X167068676Y-72511071D01*
X167068676Y-72511071D02*
X167163914Y-72415833D01*
X167163914Y-72415833D02*
X167211533Y-72320595D01*
X166925819Y-73749166D02*
X166925819Y-73558690D01*
X166925819Y-73558690D02*
X166973438Y-73463452D01*
X166973438Y-73463452D02*
X167021057Y-73415833D01*
X167021057Y-73415833D02*
X167163914Y-73320595D01*
X167163914Y-73320595D02*
X167354390Y-73272976D01*
X167354390Y-73272976D02*
X167735342Y-73272976D01*
X167735342Y-73272976D02*
X167830580Y-73320595D01*
X167830580Y-73320595D02*
X167878200Y-73368214D01*
X167878200Y-73368214D02*
X167925819Y-73463452D01*
X167925819Y-73463452D02*
X167925819Y-73653928D01*
X167925819Y-73653928D02*
X167878200Y-73749166D01*
X167878200Y-73749166D02*
X167830580Y-73796785D01*
X167830580Y-73796785D02*
X167735342Y-73844404D01*
X167735342Y-73844404D02*
X167497247Y-73844404D01*
X167497247Y-73844404D02*
X167402009Y-73796785D01*
X167402009Y-73796785D02*
X167354390Y-73749166D01*
X167354390Y-73749166D02*
X167306771Y-73653928D01*
X167306771Y-73653928D02*
X167306771Y-73463452D01*
X167306771Y-73463452D02*
X167354390Y-73368214D01*
X167354390Y-73368214D02*
X167402009Y-73320595D01*
X167402009Y-73320595D02*
X167497247Y-73272976D01*
X170565819Y-72534881D02*
X170565819Y-72630119D01*
X170565819Y-72630119D02*
X170613438Y-72725357D01*
X170613438Y-72725357D02*
X170661057Y-72772976D01*
X170661057Y-72772976D02*
X170756295Y-72820595D01*
X170756295Y-72820595D02*
X170946771Y-72868214D01*
X170946771Y-72868214D02*
X171184866Y-72868214D01*
X171184866Y-72868214D02*
X171375342Y-72820595D01*
X171375342Y-72820595D02*
X171470580Y-72772976D01*
X171470580Y-72772976D02*
X171518200Y-72725357D01*
X171518200Y-72725357D02*
X171565819Y-72630119D01*
X171565819Y-72630119D02*
X171565819Y-72534881D01*
X171565819Y-72534881D02*
X171518200Y-72439643D01*
X171518200Y-72439643D02*
X171470580Y-72392024D01*
X171470580Y-72392024D02*
X171375342Y-72344405D01*
X171375342Y-72344405D02*
X171184866Y-72296786D01*
X171184866Y-72296786D02*
X170946771Y-72296786D01*
X170946771Y-72296786D02*
X170756295Y-72344405D01*
X170756295Y-72344405D02*
X170661057Y-72392024D01*
X170661057Y-72392024D02*
X170613438Y-72439643D01*
X170613438Y-72439643D02*
X170565819Y-72534881D01*
X135724819Y-60657142D02*
X135248628Y-60323809D01*
X135724819Y-60085714D02*
X134724819Y-60085714D01*
X134724819Y-60085714D02*
X134724819Y-60466666D01*
X134724819Y-60466666D02*
X134772438Y-60561904D01*
X134772438Y-60561904D02*
X134820057Y-60609523D01*
X134820057Y-60609523D02*
X134915295Y-60657142D01*
X134915295Y-60657142D02*
X135058152Y-60657142D01*
X135058152Y-60657142D02*
X135153390Y-60609523D01*
X135153390Y-60609523D02*
X135201009Y-60561904D01*
X135201009Y-60561904D02*
X135248628Y-60466666D01*
X135248628Y-60466666D02*
X135248628Y-60085714D01*
X134820057Y-61038095D02*
X134772438Y-61085714D01*
X134772438Y-61085714D02*
X134724819Y-61180952D01*
X134724819Y-61180952D02*
X134724819Y-61419047D01*
X134724819Y-61419047D02*
X134772438Y-61514285D01*
X134772438Y-61514285D02*
X134820057Y-61561904D01*
X134820057Y-61561904D02*
X134915295Y-61609523D01*
X134915295Y-61609523D02*
X135010533Y-61609523D01*
X135010533Y-61609523D02*
X135153390Y-61561904D01*
X135153390Y-61561904D02*
X135724819Y-60990476D01*
X135724819Y-60990476D02*
X135724819Y-61609523D01*
X135153390Y-62180952D02*
X135105771Y-62085714D01*
X135105771Y-62085714D02*
X135058152Y-62038095D01*
X135058152Y-62038095D02*
X134962914Y-61990476D01*
X134962914Y-61990476D02*
X134915295Y-61990476D01*
X134915295Y-61990476D02*
X134820057Y-62038095D01*
X134820057Y-62038095D02*
X134772438Y-62085714D01*
X134772438Y-62085714D02*
X134724819Y-62180952D01*
X134724819Y-62180952D02*
X134724819Y-62371428D01*
X134724819Y-62371428D02*
X134772438Y-62466666D01*
X134772438Y-62466666D02*
X134820057Y-62514285D01*
X134820057Y-62514285D02*
X134915295Y-62561904D01*
X134915295Y-62561904D02*
X134962914Y-62561904D01*
X134962914Y-62561904D02*
X135058152Y-62514285D01*
X135058152Y-62514285D02*
X135105771Y-62466666D01*
X135105771Y-62466666D02*
X135153390Y-62371428D01*
X135153390Y-62371428D02*
X135153390Y-62180952D01*
X135153390Y-62180952D02*
X135201009Y-62085714D01*
X135201009Y-62085714D02*
X135248628Y-62038095D01*
X135248628Y-62038095D02*
X135343866Y-61990476D01*
X135343866Y-61990476D02*
X135534342Y-61990476D01*
X135534342Y-61990476D02*
X135629580Y-62038095D01*
X135629580Y-62038095D02*
X135677200Y-62085714D01*
X135677200Y-62085714D02*
X135724819Y-62180952D01*
X135724819Y-62180952D02*
X135724819Y-62371428D01*
X135724819Y-62371428D02*
X135677200Y-62466666D01*
X135677200Y-62466666D02*
X135629580Y-62514285D01*
X135629580Y-62514285D02*
X135534342Y-62561904D01*
X135534342Y-62561904D02*
X135343866Y-62561904D01*
X135343866Y-62561904D02*
X135248628Y-62514285D01*
X135248628Y-62514285D02*
X135201009Y-62466666D01*
X135201009Y-62466666D02*
X135153390Y-62371428D01*
X132084819Y-61180952D02*
X132084819Y-60609524D01*
X132084819Y-60895238D02*
X131084819Y-60895238D01*
X131084819Y-60895238D02*
X131227676Y-60800000D01*
X131227676Y-60800000D02*
X131322914Y-60704762D01*
X131322914Y-60704762D02*
X131370533Y-60609524D01*
X132084819Y-61609524D02*
X131084819Y-61609524D01*
X131703866Y-61704762D02*
X132084819Y-61990476D01*
X131418152Y-61990476D02*
X131799104Y-61609524D01*
D11*
X152640000Y-59728748D02*
X152640000Y-61151252D01*
X150820000Y-59728748D02*
X150820000Y-61151252D01*
X141715000Y-62861252D02*
X141715000Y-61438748D01*
X143535000Y-62861252D02*
X143535000Y-61438748D01*
X136160000Y-55388748D02*
X136160000Y-56811252D01*
X134340000Y-55388748D02*
X134340000Y-56811252D01*
X170201000Y-71855436D02*
X170201000Y-73309564D01*
X168381000Y-71855436D02*
X168381000Y-73309564D01*
X132540000Y-62027064D02*
X132540000Y-60572936D01*
X134360000Y-62027064D02*
X134360000Y-60572936D01*
M02*
